<svg width="889" height="501" viewBox="0 0 889 501" fill="none" xmlns="http://www.w3.org/2000/svg">
<mask id="mask0_404_41" style="mask-type:alpha" maskUnits="userSpaceOnUse" x="0" y="0" width="634" height="318">
<rect width="634" height="318" fill="#D9D9D9"/>
</mask>
<g mask="url(#mask0_404_41)">
<path d="M454.758 -332.932L454.469 -331.992L625.078 -272.893L625.078 -424.005L625.078 -486.287L518.899 -521.587L453.891 -333.294L454.758 -332.932ZM-22.688 -243.885L-22.688 -127.495L350.24 -3.65416L-22.688 110.204L-22.688 298.281L625.078 81.7036L625.078 -73.3871L531.828 -105.794L-22.688 -297.849L-22.688 -243.885ZM-22.688 -518.405L47.1592 -495.98L103.644 -659.534L-22.688 -702.792L-22.688 -518.405ZM316.363 -414.818L370.32 -570.921L260.529 -607.452L205.561 -448.238L316.363 -414.818Z" fill="#3B8E9B"/>
</g>
<path d="M65.7641 129.318L55.4658 132.52L63.069 157.059C65.1175 163.671 63.6058 167.626 59.3617 168.945C55.18 170.245 51.5737 167.882 49.663 161.715L39.4272 164.897C42.8939 176.086 52.8688 181.558 62.3557 178.608C73.8399 175.038 76.9719 165.492 73.3673 153.858L65.7641 129.318Z" fill="white"/>
<path d="M74.0374 126.746L87.4316 169.976L119.949 159.867L116.955 150.203L94.6735 157.131L92.3689 149.693L110.968 143.91L108.171 134.883L89.5719 140.665L87.2673 133.227L109.549 126.3L106.555 116.637L74.0374 126.746Z" fill="white"/>
<path d="M130.616 108.32C120.942 111.327 115.14 119.543 117.582 127.427C120.557 137.026 132.477 135.969 139.316 135.515C143.544 135.246 147.397 135.094 148.244 137.828C148.815 139.671 147.74 142.166 143.184 143.582C134.758 146.202 131.82 139.588 131.82 139.588L121.646 142.751C123.734 149.49 132.125 156.918 145.419 152.784C155.343 149.699 160.863 142.338 158.302 134.073C155.348 124.537 145.214 125.178 137.984 125.475C131.5 125.748 128.435 125.795 127.785 123.697C127.017 121.218 130.329 118.655 133.387 117.704C137.756 116.346 141.159 118.494 141.828 120.655L152.002 117.492C149.914 110.754 141.663 104.885 130.616 108.32Z" fill="white"/>
<path d="M172.063 95.4342C162.389 98.4418 156.586 106.658 159.029 114.541C162.003 124.141 173.924 123.083 180.763 122.63C184.99 122.361 188.843 122.208 189.69 124.942C190.262 126.786 189.187 129.28 184.631 130.697C176.205 133.316 173.266 126.703 173.266 126.703L163.093 129.866C165.181 136.604 173.572 144.032 186.866 139.899C196.79 136.814 202.31 129.452 199.749 121.188C196.794 111.652 186.661 112.293 179.431 112.589C172.947 112.863 169.882 112.909 169.232 110.811C168.464 108.332 171.775 105.769 174.834 104.818C179.203 103.46 182.605 105.608 183.275 107.77L193.448 104.607C191.361 97.8681 183.11 91.9997 172.063 95.4342Z" fill="white"/>
<path d="M197.768 88.279L211.162 131.509L243.68 121.4L240.686 111.736L218.404 118.664L216.1 111.225L234.699 105.443L231.902 96.4156L213.303 102.198L210.998 94.7599L233.28 87.8327L230.286 78.1695L197.768 88.279Z" fill="white"/>
<path d="M292.737 58.7537L279.88 62.751L269.542 86.8045L263.652 67.796L253.417 70.9783L266.811 114.208L277.047 111.026L274.033 101.299L278.814 90.8916L295.958 105.147L309.252 101.014L283.53 80.7135L292.737 58.7537Z" fill="white"/>
<path d="M318.664 49.8569C306.493 53.6407 299.889 66.7759 303.69 79.0457C307.512 91.3789 320.36 98.3965 332.531 94.6127C344.577 90.8678 351.326 77.7573 347.505 65.424C343.703 53.1543 330.71 46.1119 318.664 49.8569ZM321.678 59.5837C328.481 57.4686 335.851 61.3803 338.018 68.3734C340.204 75.4301 336.34 82.8345 329.537 84.9496C322.609 87.1034 315.239 83.1917 313.052 76.1351C310.886 69.142 314.75 61.7375 321.678 59.5837Z" fill="white"/>
<path d="M386.846 29.496L373.989 33.4933L363.651 57.5468L357.761 38.5383L347.525 41.7206L360.919 84.9507L371.155 81.7684L368.142 72.0416L372.923 61.6339L390.067 75.889L403.361 71.7559L377.638 51.4558L386.846 29.496Z" fill="white"/>
<path d="M59.684 215.61L60.4209 215.381C62.0155 214.885 63.0248 214.381 63.4489 213.869C63.8729 213.357 63.9487 212.661 63.6762 211.781C63.3837 210.837 62.8916 210.261 62.1998 210.051C61.516 209.839 60.4131 209.97 58.891 210.443L58.1541 210.672L59.684 215.61ZM60.234 218.026L62.6977 225.978L60.0037 226.815L54.514 209.097L58.8629 207.745C60.1515 207.344 61.1203 207.123 61.7693 207.08C62.4239 207.027 63.0266 207.092 63.5776 207.274C64.2608 207.513 64.8682 207.934 65.3998 208.539C65.9289 209.135 66.3234 209.853 66.5834 210.692C66.8434 211.531 66.9263 212.354 66.8322 213.162C66.7381 213.97 66.4757 214.662 66.045 215.238C65.694 215.701 65.2337 216.096 64.6642 216.423C64.1026 216.748 63.1776 217.111 61.889 217.512L61.3212 217.688L60.234 218.026Z" fill="white"/>
<path d="M74.6258 211.694C74.6727 210.848 74.8695 210.172 75.216 209.666C75.5706 209.158 76.0902 208.798 76.7748 208.585C77.1452 208.47 77.5214 208.401 77.9032 208.38C78.2931 208.356 78.6875 208.375 79.0863 208.437L78.834 210.957C78.5585 210.865 78.2766 210.825 77.9884 210.835C77.7056 210.834 77.4032 210.884 77.0811 210.984C76.2113 211.254 75.6959 211.799 75.5349 212.619C75.3713 213.431 75.5446 214.659 76.0545 216.305L77.6145 221.34L74.993 222.155L71.4307 210.658L74.0521 209.843L74.6258 211.694Z" fill="white"/>
<path d="M93.8093 210.056C93.4794 208.991 92.8583 208.198 91.9463 207.676C91.0318 207.147 90.0792 207.036 89.0886 207.344C88.1061 207.649 87.3835 208.281 86.9209 209.238C86.4638 210.186 86.4003 211.192 86.7303 212.257C87.0602 213.322 87.6825 214.119 88.5971 214.648C89.5171 215.167 90.4685 215.274 91.451 214.969C92.4335 214.663 93.1533 214.037 93.6104 213.09C94.073 212.132 94.1393 211.121 93.8093 210.056ZM83.9564 213.092C83.6964 212.253 83.6084 211.414 83.6925 210.574C83.7822 209.723 84.035 208.915 84.451 208.149C84.8614 207.393 85.4016 206.743 86.0717 206.199C86.7418 205.654 87.4957 205.252 88.3332 204.991C89.195 204.723 90.0518 204.625 90.9039 204.696C91.764 204.765 92.5885 205.004 93.3775 205.413C94.164 205.815 94.8293 206.338 95.3734 206.982C95.9175 207.627 96.3158 208.357 96.5682 209.172C96.8307 210.019 96.9199 210.862 96.8358 211.702C96.7598 212.54 96.5125 213.337 96.094 214.096C95.6534 214.896 95.098 215.568 94.4279 216.113C93.7603 216.665 93.0037 217.073 92.1581 217.336C91.3285 217.594 90.4825 217.684 89.6199 217.608C88.7598 217.539 87.9406 217.303 87.1621 216.899C86.3731 216.49 85.7065 215.963 85.1625 215.318C84.6184 214.673 84.2164 213.932 83.9564 213.092Z" fill="white"/>
<path d="M110.032 204.932C109.665 203.746 109.101 202.909 108.34 202.42C107.588 201.929 106.716 201.837 105.725 202.145C104.735 202.453 104.06 203.039 103.701 203.902C103.347 204.755 103.357 205.787 103.732 206.997C104.11 208.216 104.675 209.07 105.428 209.562C106.18 210.053 107.056 210.144 108.054 209.833C108.997 209.54 109.651 208.943 110.016 208.042C110.389 207.139 110.395 206.102 110.032 204.932ZM114.149 209.199C114.844 211.442 114.886 213.158 114.274 214.348C113.665 215.546 112.302 216.474 110.184 217.132C108.605 217.623 107.241 217.68 106.091 217.303C104.944 216.935 104.191 216.2 103.832 215.1L106.643 214.213C106.836 214.692 107.182 214.996 107.681 215.124C108.179 215.252 108.807 215.198 109.564 214.963C110.684 214.615 111.413 214.119 111.752 213.474C112.091 212.829 112.085 211.928 111.736 210.772L111.287 209.239C111.025 210.046 110.63 210.709 110.102 211.227C109.582 211.742 108.919 212.125 108.114 212.376C106.495 212.879 105.047 212.723 103.771 211.908C102.499 211.083 101.565 209.706 100.968 207.777C100.4 205.946 100.418 204.321 101.021 202.904C101.621 201.479 102.686 200.529 104.216 200.053C105.151 199.763 106.009 199.713 106.792 199.903C107.581 200.082 108.242 200.492 108.775 201.131L108.194 199.255L110.815 198.44L114.149 209.199Z" fill="white"/>
<path d="M120.101 197.556C120.148 196.71 120.345 196.034 120.691 195.529C121.046 195.02 121.565 194.66 122.25 194.447C122.62 194.332 122.997 194.263 123.378 194.242C123.768 194.218 124.163 194.237 124.562 194.299L124.309 196.819C124.034 196.727 123.752 196.687 123.464 196.697C123.181 196.696 122.878 196.746 122.556 196.846C121.687 197.117 121.171 197.662 121.01 198.481C120.847 199.293 121.02 200.521 121.53 202.167L123.09 207.202L120.468 208.017L116.906 196.52L119.527 195.705L120.101 197.556Z" fill="white"/>
<path d="M142.827 201.066L140.205 201.881L139.744 200.392C139.482 201.199 139.087 201.862 138.558 202.38C138.038 202.895 137.376 203.278 136.57 203.529C134.951 204.032 133.504 203.876 132.227 203.061C130.956 202.236 130.022 200.859 129.424 198.93C128.857 197.099 128.874 195.475 129.477 194.058C130.077 192.633 131.143 191.682 132.673 191.206C133.607 190.916 134.466 190.866 135.249 191.056C136.037 191.235 136.698 191.645 137.232 192.284L136.65 190.408L139.272 189.593L142.827 201.066ZM138.489 196.086C138.121 194.9 137.557 194.062 136.797 193.573C136.044 193.082 135.172 192.99 134.182 193.298C133.191 193.606 132.516 194.192 132.157 195.055C131.803 195.908 131.814 196.94 132.189 198.15C132.566 199.369 133.131 200.224 133.884 200.715C134.637 201.206 135.512 201.297 136.511 200.986C137.453 200.693 138.107 200.096 138.472 199.196C138.846 198.292 138.851 197.255 138.489 196.086Z" fill="white"/>
<path d="M151.546 198.355L148.925 199.17L145.37 187.697L147.834 186.931L148.415 188.807C148.691 187.845 149.103 187.08 149.651 186.512C150.205 185.933 150.932 185.503 151.834 185.223C152.728 184.945 153.528 184.904 154.234 185.1C154.936 185.289 155.56 185.719 156.103 186.39C156.462 185.412 156.924 184.636 157.488 184.062C158.06 183.486 158.781 183.063 159.65 182.793C160.408 182.557 161.112 182.493 161.763 182.6C162.412 182.699 162.976 182.966 163.455 183.401C163.677 183.606 163.874 183.872 164.046 184.199C164.226 184.524 164.416 185.009 164.616 185.654L164.901 186.574L167.057 193.533L164.436 194.348L162.61 188.454C162.132 186.913 161.653 185.952 161.173 185.57C160.699 185.178 160.042 185.112 159.205 185.373C158.174 185.693 157.54 186.253 157.302 187.052C157.069 187.841 157.208 189.058 157.718 190.704L159.338 195.933L156.692 196.755L154.866 190.861C154.426 189.441 153.948 188.511 153.432 188.07C152.924 187.626 152.251 187.535 151.413 187.795C150.898 187.955 150.463 188.219 150.108 188.585C149.754 188.952 149.516 189.38 149.394 189.869C149.315 190.186 149.304 190.547 149.359 190.955C149.415 191.362 149.604 192.086 149.926 193.127L151.546 198.355Z" fill="white"/>
<path d="M175.668 190.856L173.047 191.671L169.492 180.198L171.956 179.431L172.538 181.307C172.813 180.346 173.225 179.581 173.773 179.012C174.327 178.433 175.055 178.004 175.957 177.723C176.85 177.445 177.65 177.405 178.356 177.601C179.058 177.789 179.682 178.219 180.225 178.891C180.584 177.912 181.046 177.136 181.61 176.563C182.182 175.987 182.903 175.564 183.772 175.293C184.53 175.058 185.234 174.994 185.885 175.101C186.534 175.2 187.098 175.467 187.577 175.902C187.799 176.107 187.996 176.373 188.168 176.7C188.348 177.024 188.538 177.509 188.738 178.155L189.023 179.075L191.179 186.034L188.558 186.849L186.732 180.955C186.254 179.413 185.775 178.452 185.295 178.071C184.821 177.679 184.164 177.613 183.327 177.873C182.296 178.194 181.662 178.754 181.424 179.553C181.191 180.342 181.33 181.559 181.84 183.205L183.46 188.433L180.814 189.256L178.988 183.362C178.548 181.942 178.07 181.011 177.554 180.57C177.046 180.127 176.373 180.035 175.535 180.296C175.02 180.456 174.585 180.719 174.23 181.086C173.876 181.453 173.638 181.881 173.516 182.37C173.437 182.686 173.426 183.048 173.481 183.455C173.537 183.863 173.726 184.587 174.048 185.627L175.668 190.856Z" fill="white"/>
<path d="M206.541 175.393L197.384 178.24C197.781 179.293 198.359 180.033 199.118 180.461C199.875 180.88 200.728 180.942 201.679 180.646C202.524 180.383 203.174 179.987 203.628 179.457C204.082 178.926 204.395 178.201 204.569 177.28L207.162 177.827C206.876 179.181 206.344 180.288 205.569 181.148C204.794 182.009 203.766 182.638 202.485 183.036C200.649 183.607 199.014 183.501 197.579 182.717C196.144 181.934 195.137 180.606 194.557 178.734C193.999 176.935 194.102 175.284 194.864 173.782C195.631 172.27 196.897 171.24 198.661 170.691C200.505 170.118 202.106 170.2 203.464 170.936C204.823 171.672 205.797 172.993 206.387 174.897L206.541 175.393ZM203.275 174.471C202.915 173.681 202.408 173.153 201.752 172.888C201.093 172.615 200.309 172.62 199.399 172.903C198.537 173.171 197.91 173.596 197.516 174.178C197.123 174.761 196.952 175.508 197.005 176.42L203.275 174.471Z" fill="white"/>
<path d="M213.047 168.66C213.094 167.814 213.291 167.138 213.637 166.632C213.992 166.124 214.512 165.763 215.196 165.551C215.567 165.435 215.943 165.367 216.325 165.346C216.715 165.322 217.109 165.341 217.508 165.402L217.255 167.922C216.98 167.831 216.698 167.79 216.41 167.8C216.127 167.8 215.825 167.85 215.502 167.95C214.633 168.22 214.117 168.765 213.956 169.585C213.793 170.396 213.966 171.625 214.476 173.271L216.036 178.306L213.414 179.121L209.852 167.623L212.473 166.808L213.047 168.66Z" fill="white"/>
<path d="M232.378 152.46L234.529 151.791L242.208 176.578L240.058 177.246L232.378 152.46Z" fill="white"/>
<path d="M262.007 161.161L264.423 160.41C265.752 159.997 266.719 159.599 267.325 159.216C267.938 158.831 268.425 158.352 268.787 157.779C269.278 156.999 269.557 156.134 269.625 155.184C269.698 154.223 269.559 153.178 269.21 152.049C268.86 150.919 268.384 149.983 267.783 149.241C267.188 148.489 266.468 147.93 265.622 147.565C264.992 147.3 264.3 147.188 263.544 147.229C262.797 147.267 261.682 147.516 260.2 147.977L259.161 148.3L258.122 148.623L262.007 161.161ZM259.938 164.657L254.448 146.939L258.326 145.733C260.847 144.949 262.659 144.528 263.762 144.468C264.87 144.397 265.903 144.541 266.861 144.897C268.127 145.362 269.211 146.126 270.114 147.19C271.026 148.251 271.725 149.568 272.213 151.141C272.7 152.715 272.867 154.193 272.713 155.577C272.565 156.95 272.101 158.191 271.324 159.299C270.735 160.137 269.986 160.839 269.075 161.405C268.17 161.96 266.675 162.562 264.589 163.211L263.816 163.451L259.938 164.657Z" fill="white"/>
<path d="M289.881 149.483L280.724 152.33C281.121 153.383 281.699 154.123 282.458 154.551C283.215 154.97 284.068 155.032 285.019 154.737C285.864 154.474 286.514 154.077 286.968 153.547C287.421 153.017 287.735 152.291 287.909 151.37L290.502 151.917C290.215 153.271 289.684 154.378 288.909 155.239C288.134 156.099 287.106 156.728 285.825 157.126C283.989 157.697 282.354 157.591 280.919 156.807C279.484 156.024 278.477 154.696 277.897 152.824C277.339 151.025 277.442 149.374 278.204 147.873C278.971 146.36 280.237 145.33 282 144.782C283.845 144.208 285.446 144.29 286.804 145.026C288.163 145.763 289.137 147.083 289.727 148.987L289.881 149.483ZM286.615 148.561C286.255 147.771 285.747 147.243 285.091 146.978C284.433 146.705 283.649 146.71 282.739 146.993C281.877 147.261 281.249 147.686 280.856 148.269C280.462 148.851 280.292 149.598 280.345 150.511L286.615 148.561Z" fill="white"/>
<path d="M294.793 151.539L296.599 149.677C296.938 150.199 297.371 150.542 297.898 150.706C298.426 150.869 299.032 150.844 299.716 150.632C300.304 150.449 300.722 150.173 300.97 149.804C301.223 149.425 301.277 149.001 301.132 148.533C300.94 147.912 300.179 147.564 298.849 147.491C298.402 147.471 298.054 147.446 297.807 147.417C296.425 147.289 295.407 147.04 294.753 146.668C294.108 146.294 293.669 145.732 293.436 144.981C293.119 143.956 293.26 143.001 293.86 142.116C294.468 141.228 295.432 140.579 296.753 140.169C297.639 139.893 298.447 139.823 299.178 139.959C299.914 140.084 300.521 140.404 300.998 140.919L299.535 142.78C299.286 142.459 298.955 142.248 298.544 142.146C298.138 142.033 297.71 142.047 297.259 142.187C296.76 142.342 296.394 142.589 296.163 142.926C295.938 143.253 295.886 143.613 296.009 144.009C296.194 144.606 297.039 144.94 298.545 145.012C299.019 145.032 299.388 145.055 299.651 145.079C300.836 145.171 301.737 145.412 302.353 145.805C302.974 146.186 303.408 146.773 303.653 147.563C304.008 148.709 303.872 149.738 303.245 150.649C302.615 151.553 301.572 152.231 300.114 152.684C298.994 153.032 297.999 153.111 297.128 152.922C296.257 152.733 295.479 152.272 294.793 151.539Z" fill="white"/>
<path d="M304.441 132.803C304.303 132.359 304.345 131.926 304.568 131.503C304.798 131.077 305.138 130.795 305.589 130.654C306.056 130.509 306.492 130.546 306.895 130.766C307.304 130.975 307.581 131.313 307.726 131.781C307.871 132.249 307.837 132.693 307.623 133.114C307.406 133.526 307.068 133.804 306.609 133.946C306.158 134.087 305.718 134.047 305.288 133.827C304.863 133.596 304.581 133.255 304.441 132.803ZM309.883 149.129L306.328 137.656L308.95 136.841L312.505 148.314L309.883 149.129Z" fill="white"/>
<path d="M325.174 138.047C324.806 136.86 324.242 136.023 323.481 135.534C322.729 135.043 321.857 134.951 320.867 135.259C319.876 135.567 319.201 136.153 318.842 137.016C318.488 137.869 318.499 138.901 318.874 140.111C319.251 141.33 319.816 142.185 320.569 142.676C321.321 143.167 322.197 143.258 323.196 142.947C324.138 142.654 324.792 142.057 325.157 141.156C325.531 140.253 325.536 139.216 325.174 138.047ZM329.29 142.313C329.985 144.556 330.027 146.272 329.415 147.462C328.806 148.66 327.443 149.588 325.325 150.246C323.746 150.737 322.382 150.794 321.232 150.417C320.085 150.049 319.332 149.314 318.974 148.214L321.785 147.327C321.977 147.806 322.323 148.11 322.822 148.238C323.321 148.366 323.949 148.312 324.706 148.077C325.825 147.729 326.554 147.233 326.893 146.588C327.232 145.943 327.226 145.042 326.877 143.886L326.429 142.353C326.167 143.16 325.771 143.823 325.243 144.341C324.723 144.856 324.06 145.239 323.255 145.49C321.636 145.993 320.188 145.837 318.912 145.022C317.641 144.197 316.706 142.82 316.109 140.891C315.541 139.06 315.559 137.435 316.162 136.019C316.762 134.593 317.827 133.643 319.358 133.167C320.292 132.877 321.15 132.827 321.933 133.017C322.722 133.196 323.383 133.606 323.916 134.245L323.335 132.369L325.956 131.554L329.29 142.313Z" fill="white"/>
<path d="M335.609 141.131L332.055 129.658L334.519 128.892L335.1 130.768C335.379 129.814 335.816 129.046 336.412 128.462C337.009 127.879 337.814 127.429 338.829 127.114C339.682 126.849 340.45 126.76 341.131 126.849C341.817 126.928 342.412 127.181 342.915 127.608C343.214 127.86 343.473 128.182 343.691 128.574C343.91 128.966 344.182 129.687 344.507 130.736L346.663 137.695L344.017 138.517L342.191 132.623C341.724 131.114 341.229 130.172 340.706 129.795C340.188 129.407 339.462 129.358 338.528 129.649C337.916 129.839 337.403 130.122 336.99 130.498C336.585 130.872 336.309 131.307 336.163 131.804C336.055 132.138 336.028 132.536 336.082 132.997C336.142 133.447 336.318 134.144 336.611 135.088L338.231 140.316L335.609 141.131Z" fill="white"/>
<path d="M362 127.062L352.843 129.909C353.24 130.962 353.818 131.702 354.578 132.129C355.334 132.549 356.188 132.61 357.138 132.315C357.984 132.052 358.634 131.656 359.087 131.125C359.541 130.595 359.855 129.869 360.029 128.949L362.622 129.496C362.335 130.85 361.804 131.957 361.029 132.817C360.253 133.677 359.225 134.307 357.945 134.705C356.109 135.276 354.473 135.169 353.038 134.386C351.604 133.602 350.596 132.275 350.016 130.403C349.459 128.603 349.561 126.953 350.323 125.451C351.091 123.939 352.356 122.908 354.12 122.36C355.964 121.787 357.566 121.868 358.924 122.605C360.282 123.341 361.256 124.661 361.846 126.566L362 127.062ZM358.735 126.14C358.375 125.349 357.867 124.822 357.211 124.557C356.553 124.284 355.768 124.289 354.858 124.572C353.997 124.84 353.369 125.265 352.975 125.847C352.582 126.429 352.412 127.177 352.465 128.089L358.735 126.14Z" fill="white"/>
<path d="M368.507 120.329C368.554 119.483 368.75 118.807 369.097 118.301C369.451 117.793 369.971 117.432 370.656 117.219C371.026 117.104 371.402 117.036 371.784 117.014C372.174 116.99 372.568 117.009 372.967 117.071L372.715 119.591C372.439 119.5 372.157 119.459 371.869 119.469C371.586 119.468 371.284 119.518 370.962 119.618C370.092 119.889 369.577 120.434 369.416 121.253C369.252 122.065 369.425 123.294 369.935 124.94L371.495 129.974L368.874 130.789L365.312 119.292L367.933 118.477L368.507 120.329Z" fill="white"/>
</svg>
