<svg width="1024" height="1024" viewBox="0 0 1024 1024" fill="none" xmlns="http://www.w3.org/2000/svg">
<path d="M306.813 438.469H392.842V715H306.813V438.469ZM349.864 400.661C377.332 400.661 399.728 378.353 399.728 350.831C399.728 344.287 398.438 337.807 395.932 331.761C393.426 325.716 389.753 320.222 385.123 315.595C380.493 310.968 374.996 307.297 368.946 304.793C362.896 302.289 356.412 301 349.864 301C343.316 301 336.832 302.289 330.782 304.793C324.732 307.297 319.235 310.968 314.605 315.595C309.975 320.222 306.302 325.716 303.796 331.761C301.29 337.807 300 344.287 300 350.831C299.928 378.353 322.25 400.661 349.864 400.661ZM532.722 578.183C532.722 542.114 539.607 507.203 584.325 507.203C628.391 507.203 629.043 548.415 629.043 580.501V715H715V563.335C715 488.879 698.91 431.588 611.866 431.588C570.047 431.588 541.999 454.548 530.475 476.276H529.315V438.469H446.765V715H532.722V578.183Z" fill="#3A656A"/>
<path d="M911.43 511.73C911.43 456.53 911.93 401.83 908.83 346.73C905.73 282.73 891.13 225.93 844.33 179.13C797.43 132.23 740.73 117.73 676.73 114.63C621.53 111.53 566.83 112.03 511.73 112.03C456.53 112.03 401.83 111.53 346.73 114.63C282.73 117.73 225.93 132.33 179.13 179.13C132.23 226.03 117.73 282.73 114.63 346.73C111.53 401.93 112.03 456.63 112.03 511.73C112.03 566.83 111.53 621.63 114.63 676.73C117.73 740.73 132.33 797.53 179.13 844.33C226.03 891.23 282.73 905.73 346.73 908.83C401.93 911.93 456.63 911.43 511.73 911.43C566.93 911.43 621.63 911.93 676.73 908.83C740.73 905.73 797.53 891.13 844.33 844.33C891.23 797.43 905.73 740.73 908.83 676.73C912.03 621.63 911.43 566.93 911.43 511.73ZM823.43 747.53C816.13 765.73 807.33 779.33 793.23 793.33C779.13 807.43 765.63 816.23 747.43 823.53C694.83 844.43 569.93 839.73 511.63 839.73C453.33 839.73 328.33 844.43 275.73 823.63C257.53 816.33 243.93 807.53 229.93 793.43C215.83 779.33 207.03 765.83 199.73 747.63C178.93 694.93 183.63 570.03 183.63 511.73C183.63 453.43 178.93 328.43 199.73 275.83C207.03 257.63 215.83 244.03 229.93 230.03C244.03 216.03 257.53 207.13 275.73 199.83C328.33 179.03 453.33 183.73 511.63 183.73C569.93 183.73 694.93 179.03 747.53 199.83C765.73 207.13 779.33 215.93 793.33 230.03C807.43 244.13 816.23 257.63 823.53 275.83C844.33 328.43 839.63 453.43 839.63 511.73C839.63 570.03 844.33 694.93 823.43 747.53Z" fill="#3A656A"/>
</svg>
