<svg width="300" height="300" viewBox="0 0 300 300" fill="none" xmlns="http://www.w3.org/2000/svg">
<rect width="299.023" height="299.023" rx="100" fill="#2FCACC"/>
<path d="M59.6252 137.12V161.16C59.6252 161.72 59.3452 162 58.7852 162H55.3852C54.8252 162 54.5452 161.72 54.5452 161.16V137.12C54.5452 136.56 54.8252 136.28 55.3852 136.28H58.7852C59.3452 136.28 59.6252 136.56 59.6252 137.12ZM68.8492 162H65.4492C64.8892 162 64.6092 161.72 64.6092 161.16V142.44C64.6092 141.88 64.8892 141.6 65.4492 141.6H68.8492C69.4092 141.6 69.6892 141.88 69.6892 142.44V143.76H69.8492C70.4359 142.32 71.7426 141.6 73.7692 141.6H75.0492C79.2359 141.6 81.3292 143.773 81.3292 148.12V161.16C81.3292 161.72 81.0359 162 80.4492 162H77.0892C76.5292 162 76.2492 161.72 76.2492 161.16V148.36C76.2492 147.507 76.0626 146.907 75.6892 146.56C75.3426 146.187 74.7426 146 73.8892 146H72.4492C70.6092 146 69.6892 147.013 69.6892 149.04V161.16C69.6892 161.72 69.4092 162 68.8492 162ZM93.0267 162H91.3867C89.3334 162 87.7734 161.44 86.7067 160.32C85.6667 159.2 85.1467 157.587 85.1467 155.48V148.12C85.1467 146.013 85.6667 144.4 86.7067 143.28C87.7734 142.16 89.3334 141.6 91.3867 141.6H93.0267C93.8534 141.6 94.6401 141.787 95.3867 142.16C96.1334 142.507 96.6534 143.04 96.9467 143.76H97.1067V134.72C97.1067 134.16 97.3867 133.88 97.9467 133.88H101.347C101.907 133.88 102.187 134.16 102.187 134.72V161.16C102.187 161.72 101.907 162 101.347 162H97.9467C97.3867 162 97.1067 161.72 97.1067 161.16V159.84H96.9467C96.6534 160.56 96.1334 161.107 95.3867 161.48C94.6401 161.827 93.8534 162 93.0267 162ZM97.1067 154.56V149.04C97.1067 147.013 96.1867 146 94.3467 146H92.5467C91.6934 146 91.0934 146.187 90.7467 146.56C90.4001 146.907 90.2267 147.507 90.2267 148.36V155.24C90.2267 156.093 90.4001 156.707 90.7467 157.08C91.0934 157.427 91.6934 157.6 92.5467 157.6H94.3467C96.1867 157.6 97.1067 156.587 97.1067 154.56ZM113.961 162H112.641C110.588 162 109.028 161.44 107.961 160.32C106.921 159.2 106.401 157.587 106.401 155.48V142.44C106.401 141.88 106.681 141.6 107.241 141.6H110.641C111.201 141.6 111.481 141.88 111.481 142.44V155.24C111.481 156.093 111.655 156.707 112.001 157.08C112.375 157.427 112.975 157.6 113.801 157.6H115.281C117.121 157.6 118.041 156.587 118.041 154.56V142.44C118.041 141.88 118.321 141.6 118.881 141.6H122.241C122.828 141.6 123.121 141.88 123.121 142.44V161.16C123.121 161.72 122.828 162 122.241 162H118.881C118.321 162 118.041 161.72 118.041 161.16V159.84H117.881C117.588 160.56 117.068 161.107 116.321 161.48C115.575 161.827 114.788 162 113.961 162ZM135.259 162H127.659C127.126 162 126.859 161.72 126.859 161.16V158.6C126.859 158.307 126.912 158.107 127.019 158C127.126 157.867 127.339 157.8 127.659 157.8H134.339C135.646 157.8 136.299 157.4 136.299 156.6V156.4C136.299 155.76 135.752 155.147 134.659 154.56L130.699 152.36C129.339 151.667 128.339 150.92 127.699 150.12C127.059 149.32 126.739 148.293 126.739 147.04C126.739 145.173 127.232 143.8 128.219 142.92C129.206 142.04 130.752 141.6 132.859 141.6H139.539C140.072 141.6 140.339 141.88 140.339 142.44V145.04C140.339 145.333 140.286 145.547 140.179 145.68C140.072 145.787 139.859 145.84 139.539 145.84H133.979C132.672 145.84 132.019 146.173 132.019 146.84V147.04C132.019 147.627 132.592 148.227 133.739 148.84L137.779 151.24C139.166 151.987 140.139 152.76 140.699 153.56C141.259 154.333 141.539 155.36 141.539 156.64C141.539 160.213 139.446 162 135.259 162ZM145.518 146H143.918C143.598 146 143.371 145.947 143.238 145.84C143.131 145.733 143.078 145.52 143.078 145.2V142.44C143.078 141.88 143.358 141.6 143.918 141.6H145.518C145.811 141.6 145.958 141.453 145.958 141.16V137.36C145.958 136.8 146.251 136.52 146.838 136.52H150.198C150.758 136.52 151.038 136.8 151.038 137.36V141.16C151.038 141.453 151.198 141.6 151.518 141.6H154.638C155.198 141.6 155.478 141.88 155.478 142.44V145.2C155.478 145.493 155.411 145.707 155.278 145.84C155.171 145.947 154.958 146 154.638 146H151.518C151.198 146 151.038 146.147 151.038 146.44V155.28C151.038 156.107 151.225 156.707 151.598 157.08C151.971 157.427 152.585 157.6 153.438 157.6H155.038C155.598 157.6 155.878 157.88 155.878 158.44V161.2C155.878 161.493 155.811 161.707 155.678 161.84C155.571 161.947 155.358 162 155.038 162H152.598C150.491 162 148.851 161.44 147.678 160.32C146.531 159.2 145.958 157.6 145.958 155.52V146.44C145.958 146.147 145.811 146 145.518 146ZM163.42 162H160.02C159.46 162 159.18 161.72 159.18 161.16V142.44C159.18 141.88 159.46 141.6 160.02 141.6H163.42C163.98 141.6 164.26 141.88 164.26 142.44V143.8H164.42C164.713 143.08 165.233 142.533 165.98 142.16C166.726 141.787 167.513 141.6 168.34 141.6H169.78C170.313 141.6 170.58 141.88 170.58 142.44V145.2C170.58 145.52 170.513 145.747 170.38 145.88C170.273 145.987 170.073 146.027 169.78 146H167.02C165.18 146 164.26 147.04 164.26 149.12V161.16C164.26 161.72 163.98 162 163.42 162ZM176.445 168.76H173.885C173.352 168.76 173.085 168.467 173.085 167.88V165.2C173.085 164.613 173.352 164.32 173.885 164.32H174.725C176.405 164.32 177.538 164.08 178.125 163.6C178.738 163.147 179.205 162.253 179.525 160.92H177.405C176.898 160.92 176.565 160.64 176.405 160.08L171.725 142.44C171.565 141.88 171.765 141.6 172.325 141.6H175.885C176.418 141.6 176.752 141.88 176.885 142.44L180.325 157.2H180.485L183.885 142.44C183.992 141.88 184.325 141.6 184.885 141.6H188.245C188.912 141.6 189.178 141.893 189.045 142.48L184.165 162C183.578 164.213 182.672 165.893 181.445 167.04C180.218 168.187 178.552 168.76 176.445 168.76ZM206.422 137.12V161.16C206.422 161.72 206.142 162 205.582 162H202.182C201.622 162 201.342 161.72 201.342 161.16V137.12C201.342 136.56 201.622 136.28 202.182 136.28H205.582C206.142 136.28 206.422 136.56 206.422 137.12ZM221.166 162H217.606C215.499 162 213.873 161.44 212.726 160.32C211.579 159.2 211.006 157.587 211.006 155.48V148.12C211.006 146.013 211.579 144.4 212.726 143.28C213.873 142.16 215.499 141.6 217.606 141.6H221.166C223.246 141.6 224.859 142.173 226.006 143.32C227.179 144.44 227.766 146.04 227.766 148.12V155.48C227.766 157.56 227.179 159.173 226.006 160.32C224.859 161.44 223.246 162 221.166 162ZM218.366 157.64H220.406C221.259 157.64 221.859 157.467 222.206 157.12C222.579 156.773 222.766 156.173 222.766 155.32V148.28C222.766 147.427 222.579 146.827 222.206 146.48C221.859 146.133 221.259 145.96 220.406 145.96H218.366C217.513 145.96 216.913 146.133 216.566 146.48C216.219 146.827 216.046 147.427 216.046 148.28V155.32C216.046 156.173 216.219 156.773 216.566 157.12C216.913 157.467 217.513 157.64 218.366 157.64ZM240.118 162H236.758C236.171 162 235.878 161.72 235.878 161.16V141.12C235.878 140.827 235.731 140.68 235.438 140.68H230.878C230.318 140.68 230.038 140.4 230.038 139.84V137.12C230.038 136.56 230.318 136.28 230.878 136.28H245.998C246.558 136.28 246.838 136.56 246.838 137.12V139.84C246.838 140.4 246.558 140.68 245.998 140.68H241.438C241.118 140.68 240.958 140.827 240.958 141.12V161.16C240.958 161.72 240.678 162 240.118 162Z" fill="#F5F5F5"/>
</svg>
