<svg width="299" height="299" viewBox="0 0 299 299" fill="none" xmlns="http://www.w3.org/2000/svg">
<rect x="0.0195312" width="298.977" height="298.977" rx="100" fill="#2FCACC"/>
<path d="M136.234 111.12V135.16C136.234 135.72 135.954 136 135.394 136H131.994C131.434 136 131.154 135.72 131.154 135.16V111.12C131.154 110.56 131.434 110.28 131.994 110.28H135.394C135.954 110.28 136.234 110.56 136.234 111.12ZM150.979 136H147.419C145.312 136 143.685 135.44 142.539 134.32C141.392 133.2 140.819 131.587 140.819 129.48V122.12C140.819 120.013 141.392 118.4 142.539 117.28C143.685 116.16 145.312 115.6 147.419 115.6H150.979C153.059 115.6 154.672 116.173 155.819 117.32C156.992 118.44 157.579 120.04 157.579 122.12V129.48C157.579 131.56 156.992 133.173 155.819 134.32C154.672 135.44 153.059 136 150.979 136ZM148.179 131.64H150.219C151.072 131.64 151.672 131.467 152.019 131.12C152.392 130.773 152.579 130.173 152.579 129.32V122.28C152.579 121.427 152.392 120.827 152.019 120.48C151.672 120.133 151.072 119.96 150.219 119.96H148.179C147.325 119.96 146.725 120.133 146.379 120.48C146.032 120.827 145.859 121.427 145.859 122.28V129.32C145.859 130.173 146.032 130.773 146.379 131.12C146.725 131.467 147.325 131.64 148.179 131.64ZM169.93 136H166.57C165.983 136 165.69 135.72 165.69 135.16V115.12C165.69 114.827 165.543 114.68 165.25 114.68H160.69C160.13 114.68 159.85 114.4 159.85 113.84V111.12C159.85 110.56 160.13 110.28 160.69 110.28H175.81C176.37 110.28 176.65 110.56 176.65 111.12V113.84C176.65 114.4 176.37 114.68 175.81 114.68H171.25C170.93 114.68 170.77 114.827 170.77 115.12V135.16C170.77 135.72 170.49 136 169.93 136ZM51.6426 180.44V179.64C51.6426 179.08 51.9226 178.8 52.4826 178.8H55.8826C56.4426 178.8 56.7226 179.08 56.7226 179.64V179.96C56.7226 180.973 56.9226 181.667 57.3226 182.04C57.7226 182.413 58.4559 182.6 59.5226 182.6H61.4026C62.4426 182.6 63.1626 182.4 63.5626 182C63.9892 181.6 64.2026 180.853 64.2026 179.76V179.28C64.2026 178.507 63.8826 177.92 63.2426 177.52C62.6292 177.093 61.8559 176.84 60.9226 176.76C59.9892 176.68 58.9759 176.533 57.8826 176.32C56.8159 176.08 55.8159 175.787 54.8826 175.44C53.9492 175.067 53.1626 174.36 52.5226 173.32C51.9092 172.253 51.6026 170.893 51.6026 169.24V167.84C51.6026 165.76 52.1892 164.147 53.3626 163C54.5359 161.853 56.1626 161.28 58.2426 161.28H62.2426C64.3492 161.28 65.9892 161.853 67.1626 163C68.3359 164.147 68.9226 165.76 68.9226 167.84V168.6C68.9226 169.16 68.6426 169.44 68.0826 169.44H64.6826C64.1226 169.44 63.8426 169.16 63.8426 168.6V168.36C63.8426 167.32 63.6426 166.613 63.2426 166.24C62.8426 165.867 62.1092 165.68 61.0426 165.68H59.4826C58.3892 165.68 57.6426 165.893 57.2426 166.32C56.8692 166.72 56.6826 167.52 56.6826 168.72V169.48C56.6826 170.733 57.7759 171.453 59.9626 171.64C62.2292 171.827 64.2426 172.28 66.0026 173C66.9359 173.4 67.7092 174.12 68.3226 175.16C68.9626 176.173 69.2826 177.48 69.2826 179.08V180.44C69.2826 182.52 68.6959 184.133 67.5226 185.28C66.3492 186.427 64.7226 187 62.6426 187H58.2826C56.2026 187 54.5759 186.427 53.4026 185.28C52.2292 184.133 51.6426 182.52 51.6426 180.44ZM77.6851 187H74.2851C73.7251 187 73.4451 186.72 73.4451 186.16V167.44C73.4451 166.88 73.7251 166.6 74.2851 166.6H77.6851C78.2451 166.6 78.5251 166.88 78.5251 167.44V168.76H78.6851C79.0051 168.12 79.5384 167.6 80.2851 167.2C81.0584 166.8 81.9384 166.6 82.9251 166.6H84.0451C86.3651 166.6 88.0317 167.453 89.0451 169.16C89.9517 167.453 91.5117 166.6 93.7251 166.6H94.8851C96.9384 166.6 98.4851 167.16 99.5251 168.28C100.592 169.4 101.125 171.013 101.125 173.12V186.16C101.125 186.72 100.845 187 100.285 187H96.8851C96.3251 187 96.0451 186.72 96.0451 186.16V173.36C96.0451 172.507 95.8717 171.907 95.5251 171.56C95.1784 171.187 94.5784 171 93.7251 171H92.7251C90.8851 171 89.9651 172.027 89.9651 174.08V186.16C89.9651 186.72 89.6717 187 89.0851 187H85.7251C85.1651 187 84.8851 186.72 84.8851 186.16V173.36C84.8851 172.507 84.6984 171.907 84.3251 171.56C83.9784 171.187 83.3784 171 82.5251 171H81.2851C79.4451 171 78.5251 172.013 78.5251 174.04V186.16C78.5251 186.72 78.2451 187 77.6851 187ZM112.519 187H111.559C109.452 187 107.826 186.44 106.679 185.32C105.532 184.2 104.959 182.587 104.959 180.48V173.12C104.959 171.013 105.532 169.4 106.679 168.28C107.826 167.16 109.452 166.6 111.559 166.6H120.799C121.386 166.6 121.679 166.88 121.679 167.44V186.16C121.679 186.72 121.386 187 120.799 187H117.439C116.879 187 116.599 186.72 116.599 186.16V184.84H116.439C116.146 185.56 115.626 186.107 114.879 186.48C114.132 186.827 113.346 187 112.519 187ZM116.599 179.56V171.44C116.599 171.147 116.439 171 116.119 171H112.359C111.506 171 110.906 171.187 110.559 171.56C110.212 171.907 110.039 172.507 110.039 173.36V180.24C110.039 181.093 110.212 181.707 110.559 182.08C110.906 182.427 111.506 182.6 112.359 182.6H113.839C115.679 182.6 116.599 181.587 116.599 179.56ZM130.302 187H126.902C126.342 187 126.062 186.72 126.062 186.16V167.44C126.062 166.88 126.342 166.6 126.902 166.6H130.302C130.862 166.6 131.142 166.88 131.142 167.44V168.8H131.302C131.596 168.08 132.116 167.533 132.862 167.16C133.609 166.787 134.396 166.6 135.222 166.6H136.662C137.196 166.6 137.462 166.88 137.462 167.44V170.2C137.462 170.52 137.396 170.747 137.262 170.88C137.156 170.987 136.956 171.027 136.662 171H133.902C132.062 171 131.142 172.04 131.142 174.12V186.16C131.142 186.72 130.862 187 130.302 187ZM140.448 171H138.848C138.528 171 138.301 170.947 138.168 170.84C138.061 170.733 138.008 170.52 138.008 170.2V167.44C138.008 166.88 138.288 166.6 138.848 166.6H140.448C140.741 166.6 140.888 166.453 140.888 166.16V162.36C140.888 161.8 141.181 161.52 141.768 161.52H145.128C145.688 161.52 145.968 161.8 145.968 162.36V166.16C145.968 166.453 146.128 166.6 146.448 166.6H149.568C150.128 166.6 150.408 166.88 150.408 167.44V170.2C150.408 170.493 150.341 170.707 150.208 170.84C150.101 170.947 149.888 171 149.568 171H146.448C146.128 171 145.968 171.147 145.968 171.44V180.28C145.968 181.107 146.154 181.707 146.528 182.08C146.901 182.427 147.514 182.6 148.368 182.6H149.968C150.528 182.6 150.808 182.88 150.808 183.44V186.2C150.808 186.493 150.741 186.707 150.608 186.84C150.501 186.947 150.288 187 149.968 187H147.528C145.421 187 143.781 186.44 142.608 185.32C141.461 184.2 140.888 182.6 140.888 180.52V171.44C140.888 171.147 140.741 171 140.448 171ZM167.538 187H164.138C163.578 187 163.298 186.72 163.298 186.16V162.12C163.298 161.56 163.578 161.28 164.138 161.28H167.538C168.098 161.28 168.378 161.56 168.378 162.12V171.52C168.378 171.813 168.538 171.96 168.858 171.96H175.618C175.912 171.96 176.058 171.813 176.058 171.52V162.12C176.058 161.56 176.338 161.28 176.898 161.28H180.298C180.858 161.28 181.138 161.56 181.138 162.12V186.16C181.138 186.72 180.858 187 180.298 187H176.898C176.338 187 176.058 186.72 176.058 186.16V176.8C176.058 176.507 175.912 176.36 175.618 176.36H168.858C168.538 176.36 168.378 176.507 168.378 176.8V186.16C168.378 186.72 168.098 187 167.538 187ZM195.705 187H192.145C190.038 187 188.412 186.44 187.265 185.32C186.118 184.2 185.545 182.587 185.545 180.48V173.12C185.545 171.013 186.118 169.4 187.265 168.28C188.412 167.16 190.038 166.6 192.145 166.6H195.705C197.785 166.6 199.398 167.173 200.545 168.32C201.718 169.44 202.305 171.04 202.305 173.12V180.48C202.305 182.56 201.718 184.173 200.545 185.32C199.398 186.44 197.785 187 195.705 187ZM192.905 182.64H194.945C195.798 182.64 196.398 182.467 196.745 182.12C197.118 181.773 197.305 181.173 197.305 180.32V173.28C197.305 172.427 197.118 171.827 196.745 171.48C196.398 171.133 195.798 170.96 194.945 170.96H192.905C192.052 170.96 191.452 171.133 191.105 171.48C190.758 171.827 190.585 172.427 190.585 173.28V180.32C190.585 181.173 190.758 181.773 191.105 182.12C191.452 182.467 192.052 182.64 192.905 182.64ZM210.537 187H207.137C206.577 187 206.297 186.72 206.297 186.16V167.44C206.297 166.88 206.577 166.6 207.137 166.6H210.537C211.097 166.6 211.377 166.88 211.377 167.44V168.76H211.537C211.857 168.12 212.39 167.6 213.137 167.2C213.91 166.8 214.79 166.6 215.777 166.6H216.897C219.217 166.6 220.883 167.453 221.897 169.16C222.803 167.453 224.363 166.6 226.577 166.6H227.737C229.79 166.6 231.337 167.16 232.377 168.28C233.443 169.4 233.977 171.013 233.977 173.12V186.16C233.977 186.72 233.697 187 233.137 187H229.737C229.177 187 228.897 186.72 228.897 186.16V173.36C228.897 172.507 228.723 171.907 228.377 171.56C228.03 171.187 227.43 171 226.577 171H225.577C223.737 171 222.817 172.027 222.817 174.08V186.16C222.817 186.72 222.523 187 221.937 187H218.577C218.017 187 217.737 186.72 217.737 186.16V173.36C217.737 172.507 217.55 171.907 217.177 171.56C216.83 171.187 216.23 171 215.377 171H214.137C212.297 171 211.377 172.013 211.377 174.04V186.16C211.377 186.72 211.097 187 210.537 187ZM253.251 187H244.411C242.304 187 240.677 186.44 239.531 185.32C238.384 184.2 237.811 182.587 237.811 180.48V173.12C237.811 171.013 238.384 169.4 239.531 168.28C240.677 167.16 242.304 166.6 244.411 166.6H247.571C249.677 166.6 251.304 167.16 252.451 168.28C253.597 169.4 254.171 171.013 254.171 173.12V178.2C254.171 178.76 253.891 179.04 253.331 179.04H243.291C242.971 179.04 242.811 179.187 242.811 179.48V180.36C242.811 181.187 242.984 181.787 243.331 182.16C243.704 182.507 244.317 182.68 245.171 182.68H253.251C253.811 182.68 254.091 182.973 254.091 183.56V186.2C254.091 186.493 254.024 186.707 253.891 186.84C253.784 186.947 253.571 187 253.251 187ZM243.291 175.64H248.731C249.024 175.64 249.171 175.493 249.171 175.2V173.28C249.171 172.427 248.997 171.827 248.651 171.48C248.304 171.133 247.704 170.96 246.851 170.96H245.171C244.317 170.96 243.717 171.133 243.371 171.48C243.024 171.827 242.851 172.427 242.851 173.28V175.2C242.851 175.493 242.997 175.64 243.291 175.64Z" fill="#F5F5F5"/>
</svg>
