<?xml version="1.0" encoding="utf-8"?>
<!-- Generator: Adobe Illustrator 22.1.0, SVG Export Plug-In . SVG Version: 6.00 Build 0)  -->
<svg version="1.1" id="Capa_1" xmlns="http://www.w3.org/2000/svg" xmlns:xlink="http://www.w3.org/1999/xlink" x="0px" y="0px"
	 viewBox="0 0 490.7 490.7" style="enable-background:new 0 0 490.7 490.7;" xml:space="preserve">
<style type="text/css">
	.st0{fill:#009688;}
</style>
<path class="st0" d="M237.8,24.4L3.1,259.1c-2,2-3.1,4.7-3.1,7.6v192c0,5.9,4.8,10.7,10.6,10.7c2.8,0,5.6-1.1,7.6-3.1l227.1-227.1
	l227.1,227.1c4.2,4.2,10.9,4.2,15.1,0c2-2,3.1-4.7,3.1-7.6v-192c0-2.8-1.1-5.5-3.1-7.6L252.9,24.4C248.7,20.3,242,20.3,237.8,24.4
	C237.8,24.4,237.8,24.4,237.8,24.4z"/>
</svg>
