<svg id="Layer_1" data-name="Layer 1" xmlns="http://www.w3.org/2000/svg" width="150" height="150" viewBox="0 0 150 150"><title>Artboard 20</title><path d="M75,36.57A14.67,14.67,0,1,1,60.33,51.24,14.69,14.69,0,0,1,75,36.57m0-2.71A17.38,17.38,0,1,0,92.37,51.24,17.37,17.37,0,0,0,75,33.86Z" style="fill:#f2f2f2"/><path d="M75,114.28A239.88,239.88,0,0,1,50.7,113a9.12,9.12,0,0,1-8-9.87c.48-5.19,1.51-12.51,3.69-18a87.32,87.32,0,0,1,6.26-11.57,6.52,6.52,0,0,1,4.11-2.93,6.23,6.23,0,0,1,4.83.9,24.31,24.31,0,0,0,26.9,0,6.25,6.25,0,0,1,4.82-.9,6.54,6.54,0,0,1,4.12,2.93,87,87,0,0,1,6.25,11.57c2.19,5.47,3.22,12.8,3.7,18h0a9.12,9.12,0,0,1-8,9.87A239.78,239.78,0,0,1,75,114.28ZM58.1,73.15a4.34,4.34,0,0,0-.8.08,3.77,3.77,0,0,0-2.38,1.71A84.77,84.77,0,0,0,48.86,86.1c-2.06,5.17-3,12.22-3.51,17.23A6.41,6.41,0,0,0,51,110.26a235,235,0,0,0,24,1.32,234.86,234.86,0,0,0,24-1.32,6.41,6.41,0,0,0,5.64-6.93c-.46-5-1.45-12.07-3.52-17.23a83.2,83.2,0,0,0-6-11.16,3.76,3.76,0,0,0-2.39-1.71,3.53,3.53,0,0,0-2.74.51,27,27,0,0,1-29.9,0A3.51,3.51,0,0,0,58.1,73.15Z" style="fill:#f2f2f2"/><path d="M75,150a75,75,0,1,1,75-75A75.08,75.08,0,0,1,75,150ZM75,3.19A71.81,71.81,0,1,0,146.81,75,71.89,71.89,0,0,0,75,3.19Z" style="fill:#f2f2f2"/></svg>