<svg id="Layer_1" data-name="Layer 1" xmlns="http://www.w3.org/2000/svg" width="150" height="150" viewBox="0 0 150 150"><title>Award</title><path d="M75,150a75,75,0,1,1,75-75A75.08,75.08,0,0,1,75,150ZM75,3.19A71.81,71.81,0,1,0,146.81,75,71.89,71.89,0,0,0,75,3.19Z" style="fill:#f2f2f2"/><path d="M92.12,116.12H57.06a1.58,1.58,0,0,1-1.58-1.58v-7a1.57,1.57,0,0,1,.38-1l8-9.25a1.58,1.58,0,0,1-1.28-1.55l0-6.52A1.56,1.56,0,0,1,63,88a1.57,1.57,0,0,1,1.12-.46H65.7V85.29a4.12,4.12,0,0,0-1.13-2.7c-7.54-8.52-9-45.49-9.09-47.06a1.59,1.59,0,0,1,1.58-1.65H92.12a1.59,1.59,0,0,1,1.59,1.65c-.06,1.57-1.55,38.54-9.09,47.06a4.14,4.14,0,0,0-1.13,2.7c0,.91,0,1.67,0,2.27h1.56a1.58,1.58,0,0,1,1.13.46,1.6,1.6,0,0,1,.46,1.13l0,6.52a1.58,1.58,0,0,1-1.28,1.55l8,9.25a1.62,1.62,0,0,1,.38,1v7A1.59,1.59,0,0,1,92.12,116.12ZM58.65,113H90.54V108.1L80.7,96.7a1.58,1.58,0,0,1,1.2-2.62h1.55l0-3.35H81.93a1.59,1.59,0,0,1-1.59-1.55s0-1.42,0-3.89a7.32,7.32,0,0,1,1.93-4.8c5.36-6.07,7.67-32,8.23-43.44H58.72C59.28,48.5,61.59,74.43,67,80.49a7.32,7.32,0,0,1,1.93,4.8c0,1.66,0,3.7,0,4a1.59,1.59,0,0,1-1.58,1.43H65.72v3.35h1.56a1.58,1.58,0,0,1,1.44.93,1.56,1.56,0,0,1-.24,1.69l-9.84,11.4Z" style="fill:#f2f2f2"/><path d="M56.84,69.16c-.28,0-.56,0-.83,0-5.45-.49-10.68-11.5-11.41-18.41-.66-6.28,2.08-8.09,3.78-8.62a14.74,14.74,0,0,1,9.8.72,1.58,1.58,0,0,1,1,1.35A201.45,201.45,0,0,0,62,66.61,1.58,1.58,0,0,1,61,68.42,13.13,13.13,0,0,1,56.84,69.16ZM52.05,44.74a9.17,9.17,0,0,0-2.74.4c-1.84.57-1.7,3.85-1.55,5.24.75,7.09,5.72,15.34,8.53,15.58a7.57,7.57,0,0,0,2.35-.19c-1.29-7-2.08-14.66-2.54-20.33A13.22,13.22,0,0,0,52.05,44.74Z" style="fill:#f2f2f2"/><path d="M92.35,69.16a13.13,13.13,0,0,1-4.13-.74,1.57,1.57,0,0,1-1.06-1.81A206.29,206.29,0,0,0,90,44.17a1.58,1.58,0,0,1,1-1.35,14.74,14.74,0,0,1,9.8-.72h0c1.69.53,4.44,2.34,3.78,8.62-.74,6.91-6,17.92-11.41,18.41C92.9,69.15,92.63,69.16,92.35,69.16Zm-1.8-3.39A7.55,7.55,0,0,0,92.9,66c2.8-.24,7.78-8.49,8.53-15.58.14-1.38.29-4.67-1.56-5.24h0a11.17,11.17,0,0,0-6.79.3C92.63,51.11,91.84,58.81,90.55,65.77Z" style="fill:#f2f2f2"/></svg>