<svg id="Layer_1" data-name="Layer 1" xmlns="http://www.w3.org/2000/svg" width="150" height="150" viewBox="0 0 150 150"><title>Book</title><path d="M75,150a75,75,0,1,1,75-75A75.08,75.08,0,0,1,75,150ZM75,3.19A71.81,71.81,0,1,0,146.81,75,71.89,71.89,0,0,0,75,3.19Z" style="fill:#f2f2f2"/><path d="M73.15,112.27l-2.39-1.75C53.59,98,32.22,105,32,105.11l-2,.67V42.43l1-.36c.91-.33,22.61-7.89,41.37,2.74l.76.43ZM46.44,100a44.25,44.25,0,0,1,23.7,6.47V47C55,38.88,37.36,43.3,33,44.59v57.09A54.63,54.63,0,0,1,46.44,100Z" style="fill:#f2f2f2"/><path d="M76.85,112.27v-67l.76-.43c18.76-10.63,40.46-3.07,41.37-2.74l1,.36v63.35l-2-.67c-.21-.08-21.62-7.08-38.75,5.41Zm3-65.26v59.46c14.88-9.32,31.45-6.26,37.11-4.79V44.59C112.64,43.3,95.05,38.88,79.86,47Z" style="fill:#f2f2f2"/></svg>