<svg id="Layer_1" data-name="Layer 1" xmlns="http://www.w3.org/2000/svg" width="330" height="124.06" viewBox="0 0 330 124.06"><title>Artboard 42</title><path d="M0,0V124.06H330V0ZM67.42,100.54H49L23.52,23.74H45.85L59.14,67.86,73.85,23.52H94.08L71.27,89.46Zm49,0H91.11l7-20.29.11,0,0-.11,22.36,7.73Zm10-30.29L108,63.84l4-13.19,18.9,6.54ZM137,38.54l-19.41-6.72L120,23.74h21.9ZM318.24,112.3H165.46V11.76H318.24Z" style="fill:#fff"/><path d="M231.46,31.14l-10,26.6h-6.58l-5.59-17.33-6.26,17.33h-6.65l-8.84-26.6h6.85l5.51,17.25L206,31.14h7l5.4,17.17,6.17-17.17Z" style="fill:#fff"/><path d="M242.29,57.74h-6.41V31.14h6.41Z" style="fill:#fff"/><path d="M254.65,51.79h14v6H248.24V31.14h6.41Z" style="fill:#fff"/><path d="M279.61,51.79h14v6H273.19V31.14h6.42Z" style="fill:#fff"/><path d="M213.47,71.63H197.31v6.29H210.8V84H197.31v8.91h-7.43V65.5h23.59Z" style="fill:#fff"/><path d="M241.1,75.78A9.78,9.78,0,0,1,236,84.66l5.92,8.26h-8.62L229,86.11h-5.08v6.81H217V65.5h13.91A10,10,0,0,1,241.1,75.78Zm-17.21-4.15V80h6a4.18,4.18,0,1,0,0-8.35Z" style="fill:#fff"/><path d="M266.71,65.5v6.13h-15v4.72h12.49v5.72H251.74v4.72h15v6.13H244.87V65.5Z" style="fill:#fff"/><path d="M294.87,65.5v6.13H279.33v4.72h13v5.72h-13v4.72h15.54v6.13H272.19V65.5Z" style="fill:#fff"/></svg>