<svg width="147" height="147" viewBox="0 0 147 147" fill="none" xmlns="http://www.w3.org/2000/svg">
<mask id="mask0_1011_1783" style="mask-type:alpha" maskUnits="userSpaceOnUse" x="0" y="0" width="147" height="147">
<circle cx="73.5" cy="73.5" r="69.5" fill="#C4C4C4" stroke="white" stroke-width="8"/>
</mask>
<g mask="url(#mask0_1011_1783)">
<circle cx="73.5" cy="73.5" r="69.5" fill="#EDEDE0" stroke="white" stroke-width="8"/>
<path fill-rule="evenodd" clip-rule="evenodd" d="M67.5649 99.0611C70.4042 98.2749 73.668 98.3664 76.581 98.5674C79.5392 98.7717 82.7134 99.1222 85.4893 100.227C87.9024 101.188 89.9373 102.803 91.1773 105.118C92.1966 107.021 92.6747 109.107 92.9743 111.227C93.0968 112.094 93.1994 112.964 93.297 113.834L93.4976 115.645C93.5762 116.337 93.6447 116.856 93.7824 117.629C94.1633 119.765 94.6938 121.55 95.8782 123.105C98.7463 126.868 103.43 128.128 107.689 129.734C110.414 130.762 112.572 132.611 113.171 135.582C113.749 138.448 135.713 162.494 137.869 164.521L137.928 164.575C139.601 166.082 139.404 168.914 139.638 170.981C139.889 173.198 140.127 175.417 140.354 177.636C140.814 182.145 141.224 186.658 141.584 191.176C142.991 208.843 143.629 226.572 143.493 244.295L143.485 245.298C143.464 247.547 143.481 249.806 143.38 252.054C143.283 254.213 142.63 256.375 140.629 257.503C138.776 258.548 136.433 258.456 134.362 258.56L134.238 258.567C132.015 258.688 129.792 258.788 127.568 258.87C118.529 259.205 109.481 259.241 100.437 259.2C82.4937 259.117 64.5328 258.722 46.6068 259.727C42.0372 259.983 27.4695 258.427 22.9144 258.87C18.5606 259.294 22.2962 261.43 19.6065 261.29C10.7611 260.827 2.3709 258.852 -6.10389 256.474C-7.16255 256.177 -7.97213 255.149 -7.95882 254.038C-7.80142 241.835 -7.45706 229.635 -6.91896 217.443C-6.43959 206.583 -5.8079 195.729 -5.02431 184.887C-4.68362 180.174 -4.31429 175.463 -3.91634 170.754L-3.74403 168.736C-3.51924 166.134 -3.38995 163.484 -2.87847 160.918C-2.37248 158.38 -1.22466 156.18 0.439704 154.213C1.93315 152.449 18.842 138.639 22.9144 136.024C26.8122 133.521 30.9053 131.41 34.907 129.09C36.5718 128.125 38.1706 128.472 39.5929 127.288C40.3427 126.663 51.2223 122.456 54.1576 121.068L54.2441 121.026C56.4907 119.948 58.5582 118.779 60.1106 116.914C60.6309 116.289 61.6515 112.352 61.6534 111.093C61.657 108.846 61.4868 106.478 62.1645 104.301C62.9749 101.698 64.9283 99.7911 67.5649 99.0611ZM72.3783 157.012L54.9937 190.881H66.2981L58.195 209.699H75.9899L69.6775 236.057L105.776 190.881H92.2301L105.776 173.094H96.381L105.776 158.03L72.3783 157.012Z" fill="white"/>
<path fill-rule="evenodd" clip-rule="evenodd" d="M130.777 176.057C130.737 176.097 130.695 176.138 130.654 176.18C130.701 176.114 130.741 176.047 130.777 175.979V176.057ZM96.9911 166.191C95.4298 168.187 93.7777 172.247 92.2608 174.278C92.0432 174.569 91.8298 174.861 91.6185 175.155C90.989 176.036 91.8298 177.384 92.865 177.328C94.9333 177.217 96.9995 177.063 99.0657 176.907C94.8214 181.639 91.2974 187.517 87.3995 192.53C87.1355 192.866 86.8756 193.204 86.6157 193.542C85.6291 194.829 86.6178 195.413 87.9657 195.066C88.2446 194.994 88.5235 194.922 88.8024 194.853C90.7629 194.35 92.7214 193.847 94.6819 193.346C95.7657 193.067 96.8559 192.722 97.9545 192.509C98.4066 192.422 98.8397 192.494 99.2664 192.517C99.0615 192.83 98.7742 193.394 98.7171 193.481C98.077 194.478 97.4326 195.472 96.784 196.461C95.5207 198.384 94.2509 200.305 92.9347 202.193C87.8009 209.552 82.2636 216.577 76.7749 223.668C75.3932 225.452 73.9925 227.217 72.5686 228.965C72.5749 228.954 72.5791 228.943 72.5855 228.933C73.8679 226.435 75.1503 223.939 76.4326 221.44C78.8707 216.694 81.2855 211.934 83.7488 207.2C83.8756 206.953 84.0045 206.707 84.1333 206.46C84.6446 205.479 83.8059 204.461 82.7559 204.668C77.6335 205.677 72.5607 206.918 67.551 208.387C67.3255 208.627 66.9941 208.698 66.6981 208.64C66.4967 208.7 66.2946 208.758 66.0932 208.819C66.1543 208.692 66.2174 208.567 66.2789 208.441C66.0742 208.263 65.9724 207.987 66.1055 207.643C68.9882 200.202 72.9406 193.019 77.6236 186.44C77.4351 186.443 77.2471 186.446 77.058 186.452C71.9179 186.591 66.8749 187.329 61.9207 188.73C61.8974 188.271 62.1742 187.561 62.3242 187.223C62.9242 185.872 63.6129 184.553 64.2573 183.224C65.5756 180.493 66.8939 177.765 68.2122 175.034C69.501 172.367 70.7791 169.691 71.9918 166.986C72.6277 165.568 73.2636 164.148 73.8974 162.727C74.415 161.571 74.8228 160.407 75.2517 159.223C76.5108 159.593 92.6791 159.673 96.6087 159.946C97.5721 160.014 98.5376 160.075 99.503 160.128C100.272 160.172 101.356 160.341 101.886 159.646L102.087 159.815C100.342 161.903 98.6685 164.048 96.9911 166.191ZM33.8665 127.396C33.9467 127.36 34.0249 127.324 34.1031 127.288C34.1432 127.345 34.1918 127.398 34.2425 127.451C34.3693 127.58 34.4939 127.719 34.6249 127.846C34.3714 127.698 34.1179 127.548 33.8665 127.396ZM146.861 246.173C146.715 243.093 146.552 240.014 146.379 236.934C146.037 230.915 145.684 224.896 145.213 218.885C144.256 206.705 143.364 194.529 141.93 182.393C141.328 177.306 140.487 172.257 139.644 167.206C139.752 167.109 139.861 167.011 139.969 166.916C139.853 168.298 141.729 169.174 142.659 167.795C142.728 167.692 142.796 167.589 142.864 167.481C143.669 166.179 145.523 159.792 145.395 159.251C145.162 158.276 144.516 157.41 144.011 156.552C143.569 155.801 143.123 155.051 142.671 154.307C141.769 152.817 140.84 151.342 139.866 149.898C137.848 146.91 135.642 144.04 133.044 141.531C130.354 138.932 127.268 136.795 124.08 134.857C122.548 133.927 120.968 133.084 119.358 132.297C117.769 131.524 116.031 130.668 114.319 130.228C114.222 130.203 114.123 130.338 114.211 130.41C114.666 130.769 115.141 131.107 115.625 131.433C114.315 130.978 112.965 130.651 111.604 130.534C108.97 129.609 106.304 128.761 103.682 127.795C101.104 126.844 98.565 125.775 96.8516 123.522C95.3876 121.596 94.4622 119.24 93.7502 116.945C92.9685 114.415 92.658 111.786 91.9354 109.251C91.8784 109.046 91.5425 109.023 91.4981 109.251C90.9826 111.91 91.0059 114.899 91.2995 117.583C91.608 120.398 92.4002 123.161 94.1242 125.45C96.127 128.11 98.8439 129.592 101.901 130.773C104.366 131.729 106.864 132.701 109.388 133.555C109.059 133.77 108.725 133.986 108.381 134.191C107.011 135.005 105.588 135.728 104.132 136.376C101.474 137.562 98.6749 138.45 95.8587 139.17C90.6171 140.506 85.2425 141.185 79.8383 141.273C69.0256 141.453 58.0925 139.187 48.2031 134.812C45.4186 133.58 42.6995 132.225 40.008 130.803C39.1671 130.359 38.3221 129.911 37.4812 129.45C37.5509 129.446 37.6228 129.44 37.6925 129.433C39.5707 129.256 41.4256 128.895 43.2425 128.383C46.9629 127.333 50.5291 125.695 54.0319 124.082C57.0023 122.714 60.0615 121.157 61.8763 118.308C62.846 116.784 63.2918 114.996 63.6531 113.246C64.0566 111.298 64.5319 109.34 64.8256 107.373C64.9291 106.684 64.7749 105.752 64.0355 105.426C63.7397 105.297 63.4967 105.191 63.165 105.191C62.4319 105.191 61.6798 105.724 61.5045 106.455C61.0714 108.279 60.8094 110.154 60.4693 111.997C60.1756 113.59 59.9073 115.254 59.0474 116.655C57.5453 119.109 54.6002 120.364 52.1115 121.559C48.9573 123.072 45.8009 124.547 42.5242 125.775C41.0812 126.316 39.6129 126.806 38.1235 127.208C38.1826 126.842 38.1319 126.457 37.9164 126.168C37.5573 125.69 37.1495 125.373 36.6869 125.008C36.184 124.61 35.508 124.403 34.9143 124.579C34.9143 124.581 34.9122 124.579 34.9122 124.579C34.6714 124.526 34.4052 124.547 34.1305 124.672C33.2812 125.061 32.434 125.454 31.5869 125.853C19.3988 131.589 7.55729 138.327 -1.41102 148.588C-2.70398 150.067 -3.91454 151.623 -5.04905 153.227C-6.15187 154.785 -7.51665 156.476 -7.82088 158.407C-7.84623 158.568 -7.61172 158.642 -7.57158 158.477C-7.49975 158.179 -7.40257 157.887 -7.28215 157.604C-7.53356 158.484 -7.51877 159.418 -7.16384 160.337C-6.74341 161.419 -5.97229 162.136 -4.99834 162.421C-5.97651 166.709 -6.63356 171.055 -7.16172 175.448C-7.92017 181.778 -8.45891 188.123 -8.86454 194.485C-9.67581 207.181 -10.0371 219.94 -9.7751 232.659C-9.70116 236.254 -9.57863 239.849 -9.39271 243.442C-9.29975 245.239 -9.19834 247.033 -9.08215 248.829C-8.96806 250.596 -9.06102 252.543 -7.52088 253.475C-7.50187 253.545 -7.48074 253.612 -7.46172 253.682C-7.08778 254.986 -5.42088 254.568 -5.26454 253.384C-5.26243 253.371 -5.26032 253.356 -5.2582 253.344C-3.99905 252.382 -4.18919 250.78 -4.28215 249.244C-4.38144 247.585 -4.48708 245.928 -4.57581 244.271C-4.74482 241.092 -4.88848 237.913 -5.01736 234.732C-5.26877 228.442 -5.41032 222.144 -5.45679 215.85C-5.54975 203.26 -4.82299 190.689 -3.96102 178.135C-3.59975 172.883 -3.17722 167.654 -3.04834 162.404C-2.3744 162.053 -2.16736 161.056 -2.50539 160.384C5.4763 165.832 12.8833 172.346 18.8305 179.917C19.8235 181.18 20.7721 182.482 21.6805 183.808C21.9763 184.239 22.2573 184.687 22.5404 185.135C22.2657 186.384 22.0524 187.654 21.7735 188.852C21.1988 191.327 20.9559 193.895 20.6263 196.41C19.9566 201.519 19.4855 206.673 19.0862 211.809C18.3002 221.952 17.7171 232.093 17.5333 242.265C17.4319 248.018 17.2967 253.807 17.5502 259.558C17.3622 260.682 18.3742 261.781 19.4326 261.923C20.3601 262.047 21.2263 261.565 21.6319 260.79C24.5221 261.149 27.4883 261.314 30.3594 261.335C34.2277 261.362 38.096 261.358 41.9643 261.276C49.7031 261.107 57.4397 260.908 65.1763 260.678C80.6495 260.221 96.1228 259.763 111.598 259.304C115.889 259.177 120.18 259.05 124.471 258.924C126.406 258.867 128.819 259.424 130.344 257.93C130.606 257.672 130.809 257.37 130.952 257.047C131.409 257.161 131.969 257.049 132.269 256.696C132.828 256.034 133.24 255.421 133.219 254.504C133.2 253.646 132.964 252.742 132.841 251.892C132.609 250.296 132.385 248.7 132.171 247.103C131.751 243.945 131.358 240.783 130.997 237.619C130.257 231.15 129.585 224.666 129.061 218.175C128.022 205.34 127.728 192.437 127.764 179.562C127.769 178.41 127.775 177.258 127.781 176.106C127.83 176.167 127.883 176.224 127.94 176.273C127.986 176.313 128.033 176.353 128.079 176.396C128.62 176.871 129.52 177.116 130.169 176.666C130.965 176.15 131.514 175.377 132.135 174.677C132.788 173.944 133.46 173.229 134.138 172.519C135.452 171.146 136.811 169.829 138.197 168.527C138.309 168.423 138.421 168.318 138.533 168.216C138.541 172.314 138.537 176.41 138.647 180.506C138.811 186.591 139.141 192.669 139.443 198.746C140.043 210.778 140.664 222.806 141.262 234.836C141.429 238.194 141.588 241.555 141.754 244.913C141.839 246.593 141.921 248.273 142.002 249.954C142.044 250.862 142.086 251.774 142.128 252.682C142.175 253.659 142.114 254.703 142.443 255.631C143.193 257.752 146.434 258.053 147.057 255.631C147.448 254.111 147.148 252.352 147.078 250.793C147.007 249.254 146.935 247.713 146.861 246.173Z" fill="#575757"/>
<path fill-rule="evenodd" clip-rule="evenodd" d="M114.339 55.9851C112.163 48.1258 103.844 44.6965 96.3523 44.1522C76.0677 42.0428 55.4205 53.3551 46.4277 71.6984C39.2291 85.627 39.0037 100.259 54.4774 108.212C55.3224 108.678 56.2049 109.176 57.1062 109.628C57.8891 110.356 58.6955 111.056 59.5757 111.644C68.0017 117.187 78.3434 119.584 88.3655 119.064C103.163 118.766 108.445 108.721 111.678 95.8392C115.088 83.0147 116.994 69.099 114.339 55.9851Z" fill="white"/>
<path fill-rule="evenodd" clip-rule="evenodd" d="M124.051 130.064C123.36 127.974 122.494 125.947 121.685 123.899C121.513 122.878 121.399 121.849 121.37 120.811C121.258 117.104 121.951 113.366 122.728 109.756C124.308 102.42 125.984 95.1599 126.825 87.6887C128.327 74.325 127.433 60.4287 121.357 48.2296C116.092 37.662 107.17 29.0199 95.6458 25.7821C92.2389 24.8244 88.7325 24.2963 85.202 24.0853C84.7649 24.0158 84.3284 23.9477 83.894 23.8822C78.9833 23.1417 74.0122 22.7726 69.0487 23.092C60.8177 23.6218 52.6636 25.9881 45.8084 30.6683C38.9065 35.3807 34.0026 41.9884 31.7207 50.0478C29.3469 58.4321 29.5482 67.5123 25.449 75.3728C24.238 77.6952 22.8244 79.9029 21.4763 82.1475C17.8993 86.1401 14.0158 90.5787 13.1648 96.0685C12.1148 102.853 16.0169 108.587 19.7099 113.881C23.0479 118.662 27.5775 125.265 24.1423 131.151C22.5219 133.928 19.9254 136.005 17.9754 138.537C15.9536 141.167 14.3754 144.185 13.5599 147.41C12.0282 153.467 13.4374 159.78 17.5338 164.514C19.6676 166.979 22.4078 168.608 25.374 169.879C28.4099 171.176 31.3761 172.408 33.886 174.617C35.0331 175.625 36.0831 176.73 37.0761 177.889C38.0014 179.336 39.0789 180.689 40.2937 181.928C41.631 183.291 44.2507 181.425 43.0233 179.82C42.9324 179.702 42.8437 179.586 42.7529 179.467C41.855 178.297 40.9529 177.126 40.0085 175.993C37.1923 171.529 36.1085 166.064 37.5092 160.85C37.8726 159.495 38.3838 158.21 39.02 156.997C39.155 157.35 39.3029 157.698 39.4592 158.043C40.0676 159.379 40.9214 160.961 42.0071 162.314C42.0493 163.242 42.189 164.161 42.4592 165.062C44.1324 170.644 49.7268 173.398 54.7719 175.541C55.2662 175.752 55.7543 175.955 56.2338 176.156C57.5521 176.707 58.9465 174.828 58.1247 173.695C57.9092 173.398 57.7 173.093 57.5014 172.785C55.1352 169.12 54.0092 164.736 54.6472 160.37C55.319 155.752 58.0402 151.931 60.7423 148.264C63.3958 144.658 66.2458 140.979 67.4331 136.58C68.7472 131.721 67.5514 126.877 65.5233 122.405C63.6662 118.313 61.1925 114.541 59.1181 110.561C59.8283 111.27 60.5612 111.955 61.3163 112.616C62.1654 113.36 63.0377 114.211 64.044 114.735C64.7881 115.122 65.5334 114.195 64.9442 113.568C64.1697 112.744 63.1786 112.107 62.3186 111.372C61.4929 110.666 60.6912 109.932 59.9093 109.178C58.9465 108.25 58.0307 107.278 57.1476 106.277C56.4409 104.476 55.8586 102.627 55.3845 100.75C54.7402 98.2097 54.1444 95.5065 54.1909 92.8731C54.2374 90.172 55.6402 88.2804 57.5078 86.467C58.2988 85.6992 59.0974 84.9405 59.8945 84.1802C61.5922 82.9335 63.1936 81.5407 64.7492 80.1517C67.521 77.6766 70.202 75.0603 72.7623 72.3675C73.4492 71.6451 74.1303 70.9146 74.803 70.1757C77.1533 67.763 79.3949 65.2437 81.5078 62.6373C83.6078 61.8722 85.6254 60.8599 87.5183 59.6678C86.6944 60.5027 85.862 61.3269 85.0338 62.1575C83.1895 64.009 81.2735 65.8689 79.1352 67.3777C78.9155 67.5343 79.0486 67.8661 79.3193 67.8133C82.0381 67.2701 84.5817 66.3655 86.9564 64.9241C89.3711 63.4573 91.4986 61.4643 93.4845 59.4649C94.6085 58.9577 95.6925 58.3046 96.6831 57.6621C96.7359 57.6283 96.7887 57.5924 96.8416 57.5583C95.8655 60.6527 94.4333 64.1569 91.3803 65.2602C91.281 65.2961 91.2873 65.4609 91.4057 65.4546C93.9776 65.3037 96.0447 64.1461 97.6765 62.4589C98.9889 61.5142 100.241 60.513 101.436 59.4231C102.594 58.3672 103.691 57.2348 104.732 56.0622C103.277 58.9469 101.646 61.7676 100.038 64.5564C99.9535 64.7043 100.131 64.9051 100.283 64.8015C103.678 62.502 106.254 59.5347 108.36 56.0261C108.671 55.5095 108.968 54.9845 109.257 54.4555C109.039 55.2834 108.8 56.106 108.545 56.9243C108.082 58.4057 107.627 59.8904 107.164 61.3709C106.914 62.1692 106.61 62.9493 106.276 63.716C106.036 64.2647 105.723 64.8123 105.675 65.414C105.671 65.454 105.715 65.4802 105.75 65.4715C107.104 65.1329 108.364 63.5884 109.329 62.6316C109.866 62.0988 110.369 61.514 110.832 60.8973C110.918 64.4494 110.977 68.002 110.899 71.5647C110.754 78.1081 110.331 84.6494 109.79 91.1715C109.313 96.9373 108.96 102.988 105.744 107.999C103.256 111.878 99.2204 114.562 94.8366 115.862C94.45 115.978 94.0613 116.081 93.6704 116.174C87.324 117.681 81.0028 115.974 75.3916 112.956C73.7057 112.049 72.2648 114.509 73.8916 115.521C79.9803 119.313 87.6979 120.604 94.5895 118.905C94.3721 127.048 98.3838 134.773 102.375 141.68C104.608 145.546 106.843 149.386 108.421 153.577C109.761 157.136 110.671 160.829 110.977 164.626C111.341 169.103 110.984 173.605 110.358 178.043C110.325 178.284 110.291 178.527 110.255 178.768C110.116 179.721 110.971 180.52 111.899 180.032C115.999 177.876 117.768 173.281 118.843 169.033C119.849 165.053 120.531 160.995 120.911 156.91C121.469 158.451 121.921 160.03 122.272 161.64C122.321 161.87 122.367 162.101 122.413 162.331C122.68 163.678 124.716 163.582 125.042 162.331C125.101 162.105 125.158 161.879 125.211 161.651C126.89 154.856 127.342 147.769 126.455 140.822C125.988 137.168 125.208 133.562 124.051 130.064Z" fill="#575757"/>
<path fill-rule="evenodd" clip-rule="evenodd" d="M93.1527 103.273C91.7325 102.694 90.4653 101.727 89.5388 100.492C89.2168 100.063 89.1333 99.6092 89.2008 99.1945C89.2768 98.7283 89.5525 98.3057 89.9286 98.0222C90.3058 97.7379 90.7777 97.5976 91.2339 97.6691C91.6303 97.7312 92.0249 97.9483 92.3372 98.3987L92.4024 98.4887C92.9532 99.2341 93.6709 99.8457 94.4887 100.24C95.2769 100.62 96.1584 100.797 97.0707 100.694C98.8081 100.498 100.006 99.5578 101.278 98.2813C101.436 98.1202 101.594 97.9539 101.753 97.7851C101.853 97.632 101.992 97.5336 102.146 97.4819C102.318 97.4246 102.512 97.4279 102.689 97.4899C102.86 97.5497 103.014 97.663 103.116 97.8138C103.214 97.9571 103.269 98.1342 103.251 98.3378C103.135 99.6607 102.443 100.841 101.461 101.768C100.371 102.798 98.9249 103.51 97.5638 103.76C96.0643 104.035 94.5363 103.838 93.1527 103.273ZM98.2712 82.8655C99.8666 83.8356 102.297 86.0977 100.581 88.5027C98.561 90.6233 95.6524 88.1919 94.2191 87.0923C92.89 86.2401 91.3968 88.4319 92.6299 89.427C102.987 97.098 107.19 83.1192 99.0781 81.7249C98.1849 81.5713 97.8532 82.5654 98.2712 82.8655ZM79.7111 73.9421C79.8874 71.7533 83.2196 71.2563 83.5511 73.4222C83.8479 75.3624 83.4985 77.1447 82.6249 78.8916C81.7902 80.5604 79.6922 79.7818 79.5335 78.2622C79.3209 76.2252 79.6015 75.3037 79.7111 73.9421ZM105.077 72.9731C105.541 72.3644 106.212 71.9489 107.016 72.1837C109.527 72.9178 108.787 76.4839 107.905 78.2197C107.426 79.1623 105.877 79.4014 105.177 78.5714C104.036 77.2179 103.49 74.5149 104.94 73.1817C104.979 73.1128 105.023 73.0433 105.077 72.9731ZM82.5896 64.3646L82.9862 64.2952C84.2132 64.0829 85.7388 63.8789 86.6068 64.8657C87.0672 65.389 87.2256 66.3617 86.6068 66.8626C85.5184 67.7439 84.315 67.4024 83.0106 67.477C81.9357 67.5387 80.9026 67.7166 79.8672 68.0127C77.5956 68.6622 75.7447 69.8479 73.8046 71.1498C73.5501 71.3206 73.2902 70.9949 73.4117 70.7567C74.5316 68.5622 76.702 66.7596 78.8759 65.6608C80.0362 65.0743 81.3059 64.5878 82.5896 64.3646ZM102.788 63.3816L103.091 63.4438C106.395 64.1346 110.687 65.5146 112.252 68.7608C112.311 69.2198 112.248 69.3182 112.197 69.3825L112.18 69.4038C112.138 69.4587 112.104 69.5344 111.905 69.5969C111.85 69.5837 111.794 69.5698 111.738 69.555C111.021 69.367 110.453 69.108 109.904 68.8393L109.309 68.5458C108.618 68.2068 107.921 67.8802 107.182 67.6391C105.605 67.1247 103.984 66.7623 102.337 66.5688C101.98 66.5269 101.637 66.4064 101.365 66.1999C101.108 66.0039 100.911 65.7325 100.822 65.3717C100.706 64.9048 100.739 64.5513 100.989 64.1301C101.178 63.8138 101.447 63.5946 101.756 63.4687C102.072 63.3403 102.431 63.3101 102.788 63.3816Z" fill="#575757"/>
<path d="M-50 -25V-33H-58V-25H-50ZM190 -25H198V-33H190V-25ZM190 299V307H198V299H190ZM-50 299H-58V307H-50V299ZM-50 -17H190V-33H-50V-17ZM182 -25V299H198V-25H182ZM190 291H-50V307H190V291ZM-42 299V-25H-58V299H-42Z" fill="white"/>
</g>
</svg>
