<svg width="147" height="147" viewBox="0 0 147 147" fill="none" xmlns="http://www.w3.org/2000/svg">
<mask id="mask0_1011_1781" style="mask-type:alpha" maskUnits="userSpaceOnUse" x="0" y="0" width="147" height="147">
<circle cx="73.5" cy="73.5" r="69.5" fill="#C4C4C4" stroke="white" stroke-width="8"/>
</mask>
<g mask="url(#mask0_1011_1781)">
<circle cx="73.5" cy="73.5" r="69.5" fill="#EDEDE0" stroke="white" stroke-width="8"/>
<path fill-rule="evenodd" clip-rule="evenodd" d="M137.636 232.934C136.785 228.123 136.004 223.299 135.295 218.464C134.958 216.169 134.63 213.872 134.334 211.57C134.127 209.958 133.812 208.115 134.909 206.921C136.452 205.24 137.853 203.801 138.042 201.394C138.22 199.129 137.454 196.66 136.975 194.461C135.971 189.85 134.722 185.297 133.341 180.786C131.938 176.203 130.399 171.664 128.838 167.133C127.379 162.896 125.977 158.622 124.076 154.557C120.47 146.844 114.369 141.132 106.828 137.318C104.953 136.369 101.127 132.983 99.1682 132.225C97.3669 131.528 97.3733 133.563 95.6006 132.797C94.1834 132.184 92.8638 131.366 92.0703 129.998C91.2087 128.511 89.0482 126.432 88.7192 124.702C88.0223 121.035 88.7773 117.914 86.1609 115.154C83.8382 112.703 80.7163 111.023 77.4861 110.122C70.3799 108.139 60.9028 109.525 56.6153 116.131C54.5675 119.286 53.852 123.099 51.0888 125.674C48.6759 127.922 49.2159 129.458 46.0908 130.617C45.9138 130.683 41.1164 129.653 40.9394 129.719C37.5206 128.987 34.2531 131.036 31.1166 132.225C26.4406 133.997 21.9888 136.304 17.8063 139.045C9.37274 144.573 2.1495 151.751 -3.8055 159.874C-9.80973 168.064 -14.4684 177.243 -17.7855 186.837C-18.5911 189.167 -19.3147 191.526 -19.9529 193.908C-20.3102 195.241 -20.6919 196.623 -20.2569 197.988C-19.9011 199.104 -19.1097 199.936 -18.1804 200.606C-16.9206 201.514 -14.3936 202.104 -14.4428 203.93C-14.4804 205.319 -14.9513 206.78 -15.1812 208.153C-15.4548 209.787 -15.6796 211.431 -15.9044 213.072C-16.9269 220.543 -17.7228 228.057 -18.0747 235.591C-18.4212 243.01 -18.7087 250.581 -18.1943 257.997C-18.1603 258.486 -18.0145 258.935 -17.7794 259.315C-17.9989 259.399 -18.0158 259.808 -17.7426 259.866C-17.5512 259.907 -17.3602 259.947 -17.1688 259.988C-16.7712 260.289 -16.2754 260.473 -15.7047 260.491C-15.3179 260.503 -14.9313 260.521 -14.5449 260.541C-10.4672 261.393 -6.39015 262.199 -2.25923 262.809C2.76218 263.55 7.79838 264.155 12.8502 264.646C23.2308 265.656 33.5297 265.321 43.9241 264.777C54.3024 264.233 64.6746 264.106 75.0637 264.376C85.4618 264.647 95.8562 265.1 106.257 265.285C117.876 265.491 129.478 265.174 141.064 264.25C142.652 264.123 143.635 262.859 143.322 261.281C141.445 251.824 139.318 242.431 137.636 232.934Z" fill="white"/>
<path fill-rule="evenodd" clip-rule="evenodd" d="M37.6975 129.487C38.772 129.44 39.8676 129.614 40.9396 129.72C41.033 129.729 41.0685 129.873 40.9633 129.895C39.0448 130.296 37.1473 130.844 35.2631 131.401L34.4564 131.64C32.3317 132.269 30.2693 132.918 28.2124 133.756C24.113 135.428 20.2195 137.684 16.6362 140.275C2.8379 150.256 -7.14872 165.366 -13.4508 181.01C-15.1623 185.259 -16.6124 189.613 -17.7871 194.041C-18.0727 195.118 -18.3415 196.199 -18.5962 197.284C-18.671 197.602 -18.997 198.417 -18.8183 198.742C-18.6603 199.03 -18.0459 199.208 -17.7605 199.357L-16.7969 199.857C-14.9172 200.826 -11.7863 202.419 -11.4723 202.575L-10.9826 202.816C-2.97334 206.744 5.58452 210.075 14.5975 210.305L14.668 209.535C15.0699 205.278 15.5972 200.999 16.7482 196.873C16.8101 196.651 17.0921 196.726 17.1179 196.923C17.7591 201.808 17.5542 206.73 17.3304 211.637C16.9343 220.328 16.4083 229.015 15.9407 237.702C15.7066 242.048 15.4041 246.392 15.1309 250.735C14.8573 255.088 14.7688 259.544 14.1441 263.861C14.0049 264.823 12.8784 265.346 12.0253 265.245C11.0814 265.132 10.3552 264.301 10.3508 263.347C10.3394 260.833 10.6552 258.288 10.8308 255.78C10.9975 253.397 11.1764 251.015 11.3598 248.633C12.0299 239.94 12.8009 231.257 13.5139 222.568C13.7666 219.486 14.0395 216.407 14.3205 213.328C4.77269 213.02 -4.14724 209.482 -12.6567 205.349C-12.7798 208.146 -13.0773 210.939 -13.3653 213.725C-14.1691 221.5 -14.8779 229.271 -15.4084 237.07C-15.6763 241.009 -15.8713 244.953 -16.0412 248.897C-16.1246 250.836 -16.1927 252.775 -16.2448 254.714C-16.2623 255.361 -16.2781 256.007 -16.292 256.654L-16.3211 258.135C-16.3448 259.073 -16.4402 259.943 -17.2296 260.626C-18.0313 261.32 -19.1143 261.357 -19.9078 260.626C-20.9701 259.647 -20.7822 258.314 -20.7508 257C-20.7246 255.891 -20.6931 254.783 -20.6565 253.675C-20.5832 251.459 -20.4896 249.243 -20.3758 247.028C-19.9773 239.285 -19.1811 231.573 -18.1406 223.892L-17.7344 220.927C-16.9759 215.415 -16.1432 209.777 -14.4476 204.468C-15.1078 204.139 -15.7661 203.808 -16.4219 203.476C-17.5851 202.887 -18.7879 202.334 -19.9186 201.684C-20.8156 201.168 -21.5893 200.46 -21.839 199.416C-22.1175 198.252 -21.6916 196.98 -21.4087 195.845L-21.3841 195.745C-21.1067 194.602 -20.808 193.464 -20.4928 192.331C-19.2146 187.737 -17.6341 183.232 -15.7845 178.837C-12.081 170.038 -7.30062 161.679 -1.46139 154.121C3.79473 147.317 10.0039 141.148 17.2812 136.52C20.839 134.258 24.6304 132.4 28.64 131.087C30.5142 130.473 32.5533 129.939 34.5156 129.72C35.574 129.601 36.634 129.533 37.6975 129.487ZM56.7356 115.544C58.0125 114.173 60.5494 115.592 59.9363 117.408C58.4941 121.682 56.1977 125.58 52.6137 128.388C49.2449 131.027 45.2276 132.742 40.9013 132.376C40.8679 132.373 40.8389 132.364 40.8134 132.352L41.1862 132.858C44.1133 136.819 47.2012 140.725 50.923 143.963C58.506 150.559 68.8306 154.117 78.8003 151.586C86.6443 149.595 93.5548 143.39 95.5872 135.482C95.2959 135.613 94.9496 135.658 94.5696 135.575C92.9434 135.222 91.3336 133.511 90.2849 132.284C89.1503 130.957 88.2643 129.524 87.6148 127.904C86.4263 124.94 86.0451 121.123 87.6681 118.252C87.8684 117.898 88.3302 118.096 88.3695 118.442L88.4313 118.981C88.7442 121.672 89.1339 124.275 90.4023 126.729C91.023 127.929 91.7671 129.101 92.6728 130.106C93.1575 130.644 93.6829 131.158 94.2501 131.609C94.8029 132.049 95.4719 132.366 95.9674 132.871L96.0582 132.967L96.0607 132.95C96.186 131.885 96.9328 131.415 97.6636 131.445C98.3708 131.473 99.2014 131.785 99.5231 131.934L99.5536 131.948C104.487 134.317 109.031 137.405 113.307 140.831C122.15 147.917 128.775 157.179 131.985 168.086C133.561 173.44 134.465 178.956 135.42 184.446L136.007 187.81C136.898 192.879 137.893 198.047 139.904 202.762C140.424 203.981 140.023 205.125 138.748 205.605C137.155 206.204 135.557 206.784 133.956 207.356C134.742 210.73 135.221 214.221 135.81 217.611C137.062 224.818 138.596 231.979 139.911 239.176C140.584 242.856 141.191 246.549 141.862 250.229C142.186 252.001 142.523 253.771 142.852 255.543C143.029 256.498 143.189 257.456 143.358 258.413L143.387 258.572C143.484 259.076 143.605 259.598 143.467 260.103C143.308 260.679 142.859 261.086 142.458 261.499C142.128 261.839 141.65 261.841 141.246 261.656L141.113 261.594C140.39 261.256 139.824 260.919 139.568 260.103C139.405 259.587 139.347 259.005 139.241 258.473C139.037 257.454 138.844 256.433 138.662 255.409C138.298 253.36 137.942 251.31 137.595 249.258L137.271 247.337C136.157 240.715 135.1 234.054 134.565 227.362C134.328 224.394 134.077 221.428 133.823 218.461L133.633 216.236C133.392 213.42 133.098 210.533 133.056 207.678L132.099 208.018L127.427 209.67C126.269 210.08 124.795 210.919 123.548 210.766C122.938 210.691 122.473 210.499 122.114 210.15C122.544 216.223 123.126 222.285 123.902 228.316C124.608 233.804 125.391 239.285 126.315 244.74C126.773 247.442 127.244 250.141 127.755 252.832C128.01 254.179 128.274 255.523 128.545 256.866C128.681 257.536 128.842 258.206 128.948 258.882C129.068 259.655 128.856 260.131 128.424 260.768C128.069 261.29 127.359 261.559 126.784 261.198C126.022 260.72 125.625 260.305 125.4 259.434C125.197 258.643 125.073 257.817 124.915 257.016C124.624 255.537 124.343 254.056 124.072 252.574C123.504 249.473 122.981 246.364 122.514 243.246C120.867 232.263 119.822 221.187 119.294 210.093C119.034 204.62 118.953 199.142 118.999 193.663C119.023 190.854 119.115 188.038 119.313 185.237C119.514 182.401 119.933 179.622 120.306 176.813C120.319 176.714 120.459 176.709 120.465 176.813C120.641 179.962 120.919 183.107 121.054 186.264C121.184 189.276 121.241 192.294 121.344 195.307C121.48 199.268 121.667 203.232 121.916 207.192C122.366 206.7 123.045 206.416 123.724 206.526C124.708 206.32 125.766 205.804 126.704 205.49L130.24 204.309C132.098 203.688 133.957 203.071 135.822 202.473C134.154 196.861 133.012 191.165 132.037 185.387L131.602 182.788C130.74 177.672 129.812 172.554 128.252 167.6C126.613 162.392 124.159 157.55 120.904 153.165C117.696 148.844 113.792 145.039 109.773 141.48C106.332 138.433 102.651 135.682 99.1414 132.719C99.1782 132.915 99.186 133.131 99.1536 133.369C98.4075 138.832 95.5585 143.92 91.5882 147.704C83.6117 155.307 71.8046 156.884 61.5958 153.319C51.7205 149.871 42.9894 141.704 39.9047 131.597C39.8519 131.425 40.0835 131.356 40.1764 131.483C40.3475 131.718 40.5195 131.952 40.6917 132.187C40.6801 132.094 40.7285 131.992 40.8434 131.948C44.4425 130.557 47.9768 128.586 50.6747 125.797C51.9896 124.437 53.1373 122.897 54.0432 121.235C54.4771 120.44 54.8669 119.616 55.1779 118.764L55.2569 118.544C55.6338 117.477 55.9488 116.389 56.7356 115.544Z" fill="#575757"/>
<path fill-rule="evenodd" clip-rule="evenodd" d="M35.9527 40.6854C37.0483 39.5092 38.4496 38.633 39.9815 38.3529C38.5812 39.0527 37.2124 39.7821 35.9527 40.6854ZM33.8066 50.8269C33.6129 49.9305 33.4827 49.0255 33.4417 48.1207C33.6866 48.4931 34.0777 48.7419 34.5169 48.8704C34.2331 49.5059 33.9919 50.1607 33.8066 50.8269ZM107.121 64.8802C105.856 59.614 99.9558 49.4846 98.5612 47.535C97.0469 42.7075 105.306 38.8361 100.814 35.0612C98.7807 33.3579 96.0929 32.7551 93.5717 32.1511C76.1146 27.9571 57.3587 30.0722 41.168 37.7846C38.7053 37.2662 36.1394 38.2794 34.3485 40.059C25.9348 48.5189 37.4011 63.783 39.9084 73.3204C44.2103 83.9549 35.3488 85.7438 36.2991 94.7416C37.0375 99.3901 41.7439 100.619 45.7155 101.321C46.3521 101.47 47.2031 101.493 47.4084 102.166C48.0519 106.095 50.258 109.839 53.2198 112.381C52.9607 113.148 53.1585 114.08 54.0718 114.754C62.3467 120.906 72.7806 123.985 83.1014 123.431C95.401 122.772 101.762 115.719 103.297 113.903C111.783 102.438 110.769 87.3112 109.038 73.6476C107.832 64.1293 109.361 74.2093 107.121 64.8802Z" fill="white"/>
<path fill-rule="evenodd" clip-rule="evenodd" d="M69.1949 21.0593C69.5816 19.8504 70.6759 19.1234 71.9287 19.2734C73.0379 19.4045 74.2252 20.5056 74.09 21.7209C74.0647 21.9555 74.0309 22.1753 73.9907 22.3824L73.996 22.3842L74.0013 22.3845L73.9738 22.4648C73.8914 22.8516 73.7773 23.1982 73.6083 23.5258C73.3928 24.1535 73.1858 24.7833 72.9809 25.4153C73.2766 25.4026 73.5787 25.4195 73.8851 25.4765C74.202 24.665 74.521 23.8555 74.8379 23.0418C75.178 22.1731 75.4168 21.0572 76.0886 20.3851C76.9485 19.527 78.44 19.3495 79.4879 19.9624C80.5949 20.6091 80.99 21.7589 80.7492 22.9911C80.6268 23.6196 80.207 24.057 79.6876 24.3318L79.6316 24.3606L79.2323 25.3075C79.3548 25.2546 79.4816 25.206 79.6189 25.1659C79.8344 25.1025 80.0456 25.0623 80.2527 25.0454C80.8231 24.0119 81.4506 23.008 82.0992 22.0231C82.8449 20.8902 84.3027 20.4084 85.5259 21.1248C86.6203 21.7652 87.2076 23.4476 86.4238 24.5529C85.828 25.392 85.264 26.248 84.7083 27.1124C84.8034 27.1293 84.8985 27.1504 84.9893 27.1779C85.0316 27.1209 85.0759 27.0638 85.1224 27.0067C85.7287 26.2543 86.4344 25.69 87.159 25.0644C87.8372 24.4769 88.1499 23.5533 89.0414 23.1073C90.1633 22.5472 91.5154 22.8156 92.183 23.9316C93.6154 26.3219 91.2111 28.0677 89.6731 29.5154C91.0104 28.6806 92.4027 27.9176 93.8309 27.2582C94.6337 26.8884 95.4492 26.5312 96.2773 26.2226C97.5048 25.7661 98.4978 25.9121 99.5055 26.7616C99.9555 27.142 100.179 27.9728 99.9724 28.5263C99.571 29.5873 98.9372 30.2319 97.8259 30.5384C97.0442 30.754 96.2435 30.8998 95.4618 31.1259C94.152 31.5021 92.8801 31.9608 91.6463 32.5335C91.7351 32.5885 91.8196 32.6477 91.8978 32.7153C92.8189 32.4173 93.7569 32.1594 94.6992 31.9396C96.2619 31.5731 97.8525 31.3254 99.45 31.1705L99.9807 31.1211C101.896 30.9372 104.199 30.5979 105.375 32.4321C105.761 33.0365 105.803 34.0341 105.375 34.6322C104.555 35.782 103.739 36.0102 102.383 36.0314C103.718 36.173 105.051 36.3484 106.378 36.5534C107.293 36.6929 108.207 36.851 109.118 37.0265L109.572 37.1156C110.682 37.3375 111.92 37.4664 112.872 38.109C114.951 39.5123 113.975 42.2451 111.672 42.5367C110.559 42.6762 109.323 42.2049 108.231 41.9851C107.17 41.7717 106.105 41.5835 105.036 41.4187C104.483 41.332 103.929 41.256 103.374 41.1862C104.504 41.349 105.626 41.5793 106.718 41.9048L107.022 41.9964C109.133 42.6402 111.983 43.6655 112.642 45.9226C113.041 47.2942 111.949 48.4905 110.627 48.5708C109.397 48.6448 108.372 47.9114 107.329 47.3703C106.568 46.9772 105.795 46.6834 104.975 46.4319C104.128 46.172 103.264 45.9564 102.394 45.781C103.129 46.1864 103.846 46.632 104.533 47.1304L104.849 47.364C106.677 48.7264 109.464 50.8357 108.82 53.3896C108.617 54.1948 107.72 54.9641 106.858 54.8817C104.614 54.6725 103.376 52.2821 101.684 51.0013C101.242 50.6674 100.758 50.3377 100.251 50.0164C102.816 53.0768 104.857 56.6148 106.41 60.269C109.822 68.3083 110.869 75.7534 110.894 84.3975L110.895 84.6652C110.899 89.4333 110.791 94.288 110.327 99.0349C109.896 103.42 109.105 107.749 107.117 111.72C103.786 118.38 97.2935 123.566 90.1337 125.54C82.1668 127.738 73.2618 126.02 66.7358 120.948C65.071 119.654 67.2787 116.846 68.9795 118.04C75.7717 122.805 84.5562 124.314 92.352 121.089C98.5358 118.532 103.515 113.031 105.626 106.696C106.969 102.667 107.36 98.37 107.84 94.1704L107.872 93.8906C108.379 89.4988 108.672 85.0773 108.668 80.6559C108.662 72.4449 107.483 65.6859 103.872 58.2379C102.174 54.7295 99.9703 51.4855 97.3379 48.6384C96.5393 48.8012 95.69 48.5729 94.883 48.4862C94.471 48.4419 94.059 48.3996 93.647 48.3616C94.0679 48.6338 94.4806 48.9168 94.8863 49.2065L95.4184 49.5903C97.0836 50.7833 99.1962 52.1421 98.7682 54.4484C98.652 55.0719 98.0309 55.6447 97.4287 55.7863C95.2463 56.3062 93.7464 54.1842 92.2717 52.9246C90.9893 51.8298 89.6478 50.8491 88.2809 49.8664C87.9703 49.6444 87.6576 49.4225 87.3428 49.2027C87.6386 49.5476 87.9263 49.898 88.2069 50.2516L88.6218 50.7776C89.8773 52.3491 91.6871 54.3917 90.5689 56.4288C90.252 57.0037 89.5759 57.3862 88.921 57.3735C86.6689 57.327 85.7731 54.7697 84.7168 53.155C83.8083 51.7706 82.8217 50.4666 81.8013 49.1626C81.5203 48.8054 81.2372 48.4482 80.9499 48.091C76.2196 48.3362 71.5062 48.9618 66.8752 49.9615C63.6935 50.6484 60.5647 51.5384 57.459 52.5125L57.2009 52.5946C55.5202 53.136 53.7884 53.8288 52.5766 55.017C52.4037 55.8356 52.5364 56.6989 52.7019 57.5164L52.8309 58.1422C53.3623 60.7588 53.7244 63.3271 53.4534 66.0135C53.1724 68.7843 52.3379 71.2761 51.3196 73.8504C50.8379 75.0635 50.3393 74.8437 50.1682 76.1457C50.0371 77.1373 50.1182 78.161 50.2077 79.161L50.2826 80.0087C50.4704 82.2294 50.5647 84.6505 49.1097 86.4828C48.8837 86.7639 48.3999 86.6519 48.2393 86.3708C48.1759 86.2588 48.1083 86.151 48.0344 86.0474C47.333 85.0308 46.2576 84.4517 45.028 84.2277C44.8717 84.2002 44.933 83.991 45.064 83.9741C46.1034 83.8515 47.0879 84.1115 47.9245 84.6483C47.5278 83.2759 44.4563 83.9433 43.4466 84.21L43.4119 84.2192C42.1527 84.5574 40.9611 85.1069 39.9111 85.8847C37.7985 87.4487 36.5773 89.8876 36.6386 92.5147C36.6999 95.0974 38.033 97.4836 40.3231 98.72C41.428 99.316 42.6851 99.6034 43.9358 99.5907C45.2414 99.5781 46.4034 99.0053 47.7111 99.0856C48.4675 99.1321 49.0464 99.9437 48.609 100.652C48.3175 101.125 47.9372 101.497 47.4978 101.782C48.5689 104.253 49.9358 106.61 51.5119 108.784C52.3844 109.991 53.3731 111.105 54.4611 112.122C55.3104 112.916 57.1506 113.836 57.0471 115.161C57.0111 115.639 56.764 115.93 56.3288 116.108C54.9757 116.661 53.3304 114.756 52.4254 113.837L52.3527 113.764C51.2245 112.64 50.1957 111.397 49.2999 110.078C47.7111 107.736 46.7245 105.096 46.3168 102.324C44.1471 102.977 41.2738 102.364 39.5034 101.563C33.9386 99.0476 32.1196 91.551 35.502 86.5589C36.1569 85.593 36.9766 84.7666 37.9104 84.0988C37.7055 83.9868 37.5133 83.843 37.3421 83.6613C36.3955 82.6553 35.7262 81.3426 35.062 80.1327L34.9823 79.988C34.3926 78.9228 33.8363 77.8409 33.3149 76.7423L33.121 76.3295C31.9569 73.825 30.9365 72.7302 30.1062 70.0968C29.3076 67.5564 28.6781 64.9673 28.2703 62.3339L28.162 61.6369C27.9261 60.1088 27.7031 58.4748 27.8752 56.9234C26.69 57.3101 25.4985 57.5489 24.3259 56.9677C23.5527 56.5852 23.1259 55.4693 23.39 54.6682C23.5823 54.0786 23.9034 53.6157 24.3112 53.2522C24.0682 53.1296 23.84 52.9732 23.6393 52.7999L23.464 52.6479C22.7541 52.0306 22.7034 50.8576 23.1344 50.0841C23.1766 50.0101 23.2189 49.934 23.259 49.86C23.6689 49.1266 24.5161 48.6469 25.3527 48.6596C25.4879 48.6617 25.6231 48.6617 25.7604 48.6596C25.3696 48.5729 24.9872 48.4398 24.6238 48.2157C22.9844 47.2076 23.1914 44.4748 25.1752 43.9929C26.0076 43.7922 26.9266 43.8746 27.8435 44.0902C27.8097 44.0711 27.7759 44.0521 27.7421 44.031C27.0492 43.6062 26.4682 42.7756 26.5337 41.9238C26.6055 40.9812 26.9097 40.3091 27.7421 39.8145C28.4647 39.3876 29.4872 39.3475 30.2055 39.8145C30.8288 40.2225 31.4393 40.6726 32.0266 41.1566C31.4372 40.4317 30.9259 39.6434 30.7189 38.8064C30.4633 37.7645 30.89 36.6295 31.8281 36.08C32.5759 35.6425 33.3661 35.6911 34.0717 36.0293C34.0337 35.4819 34.1668 34.9239 34.5302 34.4293C35.2738 33.4151 36.6259 32.8315 37.8027 33.5713C37.9569 33.6685 38.164 33.8354 38.3647 34.0405C37.9738 32.7956 38.3266 31.4895 39.6597 30.9273C40.4731 30.5828 41.5738 30.7561 42.2795 31.35C41.8316 28.9258 45.4083 27.1441 46.7985 29.6486C47.114 30.216 47.4261 30.8134 47.7053 31.4245L47.8083 31.6543L47.8189 31.6501L47.7479 31.4821L47.6752 31.314C47.2886 30.4158 46.7964 29.4816 46.6611 28.5073C46.4626 27.0659 47.1048 25.6985 48.6724 25.4871C49.4816 25.3772 50.3816 25.745 50.9245 26.3877C50.6309 24.1514 53.128 22.5261 54.9259 24.1958C55.7773 24.9862 56.2316 26.1423 56.7724 27.1568C57.0788 27.7295 57.3914 28.3002 57.6978 28.8751C57.7759 28.7821 57.8604 28.6891 57.9492 28.5982C57.4949 27.2371 57.1421 25.8422 56.8442 24.4388C56.5611 23.1158 57.2224 21.742 58.5872 21.3681C59.8273 21.0255 61.3802 21.7908 61.6569 23.1117C61.8513 24.0415 62.0816 24.9611 62.3351 25.876C62.5083 25.8337 62.6795 25.8041 62.8485 25.783C62.8625 25.6111 62.8785 25.4383 62.8964 25.2664L62.9629 24.655C63.1106 23.2581 63.2596 21.6635 63.9893 20.476C65.2337 18.447 68.4238 19.2882 68.4576 21.687C68.4766 22.9277 67.9717 24.1577 67.7964 25.3857C67.7203 25.9204 67.6759 26.4614 67.6506 27.0025C67.9907 25.206 68.4576 23.4328 68.9985 21.687C69.0618 21.4778 69.1295 21.2686 69.1949 21.0593ZM41.671 90.3358C44.4703 89.9025 47.0287 91.4644 48.6872 93.6519C48.9893 94.0513 48.7907 94.6156 48.5182 94.9517C48.3217 95.199 48.0576 95.2285 47.7597 95.2666C47.4175 95.311 46.9844 95.0341 46.8344 94.7361C45.7675 92.6057 43.8639 91.2594 41.671 90.4309C41.6308 90.4161 41.6182 90.3442 41.671 90.3358ZM45.5515 52.165L45.6363 52.0739C46.2027 51.4862 45.3076 50.5883 44.7399 51.1774C44.1422 51.7975 43.745 52.5507 43.3631 53.3141C42.999 54.042 44.0921 54.6849 44.4576 53.9543L44.6241 53.6222C44.8853 53.1059 45.1638 52.5957 45.5515 52.165ZM37.6901 50.9586C38.4929 50.8234 38.1526 49.6011 37.3531 49.736C36.3175 49.9105 35.2859 50.109 34.25 50.2838C33.4474 50.419 33.7878 51.6413 34.5872 51.5066C35.6228 51.3319 36.6545 51.1334 37.6901 50.9586ZM85.5143 42.6143C84.7387 42.3554 84.406 43.5798 85.1773 43.8372C86.2432 44.1929 87.3004 44.5575 88.3115 45.0514C89.0418 45.4081 89.6852 44.3148 88.9512 43.9564C87.8414 43.4143 86.6843 43.0049 85.5143 42.6143ZM37.5076 40.9708C36.7502 40.6678 36.4212 41.8938 37.1706 42.1937L39.9086 43.2891C40.666 43.5922 40.995 42.3664 40.2456 42.0665L37.5076 40.9708ZM95.075 37.9934L94.9751 37.9304C94.2885 37.4853 93.6524 38.5826 94.3352 39.0254C94.736 39.2852 95.2234 39.4614 95.5905 39.7708L95.6672 39.8393C96.26 40.3994 97.1581 39.5045 96.5636 38.9425C96.1287 38.5318 95.578 38.3031 95.075 37.9934Z" fill="#575757"/>
<path fill-rule="evenodd" clip-rule="evenodd" d="M74.0449 103.854C76.632 100.847 80.9894 100.638 84.5989 101.389C86.9153 101.872 89.1705 102.676 91.5232 102.974C92.622 103.113 93.7327 103.155 94.8395 103.135C95.9267 103.115 97.0155 102.895 98.0989 102.936C98.2654 102.942 98.3284 103.161 98.1841 103.25C96.6978 104.163 94.6956 104.456 92.94 104.635C92.9455 104.765 92.9533 104.892 92.9713 104.999C93.0192 105.286 93.0629 105.571 93.0982 105.86C93.1779 106.511 93.267 107.16 93.356 107.81C93.5313 109.089 93.5864 110.408 93.8948 111.665L93.9486 111.874C94.02 112.138 94.0363 112.376 94.0124 112.591L94.0838 112.559L94.3093 112.449L94.4572 112.38C94.9968 112.129 95.5116 111.947 96.146 112.008C96.6289 112.054 97.0343 112.384 97.0373 112.899C97.0493 115.215 93.9302 115.959 92.146 116.403L91.6228 116.531C89.3518 117.086 87.0331 117.571 84.6974 117.688C80.9491 117.874 76.737 116.839 74.2851 113.798C71.9972 110.96 71.5779 106.722 74.0449 103.854ZM91.0669 113.582C90.6736 110.097 86.3915 109.905 85.1597 112.116C84.613 109.034 76.5266 111.849 77.1589 112.462C79.5556 114.784 83.1925 114.993 86.3191 114.563C87.9114 114.344 89.505 113.988 91.0669 113.582ZM86.3146 104.446L85.2381 104.291L84.8141 104.232C82.1452 103.875 79.1438 103.69 76.9496 105.402C76.1484 106.027 75.6976 106.842 75.5292 107.717C77.6055 107.409 79.6894 107.174 81.7794 106.979L82.3496 106.926C83.6573 106.809 84.9644 106.684 86.2709 106.554L87.1995 106.46L88.1275 106.363C88.4541 106.329 90.6553 106.217 91.0692 106.292C91.1134 105.92 91.1711 105.115 91.2644 104.753C89.7006 104.806 88.1436 104.69 86.589 104.483L86.3146 104.446ZM91.2702 88.865C92.8656 89.8351 95.2964 92.0972 93.5802 94.5022C91.56 96.6228 88.6514 94.1914 87.2181 93.0918C85.889 92.2395 84.3958 94.4314 85.6289 95.4265C95.986 103.097 100.189 89.1186 92.0771 87.7244C91.184 87.5707 90.8522 88.5649 91.2702 88.865ZM94.1252 92.9518L94.2019 92.9101L94.2278 92.8944C94.2727 92.8653 94.2441 92.8685 94.1422 92.9038L94.0657 92.9313V92.9854C94.0853 92.9734 94.1062 92.9643 94.1252 92.9518ZM73.6934 84.3329L73.6931 84.2853C73.6961 82.9376 74.4807 79.8604 76.4202 79.8604C77.6318 79.8604 78.3674 81.9546 78.4948 84.1135L78.4992 84.2015C78.5554 85.5437 78.1872 88.4775 76.4202 88.4775C74.6344 88.4775 73.7118 85.6988 73.6934 84.3329ZM102.247 83.9102L102.248 83.8626C102.245 82.5149 101.46 79.4377 99.5205 79.4377C98.3392 79.4377 97.6104 81.4285 97.4567 83.529L97.446 83.6908C97.3695 84.9876 97.7138 88.0548 99.5205 88.0548C101.306 88.0548 102.229 85.2761 102.247 83.9102ZM74.8 70.6714C76.3828 70.4307 78.4788 70.8881 79.2167 72.4981C79.5455 73.2155 79.1561 74.0087 78.3273 74.0484C76.3243 74.1443 74.5278 73.6984 72.7697 75.0014C72.013 75.5622 71.3769 76.3387 70.8431 77.1133L70.6411 77.4081L70.4738 77.6509C70.1113 78.1841 69.7681 78.7633 69.8217 79.4065C69.8375 79.597 69.6429 79.7777 69.4581 79.7701C68.3058 79.7227 68.1818 78.2775 68.3333 77.4095C68.6151 75.7986 69.3945 74.2864 70.4747 73.0684C71.6092 71.7893 73.1069 70.9291 74.8 70.6714ZM96.6005 72.6265C97.6919 71.9246 99.088 71.655 100.367 71.7583C102.888 71.9614 107.117 74.1053 106.56 77.1858C106.389 78.1358 105.068 78.6371 104.289 78.11C103.453 77.5434 103.249 76.6627 102.626 75.9221C102.129 75.3305 101.499 74.9026 100.825 74.538C100.16 74.1784 99.3913 73.9605 98.637 73.881L98.5114 73.8691C98.0574 73.8304 95.7647 73.8407 96.1013 74.6969C96.1672 74.8645 95.9179 74.9972 95.8034 74.8704C95.1005 74.0927 95.8966 73.0792 96.6005 72.6265Z" fill="#575757"/>
<path d="M-57 -19V-27H-65V-19H-57ZM183 -19H191V-27H183V-19ZM183 305V313H191V305H183ZM-57 305H-65V313H-57V305ZM-57 -11H183V-27H-57V-11ZM175 -19V305H191V-19H175ZM183 297H-57V313H183V297ZM-49 305V-19H-65V305H-49Z" fill="white"/>
</g>
</svg>
