<svg width="147" height="147" viewBox="0 0 147 147" fill="none" xmlns="http://www.w3.org/2000/svg">
<mask id="mask0_1011_1784" style="mask-type:alpha" maskUnits="userSpaceOnUse" x="0" y="0" width="147" height="147">
<circle cx="73.5" cy="73.5" r="69.5" fill="#C4C4C4" stroke="white" stroke-width="8"/>
</mask>
<g mask="url(#mask0_1011_1784)">
<circle cx="73.5" cy="73.5" r="69.5" fill="#EDEDE0" stroke="white" stroke-width="8"/>
<path fill-rule="evenodd" clip-rule="evenodd" d="M138.496 195.788C138.496 194.077 136.13 191.042 136.125 189.493C138.115 189.137 139.778 186.441 139.337 184.752C138.561 184.159 136.526 182.99 135.684 182.444C130.556 182.6 132.505 175.463 131.924 171.835C131.34 168.286 130.906 164.574 130.051 161.005C128.532 158.149 127.819 154.947 126.367 152.105C125.719 151.163 124.671 150.3 124.357 149.205C121.181 145.735 116.809 143.655 113.21 140.716C114.607 140.268 114.514 138.384 114.423 137.174C114.748 135.596 114.401 133.616 112.962 132.726C112.476 131.141 110.35 130.588 109.107 131.598C108.29 127.937 105.096 125.715 101.749 124.357C101.752 124.346 101.755 124.335 101.758 124.325C98.3832 122.985 94.3379 122.317 90.9705 123.07C92.748 103.256 77.5784 102.529 69.8796 104.194C65.9417 105.046 60.0332 107.697 58.6909 111.383C57.9331 113.464 55.7585 120.176 55.4489 122.317C49.5699 118.961 42.7545 114.535 37.6554 121.292C36.6343 122.469 35.5045 123.344 33.9766 123.748C29.2062 124.987 22.8745 125.028 20.1631 129.893C18.5424 132.907 20 134.893 19.5645 137.907C-1.90933 152.993 -19.8546 208.569 -15.8253 234.424C-14.856 243.676 -10.1236 260.054 1.55715 258.012C7.51488 264.531 107.513 264.531 117.824 258.012C126.312 260.233 134.936 256.795 138.496 248.663C143.016 237.511 138.226 225.468 137.377 214.029C136.861 211.141 136.094 208.848 135.684 205.892C135.513 204.66 136.103 202.61 135.684 201.474C135.881 200.735 138.496 197.498 138.496 195.788Z" fill="white"/>
<path fill-rule="evenodd" clip-rule="evenodd" d="M91.2252 116.666C91.4614 117.678 91.2457 118.818 91.2852 119.857C91.3228 120.849 91.4399 121.836 91.6123 122.813C93.4254 121.859 95.568 121.737 97.6342 122.044C100.307 122.441 103.4 123.32 105.494 125.107C106.012 125.548 106.44 126.07 106.799 126.646C107.229 127.337 107.504 128.118 108.187 128.613C109.243 129.38 110.552 129.676 111.567 130.525C112.602 131.391 113.244 132.684 113.38 134.02C113.453 134.731 113.335 135.395 113.201 136.088C113.08 136.712 113.139 136.968 113.303 137.568C113.432 138.04 113.186 138.575 112.785 138.835C113.645 139.425 114.493 140.033 115.326 140.666C120.181 144.352 124.286 148.947 127.132 154.354L127.201 154.488L127.28 154.649C127.974 156.075 129.788 160.242 130.014 161.178C130.175 161.668 130.331 162.159 130.476 162.653C130.859 163.963 131.184 165.289 131.454 166.625L131.526 166.99C131.745 168.113 132.121 169.443 132.06 170.639C132.691 173.906 133.249 177.187 133.726 180.482C133.788 180.913 133.616 181.264 133.349 181.497C133.987 181.599 134.62 181.725 135.247 181.852L135.611 181.929L135.793 181.969C137.097 182.263 138.385 182.692 139.239 183.788C140.161 184.974 140.18 186.498 139.254 187.692C138.468 188.706 137.321 189.188 136.123 189.493C135.887 189.552 135.648 189.607 135.409 189.655C135.249 189.689 135.143 189.469 135.295 189.385L135.549 189.244L135.896 189.054C136.799 188.556 137.736 187.994 138.236 187.096C138.914 185.876 138.377 184.748 137.213 184.129C136.239 183.61 135.033 183.477 133.951 183.299L133.504 183.226C132.373 183.045 131.219 182.928 130.077 183.057C129.078 183.171 128.066 183.511 127.258 184.122L127.184 184.181L127.106 184.246C126.399 184.859 125.381 186.238 126.716 186.635C127.736 186.937 128.979 186.862 130.052 186.921L130.191 186.929C131.089 186.99 132.027 186.99 132.935 187.098C133.261 187.136 133.582 187.189 133.897 187.263C134.799 187.476 134.488 188.677 133.694 188.761C133.499 188.783 133.301 188.793 133.102 188.797C132.582 189.188 131.864 189.366 131.249 189.609C130.662 189.841 130.073 190.072 129.479 190.298C129.99 190.321 130.502 190.363 131.011 190.427C131.175 190.446 131.177 190.668 131.011 190.685C129.785 190.809 128.56 190.945 127.339 191.116C125.448 191.378 123.57 191.729 121.734 192.263C120.392 192.656 119.067 193.123 117.781 193.668L117.392 193.836L117.232 193.906C116.065 194.412 114.556 195.004 113.885 196.118C113.534 196.699 113.38 197.598 113.875 198.154C114.403 198.753 115.511 198.684 116.251 198.713L116.311 198.716C117.878 198.792 119.448 198.802 121.018 198.748C124.307 198.631 127.599 198.272 130.829 197.64C131.425 197.524 131.683 198.418 131.083 198.557C127.272 199.443 123.42 199.929 119.511 199.952L119.082 199.952C117.559 200.244 116.066 200.678 114.585 201.168L114.289 201.267C113.414 201.563 111.921 201.857 111.405 202.725C111.063 203.302 111.183 203.697 111.521 203.966C112.117 204.437 113.384 204.526 114.001 204.549C116.473 204.642 118.947 204.659 121.421 204.606C122.657 204.579 123.893 204.534 125.129 204.471C126.337 204.408 127.628 204.228 128.832 204.344C129.35 204.395 129.523 205.156 128.961 205.297C127.476 205.674 125.811 205.641 124.276 205.689L124.1 205.695C122.452 205.754 120.802 205.779 119.154 205.775C117.74 205.769 116.326 205.741 114.913 205.689L113.664 205.639L113.442 205.629C112.777 205.593 112.097 205.516 111.506 205.242C110.961 206.155 111.369 207.379 112.072 208.102C112.742 208.791 113.708 209.129 114.633 209.341C114.72 209.36 114.806 209.378 114.893 209.396C116.926 209.81 118.996 209.774 120.897 210.708C122.496 211.494 123.961 212.804 125.752 213.115C127.353 213.394 128.518 212.688 129.371 211.382C129.418 211.31 129.464 211.238 129.509 211.166C130.18 210.084 130.664 208.892 131.372 207.831C131.733 207.29 132.141 206.771 132.64 206.348C132.863 206.155 134.431 205.323 134.676 205.073C135.73 203.991 134.797 201.715 135.071 200.358C135.392 198.779 136.78 198.224 137.613 197C139.195 194.671 134.856 192.489 136.153 189.943C136.17 189.911 136.191 189.888 136.218 189.873C136.332 189.812 136.514 189.888 136.504 190.038C136.36 191.936 138.168 193.242 138.821 194.886C139.565 196.757 138.377 197.89 137.165 199.139C135.61 200.743 136.704 202.539 136.358 204.471C136.313 204.724 136.24 204.947 136.146 205.147C136.411 205.312 136.616 205.585 136.661 205.966C137.195 210.489 137.768 214.998 138.704 219.459L138.904 220.406L139.172 221.67C139.839 224.832 140.462 228.007 140.58 231.239C140.952 233.967 141.099 236.718 140.879 239.464C140.211 247.823 135.54 256.569 127.053 259.134C125.089 259.729 123.006 259.883 120.99 259.466C120.299 259.325 119.332 259.012 118.463 258.538C118.515 259.096 118.556 259.653 118.573 260.209C118.859 260.527 118.989 261.009 118.826 261.421C118.134 261.193 117.505 260.832 116.938 260.339L116.844 260.255C116.509 259.007 116.41 257.641 116.361 256.326L116.349 255.952C116.336 255.588 116.328 255.231 116.315 254.882C116.243 252.712 116.294 250.537 116.406 248.368L116.488 246.772C116.677 243.049 116.83 239.334 116.727 235.601C116.609 231.304 116.241 227.026 115.78 222.753C115.541 220.548 115.271 218.348 114.994 216.148C114.773 214.377 114.401 212.471 114.395 210.645C112.972 210.34 111.576 209.757 110.701 208.563C109.774 207.297 109.637 205.678 110.461 204.38C109.664 203.29 110.317 202.262 111.302 201.569C109.789 200.721 108.946 198.409 108.722 196.801C108.57 195.698 108.521 194.047 108.992 192.806C108.316 192.83 107.64 192.9 106.964 193.016C106.182 193.153 105.416 193.354 104.659 193.603L104.276 193.73C104.083 193.795 103.865 193.871 103.649 193.961C105.016 196.222 103.26 198.272 101.008 198.858C100.58 198.969 100.142 199.048 99.7009 199.111C98.7058 199.249 97.6894 199.291 96.7028 199.382C94.8142 199.555 92.9149 199.802 91.0199 199.883C90.6034 199.902 90.3354 199.707 90.2084 199.436C90.2044 199.432 90.2023 199.43 90.2023 199.426C90.1579 199.354 90.1281 199.278 90.1175 199.198C90.1241 199.204 90.1325 199.208 90.1387 199.213C90.0478 198.705 90.3522 198.088 91.0199 198.014C93.7558 197.706 96.5295 197.691 99.2739 197.465L99.4498 197.45C100.311 197.376 101.326 197.239 102.008 196.693C102.642 196.186 102.699 195.526 102.445 194.931C102.441 194.945 102.437 194.962 102.434 194.977C102.415 195.095 102.253 195.091 102.2 195.009C102.042 194.768 102.001 194.531 102.042 194.303C101.851 194.083 101.621 193.889 101.372 193.738C100.267 193.067 98.8135 192.883 97.5563 192.684C96.1811 192.466 94.7952 192.367 93.4072 192.301C90.6755 192.172 87.9351 192.394 85.248 192.885C85.1358 192.904 85.0896 192.747 85.1994 192.712C86.2471 192.365 87.3182 192.073 88.402 191.843C88.3767 191.838 88.3515 191.834 88.3262 191.828C88.2311 191.805 88.1633 191.689 88.1952 191.596C88.1992 191.581 88.2058 191.566 88.2121 191.553C87.7513 191.342 87.5593 190.632 88.117 190.344C89.8556 189.446 91.8964 189.04 93.8044 188.67C95.6361 188.317 97.4865 188.07 99.3396 187.85C102.473 187.483 105.889 187.491 108.903 186.502L109.027 186.46C110.255 186.037 111.721 185.178 111.806 183.729C111.933 181.537 108.677 182.108 107.321 182.161C103.609 182.303 99.9016 182.56 96.2065 182.958C95.452 183.038 94.6978 183.12 93.9438 183.205C92.7882 183.334 91.6304 183.469 90.4769 183.613C89.8325 183.693 89.1734 183.799 88.51 183.9C88.303 183.951 88.1001 183.987 87.8973 184.006C87.8823 184.008 87.8699 184.004 87.8593 183.998C86.8938 184.133 85.9241 184.236 84.9818 184.207C84.8739 184.205 84.8065 184.035 84.9206 183.985C86.1375 183.469 87.4917 183.165 88.8499 182.926C89.691 182.298 90.707 181.795 91.5417 181.309C92.6868 180.641 93.9987 179.659 95.298 179.259C95.883 178.798 96.5464 178.428 97.1572 178.177C96.9818 177.904 96.9184 177.526 96.9499 177.207C97.0663 176.063 97.9811 175.425 99.0375 175.201C99.3649 175.133 99.7431 175.083 100.147 175.064C100.155 174.85 100.25 174.641 100.461 174.485L100.524 174.437L100.568 174.402C101.277 173.826 102.685 172.204 100.989 172.086C100.09 172.022 99.3288 172.682 98.6126 173.128C97.1253 174.056 95.6868 174.102 93.9882 173.872L93.2246 173.762L93.0976 173.745C91.8696 173.584 90.6238 173.561 89.9382 174.814C89.2027 176.154 88.9452 177.376 87.4619 178.114C86.0445 178.817 84.4706 178.957 83.1692 179.925C81.7746 180.96 80.7267 182.414 79.5861 183.704C77.0699 186.544 74.1903 189.053 71.2241 191.412L70.6964 191.83C67.9648 193.99 65.1451 196.116 62.0868 197.78C62.0656 197.79 62.0443 197.794 62.0255 197.794C61.9431 197.786 61.8816 197.68 61.9558 197.608C65.5283 194.136 69.7072 191.321 73.3767 187.941C75.0034 186.443 76.552 184.866 78.0415 183.23C79.3429 181.795 80.4964 180.183 82.0135 178.961C82.7506 178.367 83.5473 177.913 84.4387 177.596C85.2713 177.298 86.2051 177.15 86.972 176.693C88.4741 175.801 88.3283 173.688 89.8304 172.728C91.1183 171.905 92.6873 172.206 94.1154 172.401L94.2861 172.424C95.2114 172.547 96.1684 172.65 97.0516 172.284C97.926 171.923 98.6295 171.247 99.5105 170.887C100.738 170.382 102.479 170.503 103.109 171.853C103.71 173.143 102.889 174.309 101.93 175.165C103.237 175.402 104.385 176.034 104.482 177.323C105.441 177.291 106.398 177.257 107.357 177.224C110.697 177.108 114.054 176.883 117.397 176.943C117.32 176.602 117.287 176.251 117.282 175.894C117.28 175.696 117.289 175.497 117.303 175.294C117.329 174.947 117.557 174.738 117.895 174.702L118.65 174.622L118.903 174.597C120.317 174.463 121.899 174.435 122.976 175.37C123.555 175.875 124.022 177.038 123.739 177.813C124.398 178.04 125.025 178.329 125.598 178.695C126.733 178.314 127.924 178.357 129.065 178.754L129.2 178.802C130.011 179.1 131.161 179.664 131.601 180.469C130.532 173.216 129.09 166.025 127.278 158.92C126.121 156.083 124.66 153.371 122.887 150.868C118.423 144.562 111.992 140.225 106.216 135.239C105.707 135.8 105.158 136.334 104.644 136.848L104.427 137.067C103.381 138.126 102.29 139.14 101.175 140.126C98.8452 142.187 96.3926 144.089 93.9575 146.021C89.0487 149.917 84.6106 154.054 80.9181 159.14C80.8518 159.232 80.6677 159.178 80.7191 159.056C83.2518 153.033 88.5022 148.454 93.2718 144.206C95.7799 141.971 98.3468 139.791 100.758 137.451C101.883 136.361 102.972 135.232 103.999 134.049L104.255 133.753C104.927 132.966 106.5 130.564 107.54 132.297C107.757 132.659 107.748 133.123 107.54 133.486C107.244 134.002 106.869 134.494 106.459 134.966C107.917 135.759 109.345 136.597 110.741 137.483C110.661 137.056 110.681 136.584 110.755 136.112L110.78 135.962L110.882 135.376C111.027 134.512 111.103 133.709 110.555 132.867C109.87 131.813 108.578 131.484 107.549 130.875C106.364 130.174 105.745 129.235 105.111 128.043C103.895 125.762 101.149 124.848 98.7893 124.114L98.4924 124.022C96.3117 123.345 93.9527 122.984 91.7724 123.633C91.9769 124.586 92.2446 125.525 92.579 126.439C92.935 127.413 93.7482 128.495 93.6649 129.546C93.6075 130.274 92.7349 131.052 92.0109 130.496C90.9854 129.709 90.7805 128.427 90.5056 127.206C90.2399 126.025 90.0702 124.815 89.998 123.607C89.9284 122.442 89.9828 121.278 90.1263 120.122L90.2364 119.272L90.2631 119.075C90.3829 118.217 90.5611 117.315 91.0439 116.642C91.0904 116.578 91.2041 116.576 91.2252 116.666ZM61.4726 111.838C61.488 111.907 61.4988 111.975 61.5085 112.042C61.5791 112.332 61.6055 112.61 61.5968 112.89C61.6011 112.991 61.5937 113.092 61.5749 113.192C61.537 113.521 61.4578 113.859 61.3507 114.228C61.1227 115.013 60.8616 115.79 60.5699 116.554C59.9931 118.066 59.3122 119.508 58.4705 120.891C56.95 123.388 55.0171 125.462 52.7384 127.254C53.1709 127.611 53.5936 127.982 54.0172 128.346C56.0646 130.109 58.0566 131.952 59.9861 133.843C63.4127 137.202 66.7704 140.623 70.0492 144.127C71.6665 145.854 73.2537 147.605 74.8323 149.367L74.8841 149.426L74.94 149.493C75.5006 150.171 76.6211 151.788 77.4571 151.529C77.8792 151.397 78.3237 150.767 78.6115 150.467L79.1415 149.914C79.3177 149.729 79.4928 149.543 79.6649 149.354C82.7485 145.975 85.6664 142.465 88.4061 138.796C89.743 137.007 91.0353 135.183 92.2807 133.328C92.9209 132.374 93.5492 131.412 94.1648 130.441C94.7602 129.503 95.2416 128.494 96.119 127.794C96.763 127.28 97.6552 127.751 97.4929 128.594C97.2373 129.921 96.3191 131.043 95.5961 132.165C94.87 133.292 94.1268 134.408 93.3669 135.513C91.9042 137.639 90.3783 139.72 88.7978 141.76C87.4367 143.516 86.0167 145.227 84.5583 146.904L84.1596 147.36C82.5909 149.149 81.0512 151.049 79.3178 152.682C77.7656 154.144 76.0704 153.718 74.6563 152.297C72.868 150.5 71.2076 148.557 69.4868 146.695C66.0482 142.973 62.5737 139.28 59.0633 135.626L57.9093 134.424C56.5638 133.019 55.2238 131.605 53.9187 130.165L53.7503 129.977C52.2621 128.303 50.7487 126.204 48.6328 125.353C48.4799 125.291 48.5361 125.074 48.7013 125.105C50.0557 125.355 51.1864 126.038 52.2385 126.853C53.1842 125.288 54.028 123.638 54.7636 121.95L54.2916 121.745C50.9148 120.285 47.1087 118.813 43.4832 119.05C42.022 119.145 40.4631 119.699 39.4543 120.796C38.5408 121.79 38.0846 123.13 37.2463 124.189C36.2861 125.402 35.0337 125.947 33.4968 125.996L32.7494 126.019C31.8898 126.047 31.0655 126.092 30.1936 126.281C27.8312 126.794 25.3406 127.625 23.3593 129.045C22.6406 129.559 21.8986 130.267 21.5511 131.048C21.2065 131.82 21.1074 132.725 21.0738 133.559C21.0575 133.966 21.1794 134.503 21.0776 134.892C21.0892 134.847 21.0945 134.871 21.096 134.917C21.4127 135.167 21.6284 135.582 21.6518 135.996C23.6268 134.967 25.6712 134.064 27.7553 133.251C30.0759 132.345 32.4685 131.619 34.8615 130.932C37.2037 130.26 39.6552 129.981 42.0427 129.502C42.3468 129.441 42.4524 129.852 42.1691 129.961C39.6596 130.925 37.2316 132.068 34.7012 132.975C32.1721 133.882 29.6618 134.863 27.2061 135.954C22.4593 138.064 17.8741 140.748 14.1345 144.39C10.4821 147.947 7.66485 152.268 5.04471 156.612C2.40598 160.988 0.0509777 165.522 -2.04797 170.18C-6.20022 179.395 -9.31388 189.083 -11.3638 198.98C-13.3588 208.61 -14.4735 218.584 -14.1023 228.427C-13.9261 233.102 -13.3552 237.781 -12.0276 242.277C-11.3934 244.426 -10.5994 246.524 -9.59635 248.528C-8.53853 250.641 -7.11332 252.523 -6.1474 254.671C-6.06797 254.848 -6.03754 255.018 -6.04198 255.175C-1.92226 258.746 4.52605 256.34 8.98464 254.208C19.2438 249.301 29.3128 243.93 38.8832 237.767C48.329 231.684 57.2804 224.896 66.0206 217.85C65.3445 217.152 64.7485 216.37 64.2248 215.662C63.1431 214.199 62.3297 212.542 61.7699 210.813C61.1149 208.789 60.9119 206.622 61.098 204.507L61.1508 203.909C61.3289 201.911 61.5346 199.884 61.9727 197.932C61.9767 197.906 61.9959 197.896 62.017 197.896C62.038 197.896 62.0593 197.909 62.0678 197.932C63.2487 201.713 63.3438 205.777 64.6704 209.51C65.2049 211.01 66.033 212.46 67.0262 213.705C67.4551 214.244 67.9579 214.711 68.4711 215.167C68.5051 214.935 68.5513 214.705 68.6211 214.478L68.6764 214.299C68.7451 214.082 68.8302 213.84 68.9485 213.627C68.7816 213.578 68.6192 213.525 68.4586 213.466C68.3316 213.42 68.3042 213.215 68.4586 213.181C68.879 213.084 69.3121 213.035 69.7537 213.014C69.8234 213.003 69.8908 213.001 69.9584 213.005C70.7847 212.98 71.6255 213.039 72.422 213.052C73.8016 213.073 75.1769 213.098 76.5542 213.16C79.191 213.274 82.1675 213.779 84.7621 213.166C87.1199 212.608 89.4438 211.035 91.3344 209.556C92.9866 208.263 94.2607 206.726 95.6316 205.194C95.5332 205.209 95.4355 205.224 95.3382 205.237L94.4541 205.359C93.3381 205.508 92.0134 205.625 91.1276 205.088C90.7894 204.883 90.8868 204.418 91.2311 204.291C92.1351 203.96 93.2572 204.234 94.2204 204.188C94.9767 204.152 95.7417 204.072 96.4875 203.915C96.7326 203.864 96.9753 203.805 97.2161 203.736C98.9823 203.226 101.057 201.434 99.6544 199.477C99.6016 199.403 99.6605 199.335 99.7323 199.322C99.7642 199.316 99.798 199.322 99.8255 199.346C101.422 200.669 100.592 203.04 99.0816 204.057C98.5621 204.408 97.9748 204.653 97.3663 204.832C97.4825 205.046 97.5035 205.308 97.364 205.557C96.1811 207.667 94.1783 209.52 92.302 211.01C90.3755 212.54 88.153 213.984 85.7635 214.66C83.0042 215.438 79.9727 214.853 77.1734 214.605C75.6563 214.472 74.1438 214.313 72.629 214.138C72.2232 214.092 71.803 214.056 71.376 214.016C71.7776 214.544 72.0966 215.153 72.3058 215.518C72.9861 216.706 72.3586 218.27 71.0403 218.633C70.9028 218.672 70.7612 218.693 70.622 218.697C70.2668 219.409 69.4218 219.933 68.6401 219.665C68.3001 219.549 67.9725 219.39 67.6579 219.2C62.7415 223.52 57.5654 227.574 52.2417 231.374C42.3692 238.42 32.0211 244.856 21.291 250.514C18.8741 251.788 16.4387 253.028 13.9827 254.22L11.8688 255.24C9.52899 256.366 7.13433 257.486 4.64943 258.185C4.16499 258.322 3.65774 258.432 3.13802 258.516C3.13129 258.563 3.12959 258.607 3.13264 258.65C2.66541 258.712 2.2577 258.722 1.90956 258.679L1.83027 258.668C-1.21557 258.881 -4.47353 258.137 -6.43304 255.911C-6.75966 256.14 -7.23585 256.166 -7.65606 255.836C-9.76938 254.177 -11.0292 251.651 -12.1347 249.24C-13.2557 246.794 -14.1344 244.245 -14.78 241.634C-16.0696 236.418 -16.5811 231.038 -16.608 225.673C-16.7055 204.999 -11.5299 184.143 -2.54001 165.582C-0.260008 160.875 2.25323 156.255 5.04323 151.83C7.82563 147.417 11.0565 143.316 15.1942 140.098C16.3841 139.172 17.6219 138.326 18.8986 137.547C18.0417 137.122 17.7013 136.042 17.6413 135.082C17.5082 132.95 17.7622 130.494 19.0099 128.695C20.7603 126.171 23.8936 124.615 26.7989 123.859C28.3156 123.464 29.8845 123.234 31.4489 123.156C32.2556 123.116 33.0937 123.248 33.8906 123.161C34.5937 123.085 35.0285 122.665 35.4328 122.113C36.4687 120.699 37.143 119.215 38.6289 118.178C40.1534 117.114 42.1289 116.707 43.9655 116.818C46.105 116.946 48.0569 117.79 49.9412 118.759C51.6419 119.633 53.2927 120.602 54.9016 121.635C55.1965 120.944 55.4743 120.248 55.7327 119.549C56.2338 118.193 56.6697 116.795 57.0233 115.394C57.3818 113.974 57.3294 112.098 58.4124 111.03C59.354 110.101 61.1673 110.466 61.4726 111.838ZM134.461 206.621L134.453 206.623C132.263 207.921 131.216 211.166 130.185 212.585C130.269 213.06 130.328 213.544 130.444 213.994C130.711 215.028 131.059 216.053 131.463 217.038C132.173 218.777 133.062 220.434 133.884 222.121C134.545 223.477 135.193 224.858 135.697 226.286C135.643 226.34 135.592 226.405 135.549 226.486C135.002 227.51 134.574 227.309 133.566 227.085L133.565 227.083C132.988 225.316 132.156 223.657 131.408 221.962L131.226 221.548L131.046 221.134C130.421 219.683 129.851 218.219 129.519 216.664C129.308 215.673 129.221 214.654 129.209 213.641C128.661 214.092 128.004 214.415 127.176 214.54C125.404 214.807 123.799 213.697 122.355 212.806L122.03 212.607C121.126 212.057 120.23 211.549 119.188 211.289C118.005 210.993 116.782 210.993 115.58 210.843C115.436 210.824 115.29 210.805 115.144 210.782C115.613 212.335 115.831 214.022 116.11 215.577C116.499 217.759 116.816 219.959 117.12 222.153C117.711 226.405 118.123 230.691 118.332 234.979C118.535 239.132 118.433 243.268 118.283 247.419L118.208 249.443C118.148 251.091 118.098 252.741 118.127 254.39C118.208 254.396 118.288 254.409 118.368 254.428C119.201 254.622 119.769 255.472 120.53 255.85C122.135 256.649 124.075 256.639 125.784 256.235C129.671 255.313 132.904 252.599 135.033 249.284C137.59 245.306 138.528 240.624 138.498 235.941C138.463 230.67 137.609 225.63 136.421 220.541L136.345 220.217C135.345 215.977 134.719 206.661 134.461 206.621ZM25.6075 195.986C25.6297 197.404 25.0533 198.92 24.7366 200.298C24.3956 201.782 24.0555 203.266 23.7107 204.75L23.4006 206.079C23.1424 207.187 22.8878 208.295 22.6597 209.41C22.4721 210.326 22.3935 211.534 22.0861 212.544C25.7425 211.064 29.4046 209.6 33.0606 208.125C37.5648 206.308 42.0902 204.541 46.6049 202.753C51.1028 200.973 55.5754 198.948 60.1643 197.427C61.2566 197.063 61.996 198.807 60.95 199.291C56.2895 201.453 51.3585 203.146 46.5838 205.04L39.6772 207.783C33.3457 210.296 27.0099 212.797 20.6423 215.212C16.3049 216.856 11.9845 218.549 7.61973 220.111C5.53874 220.855 3.43895 221.559 1.36832 222.33C-0.366188 222.977 -2.24224 223.937 -2.8845 225.8C-2.9183 225.898 -3.0514 225.858 -3.03661 225.758C-2.77675 223.953 -1.4371 222.825 0.0732498 221.971C2.0779 220.835 4.27972 220.008 6.39581 219.097L6.68382 218.972C11.0049 217.087 15.3608 215.278 19.7296 213.499C19.6863 213.393 19.6607 213.28 19.6588 213.162L19.6464 213.165C19.5669 212.357 19.9373 211.637 20.2037 210.885L20.9678 208.728C21.477 207.292 21.9338 205.838 22.4042 204.389C22.8963 202.875 23.393 201.362 23.8888 199.849C24.3088 198.567 24.5911 197.039 25.3096 195.893C25.3962 195.755 25.6349 195.833 25.6075 195.986ZM109.753 192.798L109.698 193.073C109.635 193.395 109.575 193.72 109.561 194.045C109.518 194.897 109.615 195.748 109.842 196.571C110.063 197.384 110.374 198.171 110.816 198.891C111.234 199.57 111.84 200.102 112.227 200.798C112.267 200.872 112.292 200.945 112.303 201.018C112.451 200.956 112.597 200.901 112.738 200.857C113.917 200.483 115.121 200.17 116.342 199.935L116.149 199.922L116.023 199.912C113.983 199.74 112.058 199.072 112.474 196.689C112.709 195.342 113.766 194.439 114.899 193.798L115.041 193.72C115.102 193.686 115.166 193.652 115.227 193.622C114.202 193.449 113.459 193.236 112.202 193.024C111.386 192.887 110.568 192.811 109.753 192.798ZM16.5437 163.445C18.5499 167.5 20.0592 171.812 21.1979 176.186C21.7476 178.299 22.2142 180.432 22.5893 182.582L22.7125 183.3L22.7826 183.69C23.133 185.607 23.5781 187.683 23.0634 189.553C22.8954 190.164 21.8813 190.406 21.5974 189.745C20.7409 187.75 20.8613 185.456 20.6131 183.321C20.3522 181.081 19.9962 178.851 19.5525 176.64C18.7004 172.391 17.5042 168.241 16.1709 164.123L16.0223 163.665C15.909 163.36 16.4021 163.159 16.5437 163.445ZM93.6562 181.586C93.0584 181.867 92.4605 182.125 91.9323 182.383C91.8924 182.404 91.8502 182.423 91.8077 182.444C92.4056 182.343 93.0056 182.248 93.6055 182.159C93.5994 181.964 93.6184 181.772 93.6562 181.586ZM117.051 179.555C116.961 179.584 116.882 179.631 116.813 179.696L116.779 179.73C116.696 179.806 116.638 179.897 116.604 180.002C116.551 180.103 116.527 180.211 116.531 180.328L116.561 180.552C116.602 180.696 116.674 180.82 116.779 180.925L116.95 181.057C117.065 181.124 117.188 181.162 117.32 181.171L117.376 181.173L117.547 181.173C117.645 181.17 117.737 181.146 117.824 181.1C117.913 181.071 117.993 181.024 118.062 180.959L118.095 180.925C118.178 180.849 118.236 180.758 118.27 180.653C118.316 180.567 118.34 180.475 118.343 180.377L118.343 180.328L118.313 180.103C118.278 179.977 118.218 179.867 118.133 179.77L118.095 179.73L117.925 179.597C117.809 179.531 117.686 179.493 117.555 179.484L117.498 179.482H117.376C117.26 179.478 117.151 179.502 117.051 179.555ZM111.554 179.269C111.105 179.351 110.85 179.896 110.964 180.309C111.089 180.766 111.523 180.969 111.96 180.906L112.003 180.899C112.514 180.805 113.015 180.842 113.501 181.021C113.929 181.179 114.427 180.844 114.54 180.431C114.67 179.958 114.38 179.549 113.95 179.391C113.179 179.106 112.352 179.122 111.554 179.269ZM22.5444 149.246C23.5667 150.744 24.2049 152.737 24.8346 154.449L24.8975 154.619C25.5668 156.419 26.2124 158.233 26.8145 160.057C28.0164 163.698 29.5828 167.507 29.8722 171.353C29.9257 172.063 28.84 172.347 28.5252 171.718C27.6207 169.91 27.1344 168.024 26.5993 166.085C26.0888 164.236 25.5571 162.394 25.0251 160.551C24.4934 158.709 23.9789 156.861 23.4552 155.017C22.9458 153.223 22.2366 151.228 22.12 149.361C22.1048 149.118 22.4269 149.073 22.5444 149.246ZM45.6168 137.181C46.9814 138.128 48.099 139.514 49.2538 140.699C50.4252 141.902 51.5811 143.116 52.7262 144.344C54.6396 146.396 56.5184 148.482 58.4589 150.509C62.326 154.549 66.7007 158.266 72.0377 160.165C73.3292 160.625 72.7634 162.698 71.469 162.229C66.01 160.249 61.4879 156.588 57.4989 152.447C55.4329 150.302 53.5372 148.01 51.6888 145.677C50.8239 144.586 49.9654 143.491 49.1191 142.385L48.6128 141.72C47.5486 140.316 46.2466 138.916 45.4678 137.33C45.4241 137.241 45.52 137.114 45.6168 137.181Z" fill="#575757"/>
<path fill-rule="evenodd" clip-rule="evenodd" d="M116.443 93.5556C112.874 77.3681 112.179 59.591 102.757 45.4567C98.6405 39.6934 92.0257 32.1782 84.2982 34.5468C84.6166 31.1342 84.9172 27.72 85.1952 24.3038C85.3543 22.3496 86.0855 19.746 84.4323 18.2435C81.703 16.0387 77.1846 19.4125 75.0751 21.2975C70.505 25.6754 68.7003 29.9276 62.6802 32.8514C60.2671 31.131 57.9153 29.3259 55.4661 27.652C52.9704 25.9464 49.4004 23.1758 46.8104 26.3245C44.6154 28.9934 46.0176 33.2003 46.888 36.1368C47.3331 37.6387 47.7755 39.2779 48.3941 40.8225C48.4463 41.9965 48.5371 43.1685 48.6704 44.337C44.211 45.1308 39.6214 45.7987 35.3608 47.3566C33.0373 48.6156 33.2422 51.4749 34.8905 53.1865C37.3573 55.5762 40.4788 57.445 43.8865 58.6993C43.2677 60.8416 41.7844 62.6581 39.9193 63.8459C39.2938 64.2426 38.9428 64.8245 38.8159 65.4452C37.8599 65.9205 36.8363 66.2633 35.755 66.4859C34.4215 66.7613 33.651 68.3358 33.9947 69.5872C34.9632 72.6286 38.376 70.8902 40.5931 70.6755C40.6598 72.7993 40.6945 75.0124 41.6585 76.9798C36.5059 78.3325 32.0422 83.2648 33.2335 88.822C34.3157 94.1345 40.048 95.7579 44.5856 96.9651C44.9293 97.1676 44.9283 97.3665 45.0375 97.868C45.7862 101.312 45.1558 105.101 43.9754 108.37C43.6537 109.262 44.1265 110.377 44.8412 110.911C48.5365 113.265 49.7616 106.097 53.9741 110.66C53.6597 110.613 52.8776 110.221 52.9178 110.788C58.3828 120.383 74.519 120.972 84.4057 121.208C85.5922 121.785 86.9583 121.458 88.3154 121.089C89.6103 121.019 90.9037 120.922 92.1939 120.79C94.5493 120.365 98.6925 120.869 98.8404 117.55C104.924 115.15 110.154 111.002 113.721 105.507C116.367 101.861 117.412 98.0012 116.443 93.5556Z" fill="white"/>
<path fill-rule="evenodd" clip-rule="evenodd" d="M79.5521 17.0315L79.9072 16.8764C81.1317 16.346 82.4687 15.8374 83.8092 16.1274C85.3531 16.4613 86.2457 17.7896 86.6279 19.2378C87.0703 20.913 87.268 22.6961 87.3893 24.4203C87.5146 26.206 87.4662 27.9879 87.3318 29.7709C87.2197 31.2619 86.9877 32.9899 86.4329 34.4351C86.4566 34.414 86.4849 34.3984 86.5187 34.3948C88.7023 34.171 90.7147 34.3014 92.8001 35.0049C94.7427 35.6603 96.6259 36.5799 98.3165 37.7417C101.968 40.2509 104.793 44.0404 106.762 47.9637C110.76 55.9343 111.604 64.9511 112.724 73.6676L112.759 73.9316C113.361 78.5927 114.162 83.1833 115.447 87.7045L115.669 88.4753C116.848 92.6118 117.552 96.6356 116.612 100.918C114.793 109.199 108.383 115.449 100.968 119.057C97.1824 120.899 93.0859 122.258 88.9485 123.042C84.7047 123.846 80.1118 123.981 76.2424 121.785C74.3241 120.696 76.013 117.915 77.9518 118.859C81.9528 120.807 86.4872 120.166 90.6403 119.094C94.7712 118.029 98.8227 116.537 102.483 114.322C108.764 110.52 114.049 103.956 114.222 96.3343C114.32 92.0454 112.488 87.9501 111.604 83.8093C110.826 80.1604 110.343 76.458 109.887 72.7561L109.549 70.0063C108.568 62.1203 107.34 54.002 103.291 47.0323C99.7178 40.8801 93.5628 35.9879 86.479 34.6867C86.4365 34.679 86.4084 34.6585 86.3915 34.6325C86.1747 35.7998 84.8887 36.8883 84.0659 37.56C82.8999 38.5123 81.4871 39.2024 79.9504 39.1715C76.9871 39.1121 74.4426 36.8133 72.4115 34.8881C72.1825 34.6712 72.4305 34.3686 72.691 34.4079C75.0483 34.7627 77.0693 36.6786 79.4856 36.6501C80.7291 36.6353 81.6819 35.9679 82.4938 35.0804C82.797 34.7486 83.0636 34.3481 83.352 33.9799C83.4232 33.0128 83.697 32.0644 83.8195 31.1017C83.9338 30.2035 84.0318 29.2915 84.0899 28.3865C84.2083 26.5397 84.1709 24.6792 83.9666 22.8394C83.8788 22.0497 83.7678 21.2527 83.5955 20.475L83.5149 20.1245C83.408 19.6427 83.3382 19.2038 82.756 19.2532C81.4618 19.3627 80.015 20.1525 78.8833 20.7485C74.4956 23.0601 71.3057 26.6342 68.9511 30.8331C69.099 30.9071 69.2402 31.0045 69.3722 31.1313C69.6378 31.3864 69.774 31.8357 69.6523 32.1915C69.1823 33.5661 67.5111 33.6062 66.3354 34.1445C65.0543 34.7308 63.8509 35.4845 62.7113 36.31C60.4681 37.9349 58.4072 39.8438 56.4475 41.7965C53.3611 44.8712 50.495 48.1435 47.7272 51.5008L47.1382 52.817C46.5503 54.1329 45.9752 55.4532 45.4994 56.8239C44.7249 59.0528 44.0761 61.3314 43.5773 63.6378C43.0753 65.9593 42.748 68.334 42.624 70.706C42.5133 72.8225 42.7941 74.9375 42.7823 77.0417C42.9703 77.3936 43.0383 77.7903 42.9498 78.1946C43.5418 78.3622 44.1152 78.6177 44.6537 78.9702C44.7849 79.0565 44.7016 79.2619 44.5468 79.2239C43.864 79.0556 43.1809 79.0182 42.5121 79.0833C42.1571 79.5212 41.5825 79.8 41.0249 79.7877L40.7871 79.7825C40.6128 79.7786 40.4399 79.7507 40.273 79.7032C39.3321 80.1371 38.4663 80.7616 37.7334 81.5079C35.9712 83.3027 35.1202 85.654 35.2453 88.1659C35.3691 90.6435 36.6883 92.8783 38.8732 94.0685C39.8478 94.5992 40.9307 94.8786 42.0386 94.8991C43.1044 94.9183 44.5033 94.5943 45.379 95.289C45.4774 95.3672 45.5423 95.4712 45.5822 95.5862C45.6433 95.3281 45.7081 95.0707 45.7789 94.8143C45.833 94.6184 46.159 94.5956 46.1989 94.8143L46.2503 95.0995C46.9841 99.2377 47.2422 103.498 50.1574 106.81C51.5209 108.359 53.1648 109.757 54.8511 110.943L55.1301 111.137C55.8506 111.635 56.629 112.118 57.488 112.298C58.4425 112.498 59.2316 112.443 60.1094 112.968C60.522 113.215 60.7753 113.76 60.6234 114.233C59.6497 117.266 55.812 115.903 53.8774 114.704C52.8016 114.037 51.7548 113.232 50.7821 112.344C49.9339 112.861 48.9266 113.194 48.061 113.324C46.726 113.524 45.3086 113.246 44.2444 112.384C43.1186 111.471 42.7335 110.144 42.9247 108.735C43.0198 108.034 43.2016 107.35 43.3975 106.671L43.5595 106.116C43.7957 105.308 43.9804 104.475 44.4566 103.769C44.697 103.414 45.2676 103.447 45.3912 103.892C45.6741 104.909 45.5517 106.057 45.4784 107.117L45.4626 107.36C45.4147 108.157 45.0752 109.379 45.7736 109.97C46.6149 110.681 47.5356 110.356 48.4313 109.866C48.3401 109.755 48.2499 109.643 48.1613 109.53C45.2628 105.845 44.5419 101.257 45.3359 96.7723C44.5878 97.754 42.6378 97.9664 41.603 97.8901C39.9783 97.7705 38.3797 97.2763 36.9959 96.4077C34.0975 94.5888 32.4673 91.3989 32.398 88.0057C32.3304 84.7107 33.804 81.3784 36.5213 79.4597C37.2392 78.9529 38.0378 78.5589 38.8715 78.2998C38.4663 76.6902 38.4234 74.9119 38.5113 73.1718C37.5392 73.3041 36.4869 73.1323 35.608 72.833L35.4716 72.7854C34.1171 72.3 32.3968 71.3246 32.1433 69.8021C31.831 67.9295 34.141 66.8533 35.4813 66.1053C36.1082 65.7557 36.7492 65.4285 37.4147 65.1585L37.6151 65.0792C38.1895 64.8582 38.8658 64.4458 39.4489 64.7743C39.4905 64.7977 39.5006 64.8423 39.4945 64.8861C39.3792 65.6987 38.0478 66.3902 37.4558 66.9028C37.0011 67.2961 36.5617 67.7078 36.14 68.1366C35.8666 68.4148 35.4555 69.1175 35.1048 69.3147C35.2677 69.3999 35.4629 69.6095 35.599 69.6901C35.9822 69.916 36.3863 70.0753 36.8188 70.1785C37.4617 70.3324 38.1056 70.2664 38.7494 70.2518C39.0107 67.689 39.4852 65.1822 40.2492 62.7201C41.5305 58.5895 43.6307 54.238 46.6269 50.9725C48.8239 46.8549 51.6614 43.094 54.9023 39.7307C56.9809 37.5739 59.1766 35.4811 61.6119 33.7286C62.6916 32.9517 63.827 32.2518 65.0323 31.6878L65.4328 31.5041C66.1018 31.1944 66.9155 30.7923 67.6916 30.6773C68.1935 28.6847 69.0878 26.779 70.1729 25.0516C71.6678 22.6716 73.6354 20.6642 75.9375 19.0603C77.0735 18.2685 78.2841 17.5878 79.5521 17.0315ZM39.6151 86.4332C41.5467 85.1352 43.9156 84.6274 46.2239 84.8191C47.369 84.9141 48.5016 85.1826 49.5747 85.5932L50.0171 85.768C51.042 86.1788 52.142 86.6858 52.1787 87.9259C52.1933 88.4156 51.831 88.8056 51.3937 88.9577C50.327 89.3287 49.4627 88.4404 48.5819 87.9678C47.6927 87.4901 46.7475 87.1752 45.7737 86.9201C45.6803 86.8956 45.5868 86.8734 45.4934 86.8512C45.5441 86.9529 45.5728 87.0653 45.5629 87.1864C45.5388 87.4764 45.4545 87.692 45.3725 87.9638C45.3478 88.0462 45.2876 88.5494 45.2259 88.6116C45.246 88.7828 45.2481 88.9446 45.2534 89.1171C45.2682 89.6263 45.2054 90.0564 44.9456 90.5072C44.2982 91.6301 42.4477 91.7336 41.8281 90.5072C41.2084 89.2809 41.6927 88.0808 42.6343 87.1991C42.891 86.959 43.2332 86.7145 43.6051 86.5458C42.2994 86.4266 40.9792 86.483 39.6749 86.6547C39.5477 86.6716 39.5282 86.4917 39.6151 86.4332ZM39.7306 45.2946C42.3799 44.844 45.1466 44.7542 47.8204 45.0207C47.9662 45.0355 48.0207 45.2574 47.8574 45.2931C43.7916 46.1861 39.5768 46.4878 35.9492 48.7248L35.7822 48.8294C35.434 49.0509 34.6056 49.4692 34.4332 49.8632C34.2298 50.3281 34.7808 50.9258 35.037 51.2614C35.6132 52.0151 36.3289 52.673 37.1191 53.1966C37.9538 53.7495 38.8513 54.1762 39.8166 54.4456C40.275 54.5737 40.7506 54.6388 41.2037 54.7846C41.7197 54.9503 41.8861 55.2147 42.277 55.5603C42.7274 55.9581 42.5761 56.7215 42.0904 57.007L41.9541 57.0863C41.3158 57.4516 40.9611 57.5593 40.1504 57.4164C39.5161 57.3044 38.9104 57.0827 38.3168 56.8362C37.226 56.3831 36.2305 55.7899 35.312 55.0512L35.1748 54.9394C33.5345 53.5829 30.7553 50.616 32.5859 48.456C34.2017 46.55 37.3768 45.6949 39.7306 45.2946ZM46.2553 24.7439C48.7962 21.7495 52.3848 23.7941 54.931 25.5845C57.6752 27.5137 60.0562 29.7893 61.9812 32.5387C62.1036 32.7135 61.8669 32.9261 61.6967 32.8234C59.5622 31.5361 57.4054 30.3037 55.216 29.1106C54.3171 28.6208 53.417 28.1427 52.4972 27.695L52.0055 27.4584C51.2373 27.079 50.1342 26.3867 49.3149 26.8382C47.5482 27.8123 48.6386 31.0027 49.0027 32.5479L49.0358 32.6937L50.146 37.7786L50.6518 40.0679C50.8316 40.2137 50.9812 40.4088 51.087 40.6603C51.3735 41.3402 51.1396 42.2587 50.4467 42.6155C48.4014 43.6684 47.7089 41.612 47.3237 40.0666C47.0108 38.8112 46.6945 37.5565 46.3776 36.3021L45.8534 34.229C45.0505 31.0908 43.9106 27.507 46.2553 24.7439Z" fill="#575757"/>
<path fill-rule="evenodd" clip-rule="evenodd" d="M89.1507 106.273C87.7305 105.694 86.4633 104.727 85.5369 103.492C85.2148 103.063 85.1313 102.609 85.1989 102.195C85.2748 101.728 85.5506 101.306 85.9266 101.022C86.3039 100.738 86.7757 100.598 87.2319 100.669C87.6283 100.731 88.0229 100.948 88.3352 101.399L88.4005 101.489C88.9512 102.234 89.669 102.846 90.4867 103.24C91.275 103.62 92.1565 103.797 93.0687 103.694C94.8062 103.498 96.0037 102.558 97.2765 101.281C97.4343 101.12 97.5922 100.954 97.7508 100.785C97.851 100.632 97.99 100.534 98.1444 100.482C98.3158 100.425 98.5097 100.428 98.6872 100.49C98.8585 100.55 99.0116 100.663 99.1143 100.814C99.2119 100.957 99.2672 101.134 99.2492 101.338C99.1327 102.661 98.4414 103.841 97.4594 104.768C96.3687 105.798 94.923 106.51 93.5618 106.76C92.0623 107.035 90.5343 106.838 89.1507 106.273ZM94.2692 85.8655C95.8646 86.8356 98.2954 89.0977 96.5792 91.5027C94.559 93.6233 91.6504 91.1919 90.2171 90.0923C88.8881 89.2401 87.3948 91.4319 88.6279 92.427C98.985 100.098 103.188 86.1192 95.0761 84.7249C94.183 84.5713 93.8513 85.5654 94.2692 85.8655ZM75.7092 76.9421C75.8854 74.7533 79.2177 74.2563 79.5492 76.4222C79.846 78.3624 79.4966 80.1447 78.623 81.8916C77.7882 83.5604 75.6903 82.7818 75.5316 81.2622C75.3189 79.2252 75.5995 78.3037 75.7092 76.9421ZM101.075 75.9731C101.539 75.3644 102.21 74.9489 103.014 75.1837C105.525 75.9178 104.785 79.4839 103.903 81.2197C103.424 82.1623 101.875 82.4014 101.175 81.5714C100.034 80.2179 99.4877 77.5149 100.938 76.1817C100.977 76.1128 101.021 76.0433 101.075 75.9731ZM78.5876 67.3646L78.9842 67.2952C80.2112 67.0829 81.7369 66.8789 82.6049 67.8657C83.0652 68.389 83.2237 69.3617 82.6049 69.8626C81.5164 70.7439 80.313 70.4024 79.0087 70.477C77.9337 70.5387 76.9006 70.7166 75.8652 71.0127C73.5937 71.6622 71.7427 72.8479 69.8027 74.1498C69.5481 74.3206 69.2882 73.9949 69.4097 73.7567C70.5296 71.5622 72.7 69.7596 74.8739 68.6608C76.0342 68.0743 77.3039 67.5878 78.5876 67.3646ZM98.7858 66.3816L99.0894 66.4438C102.393 67.1346 106.685 68.5146 108.25 71.7608C108.309 72.2198 108.246 72.3182 108.195 72.3825L108.178 72.4038C108.136 72.4587 108.102 72.5344 107.903 72.5969C107.848 72.5837 107.792 72.5698 107.736 72.555C107.019 72.367 106.452 72.108 105.902 71.8393L105.307 71.5458C104.616 71.2068 103.919 70.8802 103.18 70.6391C101.603 70.1247 99.9819 69.7623 98.3352 69.5688C97.9783 69.5269 97.6346 69.4064 97.3635 69.1999C97.1061 69.0039 96.9095 68.7325 96.8198 68.3717C96.7037 67.9048 96.737 67.5513 96.9875 67.1301C97.1757 66.8138 97.4452 66.5946 97.7545 66.4687C98.0699 66.3403 98.4289 66.3101 98.7858 66.3816Z" fill="#575757"/>
<path fill-rule="evenodd" clip-rule="evenodd" d="M105.888 70.1484C110.846 70.1484 113.676 71.2153 114.713 71.2984L114.745 71.3006C115.176 71.3282 115.563 71.3643 115.969 71.5213C117.461 72.0964 117.705 73.6626 116.834 74.6497C116.772 76.6921 117.041 79.0785 116.58 81.1275C116.012 89.7656 111.951 91.2234 109.643 91.7554C108.484 92.0226 107.111 92.1289 105.88 91.8469C103.78 91.7686 101.704 91.1109 99.9273 89.9658C97.4535 88.3696 95.6162 85.9163 95.0199 83.0049C94.7373 81.6171 94.6053 80.1725 94.7591 78.7619L94.7819 78.5675C93.9778 78.1827 93.046 78.11 92.0854 78.076C91.6266 78.0597 91.1744 78.045 90.735 78.0645C90.3056 78.1125 89.8813 78.1764 89.4556 78.2634C88.9909 78.4037 88.552 78.6352 88.1467 79.0019L88.1187 79.5372C88.0426 80.8742 87.8671 82.2152 87.5965 83.5269C87.1969 85.4624 86.5541 87.3109 85.1862 88.6837C84.7231 89.3756 84.1501 89.9931 83.4545 90.5279C80.9277 92.4742 77.4946 93.1888 74.3439 92.9197C67.9474 92.3736 64.25 87.2939 63.398 85.1226L63.3471 84.9911C62.7315 83.3769 62.241 81.2825 60.296 80.9357L59.8824 80.8613C58.9948 80.6947 58.1758 80.4627 57.6554 79.5964C57.4273 79.2182 57.31 78.7952 57.2812 78.364C56.9776 78.3873 56.6744 78.4096 56.3723 78.4313C53.962 78.9412 39.5055 79.3735 38.3516 79.3735C38.3516 79.3735 36.1335 80.3075 35.197 79.5838C34.5479 79.0807 34.3343 78.41 34.6917 77.6503C35.2308 76.5072 37.7182 75.8196 38.8227 75.6019C38.8227 75.6019 56.6462 75.7499 57.929 75.5066C58.7228 74.6879 60.1425 74.7999 61.3289 74.6705C62.311 73.9699 63.6849 73.5007 64.7702 73.1866C64.9913 73.1028 65.2104 73.0217 65.4233 72.9453C67.4129 72.2365 69.4809 71.8611 71.5804 71.6595C73.7455 71.4536 75.9169 71.5468 78.0693 71.8418C78.9764 71.9648 79.875 72.124 80.7672 72.3322C82.3649 72.5429 83.9532 72.8899 85.5514 73.3016L85.8712 73.3848C87.5542 73.8263 89.2837 74.208 91.026 73.9088C92.4443 73.6668 93.8083 73.1207 95.1161 72.5302L95.2863 72.453C98.1618 71.1395 102.652 70.1484 105.888 70.1484ZM80.5943 74.9508C79.5333 74.7174 79.0802 76.3538 80.1445 76.5879C80.8982 76.7537 81.537 77.1339 81.9686 77.778L82.014 77.8481C82.5931 78.77 84.0575 77.919 83.4744 76.9911C82.8183 75.947 81.7988 75.2157 80.5943 74.9508ZM111.669 73.9362C111.295 73.6726 110.729 73.8683 110.512 74.2407C110.273 74.6509 110.429 75.1075 110.78 75.3758L110.815 75.402C111.137 75.6286 111.45 76.0346 111.489 76.4507L111.492 76.5028C111.534 77.5917 113.226 77.5972 113.184 76.5028C113.143 75.4321 112.523 74.5376 111.669 73.9362Z" fill="#575757"/>
<path d="M-54 -22V-30H-62V-22H-54ZM186 -22H194V-30H186V-22ZM186 302V310H194V302H186ZM-54 302H-62V310H-54V302ZM-54 -14H186V-30H-54V-14ZM178 -22V302H194V-22H178ZM186 294H-54V310H186V294ZM-46 302V-22H-62V302H-46Z" fill="white"/>
</g>
</svg>
