<svg width="147" height="147" viewBox="0 0 147 147" fill="none" xmlns="http://www.w3.org/2000/svg">
<mask id="mask0_1011_1782" style="mask-type:alpha" maskUnits="userSpaceOnUse" x="0" y="0" width="147" height="147">
<circle cx="73.5" cy="73.5" r="69.5" fill="#C4C4C4" stroke="white" stroke-width="8"/>
</mask>
<g mask="url(#mask0_1011_1782)">
<circle cx="73.5" cy="73.5" r="69.5" fill="#EDEDE0" stroke="white" stroke-width="8"/>
<path fill-rule="evenodd" clip-rule="evenodd" d="M-2.79412 252.479C-0.265015 252.635 2.26393 252.759 4.79271 252.853C37.8625 254.086 70.9055 250.314 103.955 249.489C115.464 249.186 126.914 249.338 138.394 250.262C139.519 250.352 140.805 249.142 140.667 247.988C138.546 229.674 135.893 211.408 134.518 193.019C134.516 192.046 134.642 191.075 134.976 190.158C135.039 190.087 135.366 189.281 135.656 189.231C135.561 189.301 135.991 189.178 135.718 189.199C137.377 188.927 139.005 187.135 137.801 185.42C125.392 166.395 108.454 149.03 103.005 126.433C101.717 120.324 97.067 119.946 92.1128 117.426C90.5671 116.506 86.7873 113.958 86.1721 112.187C84.7028 105.804 87.2904 99.5502 79.7306 96.9673C74.74 95.5832 65.9192 94.4121 60.8697 95.8719C54.7102 97.9226 55.1712 104.866 51.5984 109.643C49.7506 112.407 46.6006 116.19 43.6918 116.613C42.2821 116.818 41.2437 113.966 39.8361 114.162C17.8951 119.493 -11.998 155.859 -21.4281 175.99C-23.5533 182.326 -16.6996 180.414 -17.1207 186.782C-17.6397 198.863 -18.775 214.329 -18.1017 226.424C-17.4711 233.445 -17.9378 240.8 -15.7564 247.556C-16.3436 248.27 -15.5 248.99 -14.8117 249.3C-13.9444 250.775 -5.41088 252.275 -2.79412 252.479Z" fill="white"/>
<path fill-rule="evenodd" clip-rule="evenodd" d="M54.327 102.034C54.8974 99.4664 58.9812 100.568 58.2819 103.125C57.1981 107.079 54.9502 110.816 51.7772 113.439C49.3263 115.464 45.9864 117.27 42.6735 117.604C42.984 117.907 43.2819 118.23 43.5946 118.538C44.3002 119.24 45.0502 119.891 45.8235 120.517C47.4124 121.802 49.0643 122.958 50.8685 123.926C58.0749 127.794 66.2152 128.686 74.2643 127.785C78.084 127.358 81.9608 126.633 85.5523 125.236C87.2173 124.59 88.8354 123.74 90.2638 122.666L90.6376 122.386C91.3885 121.818 92.3906 121.018 92.8601 120.143C91.4319 120.464 89.6256 118.942 88.6347 118.057C87.5511 117.085 86.6382 115.831 85.9643 114.546C84.6439 112.025 83.9446 108.772 85.0518 106.069C85.1256 105.889 85.3622 105.919 85.3833 106.113C85.7108 109.265 86.5601 112.219 88.8209 114.553C89.8244 115.586 91.0263 116.453 92.3382 117.055L92.5229 117.14C93.0818 117.398 93.6703 117.702 93.9058 118.255C93.9969 118.245 94.0875 118.253 94.1742 118.277C94.2523 118.298 94.3242 118.321 94.3939 118.346C94.2375 118.04 94.1553 117.678 94.1699 117.251C94.2251 115.596 96.4962 115.546 96.8108 117.019C96.7537 116.825 96.6777 117.013 96.8214 117.072C96.8191 117.055 96.8151 117.036 96.8107 117.019L96.815 117.035L96.8236 117.072L96.8214 117.072C96.8271 117.099 96.8318 117.126 96.8348 117.154L96.8378 117.191L96.836 117.16C96.834 117.137 96.8313 117.117 96.8282 117.099L96.8234 117.072C96.8446 117.082 96.8742 117.089 96.908 117.089L96.9219 117.094C96.9748 117.117 97.1615 117.204 97.2166 117.226C97.5946 117.366 98.0171 117.41 98.4037 117.53C99.2427 117.788 99.9821 118.215 100.493 118.942C100.861 119.464 101.066 120.063 101.15 120.684C104.862 122.47 108.376 124.79 111.319 127.663C117.887 134.071 122.467 142.091 126.226 150.393C128.138 154.62 129.843 158.936 131.51 163.264L131.773 163.947C133.561 168.599 135.141 173.301 135.53 178.302C135.566 178.75 135.418 179.171 135.162 179.52C135.253 179.896 135.3 180.272 135.287 180.64C135.285 180.697 135.281 180.754 135.276 180.811C135.876 180.8 136.464 181.052 137.021 181.758C137.247 181.686 137.492 181.677 137.733 181.755C139.202 182.225 139.438 183.837 139.715 185.188C140 186.583 140.125 188.012 140.127 189.434C140.127 189.943 139.835 190.586 139.341 190.804C138.411 191.213 137.41 191.482 136.449 191.854C135.726 192.133 135.002 192.397 134.271 192.644C134.676 193.352 134.807 194.337 135.027 195.083C135.371 196.248 135.648 197.417 135.881 198.609C137.457 206.714 138.549 214.906 140.023 223.028C140.761 227.097 141.619 231.138 142.493 235.179C142.924 237.165 143.383 239.148 143.875 241.122C144.137 242.174 144.409 243.227 144.69 244.273C144.772 244.579 144.855 244.883 144.938 245.188L145.085 245.721C145.407 245.898 145.681 246.167 145.871 246.534C146.567 247.879 146.167 249.394 144.834 250.151C143.385 250.975 141.655 250.197 140.856 248.859C140.294 247.915 140.11 246.663 139.833 245.613C139.521 244.434 139.223 243.248 138.935 242.062C136.984 234.007 135.676 225.811 134.691 217.584L134.621 216.996C134.121 212.761 133.637 208.515 133.324 204.26C133.17 202.17 133.047 200.08 132.971 197.985C132.933 196.907 132.995 195.823 133.056 194.747C133.083 194.276 133.123 193.802 133.138 193.331L133.143 193.264C133.147 193.217 133.152 193.154 133.157 193.088L133.161 193.008C131.704 193.465 130.225 193.845 128.731 194.166C125.554 194.853 122.302 195.236 119.059 195.041C119.511 200.414 120.101 205.773 120.925 211.097C121.719 216.225 122.636 221.341 123.671 226.427C124.189 228.982 124.749 231.531 125.338 234.071C125.655 235.428 126.016 236.776 126.302 238.14C126.471 238.951 126.523 239.63 126.183 240.389C126.558 241.409 126.89 242.434 127.218 243.4L127.316 243.688C127.895 245.378 128.993 247.107 127.846 248.769C127.253 249.626 126.285 250.117 125.311 250.147C125.294 250.157 125.275 250.17 125.256 250.18C124.732 250.461 124.128 250.516 123.553 250.396C122.68 250.567 121.806 250.732 120.929 250.882C118.764 251.256 116.588 251.564 114.407 251.825C110.256 252.319 106.077 252.59 101.9 252.74C86.6087 253.291 71.3002 252.323 56.0025 252.602C48.2087 252.744 40.415 253.095 32.634 253.56C28.7509 253.792 24.8657 254.042 20.9805 254.234L19.7779 254.293C16.3034 254.459 12.8264 254.587 9.35446 254.333C9.28685 254.329 9.23404 254.301 9.19812 254.264C8.00024 254.128 6.79622 253.025 6.91643 251.751C7.43404 246.323 7.95164 240.896 8.47136 235.466C9.3946 225.793 10.3263 216.119 11.2685 206.448L11.4047 205.051C11.7213 201.792 12.0236 198.526 12.177 195.254C11.4038 195.2 10.6328 195.13 9.8615 195.045C1.50472 194.13 -6.50654 191.601 -14.1987 188.28L-14.5103 188.145C-15.2033 187.842 -15.9617 187.54 -16.7392 187.217C-16.7263 188.694 -16.7751 190.174 -16.7814 191.636C-16.792 194.065 -16.773 196.493 -16.7667 198.919C-16.7519 203.92 -16.5617 208.922 -16.3124 213.915C-15.8751 222.732 -15.3617 231.537 -14.5843 240.333C-14.3878 242.546 -14.1214 244.755 -13.9336 246.968C-13.8214 248.272 -14.0899 249.358 -15.2834 250.043C-15.8709 250.381 -16.3251 250.24 -16.9082 249.967C-18.3322 249.299 -18.3723 247.72 -18.5075 246.346C-18.6108 245.311 -18.7061 244.275 -18.7991 243.238C-18.9974 241.025 -19.1688 238.812 -19.3082 236.595C-19.8594 227.785 -20.0202 218.985 -19.6399 210.165C-19.4633 206.04 -19.2085 201.906 -18.8702 197.788L-18.7906 196.838C-18.5117 193.547 -18.3322 190.093 -17.7554 186.782C-20.0814 185.75 -22.3864 184.438 -23.4554 182.256C-24.8411 179.424 -23.3181 177.002 -21.1484 175.335C-21.1695 175.054 -21.1484 174.775 -21.0892 174.521C-20.466 171.822 -19.4223 169.155 -18.4145 166.581C-17.3984 163.994 -16.2765 161.447 -15.0427 158.955C-10.0906 148.973 -3.32582 139.851 4.73827 132.166C8.7439 128.35 13.1277 124.822 17.8073 121.863C20.127 120.399 22.5059 119.046 24.9692 117.841L25.3334 117.664C27.0483 116.831 28.9717 115.946 30.8786 115.483C31.077 115.335 31.2777 115.195 31.4805 115.062C32.2305 114.563 33.2488 114.924 33.6925 115.637C33.9082 115.47 34.1573 115.322 34.4425 115.189L34.7244 115.06C36.4355 114.289 38.49 113.568 40.3474 114.075C41.5009 114.39 42.4094 115.24 42.8173 116.322C43.753 115.827 44.6721 115.318 45.5699 114.694C47.0129 113.697 48.3206 112.458 49.4953 111.158C51.8509 108.544 53.5622 105.481 54.327 102.034ZM136.064 184.461C135.904 184.507 135.735 184.524 135.559 184.503C135.876 184.54 135.242 184.728 135.068 184.817L135.054 184.824C134.738 185.006 134.419 185.181 134.095 185.351C133.341 185.748 132.57 186.105 131.786 186.441C130.242 187.099 128.647 187.604 127.009 187.974C125.408 188.335 123.728 188.546 122.087 188.58C120.988 188.601 119.685 188.551 118.548 188.227C118.679 190.22 118.825 192.211 118.988 194.2L121.232 193.685C123.477 193.17 125.72 192.642 127.935 192C129.597 191.518 131.237 190.954 132.857 190.345C133.707 190.026 134.549 189.688 135.382 189.324C135.796 189.143 136.185 188.928 136.568 188.71L136.897 188.523C136.821 187.633 136.681 186.76 136.479 185.881C136.373 185.416 136.193 184.939 136.064 184.461ZM-17.6498 175.075C-17.935 176.001 -18.3723 176.865 -19.3695 177.074C-19.7223 177.148 -20.0179 177.108 -20.2631 176.988L-20.322 177.106C-21.1418 178.79 -21.3826 180.567 -19.4962 181.863C-18.6446 182.449 -17.7174 182.956 -16.7582 183.41C-15.043 184.227 -13.2163 184.883 -11.4942 185.551L-11.1512 185.685C-8.07089 186.894 -4.94201 187.995 -1.76455 188.916C1.4596 189.848 4.74038 190.596 8.06172 191.072C9.46221 191.271 10.8735 191.41 12.2871 191.501C12.3101 189.599 12.2995 187.695 12.2932 185.792C11.7904 185.729 11.2918 185.661 10.8103 185.604C9.3439 185.433 7.88193 185.224 6.42841 184.964C3.39249 184.421 0.388268 183.67 -2.54202 182.711C-7.97159 180.929 -13.023 178.382 -17.6498 175.075ZM41.8791 116.81C40.6453 115.504 38.2855 115.975 36.7962 116.609C36.346 116.801 35.8918 116.996 35.4608 117.23L35.3773 117.277C34.8754 117.566 34.8779 117.738 35.123 118.314C35.4418 119.073 35.8855 119.807 36.308 120.51C38.1167 123.531 40.4974 126.16 43.2164 128.381C52.846 136.243 66.6798 139.016 78.7221 136.383C84.5015 135.12 90.0764 132.572 94.331 128.392L94.7184 128.007C96.4339 126.289 98.7887 123.804 98.6235 121.259C98.5453 120.035 97.546 119.965 96.5256 119.729C96.1075 119.631 95.708 119.494 95.3615 119.3C95.6404 120.502 94.1554 122.29 93.3883 123.04C91.7805 124.615 89.8453 125.845 87.7983 126.764C83.9024 128.517 79.6645 129.345 75.4453 129.869C70.658 130.465 65.7672 130.412 61.0157 129.531C56.8812 128.764 52.8059 127.312 49.2481 125.05C47.6171 124.015 46.0094 122.833 44.6488 121.457L44.3597 121.165C43.3774 120.169 42.2344 118.966 41.6467 117.659C41.4228 117.662 41.201 117.655 40.9791 117.64C40.8228 117.632 40.7385 117.41 40.8946 117.327C41.07 117.234 41.2453 117.142 41.4207 117.051C41.3913 116.953 41.3657 116.858 41.3446 116.761C41.3277 116.679 41.4143 116.603 41.4904 116.649C41.596 116.712 41.6974 116.78 41.7967 116.852C41.8242 116.839 41.8517 116.825 41.8791 116.81Z" fill="#575757"/>
<path fill-rule="evenodd" clip-rule="evenodd" d="M102.888 39.2154C90.1839 30.803 64.733 31.7167 50.7483 36.8707C37.103 41.1998 32.3256 53.2626 30.0599 66.2951C27.3061 80.9423 27.6762 102.057 47.4792 101.801C50.2632 103.148 53.3475 103.732 56.2282 104.848C60.1708 106.212 64.0366 107.795 68.0374 108.989C75.9173 111.528 84.6857 111.307 92.1606 107.592C96.2903 105.596 97.9996 102.488 100.7 99.1767C108.557 89.5422 112.511 75.7541 112.157 63.5036C111.535 54.8773 110.109 44.8914 102.888 39.2154Z" fill="white"/>
<path fill-rule="evenodd" clip-rule="evenodd" d="M118.963 74.7249C117.66 66.6302 117.299 58.3981 115.592 50.3668C113.986 42.8091 110.984 35.6674 105.738 29.906C101.044 24.7511 94.974 20.9659 88.4585 18.567C75.7656 13.8941 61.167 14.9508 48.8881 20.406C37.3952 25.5099 28.2283 34.953 22.8853 46.2856C19.4142 53.6491 17.6691 61.4775 16.8938 69.5574C16.0339 78.5334 15.9409 87.6025 15.5902 96.6102C15.548 97.7219 15.4867 98.8336 15.4719 99.9456C15.455 101.163 15.9473 102.23 16.3487 103.363C16.3762 103.443 16.4163 103.519 16.4649 103.591C16.1628 103.629 15.8607 103.674 15.5586 103.722C15.2205 103.775 15.2353 104.325 15.5586 104.39C18.2945 104.948 21.1064 105.026 23.8888 105.164C26.7726 105.307 29.6607 105.386 32.5487 105.483C35.3649 105.578 38.1811 105.673 40.9973 105.768C42.4762 105.819 43.955 105.869 45.4339 105.918C46.1374 105.941 46.8409 105.967 47.5466 105.99C47.8973 106.003 48.2501 106.013 48.6008 106.026C48.886 106.034 49.3508 106.216 49.3804 106.007C49.4332 106.039 49.4902 106.066 49.5515 106.085C49.6191 106.121 49.6846 106.163 49.748 106.21C50.0923 106.446 50.6142 106.417 50.9628 106.21C50.9945 106.191 51.0283 106.17 51.0621 106.148C51.3219 105.994 51.5036 105.77 51.605 105.517C53.0501 107.262 55.6085 105.301 54.1297 103.454C53.3353 102.46 45.4339 78.1065 48.7043 59.5542L61.8198 57.8169C64.2177 57.5738 68.6797 57.0898 68.6797 57.0898C68.6797 57.0898 69.7719 53.5244 70.0846 52.3767C70.1078 52.2922 70.1311 52.2055 70.1564 52.121C70.4691 52.6728 70.7839 53.2221 71.1008 53.7716L72.7191 57.0624C72.7191 57.0624 96.605 56.6629 102.461 56.701C102.561 56.701 103.032 63.8235 102.818 66.9599C102.387 73.2581 101.929 79.5522 101.291 85.8335C100.884 89.8556 99.9022 93.8 98.44 97.507C96.1302 103.363 89.4241 108.929 82.8853 108.929C78.8151 108.929 69.6177 105.631 68.2783 104.965C66.9388 104.299 66.1407 106.117 67.3614 106.844C69.834 108.317 76.6498 111.441 82.8853 111.441C91.9408 111.441 98.7768 102.845 99.6156 101.613C107.861 101.161 116.295 101.37 124.53 102.188C125.221 102.255 125.817 101.423 125.595 100.787C122.637 92.3179 120.387 83.5828 118.963 74.7249Z" fill="#575757"/>
<path fill-rule="evenodd" clip-rule="evenodd" d="M85.1527 95.2734C83.7325 94.6938 82.4653 93.727 81.5388 92.4919C81.2168 92.0626 81.1333 91.6092 81.2008 91.1945C81.2768 90.7283 81.5525 90.3057 81.9286 90.0222C82.3058 89.7379 82.7777 89.5976 83.2339 89.6691C83.6303 89.7312 84.0249 89.9483 84.3372 90.3987L84.4024 90.4887C84.9532 91.2341 85.6709 91.8457 86.4887 92.24C87.2769 92.6199 88.1584 92.7973 89.0707 92.6941C90.8081 92.4978 92.0056 91.5578 93.2785 90.2813C93.4362 90.1202 93.5941 89.9539 93.7528 89.7851C93.8529 89.632 93.992 89.5336 94.1463 89.4819C94.3177 89.4246 94.5116 89.4279 94.6892 89.4899C94.8605 89.5497 95.0136 89.663 95.1162 89.8138C95.2138 89.9571 95.2691 90.1342 95.2512 90.3378C95.1347 91.6607 94.4433 92.8413 93.4613 93.7683C92.3707 94.7979 90.9249 95.5102 89.5638 95.76C88.0643 96.0352 86.5363 95.838 85.1527 95.2734ZM90.2712 74.8655C91.8666 75.8356 94.2974 78.0977 92.5812 80.5027C90.561 82.6233 87.6524 80.1919 86.2191 79.0923C84.89 78.2401 83.3968 80.4319 84.6299 81.427C94.987 89.098 99.1901 75.1192 91.0781 73.7249C90.1849 73.5713 89.8532 74.5654 90.2712 74.8655ZM71.7111 65.9421C71.8874 63.7533 75.2196 63.2563 75.5511 65.4222C75.8479 67.3624 75.4985 69.1447 74.6249 70.8916C73.7902 72.5604 71.6922 71.7818 71.5335 70.2622C71.3209 68.2252 71.6015 67.3037 71.7111 65.9421ZM97.0767 64.9731C97.5413 64.3644 98.212 63.9489 99.0157 64.1837C101.527 64.9178 100.787 68.4839 99.9047 70.2197C99.4256 71.1623 97.8768 71.4014 97.1768 70.5714C96.036 69.2179 95.4897 66.5149 96.94 65.1817C96.9793 65.1128 97.023 65.0433 97.0767 64.9731ZM74.5896 56.3646L74.9862 56.2952C76.2132 56.0829 77.7388 55.8789 78.6068 56.8657C79.0672 57.389 79.2256 58.3617 78.6068 58.8626C77.5184 59.7439 76.315 59.4024 75.0106 59.477C73.9357 59.5387 72.9026 59.7166 71.8672 60.0127C69.5956 60.6622 67.7447 61.8479 65.8046 63.1498C65.5501 63.3206 65.2902 62.9949 65.4117 62.7567C66.5316 60.5622 68.702 58.7596 70.8759 57.6608C72.0362 57.0743 73.3059 56.5878 74.5896 56.3646ZM94.7878 55.3816L95.0914 55.4438C98.395 56.1346 102.687 57.5146 104.252 60.7608C104.311 61.2198 104.248 61.3182 104.197 61.3825L104.18 61.4038C104.138 61.4587 104.104 61.5344 103.905 61.5969C103.85 61.5837 103.794 61.5698 103.738 61.555C103.021 61.367 102.453 61.108 101.904 60.8393L101.309 60.5458C100.618 60.2068 99.9206 59.8802 99.1819 59.6391C97.6054 59.1247 95.9838 58.7623 94.3371 58.5688C93.9802 58.5269 93.6365 58.4064 93.3654 58.1999C93.108 58.0039 92.9114 57.7325 92.8218 57.3717C92.7056 56.9048 92.739 56.5513 92.9894 56.1301C93.1777 55.8138 93.4471 55.5946 93.7565 55.4687C94.0718 55.3403 94.4309 55.3101 94.7878 55.3816Z" fill="#575757"/>
<path fill-rule="evenodd" clip-rule="evenodd" d="M114.804 58.7753C114.63 58.7463 114.456 58.719 114.282 58.6935C114.146 58.6163 113.986 58.5569 113.801 58.5212C113.377 58.4136 112.957 58.3411 112.537 58.302C106.509 56.945 92.5637 58.8718 91.9882 64.0178C90.0686 64.6588 88.4076 64.0848 86.1828 64.1419C84.4892 57.0606 55.2111 58.06 53.803 62.3293C53.7977 62.3278 53.7924 62.3266 53.787 62.3249C52.434 61.906 50.4394 62.007 48.8908 61.9406C45.5843 61.8713 42.2739 62.1662 39.0388 62.8638C32.9807 63.8269 24.7127 64.9545 28.926 72.5225C28.9269 72.5238 28.9275 72.5253 28.9286 72.5265L28.9292 72.5259C29.6553 73.2705 30.8876 72.6709 30.9335 71.663C29.5169 68.0776 32.7164 67.6471 35.1781 66.6168C41.3034 64.4153 47.5396 64.1102 53.8746 64.7911C54.3512 65.3525 55.0744 65.842 55.8388 66.0981C60.0745 66.8015 57.8422 69.9447 60.5196 70.4018C60.0278 81.3587 73.3252 87.3395 81.0299 80.1368C84.1062 77.1281 84.8395 72.6709 85.5527 68.6533C85.9299 68.5686 86.1697 68.3623 86.3097 68.0892C87.2167 67.1834 87.7865 66.3469 89.5799 66.0981C91.3734 65.8496 92.754 66.3486 92.9408 66.5014C92.9879 66.5963 93.0384 66.6914 93.0971 66.7865C93.1791 66.9283 93.2906 67.0414 93.4174 67.1304C91.6463 78.0411 100.113 84.9413 108.661 79.2824C112.375 75.7873 113.16 70.4363 113.315 65.6602C113.818 65.3563 114.137 64.7672 113.963 64.0267C113.723 63.0058 114.286 62.122 115.183 61.6781C116.349 61.1018 116.142 58.997 114.804 58.7753ZM78.0754 63.9514C77.0144 63.718 76.5613 65.3544 77.6257 65.5885C78.3794 65.7543 79.0182 66.1345 79.4497 66.7787L79.4952 66.8487C80.0743 67.7706 81.5387 66.9196 80.9556 65.9918C80.2995 64.9476 79.2799 64.2163 78.0754 63.9514ZM109.15 62.9368C108.776 62.6732 108.21 62.8689 107.993 63.2414C107.754 63.6515 107.91 64.1081 108.261 64.3764L108.296 64.4026C108.618 64.6292 108.931 65.0353 108.97 65.4514L108.973 65.5034C109.016 66.5923 110.707 66.5979 110.665 65.5034C110.624 64.4328 110.004 63.5382 109.15 62.9368Z" fill="#575757"/>
<path d="M-58 -33V-41H-66V-33H-58ZM182 -33H190V-41H182V-33ZM182 291V299H190V291H182ZM-58 291H-66V299H-58V291ZM-58 -25H182V-41H-58V-25ZM174 -33V291H190V-33H174ZM182 283H-58V299H182V283ZM-50 291V-33H-66V291H-50Z" fill="white"/>
</g>
</svg>
