<svg width="147" height="147" viewBox="0 0 147 147" fill="none" xmlns="http://www.w3.org/2000/svg">
<mask id="mask0_1011_807" style="mask-type:alpha" maskUnits="userSpaceOnUse" x="0" y="0" width="147" height="147">
<circle cx="73.5" cy="73.5" r="73.5" fill="#C4C4C4"/>
</mask>
<g mask="url(#mask0_1011_807)">
<path fill-rule="evenodd" clip-rule="evenodd" d="M-1.53547 257.052C26.0656 261.246 54.1673 261.457 81.9976 259.934C93.0118 259.109 104.06 258.96 115.065 260.015C121.568 260.499 150.081 262.679 152.411 256.852C150.944 225.825 147.975 194.534 138.865 164.693C135.119 154.097 131.901 145.303 124.589 136.535C122.284 134.141 117.314 129.12 114.467 127.483C112 126.064 110.969 126.57 109.552 124.174C108.144 121.528 107.106 117.108 105.107 115.24C103.072 113.339 100.056 114.019 96.3174 114.631C97.0042 105.347 92.72 102.982 86.8181 101.216C76.4438 97.2554 66.1982 99.2452 63.5871 111.879C58.7457 111.879 56.0262 113.963 53.0861 115.966C51.8843 116.785 52.7204 118.87 51.2848 119.514C48.6289 120.46 43.9354 120.228 41.3781 121.392C29.7492 126.687 19.3917 134.364 12.5897 145.577C-2.65966 169.515 -13.1348 219.943 -11.3221 248.316C-12.1163 249.562 -11.0181 251.348 -10.7389 252.688C-10.3865 253.853 -9.24548 254.628 -8.05462 254.496C-6.39281 256.284 -3.82246 256.682 -1.53547 257.052Z" fill="white"/>
<path fill-rule="evenodd" clip-rule="evenodd" d="M112.708 126.78C112.538 126.686 112.687 126.443 112.858 126.523C121.043 130.365 127.323 137.105 131.741 144.892C136.316 152.955 138.924 162.11 141.172 171.058L141.253 171.381C143.65 180.953 145.689 190.624 147.524 200.319C149.382 210.136 150.874 220.015 152.074 229.934C152.668 234.838 153.197 239.751 153.61 244.674C153.816 247.134 154.003 249.596 154.172 252.059C154.239 253.044 154.302 254.03 154.357 255.015L154.396 255.755C154.429 256.426 154.509 257.098 154.343 257.76C154.2 258.331 153.898 258.847 153.633 259.371C153.108 260.406 151.668 260.235 151.102 259.371L150.938 259.119C150.562 258.539 150.25 257.999 150.133 257.277C150.019 256.578 150.014 255.845 149.963 255.139C149.869 253.839 149.789 252.538 149.698 251.238C149.506 248.502 149.291 245.767 149.053 243.034C148.581 237.639 148.076 232.249 147.455 226.869C146.352 217.307 144.967 207.771 143.335 198.286C141.741 189.02 139.725 179.848 137.622 170.687L137.404 169.74C133.722 153.746 128.047 135.327 112.708 126.78ZM25.5201 189.408C25.5803 189.248 25.8393 189.211 25.8831 189.408C26.4345 191.891 26.489 194.449 26.5733 196.992C26.6563 199.5 26.6529 202.02 26.6164 204.53C26.4816 213.754 26.2285 222.97 26.0096 232.193C25.9002 236.806 25.7975 241.419 25.7187 246.033C25.6889 247.764 25.6639 249.494 25.6431 251.225L25.6176 253.507C25.6049 254.516 25.5784 255.513 25.4555 256.521C25.3743 257.184 25.2015 257.816 24.8356 258.385C24.5759 258.788 24.2058 258.993 23.8451 259.267L23.7776 259.319C23.3174 259.683 22.8328 259.685 22.3771 259.319L22.2447 259.214C21.8094 258.874 21.4332 258.608 21.1553 258.069C20.7687 257.32 20.7068 256.507 20.6411 255.682C20.5414 254.431 20.6075 253.161 20.6204 251.906C20.6462 249.389 20.681 246.872 20.7252 244.355C20.8872 235.125 21.2075 225.894 21.7912 216.68C22.0662 212.341 22.4391 207.987 22.9393 203.665L23.0345 202.855C23.1862 201.583 23.3246 200.289 23.4805 198.99C21.153 197.352 19.1071 195.365 17.3624 193.111C17.234 192.945 17.4454 192.712 17.6005 192.873C19.3832 194.72 21.4272 196.192 23.6901 197.349C24.0609 194.631 24.5707 191.927 25.5201 189.408ZM64.4044 107.132C64.4363 107.107 64.4862 107.097 64.5166 107.132C65.0169 107.716 64.9154 108.608 64.9316 109.347L64.9334 109.416C64.9694 110.497 64.9761 111.575 64.9725 112.656L64.9613 116.1C64.9598 116.573 64.9214 117.066 64.9457 117.542L64.9584 117.726C65.2212 117.996 65.3433 118.385 65.2541 118.775C65.2381 119.277 64.9761 119.695 64.5939 119.958L65.413 121.12L66.233 122.282C67.9229 124.68 69.6314 127.057 71.412 129.388C73.2276 131.766 75.1645 134.054 77.1914 136.253C78.1816 137.328 79.1887 138.388 80.2193 139.425C80.6381 139.846 81.0673 140.256 81.4918 140.672L81.9141 141.089C82.1636 141.339 82.4775 141.586 82.6432 141.902C82.7406 142.089 82.7627 142.549 82.7976 142.625C83.1103 143.312 82.5768 144.408 81.6903 144.065L81.7306 144.039C81.892 143.926 81.7885 143.925 81.4201 144.034C81.1877 144.033 80.9698 143.98 80.7663 143.874L80.7056 143.84C80.419 143.695 80.1631 143.413 79.9301 143.187L79.8724 143.132C79.3398 142.633 78.8321 142.103 78.3217 141.581C77.2563 140.493 76.2149 139.381 75.2068 138.239C73.1955 135.961 71.2888 133.591 69.4831 131.147C67.6438 128.658 65.9342 126.041 64.464 123.317C63.9061 122.283 63.3946 121.229 62.9042 120.163C61.9497 119.856 61.7281 118.841 61.7946 117.697C61.4425 116.876 61.1251 116.039 60.9375 115.184C60.912 115.066 61.0626 114.956 61.1528 115.058C61.4581 115.405 61.7408 115.775 62.0125 116.154C62.1764 115.352 62.3839 114.613 62.4815 114.143L62.9046 112.065C60.5201 111.941 57.9071 112.921 56.2632 114.637C56.1749 115.084 55.8312 115.404 55.4961 115.821C55.1133 116.299 54.7793 116.834 54.5302 117.395C53.9777 118.637 54.2896 120.467 53.2174 121.378C53.1056 121.473 52.9808 121.539 52.8519 121.579C53.3607 124.075 53.1298 126.825 53.1187 129.357L53.1183 129.579C53.1208 132.413 53.0262 135.249 52.9168 138.08L52.8054 140.882C52.6611 144.619 52.5674 148.358 52.9305 152.075C54.5879 150.606 56.3017 149.205 58.0744 147.87C59.2401 146.992 60.4291 146.145 61.6397 145.33L62.6233 144.672C63.802 143.881 65.0094 143.068 66.2999 142.502C67.988 141.761 69.5932 142.016 71.2229 142.775C72.8458 143.532 74.4204 144.41 76.0123 145.23C77.6315 146.063 79.254 146.89 80.8755 147.719C81.9496 148.268 83.5235 148.763 84.3113 149.774C84.3616 149.551 84.4201 149.328 84.4886 149.105C84.4104 148.767 84.4406 148.401 84.6306 148.052C87.2777 143.186 89.727 138.204 92.1591 133.228C93.3901 130.709 94.5606 128.161 95.7939 125.645L96.9929 123.193C97.1933 122.785 97.3942 122.377 97.5963 121.97C97.8988 121.36 98.2138 120.756 98.5197 120.147C98.649 119.89 98.8111 119.635 98.9369 119.375L98.9965 119.245C98.9994 119.238 99.2899 118.324 99.0655 118.411L99.0462 118.421C98.9317 118.486 98.84 118.342 98.9141 118.25C99.2315 117.857 99.6734 118.205 99.8545 118.568C100.353 119.568 99.4393 121.137 99.0877 122.095L99.0684 122.148C97.9772 125.238 96.7417 128.27 95.4758 131.291C93.0485 137.084 90.441 142.787 87.8393 148.501L87.8084 148.599C88.3632 148.173 88.9556 147.787 89.4629 147.411C90.7425 146.463 92.0596 145.562 93.3745 144.663C95.7859 143.015 98.2627 141.475 100.78 139.997L101.285 139.702C102.542 138.969 103.788 138.374 105.281 138.594C106.668 138.799 107.957 139.544 109.21 140.15L109.34 140.212L113.211 142.053C112.797 140.402 112.349 138.759 111.882 137.122C110.97 133.929 109.966 130.763 108.878 127.625C107.862 124.694 106.764 121.794 105.602 118.917L105.252 118.054C104.778 116.87 104.307 115.578 102.953 115.214C101.6 114.849 100.048 115.39 98.8108 114.618C98.6984 114.548 98.7124 114.362 98.8487 114.328L99.6118 114.136C101.045 113.779 102.724 113.42 104.079 113.767C105.554 114.145 106.774 115.383 107.489 116.67C108.284 118.102 108.845 119.704 109.449 121.23L109.544 121.471C110.237 123.198 110.904 124.936 111.541 126.685C112.816 130.181 113.976 133.719 115.027 137.288C115.533 139.009 116.013 140.737 116.475 142.47C116.608 142.968 116.826 143.573 117.006 144.203C117.212 144.404 117.407 144.628 117.589 144.883C117.893 145.307 117.675 145.804 117.298 146.058C117.283 146.492 117.187 146.9 116.957 147.249C116.058 148.614 113.681 148.263 113.778 146.428C113.792 146.147 113.902 145.879 114.068 145.652L114.063 145.615L114.044 145.548C113.631 145.35 113.217 145.13 112.78 144.914L108.717 142.905C107.541 142.324 106.236 141.425 104.928 141.203C103.708 140.996 102.421 141.906 101.372 142.454L101.304 142.49C98.7701 143.789 96.2547 145.131 93.7493 146.485C92.5263 147.146 91.3191 147.834 90.1007 148.503C89.082 149.062 87.9825 149.865 86.8375 150.18C86.3484 150.561 85.7674 150.51 85.3005 150.222C85.5139 151.544 85.5008 152.901 85.5663 154.252C85.6543 156.059 85.6678 157.871 85.6968 159.681L85.7087 160.359C85.7856 164.359 85.8268 168.36 85.842 172.361C85.896 186.608 85.7387 200.859 85.7019 215.105C85.6833 222.263 85.5415 229.427 85.3556 236.583C85.2768 239.615 85.112 242.643 84.9341 245.67L84.8361 247.322C84.6289 250.806 84.5065 254.328 83.8618 257.766C83.7777 258.214 83.0192 258.225 82.9449 257.766C82.3515 254.082 82.3185 250.319 82.2044 246.592L82.1803 245.848C82.0432 241.847 81.9781 237.848 81.992 233.846C82.0427 219.593 82.4131 205.35 82.716 191.101C82.8684 183.942 82.9708 176.78 83.2075 169.624C83.3258 166.043 83.4597 162.464 83.6186 158.885C83.6896 157.287 83.7578 155.69 83.8639 154.094L83.9118 153.41C83.9448 152.964 83.9714 152.524 84.0037 152.087C82.5622 152.614 81.2439 151.638 79.9472 150.971C78.4527 150.202 76.9588 149.432 75.4637 148.664L73.9673 147.898L70.9727 146.369C69.6244 145.681 68.5856 144.996 67.1475 145.803C61.9666 148.711 57.2057 152.58 52.8912 156.64C52.0639 157.419 50.3156 157.209 50.1061 155.904C49.2108 150.33 49.7553 144.675 50.2123 139.083L50.3808 137.007C50.585 134.528 50.8074 132.049 51.1037 129.579C51.2362 128.475 51.3681 127.371 51.5142 126.268L51.6265 125.442C51.8091 124.135 51.9282 122.836 52.3174 121.583C52.1946 121.543 52.0765 121.478 51.9709 121.378C50.8009 120.267 51.365 118.34 51.8989 117.02C52.426 115.716 53.2299 114.578 54.2365 113.598C54.4561 113.385 54.7656 113.247 55.0765 113.24C57.5173 111.622 60.1949 110.815 62.9818 111.698C63.06 111.323 63.1398 110.95 63.2239 110.577L63.3094 110.204C63.5262 109.279 63.6067 107.751 64.4044 107.132ZM89.4197 253.221C90.1771 253.013 91.0063 253.233 91.5613 253.788C92.1161 254.343 92.3358 255.172 92.1271 255.93C92.0227 256.303 91.8341 256.627 91.5613 256.902C91.3063 257.155 91.0088 257.336 90.6691 257.444L90.5899 257.468L90.4661 257.52C90.0865 257.622 89.7066 257.622 89.3272 257.52C88.9642 257.418 88.6492 257.234 88.3818 256.969C88.1162 256.701 87.9326 256.386 87.8308 256.023C87.7287 255.643 87.7287 255.263 87.8308 254.883L87.8825 254.759C87.9869 254.386 88.1756 254.062 88.4483 253.788C88.723 253.515 89.0468 253.326 89.4197 253.221ZM134.392 177.719C134.517 177.576 134.718 177.759 134.641 177.911C133.461 180.225 132.146 182.522 130.854 184.777C130.958 185.402 131.06 186.022 131.178 186.626C131.682 189.201 132.298 191.73 132.7 194.33C134.146 203.676 134.896 213.123 135.539 222.553C136.185 232.016 136.268 241.484 136.365 250.966C136.373 251.788 135.741 252.743 134.894 252.898C134.507 252.969 134.217 252.955 133.83 252.898C132.949 252.768 132.398 251.758 132.36 250.966C132.107 245.667 131.767 240.374 131.373 235.083C130.675 225.702 130.249 216.297 129.685 206.907L129.486 203.625C129.273 200.069 129.078 196.51 129.015 192.949C128.972 190.589 129.099 188.23 129.021 185.873C128.949 183.698 128.729 181.332 129.208 179.194C129.226 179.114 129.353 179.094 129.389 179.17C129.888 180.22 130.204 181.362 130.447 182.527C131.732 180.901 133.041 179.272 134.392 177.719ZM50.2238 120.243C50.4042 120.23 50.397 120.501 50.2238 120.521C47.7021 120.814 45.2661 121.84 42.8851 122.713L42.6811 122.787C40.2756 123.66 37.9304 124.675 35.6734 125.886C31.2606 128.252 27.2085 131.303 23.6258 134.796C9.32198 148.739 2.80331 168.846 -1.97324 187.741C-4.62718 198.239 -6.51443 208.914 -7.73767 219.672C-8.34253 224.992 -8.77014 230.332 -9.01943 235.681C-9.14704 238.422 -9.22753 241.166 -9.26112 243.91C-9.27845 245.315 -9.28352 246.721 -9.28183 248.126C-9.28098 248.771 -9.16605 249.582 -9.33824 250.207C-9.49795 250.786 -9.94838 251.297 -10.2815 251.779C-10.6764 252.352 -11.3861 252.322 -11.7864 251.779L-11.934 251.582C-12.361 251.015 -12.7788 250.473 -12.8398 249.733C-12.9051 248.939 -12.859 248.121 -12.862 247.323C-12.8687 245.717 -12.8489 244.11 -12.8168 242.504C-12.7549 239.426 -12.6336 236.348 -12.4534 233.274C-12.0875 227.036 -11.4851 220.811 -10.6227 214.622C-9.08979 203.621 -6.79204 192.726 -3.78232 182.035C-0.942884 171.949 2.42092 161.894 7.21289 152.552C11.6622 143.878 17.4991 135.809 25.2011 129.747C28.7827 126.928 32.6816 124.578 36.8852 122.809C39.0053 121.917 41.2316 121.188 43.4958 120.773C45.7348 120.362 47.9641 120.42 50.2238 120.243ZM89.8538 235.395C90.2537 235.392 90.6997 235.48 91.0428 235.701L91.5012 236.055C91.6255 236.215 91.749 236.375 91.8722 236.536C92.1589 236.91 92.1969 237.514 92.1371 237.96C92.1236 238.257 92.0353 238.533 91.8722 238.79L91.5232 239.242C91.1877 239.516 90.908 239.711 90.5017 239.842C90.2893 239.911 90.0848 239.926 89.881 239.915L89.813 239.911L89.8538 239.916L89.7824 239.908C89.716 239.903 89.6495 239.895 89.5827 239.886C89.5373 239.881 89.4917 239.877 89.4462 239.871C89.4025 239.867 89.3603 239.866 89.3161 239.87C88.7998 239.918 88.2807 239.625 87.9141 239.289C87.5839 238.985 87.2875 238.342 87.3336 237.886L87.3532 237.696C87.388 237.374 87.4166 237.248 87.5527 236.925C87.6849 236.611 87.8698 236.334 88.1214 236.1C88.6031 235.652 89.1927 235.399 89.8538 235.395ZM88.2555 211.875C88.9408 211.128 90.1178 211.073 90.9678 211.525C91.1748 211.635 91.3649 211.812 91.5475 211.96C92.0074 212.332 92.188 213.003 92.2134 213.568C92.2385 214.127 91.9438 214.791 91.5475 215.177L91.4513 215.27C91.2145 215.5 90.8752 215.701 90.5439 215.762C90.0097 215.86 89.5609 215.857 89.0634 215.647C88.6359 215.466 88.2675 215.176 88.0169 214.783L87.9762 214.716C87.959 214.689 87.9428 214.661 87.9275 214.632L87.9054 214.588C87.4292 213.672 87.5573 212.635 88.2555 211.875ZM88.6105 188.231C88.9196 188.134 89.2284 188.121 89.5375 188.19C89.7473 188.19 89.9429 188.243 90.1242 188.348C90.3211 188.404 90.4922 188.503 90.6372 188.648C90.8117 188.751 90.9509 188.89 91.0542 189.065C91.2598 189.289 91.3984 189.553 91.4704 189.856L91.5532 190.474L91.4704 191.092L91.2359 191.648C91.1715 191.732 91.1066 191.816 91.0411 191.9C90.9376 192.075 90.7982 192.215 90.623 192.318C90.5091 192.432 90.3786 192.516 90.2326 192.575C89.715 192.946 89.0254 193.067 88.4121 192.898C88.0479 192.796 87.7316 192.612 87.4635 192.345C87.1971 192.077 87.0126 191.761 86.9108 191.396L86.8688 191.106C86.8147 190.715 86.8061 190.499 86.9165 190.003C86.9649 189.785 87.1054 189.478 87.1789 189.348C87.4933 188.795 88.0069 188.416 88.6105 188.231ZM115.448 171.221C116.336 171.215 117.223 171.217 118.111 171.227L118.776 171.236C119.891 171.253 120.845 171.138 121.721 171.912C122.357 172.473 122.077 173.415 121.474 173.838C120.559 174.478 119.412 174.156 118.36 174.085C117.252 174.011 116.142 173.949 115.032 173.9C112.883 173.803 110.733 173.742 108.582 173.733C106.435 173.723 104.285 173.744 102.139 173.778C99.9544 173.814 97.6803 174.017 95.5085 173.791C95.2102 173.76 95.143 173.368 95.4375 173.266C97.4841 172.557 99.7863 172.328 101.931 172.057C104.143 171.778 106.355 171.58 108.582 171.451C110.868 171.32 113.158 171.238 115.448 171.221ZM88.6064 164.265L88.6796 164.267C89.0703 164.268 89.4359 164.359 89.7768 164.542L89.8494 164.583L90.3185 164.945C90.6056 165.235 90.8044 165.576 90.9142 165.968L90.997 166.585C91.0093 166.904 90.9425 167.201 90.7976 167.478C90.704 167.765 90.5443 168.014 90.3185 168.224C90.1085 168.45 89.8598 168.61 89.5727 168.703C89.3176 168.837 89.0445 168.904 88.7529 168.904L88.6796 168.903C88.2615 168.901 87.8715 168.796 87.5103 168.586L87.041 168.224C86.7539 167.935 86.5551 167.594 86.4453 167.201L86.3622 166.585C86.3504 166.265 86.4167 165.967 86.5621 165.691C86.6555 165.404 86.8152 165.155 87.041 164.945C87.251 164.719 87.4995 164.559 87.787 164.466C88.0419 164.332 88.315 164.265 88.6064 164.265V164.265ZM95.4766 109.806C95.9758 109.083 96.8806 109.726 96.7511 110.308C96.7854 111.941 96.8688 113.527 97.2404 115.127C97.4105 115.859 97.6334 116.593 97.9771 117.264L98.1215 117.546C98.5664 118.426 98.9118 119.255 98.3126 120.22C98.0301 120.675 97.5197 121.016 96.9664 120.992C94.5125 120.886 94.1754 117.47 94.0262 115.562C93.8724 113.598 94.3507 111.439 95.4766 109.806Z" fill="#893DFF"/>
<path fill-rule="evenodd" clip-rule="evenodd" d="M112.37 44.4604C106.02 35.7177 94.3291 33.2035 84.1904 35.3299C64.3694 38.9444 45.4325 54.0722 41.9302 74.6459C36.4663 87.0925 39.9555 106.697 55.8461 108.162C58.1084 108.289 60.3493 107.769 62.6157 108.05C76.4477 110.26 92.7927 119.722 105.037 108.564C105.651 109.003 106.459 109.216 107.147 108.95C112.359 106.935 112.603 101.107 113.048 96.3156C113.622 90.125 114.16 83.9309 114.662 77.7344C114.841 67.0481 119.075 53.6943 112.37 44.4604V44.4604Z" fill="white"/>
<path fill-rule="evenodd" clip-rule="evenodd" d="M73.943 22.1816C82.288 21.7378 97.6643 25.5615 104.945 30.0445C116.807 37.3485 117.726 51.9186 117.242 54.4379C117.058 55.3993 116.471 56.2891 115.552 55.9934C116.332 62.6127 116.27 66.3961 116.401 73.0536L116.491 77.4984C116.55 80.4617 116.6 83.4252 116.613 86.3896C116.913 86.2778 117.208 86.415 117.318 86.7026C117.346 86.7724 117.251 86.8104 117.204 86.7703C116.676 86.3093 117.052 87.3597 117.234 87.5734C117.485 87.8672 117.904 88.144 118.197 88.3955L118.995 89.0863L119.792 89.7757C120.823 90.6649 121.819 91.556 122.78 92.5139L123.042 92.7768C124.793 94.5564 126.988 96.2787 128.078 98.5805C129.12 100.778 128.799 103.27 127.068 105.022C126.439 105.658 125.704 106.145 124.905 106.512C126.327 108.854 126.534 111.951 125.051 114.36C123.565 116.778 120.709 118.044 117.958 117.849C117.874 118.194 117.743 118.53 117.57 118.849C116.479 120.854 114.309 121.114 112.252 121.007L112.172 121.003C107.541 120.736 103.085 119.576 99.0289 117.321C97.6218 117.416 96.3669 116.26 96.0922 114.992C95.3528 114.964 94.6091 114.903 93.8507 114.816C91.6007 114.556 89.2937 114.072 87.3099 112.929C87.0056 112.754 87.1472 112.291 87.4852 112.282C89.9021 112.227 92.3211 112.394 94.7338 112.132C96.9479 111.893 99.3077 111.283 101.372 110.452C105.082 108.956 108.263 106.417 110.019 102.9C112.292 98.3478 112.085 92.8804 112.332 87.9348C112.606 82.4604 112.943 76.9911 113.304 71.5224L113.479 68.901C113.829 63.7915 114.118 61.058 115.005 55.7546C112.332 55.9934 101.231 51.9961 97.7782 45.4574C91.2257 59.3674 58.0279 53.6746 56.5556 75.0889C56.5431 75.2705 56.2556 75.22 56.2451 75.0465L56.2177 74.5584C56.2044 74.3173 56.1924 74.0799 56.1842 73.8444L56.1775 73.6095L55.6556 73.6158C55.6556 73.6811 55.5627 73.7046 55.5394 73.6348C55.0472 72.2376 52.7021 72.6878 51.6817 73.0198C50.7627 73.3197 49.8965 73.7805 49.119 74.3492C47.5577 75.4905 46.3472 77.027 45.9458 78.948C45.1831 82.5961 47.5049 86.3116 50.5873 88.0722C52.531 89.1818 54.6606 89.8982 56.5239 91.1558C58.1697 92.2654 59.7035 93.5652 61.0324 95.0425C66.2972 100.895 69.3944 109.772 66.9035 117.496C66.7134 118.086 66.2106 118.76 65.5451 118.855C64.4444 119.014 63.3437 118.853 62.7267 117.805C62.4859 117.395 62.3718 116.928 62.3972 116.467C61.9704 117.934 60.5866 119.384 59.3106 119.929C57.5718 120.673 55.6134 120.451 54.0796 119.491L53.8858 119.635C51.3914 121.471 48.605 123.145 45.4091 122.808C43.0937 122.562 40.8204 121.383 39.5401 119.523C37.8373 120.481 36.0183 121.243 34.1422 121.763L33.9426 121.818C31.3615 122.521 28.0691 123.166 25.6598 121.738C23.3465 120.366 22.5775 117.371 23.1204 114.871C23.1859 114.573 23.2683 114.284 23.3697 114.003C21.6289 114.096 19.8901 113.929 18.238 113.417C16.55 112.895 14.9401 111.891 14.131 110.264C13.2183 108.423 13.4613 106.331 14.1415 104.456C15.2296 101.448 16.9789 98.7726 19.157 96.4416C21.2517 94.1981 23.7783 92.2948 26.4042 90.7082L26.8469 90.4432C29.2106 89.0328 32.0612 87.3801 34.8542 87.4889C34.8458 87.4529 34.8394 87.4189 34.8352 87.3832C34.4127 84.27 34.4613 81.0955 34.362 77.957C34.2711 75.0699 34.1676 72.1829 34.1 69.2937C33.9901 64.3817 34.026 59.449 34.6662 54.5711C35.2345 50.2426 36.257 46.0217 38.1225 42.0589C40.081 37.8955 43.0303 34.3427 46.6725 31.5487C54.3162 25.6837 64.4127 22.6889 73.943 22.1816ZM47.9802 79.8738C48.8126 78.3035 50.7077 77.8089 52.3704 78.0921C54.7007 78.4895 56.2852 80.5271 57.6457 82.2792C59.0739 84.1156 56.095 85.8466 55.3281 84.0672L55.1464 83.6468C54.531 82.2357 53.8039 80.7477 52.5478 79.8273C51.2126 78.8509 49.3281 78.7072 48.1493 80.0049C48.0647 80.1 47.9232 79.9774 47.9802 79.8738Z" fill="#893DFF"/>
<path fill-rule="evenodd" clip-rule="evenodd" d="M94.1507 99.2734C92.7305 98.6938 91.4633 97.727 90.5369 96.4919C90.2148 96.0626 90.1313 95.6092 90.1989 95.1945C90.2748 94.7283 90.5506 94.3057 90.9266 94.0222C91.3039 93.7379 91.7757 93.5976 92.2319 93.6691C92.6283 93.7312 93.0229 93.9483 93.3352 94.3987L93.4005 94.4887C93.9512 95.2341 94.669 95.8457 95.4867 96.24C96.275 96.6199 97.1565 96.7973 98.0687 96.6941C99.8062 96.4978 101.004 95.5578 102.277 94.2813C102.434 94.1202 102.592 93.9539 102.751 93.7851C102.851 93.632 102.99 93.5336 103.144 93.4819C103.316 93.4246 103.51 93.4279 103.687 93.4899C103.859 93.5497 104.012 93.663 104.114 93.8138C104.212 93.9571 104.267 94.1342 104.249 94.3378C104.133 95.6607 103.441 96.8413 102.459 97.7683C101.369 98.7979 99.923 99.5102 98.5618 99.76C97.0623 100.035 95.5343 99.838 94.1507 99.2734ZM99.2692 78.8655C100.865 79.8356 103.295 82.0977 101.579 84.5027C99.559 86.6233 96.6504 84.1919 95.2171 83.0923C93.8881 82.2401 92.3948 84.4319 93.6279 85.427C103.985 93.098 108.188 79.1192 100.076 77.7249C99.183 77.5713 98.8513 78.5654 99.2692 78.8655ZM80.7092 69.9421C80.8854 67.7533 84.2177 67.2563 84.5492 69.4222C84.846 71.3624 84.4966 73.1447 83.623 74.8916C82.7882 76.5604 80.6903 75.7818 80.5316 74.2622C80.3189 72.2252 80.5995 71.3037 80.7092 69.9421ZM106.075 68.9731C106.539 68.3644 107.21 67.9489 108.014 68.1837C110.525 68.9178 109.785 72.4839 108.903 74.2197C108.424 75.1623 106.875 75.4014 106.175 74.5714C105.034 73.2179 104.488 70.5149 105.938 69.1817C105.977 69.1128 106.021 69.0433 106.075 68.9731ZM83.5876 60.3646L83.9842 60.2952C85.2112 60.0829 86.7369 59.8789 87.6049 60.8657C88.0652 61.389 88.2237 62.3617 87.6049 62.8626C86.5164 63.7439 85.313 63.4024 84.0087 63.477C82.9337 63.5387 81.9006 63.7166 80.8652 64.0127C78.5937 64.6622 76.7427 65.8479 74.8027 67.1498C74.5481 67.3206 74.2882 66.9949 74.4097 66.7567C75.5296 64.5622 77.7 62.7596 79.8739 61.6608C81.0342 61.0743 82.3039 60.5878 83.5876 60.3646ZM103.786 59.3816L104.089 59.4438C107.393 60.1346 111.685 61.5146 113.25 64.7608C113.309 65.2198 113.246 65.3182 113.195 65.3825L113.178 65.4038C113.136 65.4587 113.102 65.5344 112.903 65.5969C112.848 65.5837 112.792 65.5698 112.736 65.555C112.019 65.367 111.452 65.108 110.902 64.8393L110.307 64.5458C109.616 64.2068 108.919 63.8802 108.18 63.6391C106.603 63.1247 104.982 62.7623 103.335 62.5688C102.978 62.5269 102.635 62.4064 102.363 62.1999C102.106 62.0039 101.909 61.7325 101.82 61.3717C101.704 60.9048 101.737 60.5513 101.987 60.1301C102.176 59.8138 102.445 59.5946 102.755 59.4687C103.07 59.3403 103.429 59.3101 103.786 59.3816Z" fill="#893DFF"/>
</g>
</svg>
