<svg width="147" height="147" viewBox="0 0 147 147" fill="none" xmlns="http://www.w3.org/2000/svg">
<mask id="mask0_1011_1785" style="mask-type:alpha" maskUnits="userSpaceOnUse" x="0" y="0" width="147" height="147">
<circle cx="73.5" cy="73.5" r="69.5" fill="#C4C4C4" stroke="white" stroke-width="8"/>
</mask>
<g mask="url(#mask0_1011_1785)">
<circle cx="73.5" cy="73.5" r="69.5" fill="#EDEDE0" stroke="white" stroke-width="8"/>
<path fill-rule="evenodd" clip-rule="evenodd" d="M145.256 249.088C144.919 242.825 144.505 236.566 144.009 230.314C143.022 217.859 141.728 205.394 139.576 193.082C137.453 180.935 134.482 169.123 130.201 157.547C128.215 152.177 126.065 147.595 122.945 142.768C119.995 138.203 116.23 135.11 111.54 132.355C107.314 129.872 102.405 125.565 98.3519 122.785C96.6599 121.624 93.1786 121.702 92.0183 119.985C90.4989 117.737 91.484 114.296 89.9524 112.055C88.2016 109.493 85.7488 107.503 82.9828 106.057C79.964 104.012 76.4084 103.086 72.8433 103.214C67.5861 102.895 62.2913 104.569 58.9161 108.85C57.2319 110.986 56.2484 113.451 56.1123 116.18C56.0769 116.89 56.3048 117.45 56.68 117.854C56.4576 118.151 56.2361 118.449 56.0162 118.749C55.3258 117.726 53.7121 117.182 52.6368 117.954C49.1188 120.48 45.3166 122.489 41.3035 123.962C40.3647 123.517 39.228 123.723 38.4237 124.449C38.0973 124.743 37.7511 124.994 37.3892 125.208C35.9012 125.612 34.3902 125.949 32.8568 126.209C32.3768 126.291 31.9702 126.563 31.6617 126.931C31.2047 126.503 30.5766 126.298 29.8752 126.566C21.7763 129.654 14.128 134.452 8.31451 140.952C1.8738 148.154 -1.50901 157.112 -4.08437 166.29C-6.87225 176.224 -8.65387 186.407 -10.1503 196.606C-11.6666 206.94 -13.16 217.315 -14.2032 227.709C-14.7904 233.559 -15.0143 239.461 -14.7485 245.336C-14.6161 248.272 -14.348 251.199 -13.921 254.107C-13.8215 254.788 -13.7173 255.571 -13.5496 256.353C-14.0594 256.254 -14.6666 256.686 -14.5632 257.376C-13.8437 262.182 -8.03507 263.582 -4.02901 264.135C2.52388 265.04 9.11078 265.542 15.7266 265.581C22.228 265.619 28.7283 265.201 35.2161 264.828C41.8676 264.444 48.519 264.059 55.1703 263.669C81.8194 262.106 108.47 260.56 135.119 258.997C137.554 258.854 140.334 258.66 142.419 257.248C145.278 255.311 145.425 252.233 145.256 249.088Z" fill="white"/>
<path fill-rule="evenodd" clip-rule="evenodd" d="M15.3406 195.33C15.2481 195.156 15.4627 195.001 15.6051 195.126C18.8402 197.966 20.534 202.527 20.8891 206.743C21.2654 211.214 20.7319 215.842 20.5281 220.311C20.3012 225.289 20.0973 230.269 19.8203 235.244C19.5391 240.292 19.2362 245.338 18.9765 250.387L18.3924 261.744C18.3302 262.955 18.4648 264.443 18.0005 265.573C17.2809 267.324 15.1434 267.053 14.6942 265.59L14.6802 265.541L14.6392 265.573C14.2428 264.254 14.5395 262.688 14.6066 261.324L15.2187 248.915C15.6511 240.144 16.0367 231.372 16.5012 222.603L16.6591 219.68C16.8763 215.745 17.0427 211.82 17.1764 207.886L17.2198 206.575C17.3468 202.625 17.246 198.896 15.3406 195.33ZM93.7652 122.517C95.5675 122.345 96.9285 122.943 98.5648 123.573C99.2776 123.847 99.9526 124.164 100.636 124.492C101.493 124.903 102.043 125.629 102.57 126.397L102.852 126.81C105.048 130.028 106.524 133.74 108.191 137.243C110.14 141.341 112.108 145.43 114.016 149.547L114.957 151.576C115.428 152.59 115.897 153.605 116.359 154.623L117.158 156.395C117.96 158.192 118.68 160.093 117.536 161.947C116.473 163.671 114.588 165.005 113.095 166.338C111.85 167.45 110.604 168.562 109.358 169.674C111.934 172.254 113.662 175.502 114.679 178.985C116.122 178.384 117.885 178.268 119.377 178.008C121.467 177.644 121.723 180.808 119.751 180.77C118.294 180.741 116.586 180.89 115.092 180.583C115.351 181.728 115.54 182.89 115.66 184.055C116.287 190.162 114.915 196.304 113.485 202.213L113.367 202.698C111.813 209.094 110.34 215.506 109.021 221.954C107.7 228.417 106.512 234.906 105.457 241.417C104.384 248.045 103.624 254.708 102.807 261.371C102.684 262.379 102.049 263.243 100.936 263.243C100.008 263.243 98.9472 262.377 99.0638 261.371C99.9063 254.116 101.101 246.898 102.288 239.693C104.333 227.284 106.907 214.983 109.867 202.763L110.384 200.634C111.716 195.115 112.925 189.428 112.257 183.735C111.712 179.099 109.775 174.156 105.945 171.277L105.829 171.19C104.934 170.534 104.59 169.279 105.471 168.415C106.032 167.865 106.593 167.315 107.155 166.766L110.526 163.474L111.205 162.809C111.772 162.256 112.341 161.705 112.928 161.172C113.283 160.85 114.245 160.235 114.315 159.704C114.361 159.358 113.951 158.75 113.785 158.431L113.024 156.894C112.592 156.018 112.174 155.136 111.752 154.255C110.877 152.43 109.991 150.61 109.135 148.776L103.997 137.762C102.548 134.655 101.256 131.374 99.3613 128.501L98.9876 127.942C98.6757 127.47 98.4002 127.016 98.2031 126.44C98.0136 125.885 97.7757 125.276 97.4254 124.802C96.6047 123.691 95.0358 123.061 93.7232 122.828C93.5335 122.794 93.6023 122.532 93.7652 122.517ZM54.2468 119.624C54.3609 119.624 54.3783 119.787 54.273 119.818C52.6894 120.295 51.1761 121.064 49.9414 122.173C49.3507 122.704 48.756 123.307 48.3913 124.021C48.2518 124.295 48.1745 124.584 48.118 124.883L48.0998 124.984C48.0057 125.525 47.8711 125.826 47.5962 126.259L47.549 126.333C45.9799 128.757 44.8803 131.449 43.8749 134.145L41.6853 140.023L39.4972 145.902C38.7922 147.796 38.0868 149.69 37.3816 151.584C36.992 152.63 36.5914 153.671 36.1911 154.713C36.0178 155.164 35.8315 155.612 35.673 156.069C35.6513 156.131 35.582 156.507 35.53 156.598L35.5478 156.629C35.9891 157.372 37.1661 157.993 37.8332 158.532L40.1306 160.39C41.7685 161.715 43.4485 163.003 45.0373 164.387C46.0353 165.256 45.4144 166.812 44.3014 167.175C42.4363 167.783 40.6091 168.511 38.7719 169.198C38.0298 169.476 37.257 169.718 36.5236 170.024L36.0771 170.217C35.9027 170.296 35.9865 170.295 35.9935 170.617C36.0005 170.954 36.0962 171.306 36.1511 171.638C36.7699 175.381 37.4259 179.118 38.1182 182.848C40.5673 196.039 43.4931 209.133 46.8301 222.126C48.5156 228.688 50.3232 235.218 52.0456 241.77C53.7639 248.304 56.0247 254.745 58.1834 261.145C58.7925 262.95 55.9317 263.727 55.3376 261.93C52.8497 254.403 50.5737 246.81 48.2234 239.24C44.0475 225.79 40.7568 212.048 37.8463 198.272C36.4038 191.444 35.0844 184.591 33.8895 177.716C33.6632 176.414 33.4414 175.112 33.2241 173.809L32.9074 171.892C32.6903 170.526 32.5666 169.102 33.6282 168.021C34.6647 166.966 36.4442 166.592 37.8081 166.097L37.9072 166.06C38.7751 165.736 39.6493 165.424 40.5201 165.102C39.2373 164.092 37.9704 163.059 36.6907 162.05C35.6585 161.235 34.6099 160.437 33.5925 159.604C32.7535 158.917 32.0694 158.034 31.982 156.917C31.8927 155.775 32.3821 154.715 32.7767 153.667L32.8146 153.566C33.202 152.52 33.5906 151.474 33.989 150.432L36.4545 143.982C38.0213 139.883 39.5219 135.752 41.1698 131.685C41.8218 130.075 42.5323 128.491 43.3718 126.97C43.7766 126.236 44.2108 125.518 44.6825 124.826C45.2111 124.05 45.6909 123.671 46.51 123.243C47.8197 122.558 48.8475 121.409 50.1626 120.703C51.4535 120.01 52.7815 119.64 54.2468 119.624ZM58.4985 112.311C58.5486 112.225 58.6813 112.264 58.6829 112.362C58.7172 114.399 58.2334 116.48 57.9357 118.494C57.6367 120.516 57.5408 122.649 57.1084 124.649C57.0994 124.742 57.0814 124.834 57.0559 124.924L57.0353 124.993C56.8527 125.553 56.378 126.028 55.7955 126.176C55.9787 127.192 56.1513 128.209 56.2965 129.231C56.5458 130.989 56.7733 132.749 56.997 134.509L57.2649 136.622C57.5178 138.614 57.7637 140.606 58.0069 142.598C58.6253 142.857 59.2563 143.071 59.9026 143.255C61.391 143.682 62.9155 143.855 64.4514 144.006C67.5793 144.312 70.7312 144.455 73.8702 144.629L74.5426 144.667C78.0716 144.869 81.6199 144.905 85.14 144.543C86.8855 144.363 88.6173 144.062 90.3194 143.635C91.1844 143.418 92.025 143.093 92.8882 142.881C93.1745 142.811 93.4304 142.648 93.7173 142.475C93.8447 142.314 94.0234 142.192 94.2562 142.145L94.3193 142.134L94.3817 142.125L94.4032 142.115L94.4016 142.122C94.5782 142.098 94.7459 142.098 94.9042 142.12C94.9671 140.566 95.0354 139.013 95.1209 137.46C95.3506 133.289 95.9846 128.938 95.1383 124.803C95.1099 124.664 95.299 124.615 95.3483 124.745C97.009 129.122 96.8225 133.908 96.9061 138.515C96.9879 143.021 96.9385 147.529 96.9161 152.036C97.2387 152.173 97.5264 152.359 97.7544 152.621C98.2097 153.143 98.3406 154.05 97.7544 154.554C97.4945 154.777 97.207 154.933 96.9019 155.04C96.8856 158.955 96.858 162.87 96.8187 166.785C97.563 167.36 97.6325 168.726 96.7906 169.293C96.6505 181.972 96.4202 194.651 96.2292 207.327L95.8291 233.923C95.7759 237.467 95.6875 241.01 95.6559 244.553L95.681 244.563L95.7696 244.604C95.9187 244.674 96.1406 244.787 96.1866 244.903C96.1986 244.934 96.2018 244.954 96.2003 244.97C96.4445 245.004 96.6864 245.12 96.8958 245.318C97.4125 245.81 97.3075 246.55 96.8958 247.05L96.7857 247.184C96.529 247.496 96.0416 247.616 95.6436 247.552C95.6476 249.764 95.6618 251.975 95.6548 254.187C95.6525 254.862 95.6423 255.538 95.6307 256.213L95.6028 257.833C95.5843 258.757 95.5025 259.931 94.5562 260.347C93.4887 260.815 92.5314 260.431 92.0992 259.347C91.9821 259.053 92.0073 258.779 92.0499 258.489C92.0366 258.052 91.9684 257.547 91.9768 257.142L92.0121 255.453C92.0176 255.193 92.0282 254.933 92.0356 254.672L92.0047 254.675C88.2115 254.86 84.3918 254.77 80.5923 254.768L78.9026 254.77C77.4927 254.771 76.0797 254.764 74.6719 254.71L74.1441 254.687C73.0901 254.638 71.9816 254.622 70.8889 254.528C71.0282 255.65 71.1583 256.773 71.2743 257.897C71.3841 258.963 70.2845 259.868 69.3036 259.868C68.1386 259.868 67.4723 258.952 67.3329 257.897C66.6746 252.918 66.4052 247.893 65.7763 242.911C65.2129 238.449 64.7244 233.977 64.2279 229.507L64.062 228.016C62.2451 211.747 60.481 195.472 58.7937 179.189L58.008 171.578C57.2145 163.906 56.4164 156.233 55.7434 148.55C55.3584 144.157 55.0037 139.764 54.6699 135.367C54.425 132.137 54.2712 128.924 54.1711 125.7C53.7762 125.294 53.5783 124.7 53.7532 124.087C53.8555 123.73 53.9744 123.374 54.0999 123.019C54.0921 122.67 54.0839 122.321 54.0771 121.972C54.0708 121.641 54.4062 121.471 54.6748 121.526C55.1628 120.344 55.7003 119.172 56.1488 118.001C56.8747 116.106 57.473 114.065 58.4985 112.311ZM17.9573 132.792C25.5458 128.034 34.5788 124.611 43.6259 124.979C43.8316 124.988 43.8895 125.301 43.6759 125.349C38.8502 126.427 33.9714 127.74 29.4027 129.65C24.8207 131.567 20.464 134.148 16.5836 137.249C9.42418 142.97 3.85938 150.413 0.195158 158.802C-1.95111 163.716 -3.45555 168.904 -4.76921 174.094C-6.15935 179.587 -7.30505 185.139 -8.25766 190.725C-10.1392 201.757 -11.2346 212.912 -11.8175 224.085C-12.4105 235.451 -12.1661 246.825 -12.5891 258.193C-12.6622 260.162 -15.4763 260.124 -15.6193 258.193C-16.5776 245.268 -16.0467 232.138 -15.1604 219.223C-14.3635 207.612 -12.9719 196.026 -10.731 184.603L-10.5358 183.613C-8.44087 173.044 -5.91404 162.219 -0.849561 152.647C3.47424 144.476 10.1495 137.687 17.9573 132.792ZM123.335 183.304C123.375 183.19 123.524 183.192 123.564 183.304C124.429 185.726 124.46 188.46 124.69 191.013L124.709 191.209C124.929 193.539 125.095 195.871 125.249 198.205L125.307 199.08C125.926 208.601 126.701 218.112 127.868 227.583C129.031 237.019 130.604 246.389 132.304 255.74C132.494 256.781 132.033 257.841 130.941 258.141C129.979 258.406 128.744 257.813 128.541 256.778C127.485 251.41 126.631 246.036 125.87 240.622C124.529 231.089 123.528 221.511 122.885 211.905C122.562 207.081 122.363 202.258 122.284 197.423C122.248 195.18 122.306 192.932 122.426 190.691L122.454 190.174C122.586 187.883 122.573 185.488 123.335 183.304ZM41.3366 243.949C41.438 243.894 41.5635 244.007 41.4993 244.112C40.0299 246.501 38.0421 248.561 36.1208 250.591C34.1123 252.713 32.1535 254.899 30.1044 256.98C28.6238 258.483 26.2422 256.058 27.8047 254.679C30.0017 252.741 32.298 250.898 34.534 249.003L35.5119 248.174C37.3453 246.624 39.233 245.089 41.3366 243.949ZM111.127 242.753C111.017 242.544 111.268 242.374 111.438 242.513C112.623 243.477 113.686 244.627 114.83 245.644C115.964 246.652 117.139 247.592 118.347 248.509C119.56 249.43 120.799 250.314 122.072 251.15C123.128 251.844 124.216 252.399 125.321 252.975C125.833 253.041 126.307 253.292 126.687 253.769C127.287 254.523 127.351 255.944 126.518 256.598L126.369 256.715C125.398 257.479 124.245 257.572 123.289 256.715C122.221 255.759 121.212 254.707 120.187 253.696L119.879 253.395C118.778 252.323 117.703 251.218 116.69 250.062L115.772 249.018C114.071 247.077 112.3 244.985 111.127 242.753ZM105.667 130.835C105.47 130.705 105.592 130.353 105.835 130.437L106.282 130.591C108.147 131.24 110.066 131.959 111.76 132.957C113.579 134.03 115.259 135.307 116.865 136.678C120.187 139.516 123.014 143.005 125.416 146.642C130.237 153.939 133.218 162.297 135.624 170.659C138.191 179.576 140.166 188.684 141.78 197.818C143.419 207.101 144.683 216.467 145.515 225.857C145.924 230.483 146.199 235.111 146.337 239.753C146.408 242.141 146.406 244.527 146.386 246.916C146.381 247.53 146.385 248.144 146.392 248.758L146.415 250.6C146.428 251.765 146.567 252.989 146.291 254.127C145.845 255.959 142.818 255.617 142.917 253.745C142.826 253.122 142.822 252.478 142.846 251.833C142.832 251.75 142.816 251.665 142.799 251.579C142.749 251.331 142.791 251.102 142.889 250.905C142.904 250.596 142.918 250.288 142.923 249.986C142.943 248.756 142.942 247.531 142.908 246.302C142.836 243.709 142.733 241.117 142.629 238.526C142.421 233.348 142.132 228.167 141.712 223.002C140.252 205.022 137.169 186.94 131.992 169.643C129.587 161.61 126.271 153.725 121.517 146.784C119.406 143.702 117.025 140.856 114.385 138.214C111.729 135.556 108.801 132.912 105.667 130.835ZM69.8391 246.74L70.1979 249.336C70.3773 250.635 70.5549 251.934 70.7235 253.233C71.8688 253.076 73.0405 253.011 74.1441 252.913C76.0762 252.742 78.0215 252.659 79.9593 252.579C83.9664 252.413 87.9936 252.127 92.0047 252.147C92.0459 252.147 92.0848 252.15 92.1236 252.153L92.3227 247.03L89.5043 247.025C87.1166 247.022 84.7293 247.001 82.3415 246.981C80.1911 246.962 78.0398 246.959 75.8897 246.915L74.9683 246.893C73.3377 246.849 71.5373 246.939 69.8391 246.74ZM92.5591 239.304C92.4441 239.318 92.3271 239.329 92.2027 239.334C91.6445 239.358 91.0819 239.341 90.5233 239.346C89.3339 239.356 88.1446 239.364 86.955 239.364C84.5761 239.364 82.1974 239.378 79.819 239.407C77.3704 239.437 74.9235 239.479 72.4747 239.484C71.2882 239.486 70.1055 239.455 68.9195 239.422C69.1113 241.108 69.3118 242.793 69.5332 244.473C71.375 244.225 73.356 244.35 75.156 244.333L75.3897 244.33C77.8466 244.288 80.3055 244.319 82.763 244.322C85.291 244.325 87.8189 244.333 90.3471 244.354L92.4241 244.371L92.4281 244.266C92.4889 242.614 92.5282 240.959 92.5591 239.304ZM68.0057 231.238C68.236 233.228 68.4522 235.222 68.6725 237.215C68.8189 237.192 68.9672 237.173 69.1183 237.157C70.3064 237.032 71.4921 236.926 72.6845 236.852C75.0614 236.705 77.4382 236.627 79.819 236.563C82.2671 236.497 84.7157 236.447 87.1647 236.412C88.3546 236.396 89.5434 236.397 90.7333 236.406C91.2914 236.409 91.8553 236.392 92.4124 236.429C92.4787 236.434 92.5423 236.441 92.6053 236.448L92.6471 233.456C92.6543 232.957 92.6618 232.458 92.6699 231.96C90.831 232.073 88.9614 232.03 87.1238 232.03L86.7004 232.031C84.3914 232.042 82.0816 232.01 79.7731 231.962C77.3915 231.913 75.0148 231.835 72.6374 231.682C71.6742 231.621 70.7179 231.539 69.7601 231.433L69.281 231.378C68.8641 231.329 68.4348 231.289 68.0057 231.238ZM92.8597 222.793C88.4309 223.145 84.0257 223.292 79.5851 223.336L78.9188 223.341C74.9947 223.371 71.0383 223.533 67.1049 223.429C67.34 225.469 67.5746 227.509 67.811 229.548C68.3742 229.522 68.9402 229.521 69.4908 229.502C70.6107 229.461 71.7268 229.451 72.8474 229.449C75.1559 229.443 77.4644 229.463 79.7731 229.459C82.1524 229.454 84.5313 229.413 86.9102 229.369C88.8388 229.333 90.788 229.187 92.7219 229.193L92.8597 222.793ZM93.0471 214.091C92.5339 214.262 91.928 214.273 91.2637 214.303L89.5492 214.389C88.7546 214.427 87.9599 214.464 87.1647 214.493C84.5152 214.59 81.8657 214.681 79.2158 214.765C76.5004 214.851 73.7719 214.901 71.056 214.816C69.7256 214.774 68.4065 214.704 67.0802 214.593C66.7523 214.566 66.418 214.548 66.0832 214.524C66.3918 217.227 66.7018 219.929 67.0128 222.631C70.9273 222.15 74.8721 221.851 78.7819 221.354L82.3171 220.902C85.8506 220.451 89.3813 220.008 92.9277 219.635L93.0471 214.091ZM93.2357 205.293C92.4827 205.479 91.6245 205.47 90.9014 205.515L90.7675 205.525C89.3974 205.629 88.0238 205.681 86.6505 205.714C83.959 205.781 81.2657 205.814 78.5733 205.83L76.9543 205.84C74.796 205.853 72.6389 205.859 70.4799 205.808C69.095 205.776 67.7133 205.708 66.3296 205.639C65.915 205.618 65.4912 205.604 65.0662 205.583C65.3554 208.141 65.6476 210.699 65.9391 213.258C66.3938 213.185 66.8505 213.13 67.286 213.057C68.4012 212.868 69.5144 212.718 70.6377 212.583C73.0707 212.292 75.5163 212.082 77.9607 211.905C80.4701 211.723 82.9817 211.569 85.4915 211.393L87.2691 211.267C87.8616 211.226 88.4541 211.186 89.0469 211.15C90.0593 211.088 91.2361 211.158 92.2402 210.938C92.5121 210.824 92.814 210.798 93.1164 210.863L93.2357 205.293ZM93.4637 194.994C93.2032 195.325 92.814 195.499 92.3501 195.559C89.9334 195.873 87.4545 195.923 85.0173 196.071L84.5877 196.098C82.0713 196.264 79.5534 196.394 77.0351 196.528C74.4481 196.665 71.8616 196.777 69.2725 196.867C68.1733 196.906 67.0686 196.91 65.9678 196.896L65.4963 196.889C65.0442 196.881 64.5707 196.882 64.0962 196.867C64.3588 199.259 64.624 201.652 64.8929 204.043C65.3767 203.991 65.8603 203.951 66.3295 203.901C67.7125 203.755 69.0938 203.61 70.4799 203.501C73.1064 203.294 75.7347 203.169 78.3661 203.039C81.0583 202.906 83.7519 202.817 86.4445 202.691C87.75 202.63 89.055 202.554 90.3566 202.434C91.2688 202.35 92.3524 202.04 93.3042 202.154C93.3562 199.767 93.4102 197.381 93.4637 194.994ZM93.676 185.769C93.6348 185.833 93.5867 185.895 93.5281 185.952C92.4641 187.004 91.1528 186.923 89.7429 187.033L89.6564 187.04C88.2745 187.156 86.892 187.267 85.5086 187.366C82.7433 187.566 79.9726 187.706 77.2033 187.83C74.3691 187.958 71.5168 188.045 68.6799 187.988C66.8632 187.95 64.9605 187.957 63.1075 187.78C63.3921 190.415 63.6783 193.049 63.9667 195.684C64.4877 195.586 65.0121 195.51 65.5088 195.432C66.7605 195.235 68.0135 195.037 69.2725 194.892C71.7883 194.602 74.3047 194.331 76.8253 194.087C78.9809 193.878 81.1358 193.666 83.2931 193.475L84.5877 193.363C87.1616 193.146 89.768 192.789 92.3501 192.736C92.7756 192.727 93.2569 192.959 93.5007 193.325C93.5577 190.806 93.6169 188.287 93.676 185.769ZM93.8547 178.301C93.1975 178.38 92.4893 178.335 91.8828 178.355C90.3492 178.405 88.8154 178.451 87.2816 178.497L78.0786 178.768C74.9453 178.861 71.801 178.93 68.6664 178.886C67.2875 178.866 65.9026 178.864 64.5242 178.789L64.065 178.761C63.4977 178.723 62.8016 178.718 62.1217 178.649L62.9243 186.086C64.7684 185.819 66.6688 185.72 68.4971 185.563L68.8878 185.529C71.5844 185.283 74.2939 185.121 76.9954 184.938C79.7666 184.75 82.5338 184.522 85.3012 184.289C86.6843 184.173 88.0673 184.057 89.4494 183.929L89.6201 183.913C90.9257 183.776 92.1534 183.486 93.3097 184.256C93.4789 184.369 93.6114 184.519 93.702 184.688C93.7525 182.559 93.8019 180.429 93.8547 178.301ZM94.0692 169.621C88.4644 169.847 82.8589 170.018 77.2499 170.094C74.0928 170.136 70.9396 170.106 67.7828 170.04C66.414 170.011 65.0338 169.946 63.666 169.841L63.1537 169.8C62.5035 169.745 61.8202 169.705 61.1399 169.64C61.4211 172.197 61.7 174.754 61.9768 177.312C62.6459 177.187 63.3453 177.13 63.9317 177.055L64.0649 177.037C65.5221 176.837 66.9929 176.72 68.4572 176.591C71.3085 176.34 74.1739 176.178 77.0328 176.04C79.9603 175.899 82.8893 175.78 85.8173 175.65L88.7455 175.518C89.2335 175.497 89.7215 175.476 90.2095 175.455C90.9069 175.425 91.6041 175.397 92.3013 175.368C92.6452 175.354 93.0027 175.308 93.347 175.325L93.445 175.312C93.4902 175.306 93.5301 175.302 93.5668 175.298C93.6604 175.227 93.7613 175.167 93.8681 175.122L93.9329 175.097L94.0692 169.621ZM60.221 161.396C60.4813 163.698 60.7386 166.001 60.9925 168.303C61.792 168.212 62.6009 168.162 63.3642 168.093C64.9033 167.955 66.4496 167.834 67.9933 167.763L71.0786 167.62C73.1352 167.525 75.1918 167.432 77.25 167.357C82.8828 167.152 88.5154 166.916 94.1448 166.628C94.1845 165.067 94.2255 163.505 94.2674 161.943C93.9971 162.233 93.6067 162.423 93.0938 162.422C87.1838 162.406 81.2691 162.441 75.3598 162.343C72.4018 162.295 69.4472 162.223 66.4927 162.071C65.047 161.997 63.5932 161.846 62.1585 161.647C61.5467 161.562 60.8772 161.502 60.221 161.396ZM59.2751 153.194C59.5529 155.552 59.8254 157.911 60.0935 160.27C60.8275 160.139 61.5857 160.069 62.2704 159.976C63.7417 159.776 65.2221 159.616 66.7039 159.533C69.5873 159.369 72.4724 159.287 75.3597 159.226C81.2687 159.1 87.1836 159.101 93.0938 159.055C93.649 159.05 94.0612 159.27 94.3318 159.598C94.3728 158.125 94.4161 156.653 94.4607 155.18C93.8898 155.12 93.3238 155.035 92.8001 154.998C91.1905 154.886 89.5802 154.783 87.9693 154.691C84.6076 154.498 81.2427 154.333 77.8787 154.186C74.5138 154.04 71.1479 153.897 67.782 153.772L66.3099 153.718C63.9692 153.631 61.5888 153.521 59.2751 153.194ZM58.2166 144.314C58.5059 146.702 58.7906 149.09 59.0748 151.479L59.1612 152.219C61.9764 151.671 64.9432 151.511 67.782 151.39C71.1485 151.247 74.5092 151.173 77.8787 151.183C81.2448 151.194 84.6059 151.273 87.9693 151.412C89.6499 151.482 91.3303 151.562 93.0099 151.653C93.4717 151.678 94.0132 151.665 94.5705 151.673C94.5826 151.298 94.5929 150.922 94.6058 150.547C94.6569 149.027 94.707 147.506 94.7592 145.986C93.6232 146.57 92.1461 146.805 91.0044 147.054L90.8742 147.083C88.989 147.506 87.0642 147.781 85.14 147.948C81.3612 148.278 77.5432 148.155 73.7681 147.836L73.1068 147.779C69.7916 147.491 66.3549 147.127 63.1411 146.306C61.6102 145.916 60.0276 145.369 58.6559 144.576C58.5133 144.493 58.366 144.406 58.2166 144.314ZM90.1365 115.935C90.1693 115.806 90.3626 115.776 90.4262 115.897C90.8726 116.745 91.0386 117.763 91.3485 118.672C91.6821 119.65 91.9933 120.634 92.3614 121.6C93.1302 123.617 94.0371 125.555 95.1184 127.424C96.1893 129.274 93.1908 130.595 92.4028 128.569C91.5892 126.479 90.9205 124.317 90.5159 122.109C90.3184 121.031 90.1424 119.938 90.0854 118.843C90.0362 117.903 89.9039 116.852 90.1365 115.935Z" fill="#575757"/>
<path fill-rule="evenodd" clip-rule="evenodd" d="M112.023 74.8957C111.939 70.161 111.846 65.3317 111.142 60.6431C110.454 56.0593 108.562 51.916 105.31 48.5875C98.4032 41.5172 88.3913 39.7902 79.0718 38.2076L63.1382 35.5017C58.2772 34.6764 53.0912 33.3571 48.1799 34.5276C45.7598 35.1044 43.7046 36.4443 41.8262 38.0297C40.0156 39.5577 38.069 41.1987 36.8422 43.2545C35.6132 45.3132 35.1905 47.7199 34.791 50.0483C34.3404 52.6735 33.9903 55.3192 33.7416 57.9712C33.2432 63.2846 33.1752 68.6378 33.5367 73.9622C33.7118 76.5447 33.9905 79.1198 34.3463 81.6834C34.5227 82.9547 34.7221 84.2228 34.9473 85.4865C35.0137 85.8591 35.0642 86.2716 35.1322 86.6884C34.6296 88.1184 34.344 89.5994 34.367 91.0739C34.4348 95.4176 38.0997 98.1523 41.7943 99.6205C43.9366 100.472 46.1762 101.05 48.2811 102.001C50.4954 103.002 52.0025 104.623 53.5165 106.473C56.4039 110.002 59.6623 113.173 63.3829 115.818C71.2712 121.428 81.2625 124.081 90.8337 122.067C93.1302 121.584 95.447 120.834 97.5113 119.703C99.6907 118.51 101.33 116.78 102.706 114.735C105.261 110.939 107.094 106.665 108.48 102.315C109.894 97.8779 110.898 93.4328 111.445 88.8062C111.99 84.1945 112.105 79.5359 112.023 74.8957Z" fill="white"/>
<path fill-rule="evenodd" clip-rule="evenodd" d="M61.1777 19.0092C67.7713 18.1019 76.8721 21.0508 80.1558 26.997C95.8332 23.2996 115.606 23.1785 128.528 35.4869C142.011 50.0874 125.075 69.3382 113.846 73.6785C114.663 77.6534 113.389 103.118 104.369 114.477C97.21 124.101 80.5395 128.542 72.8255 117.047L72.7653 116.952C71.9389 115.625 72.6506 115.667 73.499 116.655C81.0527 123.3 91.323 123.413 99.2373 116.4C114.07 103.582 112.541 72.1522 105.483 53.9695C85.3847 51.7613 63.8663 57.8552 49.9849 72.9897L50.9236 78.6429C51.0835 79.6061 51.2652 80.5683 51.4038 81.5348C51.4925 82.1541 51.5025 82.77 51.0736 83.2713C49.6575 84.9262 47.2708 82.4394 45.307 81.4503C44.7273 81.3687 44.1465 81.3372 43.577 81.3774C34.1422 82.5931 36.0011 100.902 46.3706 97.693C47.2418 97.15 47.9903 97.3157 48.3284 98.1036C50.8 100.368 52.4297 104.408 56.5361 108.298C57.985 109.758 59.3035 110.979 60.9332 112.149C61.8905 113.118 64.7789 114.105 63.8633 115.762C62.1318 119.533 51.921 107.688 50.1157 104.412C44.4594 106.647 38.1911 105.888 32.3295 105.342C1.40626 103.733 5.53443 71.1241 30.8815 50.5363C35.6527 47.0224 40.9169 44.1559 46.3889 41.95C47.136 41.6488 46.8096 40.4217 46.052 40.7271C42.4313 42.1869 38.9016 43.9244 35.537 45.9354L35.5319 44.7331C35.5269 42.7081 35.5587 40.5999 35.9103 38.7497C36.0861 37.4677 36.3816 36.0983 36.8367 35.0682C37.3993 31.91 46.2123 21.0694 61.1777 19.0092ZM43.1643 85.5809C43.6417 85.1271 44.5331 85.6681 44.9582 85.6546C46.0451 85.8034 47.0778 86.2627 47.8832 86.8295C48.4149 87.1275 48.7876 87.4073 49.099 87.6648L49.1074 87.6625C49.1051 87.6625 49.1022 87.6648 49.0996 87.6654L49.1289 87.6852C49.5824 88.0075 51.2423 89.8229 50.1936 89.3347C50.1154 89.233 50.0353 89.1354 49.9546 89.0396C49.946 89.0527 49.9339 89.0656 49.9196 89.0781L49.9785 89.1655C50.8698 90.5069 49.3309 89.0937 49.0941 88.7184C49.0829 88.7274 49.0703 88.7336 49.0578 88.7401L49.3661 89.1155C49.4092 89.1688 49.4431 89.2114 49.4712 89.2474L49.5363 89.3102C50.5668 90.3235 50.599 91.2355 49.4017 89.7373C49.4489 89.8079 49.4867 89.8827 49.492 89.9491L49.5629 90.0395C50.503 91.2514 49.7383 90.821 49.2712 90.3034L49.2321 90.2589L49.2401 90.271C49.6747 90.9407 48.8124 90.4708 48.6601 90.1126L48.6536 90.0964C48.4876 89.9608 48.3854 89.8088 48.3504 89.7704L48.3439 89.7639C47.5356 88.9354 46.3639 88.2344 45.3686 87.9159C45.2243 87.8884 45.0784 87.8664 44.9309 87.8508C44.3324 87.7172 43.7273 87.6257 43.1159 87.5762C43.0411 87.5673 42.9653 87.5124 42.9086 87.4414C41.9841 87.4102 42.2695 87.0311 42.6531 86.9607L42.6598 86.9595L42.5837 86.9531C41.9904 86.8952 41.5852 86.6822 42.1851 86.5515L42.2611 86.5364C42.2518 86.5218 42.2436 86.5072 42.2355 86.4926C41.7217 86.4362 42.057 85.9366 42.3422 86.0575C42.2222 85.665 42.7707 85.8609 42.8391 85.8026C42.8913 85.7447 42.9562 85.6935 42.9936 85.6908C43.1588 85.5741 43.0787 85.5847 43.1643 85.5809ZM46.308 79.2265L46.1876 79.2968C46.0902 79.3537 45.9901 79.3915 45.8895 79.4137C46.0315 79.4742 46.1717 79.5395 46.3106 79.6092C46.3083 79.524 46.3067 79.4388 46.3067 79.3538L46.308 79.2265Z" fill="#575757"/>
<path fill-rule="evenodd" clip-rule="evenodd" d="M93.3209 105.111C91.7645 105.562 90.094 105.602 88.5076 105.137C87.0687 104.714 85.5913 103.785 84.5323 102.554C83.5915 101.462 82.9822 100.134 83.0062 98.7161C83.0089 98.5542 83.0667 98.419 83.1558 98.3141C83.2516 98.2012 83.3854 98.1237 83.5288 98.09C83.6763 98.0554 83.8322 98.0677 83.9649 98.128C84.0851 98.1826 84.188 98.2754 84.2524 98.4109C84.4151 98.6248 84.5773 98.8355 84.74 99.0404C86.0486 100.657 87.3159 101.865 89.2836 102.298C90.3512 102.533 91.4175 102.429 92.3959 102.07C93.4431 101.686 94.3899 101.011 95.1317 100.147C95.467 99.7565 95.8628 99.5972 96.2498 99.5945C96.6884 99.5914 97.122 99.7953 97.4486 100.121C97.7696 100.442 97.9845 100.877 98.004 101.332C98.0211 101.732 97.8908 102.149 97.5441 102.522C96.4022 103.748 94.9222 104.647 93.3209 105.111ZM93.2728 84.8655C94.8682 85.8356 97.299 88.0977 95.5828 90.5027C93.5626 92.6233 90.654 90.1919 89.2207 89.0923C87.8916 88.2401 86.3984 90.4319 87.6315 91.427C97.9886 99.098 102.192 85.1192 94.0797 83.7249C93.1866 83.5712 92.8548 84.5654 93.2728 84.8655ZM78.349 80.5968C77.8363 80.2688 77.2331 80.1562 76.5646 80.4604C76.0422 80.6981 75.126 81.4903 74.4883 82.5318C74.0521 83.2443 73.7428 84.0802 73.8072 84.9508C73.8221 85.153 73.7474 85.3021 73.6296 85.4124C73.5366 85.4994 73.4022 85.5634 73.2444 85.5834C73.1104 85.6004 72.9604 85.5851 72.8384 85.547C72.6064 85.4745 72.4836 85.324 72.4373 85.2011C71.9909 84.0149 72.1832 82.6913 72.6836 81.4972C73.3588 79.8856 74.5851 78.5357 75.3886 78.1005C76.7634 77.3554 78.3854 77.3211 79.7622 78.0801C80.9342 78.7261 81.667 79.769 82.3959 80.8321C82.5508 81.0581 82.7046 81.2825 82.8635 81.5028C83.182 81.9444 83.2138 82.3824 83.0904 82.758C82.9538 83.1741 82.6053 83.5252 82.1696 83.7089C81.7669 83.8788 81.2995 83.9027 80.886 83.7282C80.5366 83.5808 80.2159 83.2934 80.013 82.8058C79.6714 81.9846 79.1021 81.0786 78.349 80.5968ZM104.391 82.4238C104.04 82.6068 103.765 82.662 103.376 82.5453C103.16 82.4806 102.947 82.3565 102.781 82.1897C102.615 82.0245 102.496 81.819 102.45 81.591C102.336 81.0283 102.028 80.5016 101.59 80.1582C101.215 79.8647 100.742 79.7092 100.217 79.7969C99.6506 79.8915 99.1111 80.2548 98.7395 80.6832C98.6153 80.8265 98.5179 80.9893 98.4201 81.151C98.237 81.4534 98.059 81.7344 97.8065 81.9565C97.7108 82.041 97.5666 82.0995 97.4269 82.0995C97.3701 82.0995 97.3125 82.0903 97.2576 82.0731C96.6939 81.5072 96.5856 81.0779 96.6037 80.6521C96.6228 80.2055 96.7988 79.7534 97.0831 79.3316C97.7502 78.342 99.0169 77.5307 99.8716 77.347C101.042 77.0953 102.205 77.3974 103.137 78.0514C104.096 78.7244 104.806 79.7692 105.028 80.9466C105.081 81.2302 105.058 81.5363 104.95 81.8017C104.845 82.061 104.661 82.2831 104.391 82.4238ZM80.9306 70.0468C80.2281 70.7314 79.3967 70.8375 78.5556 70.9318C78.0882 70.9847 77.7151 71.0274 77.348 71.1102C76.3389 71.3381 75.3415 71.6813 74.4315 72.1756C73.4802 72.6923 72.4435 73.3154 71.6977 74.1137C71.5204 74.3037 71.3532 74.503 71.1858 74.7028C71.0332 74.8849 70.8861 75.0603 70.7311 75.2294C70.5531 75.4236 70.3841 75.6272 70.216 75.8302C70.1121 76.0015 70.0915 76.0436 70.0706 76.0875C70.0391 76.1534 70.0025 76.2272 69.9606 76.3063C69.9033 76.4147 69.8361 76.5333 69.7658 76.6409C69.6488 76.8374 69.5861 76.8916 69.5318 76.9158C69.4418 76.9559 69.3565 76.9757 69.2736 76.965C69.196 76.9549 69.1228 76.9176 69.0506 76.8566C68.69 76.5517 68.5836 76.0515 68.5945 75.5204C68.611 74.7146 68.9081 73.8224 69.182 73.274C69.8189 71.9996 70.7021 70.6748 71.7641 69.7237C72.9759 68.638 74.3017 67.816 75.8245 67.2497C76.7709 66.8976 77.8665 66.5744 78.8975 66.6152C79.6397 66.6446 80.3481 66.8653 80.9332 67.4164C81.2924 67.7547 81.4649 68.2359 81.4649 68.7168C81.4649 69.2072 81.2858 69.7006 80.9306 70.0468ZM105.82 76.3165C105.775 76.3897 105.713 76.4402 105.644 76.4705C105.572 76.5023 105.492 76.5114 105.415 76.4984C105.338 76.4854 105.264 76.4505 105.206 76.3972C105.151 76.3461 105.109 76.2784 105.09 76.1953C104.623 74.1462 103.718 72.6216 101.785 71.6384C100.834 71.1548 99.7407 70.8475 98.7056 70.6025C98.4049 70.5313 98.0871 70.4852 97.767 70.4384C96.7639 70.2919 95.7536 70.1241 95.0997 69.313C94.7057 68.8244 94.5403 68.1996 94.6338 67.6281C94.7219 67.0901 95.0362 66.5967 95.6075 66.3011C97.0298 65.5654 98.7974 66.2873 100.234 66.9022C100.34 66.9479 100.445 66.9926 100.547 67.0358C101.952 67.629 103.233 68.4119 104.286 69.5316C105.122 70.4199 105.896 71.733 106.208 73.0839C106.467 74.2078 106.406 75.3551 105.82 76.3165Z" fill="#575757"/>
<path fill-rule="evenodd" clip-rule="evenodd" d="M93.5044 93.0995C91.1549 92.0409 86.9359 92.9647 85.4042 93.332C81.8433 94.1863 78.2611 96.0324 77.154 98.9248C75.9065 102.184 78.3956 103.211 78.7618 103.043C81.2268 103.217 84.1624 101.666 86.7456 101.266C88.8426 100.939 91.0548 100.653 93.0196 99.5381C94.4541 100.328 97.6941 100.754 100.309 101.444C102.536 102.032 103.501 103.306 105.565 103.035C108.04 102.711 107.027 97.5045 104.269 95.3954C101.251 93.0873 96.1463 92.1512 93.5044 93.0995ZM98.1565 115.36C96.1009 115.861 95.9629 111.354 95.7326 109.762C95.5527 108.518 94.5381 105.31 91.9657 105.448C89.3934 105.587 88.4264 108.275 88.5569 109.946C88.6415 111.03 89.6401 116.522 86.4527 117.216C84.4205 117.209 82.0695 117.072 79.9328 116.678C77.4178 116.108 74.1476 114.113 73.2838 118.042C72.9729 119.456 84.0512 123.657 88.9672 124.037C93.9528 125.048 99.7859 123.493 103.335 119.678C104.143 118.81 106.417 115.207 106.579 114.324C106.92 112.47 106.132 111.276 103.838 111.93C102.217 112.796 99.4784 115.038 98.1565 115.36Z" fill="#575757"/>
<path fill-rule="evenodd" clip-rule="evenodd" d="M108.094 88.4656C104.923 89.9932 100.499 87.74 98.3674 85.3799C97.5914 84.5205 96.9927 82.0619 97.2912 80.5026C98.0997 76.2796 101.138 73.7451 104.345 72.8796C108.791 71.6795 113.265 74.7196 112.744 78.307C112.249 81.707 111.5 86.6389 108.094 88.4656ZM86.5123 80.3536C86.2582 84.9557 82.5637 88.9838 78.1483 90.1773C71.034 92.1632 67.5181 87.1603 65.9256 81.7707C65.7673 81.2351 65.3953 79.6005 66.3935 78.1984C70.3195 72.6832 79.8716 73.6233 84.6424 75.1374C86.0389 76.4734 86.6097 78.4015 86.5123 80.3536ZM111.538 72.4159C111.536 72.4186 111.534 72.4209 111.532 72.4237C111.515 72.4138 111.499 72.4036 111.483 72.3939C111.501 72.4015 111.521 72.4081 111.538 72.4159ZM117.491 72.9478C117.077 68.2622 102.381 70.0564 100.663 70.4404C95.9735 71.8201 91.9233 75.5737 86.6805 73.9236C81.2482 67.8657 62.9547 69.603 59.1198 72.6889C58.3939 72.404 57.5112 72.5568 56.5759 72.8257C51.773 72.6522 29.8468 74.3085 34.3315 80.4408C35.0122 80.9132 35.6923 80.4326 35.7111 79.4595C59.0906 71.0167 56.8244 78.9248 59.597 78.0012C60.0204 78.1232 60.4622 78.2003 60.8486 78.2815C62.9947 78.9722 63.7233 78.7587 64.006 81.1687C65.9482 99.7783 90.7204 93.3554 88.6886 78.0908C90.7003 77.9801 92.4599 77.11 94.5872 77.9596C96.0642 92.3392 107.631 92.9196 111.112 87.9349C113.737 84.4751 112.696 79.2539 116.305 76.5321C117.729 77.7246 117.821 73.7 117.491 72.9478Z" fill="#575757"/>
<path d="M-55 -23V-31H-63V-23H-55ZM185 -23H193V-31H185V-23ZM185 301V309H193V301H185ZM-55 301H-63V309H-55V301ZM-55 -15H185V-31H-55V-15ZM177 -23V301H193V-23H177ZM185 293H-55V309H185V293ZM-47 301V-23H-63V301H-47Z" fill="white"/>
</g>
</svg>
