<svg width="147" height="147" viewBox="0 0 147 147" fill="none" xmlns="http://www.w3.org/2000/svg">
<mask id="mask0_1011_1779" style="mask-type:alpha" maskUnits="userSpaceOnUse" x="0" y="0" width="147" height="147">
<circle cx="73.5" cy="73.5" r="69.5" fill="#C4C4C4" stroke="white" stroke-width="8"/>
</mask>
<g mask="url(#mask0_1011_1779)">
<circle cx="73.5" cy="73.5" r="69.5" fill="#EDEDE0" stroke="white" stroke-width="8"/>
<path fill-rule="evenodd" clip-rule="evenodd" d="M88.0378 262.761C70.8932 262.809 60.6245 262.608 41.2319 262.328C18.7866 261.734 12.7376 262.802 0.163334 260.332C-1.7592 259.924 -3.22181 259.305 -4.70533 258.442C-5.23709 259.043 -6.13857 259.937 -6.99462 259.345C-8.57153 258.303 -7.84857 254.661 -8.23962 252.604C-8.88695 234.495 -9.92237 215.845 -6.38279 197.955C-8.52864 197.257 -21.1024 192.083 -21.7891 190.349C-10.4184 160.606 14.5251 125.8 47.3432 127.11C48.0032 127.924 48.5903 129.129 49.3228 129.958C53.7848 128.287 59.9785 126.612 60.2842 120.176C61.0568 115.881 61.6135 111.872 61.9855 107.924C62.0529 107.473 62.5942 107.318 62.9267 107.125C63.0681 106.105 63.3926 105.062 64.0969 104.362C69.8485 103.845 82.9777 106.218 86.4231 107.195C91.1233 108 90.6345 113.046 91.51 116.872C92.898 121.601 93.8641 126.509 95.9269 131.129C96.3936 131.193 97.701 131.421 98.1829 131.505C98.208 130.981 97.9625 129.428 98.4423 129.111C99.3315 128.217 99.5367 129.917 99.7342 130.472C119.156 126.803 131.857 143.29 136.113 161.707C139.195 170.969 143.28 180.343 148.612 190.395C151.955 196.637 142.349 197.797 138.322 200.288C142.478 216.461 142.978 232.933 143.66 249.234C143.84 251.742 144.085 255.151 143.197 256.399C142.775 256.727 142.483 256.718 142.055 256.742C141.231 257.631 139.817 257.572 138.627 257.826C134.865 258.511 131.01 258.968 127.387 259.037C117.22 265.332 101.546 261.812 88.0378 262.761Z" fill="white"/>
<path fill-rule="evenodd" clip-rule="evenodd" d="M60.5696 107.912C61.1037 105.238 65.5166 105.857 65.3161 108.555C63.0885 118.594 64.4446 130.815 50.3643 129.827C59.3024 145.555 86.9032 155.12 95.8247 134.471C91.4286 133.946 90.5588 123.55 90.0279 119.913L90.0061 119.588C89.8883 117.717 89.9278 115.983 91.0521 114.383C92.174 115.223 92.6248 116.745 93.0047 118.132L93.2828 119.243C94.2128 122.947 95.1859 126.633 96.6615 130.167L96.7137 130.176C96.6399 127.779 99.7162 126.683 100.479 129.251C121.293 126.383 132.678 143.566 137.17 161.536C140.447 171.373 144.718 180.837 149.57 189.985C153.232 197.132 144.34 198.768 139.636 201.146C143.254 215.645 143.964 230.666 144.634 245.537C144.412 248.711 145.846 255.221 143.931 257.497C141.094 259.717 139.566 255.911 140.002 253.471C140.41 236.215 138.614 219.037 138.098 201.809C134.546 203.31 130.952 204.692 127.317 205.977C127.502 222.143 129.424 238.31 130.109 254.393C131.008 255.102 131.505 256.331 130.737 257.402C126.625 263.139 119.191 263.996 112.65 264.078C97.0827 264.273 81.4996 264.213 65.9318 264.166C50.6398 263.82 35.2147 264.8 20.0034 263.046C17.0225 265.286 16.4127 260.458 16.812 258.398L16.9637 254.273C17.0657 251.523 17.1737 248.773 17.3127 246.024L17.6593 239.323C18.2396 228.154 18.8547 216.992 19.8304 205.845C10.9944 204.637 2.28527 202.492 -6.14621 199.597C-5.4522 218.947 -6.87593 238.505 -4.50191 257.756C-2.93537 259.883 -6.07713 261.88 -7.91114 260.547C-10.1856 258.813 -9.21023 255.418 -9.66445 252.92L-9.72272 251.306C-10.3594 233.891 -11.2291 216.111 -7.98445 198.936L-9.38011 198.394C-13.6345 196.733 -24.5756 192.289 -23.1408 190.097C-11.7186 160.156 13.8323 124.345 47.6725 126.047C48.5299 126.642 48.9676 127.802 49.6035 128.633L50.6101 128.267C54.5092 126.839 58.7435 125.029 58.8589 120.228C59.5971 116.137 60.1825 112.046 60.5696 107.912ZM116.337 182.541C121.185 175.758 87.5641 186.478 85.1736 187.186L84.2735 187.514C69.548 192.869 53.6733 198.047 41.9315 208.722C41.6848 208.992 41.992 209.366 42.3112 209.214L42.3521 209.19C42.8193 208.93 44.8418 208.208 43.4089 208.481C60.3748 197.778 80.0854 191.898 99.3452 186.756C102.144 186.079 104.956 185.457 107.779 184.89C110.627 184.198 113.841 184.205 116.337 182.541ZM63.2106 180.333C63.6253 178.643 66.4115 163.104 61.7839 167.367C60.5501 169.603 60.0765 172.194 59.8544 174.711C59.2576 177.646 60.7639 180.81 59.2992 183.516C57.9879 187.05 53.1682 191.179 52.8462 184.612C60.7316 184.343 58.3643 174.348 52.9958 177.438C50.0562 179.955 49.5475 184.694 51.0192 188.167C48.6427 185.579 44.7891 185.57 42.0384 183.617C37.0709 178.246 45.4145 172.656 49.9578 170.721C50.2136 170.439 53.9383 169.141 53.149 168.984C49.5824 169.017 46.0081 169.776 42.9302 171.652C36.5596 174.761 34.3914 184.388 41.6788 187.761C43.2547 188.521 44.9793 188.929 46.5395 189.714C50.4712 191.752 49.2008 194.315 45.142 194.39C43.4725 194.755 37.9633 193.226 38.5802 196.153C39.5767 197.983 41.7469 198.255 43.6481 198.307C48.7295 198.655 55.0481 195.784 52.1763 189.804C55.6428 192.758 59.9715 188.628 61.4571 185.418C63.2674 188.97 67.8182 187.9 70.3863 185.799C74.3104 188.89 79.2342 185.454 80.9822 181.616C81.0179 182.415 81.0536 183.213 81.0923 184.011C81.1713 185.648 83.7065 186.173 84.0813 184.416C84.6513 181.745 85.4372 179.103 86.5183 176.592C89.0053 169.991 90.526 172.967 90.6127 178.14C90.919 180.082 91.8913 181.822 94.0371 181.953C94.6352 181.99 95.4154 181.458 95.5088 180.833L95.6323 180.005C95.8937 178.272 96.1966 176.487 96.8508 174.859C97.481 180.25 104.538 180.224 106.506 175.754C110.588 178.205 114.871 174.781 116.774 171.24L116.831 171.132C117.496 169.921 115.807 168.457 114.84 169.596L114.505 169.945C112.683 171.832 109.784 174.567 107.388 172.237C107.468 171.187 107.436 170.113 107.371 169.08C107.294 167.847 105.593 166.751 104.626 167.853C103.263 166.694 101.57 166.861 100.144 167.669C96.4515 168.713 94.1252 172.31 93.3241 175.884C93.2389 173.028 92.3049 169.929 89.1686 169.661C85.9555 169.634 84.7255 173.227 83.6296 175.646C83.566 174.562 83.5048 173.479 83.4496 172.396C83.3551 170.532 80.7705 170.552 80.5589 172.341L80.5532 172.396C80.146 176.263 78.0048 185.527 72.6019 183.714C74.8802 181.203 79.0014 173.553 75.0834 171.17C69.0536 169.652 65.9607 179.167 68.5322 183.595L68.3988 183.689C66.9298 184.702 64.5021 185.831 63.682 183.559L63.589 183.349C63.1678 182.388 62.796 181.348 63.2106 180.333ZM54.5851 179.261C55.7268 178.594 56.133 180.802 55.8417 181.543C55.3748 182.732 54.1013 183.394 52.832 183.847L52.8363 183.713C52.8924 182.355 53.3449 179.986 54.5851 179.261ZM73.803 173.75C73.8288 173.909 73.7868 174.103 73.7815 174.251C73.5863 176.853 72.4289 179.352 70.8193 181.383C69.8927 178.624 71.087 174.978 73.803 173.75ZM101.251 170.495C101.991 170.3 102.776 170.355 103.538 170.561C103.483 171.429 103.671 172.296 104.049 173.092C102.08 179.007 97.4514 174.454 101.251 170.495Z" fill="#575757"/>
<path fill-rule="evenodd" clip-rule="evenodd" d="M78.3094 26.4512C87.7682 26.4512 99.117 31.0384 100.082 31.1302L100.108 31.1316C100.616 31.1316 102.599 32.6434 106.059 35.6671L102.312 42.9785L102.615 43.2682C104.066 44.66 105.305 45.9286 106.283 46.9287C114.267 55.094 115.702 87.1537 113.82 98.3339C111.939 109.514 108.454 120.454 92.2286 120.454C76.0036 120.454 57.9528 110.695 55.1722 107.655C53.3185 105.629 51.2363 104.659 48.9256 104.743C48.8306 104.623 48.7364 104.504 48.643 104.385L48.303 104.336C45.105 103.873 42.8136 103.25 41.4288 102.466C38.7239 100.935 35.7509 92.8868 35.7509 91.1139C35.7509 89.3587 31.3116 76.5906 31.2228 75.2394L31.2214 75.202C31.2214 74.0725 25.4219 68.8801 25.4219 67.2311C25.4219 65.5821 24.2529 65.6822 25.4219 59.8714L25.7615 58.1643C27.0055 51.9776 29.4403 41.7332 38.7239 37.2816C48.9256 32.3899 68.7551 26.4512 78.3094 26.4512Z" fill="white"/>
<path fill-rule="evenodd" clip-rule="evenodd" d="M37.1492 37.0517C42.2371 31.6492 71.1219 23.2929 85.7356 25.0642L86.174 25.121C87.3402 25.2689 88.4895 25.493 89.6238 25.7973C93.2902 26.6539 97.0773 27.951 100.107 30.1175C102.636 31.8899 110.614 34.7844 108.262 39.421C109.134 41.0735 109.46 43.1152 108.871 44.7428C108.796 45.305 108.623 45.8228 108.401 46.3596C110.264 49.1095 111.739 52.2193 112.933 55.1771C115.019 62.6211 116.317 70.3679 116.508 77.9628C117.14 92.3921 115.559 109.628 102.996 118.959C95.4073 124.871 83.5197 125.07 74.9914 117.739C74.5074 117.166 72.2314 115.62 72.9909 115.349C73.217 115.587 73.4494 115.82 73.686 116.048C73.6752 116.023 73.6731 115.997 73.6776 115.97L73.455 115.768C73.0359 115.38 72.493 114.818 73.1114 114.928C73.1386 114.96 73.1684 114.987 73.1978 115.019C73.3287 115.097 73.4277 115.166 73.5047 115.226L73.5443 115.257L73.532 115.245C73.1758 114.865 72.9623 114.477 73.4949 114.725L73.5654 114.759C73.8022 115.008 74.0428 115.247 74.2879 115.48C74.2839 115.452 74.2879 115.425 74.3029 115.395L74.0744 115.174C73.8514 114.956 73.8854 114.955 73.9944 114.778C73.5204 114.113 74.4054 114.508 74.4675 114.767C75.0212 114.636 75.5073 115.676 75.864 115.803C91.4976 127.827 114.185 117.158 113.818 83.6536L113.812 82.9981C113.704 72.2849 112.803 61.2737 108.374 51.5757C107.943 50.6416 107.461 49.7327 106.931 48.8535C106.566 48.1941 106.175 47.5516 105.754 46.926C104.577 46.8309 103.415 46.6153 102.271 46.2814C101.877 46.1821 101.489 46.0722 101.1 45.9432C95.4212 46.2531 89.8689 46.5902 84.1742 46.9097L82.3954 47.0206C77.5713 47.3308 72.5822 47.8278 68.6893 50.8127C64.8696 53.5303 64.8523 58.8891 61.5825 61.8727C56.9198 65.0385 56.8858 67.8932 55.9879 72.5586C56.0545 76.0755 58.4921 81.1853 54.0189 82.6654C54.7735 83.7418 53.7216 83.2246 53.6388 82.8471C53.6304 82.8492 53.6219 82.8513 53.6156 82.8513C54.288 84.1019 53.2995 83.3144 53.2121 82.9126C53.1592 82.8978 53.1064 82.8598 53.0536 82.807C53.7311 83.9026 52.6359 83.1354 52.7008 82.9359C51.3916 80.9228 48.6971 80.6102 46.7978 81.1436C46.7745 81.2155 46.6902 81.2218 46.6374 81.1838C38.5613 82.9346 40.645 99.66 48.9212 98.0432C49.2755 97.9709 49.2671 98.1411 49.3374 98.1573C49.1462 97.6552 49.6852 97.8595 49.6795 97.965L49.7123 97.9634C49.7383 97.9611 49.7277 97.9583 49.7471 97.965C49.5622 96.9381 50.6025 98.426 50.5203 98.487C50.5522 98.468 50.5881 98.4575 50.6198 98.4532L50.584 98.3557C50.4113 97.8956 50.4261 98.0869 50.4273 97.8234C50.2976 97.4977 50.2881 97.6402 50.3185 97.428C50.7745 97.0746 50.909 98.1466 51.0611 98.225C50.8004 97.8615 51.0077 97.5645 51.2536 97.7619C53.1176 101.684 55.5254 105.369 58.6372 108.273C58.9775 108.541 59.3219 108.805 59.6787 109.055C61.0023 110.208 63.0326 110.95 64.2717 111.971C64.2717 111.988 64.2635 112.009 64.2508 112.03L64.2792 112.056L64.3078 112.083L64.7388 112.29C64.8656 112.398 64.9797 112.519 65.0809 112.652C65.1888 112.776 65.2837 112.914 65.3642 113.06C65.4043 113.237 65.3156 113.311 65.1466 113.235C65.0724 113.21 64.9987 113.18 64.9247 113.153C64.929 113.159 64.9309 113.163 64.9353 113.167C64.9595 113.204 65.1237 113.585 64.9345 113.523L64.9121 113.514C64.8083 113.476 64.705 113.434 64.6036 113.394C64.724 113.544 64.8337 113.706 64.9309 113.844C65.0346 113.952 65.0978 114.078 65.1233 114.222C65.1189 114.302 65.0747 114.336 64.9944 114.326C64.8719 114.285 64.7515 114.243 64.6309 114.199L64.6652 114.264C64.7504 114.432 64.8715 114.713 64.6564 114.619C64.4724 114.562 64.2952 114.497 64.1177 114.425C64.1027 114.455 64.0733 114.465 64.0142 114.438C63.4501 114.237 62.905 113.992 62.3832 113.702C61.9247 113.368 61.4618 113.041 61.0015 112.709C60.5682 112.449 60.1499 112.159 59.7508 111.834C57.0791 110.108 54.7402 107.915 52.8846 105.472C49.7813 108.161 43.5766 105.592 39.7385 103.488C36.3436 101.607 35.0092 98.1286 34.6642 94.3788C33.947 89.3305 29.823 87.6025 30.1099 76.5256C30.1036 76.5277 30.0971 76.5277 30.0886 76.5277C29.9386 76.4834 29.793 76.4242 29.6557 76.3481C29.5142 76.2805 29.3811 76.2002 29.2562 76.1029L29.102 75.8895C29.0219 75.8451 28.9501 75.7986 28.8952 75.7521L28.8667 75.7888C28.7765 75.8977 28.8371 75.7339 28.8423 75.7014L28.5744 75.3369C27.9392 74.4692 27.2422 73.4957 26.6745 72.7171L26.6566 72.7487C26.6438 72.7726 26.637 72.7899 26.643 72.7974C25.292 70.8555 24.0214 68.51 23.6684 66.2392C23.2516 64.4901 23.4145 62.6877 23.778 61.0675C25.337 55.3938 30.4437 42.5547 37.1492 37.0517ZM73.8142 115.516L73.7295 115.441L73.804 115.534C73.843 115.582 73.8829 115.626 73.948 115.67C73.9437 115.655 73.9437 115.64 73.9457 115.623C73.9025 115.59 73.8584 115.554 73.8142 115.516ZM85.671 27.9151C75.7608 27.0627 66.0136 29.2468 56.5568 31.8906L55.9045 32.0781C50.5273 33.6131 44.8414 34.9943 40.2973 38.2797C33.9485 43.1443 30.67 50.8831 27.809 58.0282C25.3108 63.3369 26.5879 69.323 30.3527 73.0299C30.7444 69.3463 31.4122 65.7704 32.4559 62.2233C32.6737 61.6692 32.5089 61.4876 32.9783 61.4153C33.6873 70.9743 30.1953 78.0368 37.1059 89.3656C40.1044 94.7111 36.6333 98.6223 45.1009 101.435L45.33 101.523C47.0941 102.189 49.0206 102.714 50.7485 102.342L50.5937 102.09C50.4358 101.831 50.3879 101.705 50.6175 101.594C50.6113 101.581 50.6029 101.569 50.5942 101.554C50.4085 101.203 50.229 100.848 50.0576 100.489C49.9881 100.512 49.9184 100.529 49.8463 100.548C49.893 100.634 49.8992 100.721 49.7684 100.751C49.3028 100.91 48.8248 100.974 48.3354 100.944L48.2304 100.937C47.6775 100.903 47.3291 100.802 47.0175 100.708C46.9142 100.691 46.8106 100.675 46.709 100.653C45.7066 100.431 44.6454 99.8655 43.9585 99.305C36.1294 94.8565 36.9385 79.7134 46.5888 78.2819C46.7868 68.7475 51.3199 52.6621 58.8432 43.5767C65.6435 35.2197 84.2084 31.5976 97.1244 32.8748C97.3127 32.9372 97.5009 33.0001 97.6891 33.0638C99.6818 33.2409 101.581 34.129 103.575 34.5415C102.143 33.4681 100.519 32.7531 98.8461 32.1454C95.5127 30.1057 91.6913 29.002 87.9994 28.2236C87.2346 28.0355 86.4592 27.932 85.671 27.9151ZM46.1471 85.9412C46.666 85.6593 46.6066 85.9315 46.726 85.8525C50.4582 85.5479 54.4827 88.8169 56.569 91.542C56.4042 91.7132 55.9584 91.206 55.8802 91.1257C55.8697 91.1362 55.857 91.1447 55.8443 91.1489L55.9024 91.2309C56.748 92.4449 55.0717 91.0164 54.9147 90.722C54.8873 90.7368 54.8598 90.7452 54.8281 90.7389C54.961 90.8693 55.3668 91.2094 55.4366 91.4511L55.5442 91.5407C56.5587 92.4099 56.4745 93.0637 55.3227 91.8295C55.3499 91.8865 55.3605 91.9394 55.3415 91.9816L55.3811 92.0081C55.9476 92.4041 56.4134 93.5079 55.2295 92.3747C55.3527 93.2024 54.0563 91.6027 54.0147 91.6139C51.7715 89.8523 48.4687 88.1391 45.6549 87.9089L45.558 87.8978C45.0417 87.8314 44.7975 87.6782 44.9788 87.3404C44.3429 87.1891 44.4918 86.8758 44.7929 86.886C44.3444 86.5909 44.7481 86.3088 45.0084 86.4189C44.8294 85.9233 45.5471 86.2534 45.6126 86.1843C45.9851 85.6096 46.0854 86.089 46.1471 85.9412ZM38.3239 55.2215C40.1165 54.5646 45.4115 56.531 44.9879 59.1353C44.7357 59.7332 43.9045 60.0758 43.3204 59.7383L42.5579 59.226C41.2311 58.3371 40.0345 57.5576 38.61 56.7823C37.8346 56.3974 37.5008 55.5804 38.3239 55.2215ZM48.5228 51.3514L47.8305 50.9007C44.0945 48.4546 38.8129 44.7482 48.1795 48.5829C49.247 49.0409 50.6655 49.3119 51.248 50.3289C52.163 52.2034 49.7549 52.3293 48.5228 51.3514ZM48.9427 40.3762C48.6429 39.2381 52.3732 40.5736 53.4591 40.9257L53.6245 40.9882C54.6809 41.382 55.8917 41.7473 56.5236 42.6592C57.2638 43.9193 55.7655 44.1803 54.8374 43.6111C52.9346 42.3671 50.8483 41.4285 48.9427 40.3762ZM58.4286 35.0745C56.3289 32.7806 61.9483 34.9781 62.7901 35.5881L62.8141 35.606C63.4422 36.0484 63.3148 37.0012 62.7248 37.281C61.0458 37.3129 59.8103 35.9129 58.4286 35.0745ZM67.9834 32.5613C64.6454 30.1614 69.0425 31.3029 70.5698 32.2434C71.6107 33.1617 70.5385 34.712 67.9834 32.5613Z" fill="#575757"/>
<path fill-rule="evenodd" clip-rule="evenodd" d="M100.125 101.776C101.46 101.465 102.509 102.596 102.246 103.899C101.969 105.278 100.487 105.75 99.2439 105.707C97.8349 105.658 96.4271 105.367 95.0111 105.309C93.5566 105.248 92.0965 105.237 90.6411 105.277C89.2949 105.313 87.9132 105.551 86.5775 105.337C86.0574 105.254 86.1066 104.568 86.4451 104.323C87.4499 103.598 88.7521 103.303 89.9365 102.999C91.1441 102.689 92.3785 102.451 93.617 102.306C94.8725 102.159 96.1385 102.086 97.4023 102.071C97.9775 102.065 98.683 102.193 99.2439 102.089C99.5297 102.036 99.8209 101.847 100.125 101.776ZM96.2703 83.8658C97.8656 84.8359 100.296 87.098 98.5802 89.503C96.56 91.6236 93.6514 89.1922 92.2181 88.0926C90.8891 87.2404 89.3958 89.4322 90.6289 90.4273C100.986 98.0983 105.189 84.1194 97.0772 82.7252C96.184 82.5715 95.8523 83.5657 96.2703 83.8658ZM84.7023 76.6216C86.8363 76.2665 87.2096 79.31 85.0946 79.5226C84.6508 79.5672 84.2094 79.6061 83.7689 79.6448C83.8118 79.7826 83.8403 79.9244 83.856 80.0702C83.876 80.1941 83.891 80.3255 83.9043 80.4758C83.9713 81.2246 83.4406 82.0032 82.8205 82.3663C82.1762 82.7436 81.2513 82.7939 80.6113 82.3663C80.2813 82.1457 79.9517 81.8969 79.7698 81.5321C79.5258 81.1574 79.3927 80.7237 79.3792 80.2786C78.4063 80.5314 77.4157 80.8731 76.4331 81.0543C76.4692 81.0898 76.5047 81.1276 76.5391 81.1692C76.5653 81.2011 76.5294 81.261 76.4912 81.2316L75.9983 81.1223C75.8466 81.1422 75.6949 81.1584 75.5436 81.168L75.5472 81.1546C75.2944 81.1502 75.0873 80.8511 75.3136 80.6119C76.1817 79.6939 77.5363 79.0839 78.7713 78.5738L79.9612 78.0858C81.4828 77.4672 83.0889 76.89 84.7023 76.6216ZM101.87 77.5631C103.268 77.4036 104.652 77.467 106.052 77.5523C108.408 77.6959 107.42 81.1333 105.528 80.3396C105.548 80.4654 105.553 80.5914 105.538 80.7087C105.464 81.3129 105.268 81.8235 104.713 82.1482C104.198 82.4495 103.546 82.4487 103.031 82.1482C102.479 81.8265 102.231 81.3731 102.09 80.7841C101.981 80.3274 102.025 79.9453 102.088 79.493C102.109 79.3431 102.174 79.2034 102.264 79.0779C102.133 79.0449 102.001 79.013 101.868 78.9832C100.692 78.7156 99.5323 78.7693 98.3598 78.5998C98.2347 78.5816 98.2148 78.3796 98.3243 78.3282C99.3779 77.833 100.717 77.6946 101.87 77.5631ZM84.4869 66.9468C85.2935 66.6389 86.3067 67.151 86.7185 67.8554C87.1858 68.6547 86.9862 69.5775 86.4094 70.2511C85.5246 71.2843 83.8397 71.9209 82.5979 72.5105L82.4982 72.5582C81.223 73.1736 79.9129 73.7388 78.5851 74.2312C77.2793 74.7158 75.9208 75.0954 74.567 75.4213C73.8531 75.5932 73.124 75.7352 72.3945 75.8248C71.8186 75.8954 71.3745 75.7373 70.8236 75.7373C70.7431 75.7375 70.7179 75.6308 70.7836 75.5898C71.2985 75.266 71.6807 74.8397 72.2422 74.5398C72.827 74.2276 73.4139 73.9207 74.0029 73.6168C75.1938 73.0026 76.3406 72.3191 77.4895 71.6312C78.7005 70.906 79.884 70.1424 81.035 69.3249C82.1612 68.525 83.1992 67.4382 84.4869 66.9468ZM98.8608 66.2891C99.8682 66.0936 100.866 66.5704 101.164 67.5974C101.45 68.5812 101.151 68.7921 101.913 69.4961C102.521 70.0572 103.176 70.558 103.838 71.0511L104.811 71.775C106.574 73.0806 108.352 74.3151 110.379 75.196C110.55 75.2704 110.451 75.5251 110.289 75.5285C107.066 75.5906 103.976 75.1542 101.067 73.7109C99.7082 73.0367 98.343 72.1839 97.5556 70.838C96.6436 69.2795 96.6702 66.7139 98.8608 66.2891Z" fill="#575757"/>
<path d="M-52 -24V-32H-60V-24H-52ZM188 -24H196V-32H188V-24ZM188 300V308H196V300H188ZM-52 300H-60V308H-52V300ZM-52 -16H188V-32H-52V-16ZM180 -24V300H196V-24H180ZM188 292H-52V308H188V292ZM-44 300V-24H-60V300H-44Z" fill="white"/>
</g>
</svg>
