<svg width="147" height="147" viewBox="0 0 147 147" fill="none" xmlns="http://www.w3.org/2000/svg">
<mask id="mask0_1011_1780" style="mask-type:alpha" maskUnits="userSpaceOnUse" x="0" y="0" width="147" height="147">
<circle cx="73.5" cy="73.5" r="69.5" fill="#C4C4C4" stroke="white" stroke-width="8"/>
</mask>
<g mask="url(#mask0_1011_1780)">
<circle cx="73.5" cy="73.5" r="69.5" fill="#EDEDE0" stroke="white" stroke-width="8"/>
<path fill-rule="evenodd" clip-rule="evenodd" d="M118.917 150.434C117.352 144.349 115.912 141.768 113.132 139.653C110.531 137.675 106.735 136.013 101.195 134.8C95.4253 133.788 95.2617 130.783 93.815 125.951C93.393 124.499 91.3016 124.113 90.399 125.159C90.2717 125.022 90.1391 124.896 90.0017 124.782C90.1246 124.089 89.1185 122.104 89.1521 121.441C89.503 114.525 87.2462 111.052 81.6137 109.761C80.3888 109.481 72.0685 109.315 70.8742 109.646C65.6528 111.093 60.5127 115.688 61.2994 121.222C59.6604 123.369 58.0563 124.68 55.5276 125.371C49.9003 126.088 44.2736 126.724 38.6448 127.27C27.6266 129.002 17.2961 134.848 10.2355 143.374C9.58424 144.161 9.39608 145.229 9.97085 146.068C9.52062 148.001 6.98621 152.69 8.98037 154.015C5.70111 161.877 -1.84395 177.072 -1.85811 181.413C-1.91757 199.651 0.0477682 223.389 18.0014 233.481C18.7202 234.189 18.823 234.973 19.1343 236.027C19.9236 239.347 22.7902 241.72 25.9277 241.526C41.3841 241.871 56.3545 239.981 71.8111 239.889C78.6275 239.849 86.8248 240.869 92.7461 241.548C98.6674 242.227 104.645 241.626 110.327 239.889C110.806 240.645 111.775 241.086 112.758 240.869C118.649 239.695 123.412 236.057 127.561 232.079C128.829 229.768 133.781 223.18 131.813 220.887C133.597 213.327 133.504 205.204 130.334 198.004C130.783 196.685 129.964 195.234 130.334 193.872C130.601 192.886 131.287 192.478 131.631 191.501C132.117 190.127 131.589 188.283 131.042 186.881C130.819 186.182 131.455 185.43 131.631 184.717C132.47 181.353 130.55 181.65 129.166 179.401C129.186 179.394 129.546 177.789 129.545 177.797C129.757 176.651 129.226 175.182 128.763 174.226C128.45 173.579 127.779 173.174 127.113 173.249C127.784 170.966 128.632 169.066 129.545 166.866C131.158 162.989 133.201 159.276 135.518 155.767C136.467 154.329 135.193 152.665 133.657 152.567C128.687 152.25 123.771 151.533 118.917 150.434Z" fill="white"/>
<path fill-rule="evenodd" clip-rule="evenodd" d="M104.412 179.755C102.424 178.974 100.283 178.542 98.1319 178.374C99.2902 178.171 100.452 177.975 101.623 177.874C102.44 177.804 103.198 177.811 103.812 178.432C104.221 178.846 104.414 179.379 104.683 179.869C104.595 179.829 104.503 179.791 104.412 179.755ZM125.749 172.449C122.493 172.615 119.234 173.391 116.289 174.797C115.084 175.373 113.992 176.205 113.673 177.573C113.511 178.272 113.55 178.994 113.637 179.7C113.701 180.234 113.717 180.916 114.181 181.278C114.26 181.34 114.344 181.386 114.432 181.421C113.346 181.912 112.311 182.503 111.392 183.111C110.552 183.667 109.688 184.524 109.3 185.491C109.268 185.381 109.235 185.279 109.203 185.182C108.542 183.223 107.524 181.619 105.92 180.54C106.204 180.413 106.4 180.11 106.308 179.692C105.927 177.948 104.32 176.432 102.505 176.54C100.517 176.657 98.3816 177.382 96.5838 178.299C95.9286 178.284 95.2747 178.293 94.6284 178.322C94.5171 178.326 94.5225 178.477 94.6284 178.49C95.1528 178.556 95.6771 178.63 96.2015 178.716C97.4478 178.916 98.6905 179.17 99.906 179.485C101.364 179.863 102.873 180.243 104.236 180.904C106.879 182.188 108.515 185.544 108.179 188.464C108.124 188.943 107.939 190.39 107.276 190.241C106.716 190.115 106.493 188.943 106.297 188.509C105.773 187.356 104.828 186.604 103.695 186.094C102.365 185.495 100.941 185.09 99.5612 184.618C98.7802 184.35 97.9991 184.082 97.2161 183.815C96.4152 183.54 95.6538 183.16 94.8008 183.352C94.2854 183.469 94.2262 184.085 94.5153 184.438C94.9552 184.976 95.6089 185.135 96.2428 185.356C97.0796 185.648 97.9147 185.94 98.7497 186.231C100.041 186.681 101.393 187.061 102.652 187.612L102.612 187.702C102.51 187.673 102.39 187.776 102.41 187.902C102.598 189.067 102.86 190.414 102.569 191.58C102.339 192.506 101.529 193.53 100.477 193.258C100.642 193.107 100.704 192.846 100.592 192.605C100.175 191.712 94.7164 188.186 94.2297 189.496C94.2136 189.542 94.2637 189.576 94.3034 189.569C94.7182 189.483 95.4132 190.192 95.7452 190.417C96.2247 190.741 96.7113 191.058 97.1856 191.391C97.7046 191.755 98.211 192.137 98.7048 192.531C99.0927 192.841 99.3854 193.163 99.8306 193.32C99.5973 193.431 99.4122 193.638 99.3333 193.903C99.1322 194.592 98.7443 195.177 98.0709 195.482C97.3652 195.799 96.5696 195.599 95.8262 195.676C94.8134 195.779 93.9298 196.261 93.1918 196.951C91.642 198.402 90.8645 200.959 88.697 201.644C87.4022 202.053 85.9656 201.796 84.6547 201.61C83.1911 201.403 81.7653 201.239 80.2909 201.455C78.8795 201.663 77.5452 202.152 76.2558 202.75C75.0473 203.31 73.7112 203.944 72.6391 204.779C72.4183 204.097 72.1956 203.421 72.0266 202.725C71.6281 201.077 71.4126 199.399 71.3604 197.707C71.3121 196.096 71.4018 194.477 71.5399 192.873C71.6084 192.072 71.7161 191.274 71.7843 190.473C71.8021 190.271 71.8382 190.055 71.8652 189.839C73.7795 188.707 75.7905 187.839 77.818 186.946C77.8235 186.944 77.8289 186.941 77.8343 186.939C77.8972 186.91 77.9582 186.883 78.0211 186.856C78.0193 186.852 78.0175 186.849 78.0139 186.845C78.2456 186.703 78.4072 186.514 78.5041 186.301C81.4259 184.359 83.8681 181.707 85.689 178.614C86.4522 177.318 87.1867 175.973 88.1852 174.837C89.2483 173.625 90.5107 172.905 92.073 172.53C93.8993 172.091 95.7813 171.828 97.6525 171.679C98.6743 171.598 99.8162 171.472 100.93 171.477C101.706 171.482 102.465 171.549 103.162 171.742C104.195 172.026 104.798 172.813 105.446 173.609C106.066 174.372 106.682 175.137 107.26 175.933C107.807 176.687 108.325 177.467 108.774 178.284C109.043 178.774 109.293 179.278 109.503 179.798C109.576 179.982 109.673 180.191 109.718 180.382C109.763 180.574 109.681 180.778 109.896 180.778C109.007 180.79 109.016 182.215 109.9 182.162C113.358 181.961 108.404 175.191 107.68 174.248C106.655 172.912 105.597 171.169 103.956 170.548C103.932 170.539 103.907 170.53 103.884 170.523C104.362 170.069 104.739 169.526 105.1 168.973C105.471 168.404 105.915 167.752 106.037 167.077C106.114 166.647 105.581 166.402 105.328 166.778C104.96 167.327 104.782 168.022 104.507 168.625C104.227 169.237 103.886 169.815 103.616 170.433C102.968 170.233 102.268 170.141 101.555 170.111C102.454 168.89 103.991 166.535 104.177 166.232C105.028 164.832 105.838 163.388 106.612 161.942C107.448 160.376 108.165 158.745 108.966 157.16C109.42 156.262 109.878 155.356 110.383 154.485C110.557 154.186 110.744 153.887 110.956 153.615C110.997 153.562 111.049 153.517 111.097 153.466C111.153 153.435 111.211 153.401 111.243 153.383C111.534 153.216 111.636 152.827 111.841 152.58C112.168 152.182 112.552 152.136 113.044 152.13C114.093 152.119 115.145 152.161 116.192 152.189C117.731 152.233 119.268 152.294 120.805 152.375C121.271 152.4 121.734 152.425 122.199 152.454C124.435 152.588 126.669 152.762 128.897 152.976C130.869 153.165 132.841 153.473 134.814 153.621C132.142 159.985 129.179 166.234 125.824 172.266C125.79 172.327 125.765 172.388 125.749 172.449ZM110.923 188.845C110.492 189.044 110.074 189.29 109.684 189.571C109.749 189.134 109.765 188.673 109.747 188.21C110.068 188.556 110.48 188.754 110.923 188.845ZM129.321 177.897C129.29 177.901 129.262 177.917 129.247 177.948C128.651 179.181 128.901 180.558 129.874 181.525C130.384 182.029 131.496 182.598 131.46 183.426C131.429 184.096 130.702 184.658 130.391 185.21C130.102 185.725 129.994 186.291 130.226 186.849C130.522 187.564 131.35 187.848 131.634 188.55C131.993 189.441 131.409 190.516 131 191.292C130.619 192.01 130.127 192.729 129.8 193.489C127.611 194.625 125.652 196.368 123.968 198.137C122.123 200.073 120.541 202.35 117.613 202.293C117.32 202.287 117.097 202.442 116.964 202.656C116.149 202.694 115.332 202.71 114.517 202.714C113.084 202.721 111.651 202.707 110.219 202.662C110.119 202.314 110.192 201.843 110.187 201.549C110.169 200.604 110.16 199.66 110.121 198.715C110.11 198.452 110.099 198.188 110.088 197.925C110.604 198.859 111.609 199.284 112.755 199.219C114.597 199.111 116.451 198.809 118.275 198.537C119.236 198.395 120.195 198.233 121.152 198.06C121.939 197.919 123.048 197.956 123.598 197.323C123.727 197.176 123.734 196.906 123.531 196.807C122.987 196.538 122.644 196.688 122.046 196.803C121.317 196.945 120.586 197.08 119.853 197.207C118.447 197.451 117.038 197.678 115.625 197.878C114.82 197.991 114.014 198.103 113.207 198.191C112.504 198.267 111.71 198.369 111.142 197.839C109.998 196.765 110.64 194.967 111.363 193.883C111.378 193.861 111.378 193.841 111.372 193.823C112.055 193.663 112.735 193.476 113.414 193.345C114.72 193.093 116.034 192.88 117.35 192.691C120.055 192.304 122.777 192.048 125.496 191.791C126.169 191.726 126.176 190.664 125.496 190.727C121.59 191.085 117.665 191.425 113.811 192.18C112.845 192.367 111.886 192.579 110.932 192.819C110.481 192.931 109.998 193.105 109.526 193.111C109.497 193.111 109.468 193.111 109.44 193.109C108.515 193.08 108.38 192.286 108.889 191.625C108.951 191.544 109.016 191.463 109.083 191.386C109.98 190.313 111.099 189.596 112.252 188.854C113.543 188.678 114.831 188.285 116.095 187.997C119.216 187.284 122.337 186.572 125.46 185.86C126.072 185.72 125.812 184.777 125.2 184.915C122.829 185.454 120.459 185.992 118.088 186.53L114.619 187.319C113.926 187.475 113.06 187.79 112.245 187.904C111.843 187.96 111.453 187.967 111.101 187.884C109.964 187.614 109.907 186.19 110.397 185.344C110.947 184.393 111.985 183.799 112.906 183.261C114.502 182.326 116.201 181.655 117.86 180.88C118.155 180.816 118.449 180.751 118.744 180.686C120.457 180.308 122.414 180.123 124.027 179.43C124.51 179.224 124.246 178.461 123.768 178.472C122.517 178.499 121.208 178.945 119.985 179.21C118.661 179.498 117.336 179.784 116.012 180.07C115.88 180.099 115.093 180.351 114.975 180.295C114.899 180.259 114.872 179.997 114.847 179.824C114.766 179.255 114.707 178.657 114.795 178.086C114.989 176.806 116.054 176.205 117.131 175.713C119.53 174.621 122.161 173.937 124.779 173.663C125.383 173.6 125.986 173.56 126.593 173.54C127.306 173.519 127.893 173.393 128.254 174.097C128.822 175.206 129.134 176.632 129.321 177.897ZM125.989 218.108C125.466 216.295 125.609 214.36 125.25 212.511C125.066 211.557 124.813 210.611 124.538 209.68C124.316 208.928 123.945 208.128 123.903 207.343C123.9 207.29 123.962 207.26 124.004 207.284C124.742 207.708 125.308 208.623 125.729 209.341C126.232 210.201 126.617 211.101 126.927 212.048C127.545 213.933 128.052 216.208 127.255 218.108C127.018 218.674 126.185 218.787 125.989 218.108ZM109.833 194.099C110.275 194.056 110.717 193.971 111.158 193.872C110.665 194.355 110.209 194.936 109.955 195.581C109.916 195.086 109.865 194.592 109.799 194.101C109.81 194.101 109.822 194.101 109.833 194.099ZM105.588 231.83C104.809 231.285 104.241 230.523 103.58 229.851C102.931 229.189 103.946 228.171 104.596 228.832C105.16 229.406 105.649 230.122 106.313 230.586C106.632 230.809 106.78 231.213 106.57 231.572C106.386 231.888 105.906 232.053 105.588 231.83ZM101.243 210.883C102.665 210.266 104.064 209.595 105.552 209.151C106.442 208.886 106.818 210.276 105.934 210.54C104.563 210.949 103.278 211.559 101.968 212.126C101.128 212.491 100.397 211.25 101.243 210.883ZM86.2252 210.452C85.8774 209.591 87.2679 209.221 87.6105 210.069C88.005 211.045 88.4572 211.996 88.8517 212.972C89.1992 213.833 87.8091 214.203 87.4665 213.355C87.0719 212.379 86.6196 211.428 86.2252 210.452ZM71.402 227.631C71.1703 227.94 70.7841 228.108 70.4192 227.889C70.1135 227.706 69.927 227.217 70.1615 226.904C70.8462 225.989 71.5399 225.085 72.3425 224.269C72.9931 223.608 74.0084 224.627 73.3583 225.288C72.6416 226.016 72.0136 226.814 71.402 227.631ZM69.2825 131.239C69.9419 131.691 70.5196 132.239 71.0829 132.804C71.7378 133.46 70.7218 134.478 70.0669 133.822C69.5922 133.347 69.1135 132.864 68.5573 132.483C68.2361 132.263 68.0919 131.854 68.2997 131.498C68.4859 131.179 68.9619 131.02 69.2825 131.239ZM90.8481 154.417C90.4753 155.165 90.1397 155.899 90.1185 156.75C90.0959 157.677 88.6592 157.677 88.682 156.75C88.7095 155.637 89.1189 154.671 89.6076 153.69C90.021 152.86 91.2597 153.59 90.8481 154.417ZM98.7607 135.802C99.533 135.286 100.252 136.534 99.486 137.046C98.8654 137.461 98.2446 137.876 97.6239 138.29C96.8519 138.806 96.1334 137.558 96.8988 137.047C97.5194 136.632 98.14 136.217 98.7607 135.802ZM64.4407 168.348C64.3089 169.264 62.9247 168.872 63.0552 167.966C63.2573 166.565 63.5038 165.182 63.8829 163.817C64.1311 162.924 65.5165 163.306 65.2682 164.2C64.8891 165.565 64.6425 166.948 64.4407 168.348ZM59.4037 184.847C58.4791 184.828 58.4789 183.387 59.4037 183.407C60.2405 183.425 61.0632 183.646 61.8704 183.848C62.7683 184.072 62.3854 185.461 61.4884 185.236C60.806 185.066 60.1112 184.862 59.4037 184.847ZM57.5444 218.083C57.2267 218.238 56.9008 218.377 56.5797 218.524C55.9366 218.819 55.2939 219.114 54.6514 219.41C53.3128 220.026 51.975 220.644 50.6384 221.264C47.9627 222.506 45.2663 223.704 42.5841 224.932C39.849 226.185 37.121 227.454 34.3965 228.73C33.1129 229.331 31.8195 229.91 30.5287 230.495C29.4251 230.995 28.0608 231.869 26.8492 231.952C26.7869 231.956 26.766 231.877 26.8016 231.836C27.2593 231.315 27.9895 231.011 28.5911 230.672C29.2056 230.325 29.8316 229.999 30.4547 229.668C31.7538 228.978 33.0545 228.294 34.3661 227.628C36.9898 226.297 39.6184 224.975 42.2476 223.655C44.9291 222.309 47.6071 220.954 50.3121 219.656C51.5856 219.044 52.8605 218.435 54.136 217.827C54.827 217.498 55.5184 217.17 56.2098 216.842C56.5084 216.7 56.804 216.547 57.1093 216.42C57.5149 216.252 57.8233 216.286 58.2417 216.183C58.9241 216.014 59.2195 216.884 58.6956 217.263C58.2643 217.575 58.0373 217.841 57.5444 218.083ZM47.9537 232.851C47.8063 232.492 48.115 232.055 48.4554 231.965C48.8633 231.858 49.1903 232.106 49.3391 232.468C49.733 233.429 50.294 234.31 51.016 235.054C51.6614 235.72 50.6461 236.738 50.0002 236.073C49.0953 235.14 48.4452 234.05 47.9537 232.851ZM40.8979 209.732C40.243 209.076 41.259 208.058 41.9138 208.714L43.7756 210.58C44.4305 211.237 43.4143 212.255 42.7598 211.599L40.8979 209.732ZM21.7963 206.689C20.4577 207.083 18.8964 207.445 17.9838 208.589C17.9393 208.645 17.8644 208.574 17.8912 208.518C19.0595 206.089 22.41 205.238 24.7298 204.387C26.3706 203.785 28.0542 203.286 29.7519 202.84C29.5822 200.898 30.0502 198.817 30.2129 196.885C30.3865 194.822 30.5278 192.754 30.6004 190.685C30.6746 188.574 30.6925 186.449 30.6232 184.337C30.5542 182.233 30.2818 180.155 30.1626 178.059C30.1511 177.856 30.4327 177.846 30.4934 178.014C31.1984 179.959 31.4995 182.115 31.729 184.166C31.9654 186.28 32.0438 188.387 32.0137 190.513C31.9824 192.698 31.8556 194.879 31.6816 197.058C31.5992 198.09 31.5035 199.122 31.4132 200.153C31.3442 200.941 31.3122 201.722 31.1521 202.485C32.176 202.233 33.2023 201.994 34.2253 201.763C37.4875 201.025 40.7634 200.34 44.012 199.542C45.6066 199.15 47.1784 198.681 48.7659 198.264C50.2607 197.872 51.8385 197.396 53.3731 197.221C53.9209 197.159 53.9905 197.91 53.628 198.165C52.3806 199.043 50.724 199.654 49.2833 200.146C47.8373 200.639 46.3343 200.994 44.8522 201.359C41.7615 202.121 38.6415 202.744 35.5262 203.393C32.4152 204.042 29.2983 204.685 26.2223 205.485C24.741 205.87 23.2647 206.257 21.7963 206.689ZM14.461 168.157C13.6612 168.627 12.9391 167.382 13.7361 166.913C14.7789 166.299 15.8903 165.838 17.0107 165.388C17.8705 165.044 18.2404 166.437 17.3926 166.777C16.3858 167.181 15.3981 167.605 14.461 168.157ZM11.5648 221.667C10.7628 222.133 10.0402 220.888 10.8399 220.423C11.9629 219.771 13.1929 219.335 14.3567 218.764C15.1847 218.358 15.912 219.6 15.0817 220.008C13.918 220.579 12.6879 221.014 11.5648 221.667ZM10.2622 191.292C11.0376 192.03 12.0725 192.378 13.0483 192.766C13.8991 193.104 13.526 194.496 12.6663 194.155C11.4506 193.672 10.2122 193.23 9.2463 192.31C8.57432 191.67 9.59198 190.654 10.2622 191.292ZM18.8408 150.04C19.6932 150.376 19.3199 151.768 18.4588 151.43C17.5038 151.054 16.5176 150.768 15.5626 150.392C14.7103 150.057 15.0835 148.665 15.9445 149.003C16.8995 149.379 17.8858 149.665 18.8408 150.04ZM33.9743 133.655C34.8801 133.502 35.2658 134.891 34.3563 135.044C33.2278 135.236 32.1166 135.459 31.0463 135.874C30.182 136.209 29.8111 134.816 30.6643 134.485C31.7348 134.07 32.846 133.847 33.9743 133.655ZM38.9746 173.549C38.1441 173.14 38.8728 171.898 39.6996 172.306C40.5709 172.735 41.4736 173.067 42.4243 173.27C43.3296 173.463 42.944 174.852 42.0423 174.659C40.9724 174.43 39.9544 174.032 38.9746 173.549ZM43.6973 151.078C44.5917 150.832 44.9698 152.222 44.0793 152.467C42.5125 152.897 40.8993 153.121 39.321 153.504C38.4215 153.722 38.041 152.333 38.9391 152.115C40.5174 151.732 42.1307 151.508 43.6973 151.078ZM63.7321 144.026C64.6414 144.194 64.2539 145.582 63.3503 145.415C62.3883 145.236 61.4134 145.233 60.4381 145.233C59.5122 145.233 59.5138 143.792 60.4381 143.793C61.5461 143.793 62.6399 143.823 63.7321 144.026ZM129.073 151.55C126.726 151.325 124.375 151.145 122.021 151.01C121.911 151.005 121.804 150.998 121.694 150.992C121.682 150.967 121.666 150.944 121.649 150.918C120.881 149.788 120.315 148.657 119.825 147.379C119.356 146.162 118.902 144.907 118.18 143.809C117.357 142.558 116.245 141.578 115.027 140.73C114.288 141.228 113.602 141.811 112.975 142.43C112.314 143.08 111.298 142.062 111.959 141.411C112.516 140.862 113.111 140.354 113.74 139.896C113.014 139.453 112.273 139.037 111.55 138.623C108.84 137.074 106.066 135.64 103.234 134.33C101.917 133.719 100.585 133.177 99.2435 132.628C98.5214 132.333 97.8087 131.953 97.0868 131.611C97.1389 131.1 96.9862 130.527 96.5948 130.19C96.3056 129.944 96.0812 129.852 95.7364 129.678C95.6592 129.65 95.6125 129.634 95.5909 129.625C95.6071 129.629 95.6538 129.643 95.7308 129.668C95.9142 129.753 95.9285 129.728 95.7741 129.595C95.7651 129.303 95.1921 128.687 95.0612 128.387C94.605 127.355 94.4632 126.264 93.7898 125.324C92.8613 124.03 91.3026 123.54 89.8496 123.979C89.699 122.422 89.6595 120.796 89.0741 119.406C89.0579 119.368 89.0058 119.352 88.9825 119.394C88.3719 120.436 88.3198 121.597 88.2731 122.8C88.2282 123.929 88.2712 125.083 88.4186 126.204C88.3252 126.276 88.23 126.345 88.1313 126.411C87.668 126.718 87.1687 126.953 86.6444 127.128C85.6459 127.459 84.599 127.603 83.552 127.654C80.8494 127.783 78.0642 127.51 75.4064 127.045C72.7181 126.575 68.5968 125.87 66.2049 124.521C64.6262 123.632 63.17 122.546 61.6937 121.495C62.229 119.766 62.3655 117.908 61.8268 116.448C61.7621 116.273 61.4892 116.241 61.4371 116.448C61.0995 117.842 61.0007 119.242 60.5518 120.62C60.5446 120.639 60.5374 120.661 60.5302 120.681C60.3901 120.586 60.2501 120.492 60.11 120.398C59.7868 120.184 59.3468 120.344 59.1529 120.65C56.0514 125.549 51.1401 125.83 45.9826 126.705C40.3383 127.663 34.6657 128.696 29.2388 130.57C24.049 132.364 19.0891 134.974 15.16 138.874C14.2705 139.757 13.4387 140.698 12.6536 141.68C13.4132 141.776 14.1665 141.925 14.9102 142.159C15.7906 142.437 15.4123 143.827 14.5282 143.548C13.5725 143.247 12.6062 143.098 11.63 143.024C8.96023 146.686 6.87857 150.838 5.07848 154.924C1.62574 162.76 -0.621668 171.104 -1.65585 179.6C-1.08803 179.259 -0.509971 178.934 0.0824554 178.631C0.905638 178.212 1.63167 179.455 0.80759 179.875C-0.107538 180.342 -0.996446 180.856 -1.8577 181.414C-2.23391 185.132 -2.37973 188.875 -2.29138 192.612C-2.08127 201.52 -0.881696 210.69 1.83172 219.189C3.16239 223.361 4.92584 227.498 7.55306 231.023C8.74186 232.62 10.0923 234.06 11.6833 235.261C12.4537 235.845 13.269 236.365 14.1292 236.804C15.2372 237.373 16.681 237.56 17.6363 238.365C17.9506 238.63 18.193 238.979 18.3762 239.373C18.2702 240.122 18.2577 240.873 18.4624 241.622C18.527 241.856 18.703 242.047 18.9203 242.139C18.9239 242.204 18.9239 242.267 18.9239 242.328C18.9239 242.357 18.967 242.364 18.9724 242.335C18.9814 242.279 18.9903 242.223 18.9993 242.166C19.0694 242.189 19.143 242.2 19.2184 242.2C21.9462 242.21 24.6774 242.144 27.4088 242.051C27.1976 241.402 26.9688 240.759 26.7492 240.11C26.4509 239.229 27.8389 238.855 28.1344 239.728C28.3914 240.486 28.6601 241.238 28.8991 241.999C31.8256 241.89 34.7513 241.759 37.6718 241.662C43.8834 241.455 50.0932 241.386 56.3064 241.255C65.9552 241.05 75.6743 240.63 85.3381 241.041C85.6723 240.33 86.0464 239.635 86.401 238.933C86.8195 238.106 88.0585 238.835 87.6416 239.66C87.395 240.148 87.1396 240.629 86.897 241.115C88.8542 241.217 90.8095 241.352 92.7606 241.536C96.09 241.849 99.3872 242.405 102.713 242.751C106.094 243.104 109.402 243.041 112.757 242.481C113.36 242.38 113.716 242.015 113.863 241.561C113.868 241.559 113.872 241.556 113.875 241.55C114.048 241.348 114.21 241.181 114.376 241.035C114.576 240.906 114.791 240.796 115.045 240.699C115.517 240.518 116.009 240.409 116.508 240.335C117.058 240.252 117.614 240.245 118.164 240.177C118.627 240.117 119.08 240.029 119.532 239.921C120.346 239.726 121.118 239.473 121.886 239.136C122.556 238.842 123.161 238.421 123.733 237.962C124.914 237.096 125.938 235.991 126.832 234.842C127.353 234.17 127.843 233.474 128.288 232.748C129.064 231.491 129.725 230.186 130.393 228.87C130.635 228.48 130.857 228.081 131.059 227.673C129.753 227.287 128.435 226.973 127.051 226.951C126.126 226.936 126.126 225.495 127.051 225.51C128.639 225.536 130.14 225.907 131.632 226.35C131.704 226.157 131.774 225.962 131.839 225.764C132.016 225.352 132.164 224.929 132.286 224.5C132.357 224.306 132.429 224.111 132.501 223.917C132.663 223.244 132.825 222.569 132.988 221.893C133.313 220.813 133.57 219.717 133.758 218.606C133.916 217.875 134.038 217.139 134.121 216.393C134.372 214.587 134.577 212.785 134.592 210.96C134.57 209.834 134.498 208.711 134.376 207.593C134.324 206.833 134.236 206.077 134.117 205.326C133.963 204.21 133.81 203.105 133.554 202.003C133.361 201.257 133.169 200.512 132.977 199.767C132.498 198.213 131.932 196.69 131.28 195.201C131.244 195.107 131.063 194.902 130.953 194.9C130.871 194.898 130.756 194.974 130.793 195.075C130.797 195.084 130.801 195.095 130.804 195.104C130.767 195.019 130.731 194.933 130.693 194.848C130.661 194.769 130.535 194.61 130.438 194.612C130.433 194.612 130.427 194.612 130.42 194.614C130.445 194.596 130.468 194.572 130.492 194.546C131.136 193.78 131.555 192.774 132.016 191.888C132.399 191.157 132.76 190.387 132.864 189.56C132.955 188.835 132.832 188.12 132.377 187.533C131.86 186.865 130.887 186.552 131.427 185.587C132.042 184.488 132.945 183.536 132.045 182.288C131.587 181.653 130.862 181.304 130.323 180.751C129.703 180.112 129.409 179.257 129.425 178.383C129.463 178.405 129.513 178.394 129.531 178.34C130.052 176.763 129.675 175.031 129.141 173.495C128.85 172.662 128.234 172.433 127.518 172.392C130.621 166.316 133.525 160.142 136.113 153.826C136.199 153.619 136.283 153.412 136.367 153.205C136.493 152.895 136.228 152.483 135.92 152.414C133.683 151.923 131.352 151.766 129.073 151.55Z" fill="#575757"/>
<path fill-rule="evenodd" clip-rule="evenodd" d="M105.163 81.9061C103.93 66.8413 100.177 53.4986 82.5419 52.9297C74.5834 53.001 66.4595 54.6961 59.141 57.8323C41.3528 66.7742 35.7088 99.4478 51.3807 112.6C51.2875 112.654 51.2651 112.807 51.3752 112.881C54.6129 115.065 58.2119 116.862 61.8163 118.372C71.4176 122.441 82.7204 124.209 92.5122 119.795C107.455 113.42 107.68 95.6814 105.163 81.9061Z" fill="white"/>
<path fill-rule="evenodd" clip-rule="evenodd" d="M134.575 74.8845C135.189 74.33 135.647 73.6026 135.879 72.7871C136.091 72.0435 136.105 71.2315 135.881 70.4898C135.64 69.694 135.121 69.0603 135.238 68.2321C135.25 68.1511 135.266 68.0664 135.292 67.9818C135.741 66.4227 136.845 65.2974 136.45 63.5691C136.339 63.0812 136.128 62.6419 135.836 62.2962C135.868 61.9217 135.897 61.5436 135.92 61.1655C136.568 59.6442 136.545 57.8366 135.854 56.3387C135.769 55.5717 135.642 54.812 135.462 54.0648C135.545 53.404 135.43 52.6767 135.218 52.0988C134.846 51.0819 134.386 50.0798 133.886 49.0943C133.945 48.8248 133.919 48.5399 133.77 48.2866C133.501 47.8263 133.144 47.4215 132.78 47.026C132.522 46.5645 132.263 46.1069 132.005 45.6552C131.886 45.4476 131.754 45.2173 131.609 44.9734C132.005 44.2377 132.216 43.5208 131.798 42.6557C131.641 42.3307 131.209 42.0911 130.853 42.1124C130.464 42.1356 130.072 42.153 129.677 42.168C128.94 41.2754 128.104 40.474 127.209 40.0127C126.302 39.2422 125.383 38.486 124.488 37.7136C124.235 37.494 123.98 37.2743 123.727 37.0547C123.725 37.0493 123.723 37.0421 123.721 37.0367C123.535 36.3543 123.325 35.681 123.114 35.0041C122.983 34.5846 122.944 34.1453 122.536 33.9166C121.685 33.4395 120.376 33.3639 119.399 33.2829C119.302 33.1965 119.205 33.1118 119.108 33.0254C119.552 31.8408 119.473 30.5823 118.914 29.3958C118.724 28.9925 118.063 28.8107 117.7 29.0772C116.863 29.6929 115.87 29.9107 114.888 29.8207C113.444 28.7081 107.621 23.6767 106.721 23.1456C106.71 23.1265 106.701 23.1074 106.689 23.0885C106.183 22.2787 105.568 21.6284 104.878 21.107C104.779 21.0038 104.681 20.9005 104.582 20.7972C104.669 20.1798 104.897 19.5837 105.264 19.085C105.304 19.0274 105.349 18.9716 105.394 18.9176C106.037 18.1506 105.252 17.164 104.354 17.5655C104.289 17.5943 104.225 17.6231 104.16 17.6537C103.47 17.9623 102.706 18.2977 101.911 18.5807C101.62 18.4714 101.323 18.3724 101.052 18.2633L98.1546 17.0954C97.6777 16.9031 97.1734 16.7402 96.7121 16.5142C96.5512 15.4414 95.4787 14.7378 94.365 14.7745C94.4293 14.5685 94.5252 14.3685 94.6604 14.1789C94.6999 14.1231 94.743 14.0691 94.7879 14.0169C95.3608 13.3489 94.5958 12.1103 93.7769 12.7044C93.7194 12.7458 93.6602 12.7872 93.6027 12.8286C93.3752 12.9887 93.1423 13.1388 92.9068 13.2843C92.5299 13.1194 92.1054 13.0818 91.6611 13.2562C90.6774 13.6424 89.7705 14.0351 88.9044 14.6404C88.8692 14.665 88.8328 14.6857 88.7972 14.709C88.3673 14.1883 87.6847 13.8401 87.07 13.8439C87.0575 13.8439 87.0478 13.8437 87.0366 13.8435C86.5771 13.1415 85.7347 12.7336 84.9212 12.8328C84.9762 11.8254 83.9703 10.9265 83.0547 10.8172C81.9848 10.6898 81.0204 11.3125 80.6993 12.3589C80.6099 12.6502 80.5207 12.9417 80.4312 13.2332C79.6005 12.8128 78.7238 12.4907 77.808 12.3299C75.7225 11.9637 73.6834 12.3537 71.6738 12.9341C71.473 12.9921 71.2724 13.0517 71.0718 13.1111C70.7852 12.7782 70.5164 12.4374 70.2594 12.1193C69.8159 11.5702 68.751 12.0094 68.8228 12.7152C68.8727 13.2022 68.6754 13.5526 68.3577 13.8016C68.0088 13.8527 67.6715 13.8682 67.163 13.8579C66.4908 13.8442 66.185 13.8232 65.4821 13.5484C65.1546 13.4206 64.7468 13.0845 64.5559 12.7827C63.8241 11.6256 61.9653 11.314 61.08 12.4172C60.1483 12.0084 58.9721 12.5723 58.4549 13.3673C58.1843 13.783 57.6197 14.0154 56.9089 14.2153C56.3754 14.3651 55.8298 14.4785 55.2818 14.5777C55.0375 14.2455 54.5232 14.0228 54.1459 14.3013C53.8904 14.4906 53.6422 14.6848 53.3975 14.884C51.5101 15.1447 49.6326 15.154 47.8331 14.4162C46.3095 13.7915 44.9106 15.4977 45.162 16.9301C44.7208 17.1604 44.2421 17.3136 43.8062 17.5548C42.8554 18.0816 42.0746 18.9143 41.5987 19.8926C41.5134 20.0678 41.4363 20.2457 41.3629 20.4245C41.0075 20.7145 40.6561 21.0123 40.3131 21.3265C39.742 21.033 39.1728 20.7395 38.6017 20.4461C38.1743 20.2264 37.4542 20.3795 37.3698 20.9484C37.2315 21.8846 36.8957 22.6606 36.4163 23.3105C34.8575 24.1315 33.3581 25.0533 31.9232 26.0777C30.2729 26.5962 28.5184 26.8987 27.0764 27.239C26.5826 27.356 26.3132 28.0023 26.5916 28.4326C26.8861 28.8881 27.1806 29.3436 27.4733 29.7991C26.6526 30.6021 25.8822 31.4411 25.155 32.3089C23.1311 34.7214 21.4377 37.3662 19.9221 40.1676C19.3223 40.4106 18.7225 40.6519 18.1227 40.8949C17.5445 41.129 17.2841 41.8023 17.7528 42.2974C17.9754 42.5333 18.1748 42.7817 18.3454 43.0428C17.496 44.4525 16.4957 45.738 15.0968 46.5806C14.6712 46.8362 14.3516 47.2377 14.181 47.6932C14.0355 47.7904 13.8919 47.8949 13.75 48.0011C13.3549 48.2999 13.1161 48.9517 13.5794 49.3388C13.9044 49.6124 14.2097 49.9365 14.4683 50.2948C14.524 50.4982 14.5814 50.7035 14.6389 50.9069C13.3388 52.106 12.2577 53.4995 11.446 55.0622C11.2539 55.0316 11.0563 55.0514 10.8965 55.1702C9.44552 56.2451 9.40242 57.9572 9.98605 59.4876C9.63408 61.7939 9.86034 64.1578 10.5391 66.3921C9.64665 67.2851 9.10971 68.5742 8.89063 69.8164C8.50453 71.9985 8.4776 75.3544 8.37703 77.5815C7.40373 78.5231 6.71056 79.742 6.32446 81.0527C5.99943 81.2147 5.67439 81.3767 5.34936 81.5388C5.06024 81.6828 4.84834 82.0627 4.8663 82.3831C4.9489 83.9333 5.5864 85.1576 6.43221 86.2666C6.73211 87.1218 7.17566 87.9104 7.75749 88.6665C8.15975 89.185 8.55302 89.6819 8.89961 90.2419C8.93552 90.2977 8.95707 90.3499 8.97323 90.3859C8.83675 90.5335 8.72362 90.7784 8.62485 90.953C7.7952 92.4185 7.78263 94.1361 8.96066 95.4126C8.51711 95.7763 8.50274 96.5108 8.89422 96.9609C11.4424 99.8794 13.5668 103.428 17.1027 104.978C17.1189 105.005 17.1332 105.032 17.1458 105.059C16.4293 106.787 16.3323 107.686 16.9177 109.472C16.9213 109.488 16.9267 109.502 16.9321 109.519C17.2446 110.455 17.8192 111.955 18.8554 112.246C19.1822 112.338 19.5037 112.379 19.8215 112.378C20.644 113.172 21.4646 113.967 22.2853 114.763C22.3571 115.157 22.402 115.555 22.4164 115.957C22.4397 116.628 23.0701 117.172 23.7489 116.974C23.9877 116.904 25.3094 115.617 25.5518 115.624C25.6739 115.746 25.7925 115.869 25.911 115.993C26.3474 116.452 26.9525 117.176 27.0028 117.656C27.0998 118.562 27.6924 119.599 28.6495 119.783C29.0087 120.148 29.5833 120.258 30.0233 119.781C30.052 119.75 30.0808 119.72 30.1113 119.693C30.158 119.687 30.2029 119.682 30.2496 119.676C30.4615 120.31 30.6734 120.944 30.8871 121.576C31.3055 122.822 32.9037 123.623 34.0387 122.896C34.2218 123.005 34.4014 123.122 34.581 123.239C34.8539 123.414 35.1305 123.592 35.4142 123.76C35.4304 123.807 35.4465 123.853 35.4609 123.898C35.6441 124.458 36.4055 124.759 36.8742 124.437C37.0196 124.484 37.1687 124.521 37.3195 124.552C38.1115 124.709 38.9088 124.665 39.6738 124.401C40.2215 124.213 40.7441 123.855 41.3331 123.807C41.3699 123.803 41.4078 123.806 41.4451 123.805C41.9257 124.792 43.0238 125.642 43.8892 125.931C45.0227 126.31 46.1828 126.175 47.215 125.711C47.4935 126.269 47.8433 126.798 48.2612 127.287C48.4928 127.557 48.9113 127.499 49.1501 127.287C49.6037 126.884 50.0544 126.479 50.5045 126.073C50.8302 125.947 51.159 125.796 51.502 125.656C52.5748 125.216 53.7509 125.034 54.743 124.399C55.2141 124.098 55.6571 123.713 56.022 123.268C56.7094 122.87 57.341 122.374 57.9099 121.806C58.1936 121.808 58.4899 121.742 58.7772 121.596C59.9786 120.984 60.6107 119.738 60.6664 118.463C61.6397 116.167 62.2144 113.719 62.3724 111.213C62.4227 110.39 62.4316 109.56 62.3688 108.737C62.3257 108.158 62.1802 107.77 61.9612 107.247C61.8875 107.076 61.8211 106.919 61.769 106.746C61.7816 106.192 61.7888 105.637 61.7959 105.084C61.945 104.618 62.2108 104.184 62.5807 103.819C63.1535 103.253 63.4157 102.079 62.895 101.381C62.5556 100.929 62.2179 100.477 61.8785 100.025C61.9737 98.0862 62.437 95.0003 61.4099 94.6762C61.4512 94.3882 61.5391 94.1037 61.5894 93.8174C61.8301 92.4419 61.6864 91.2123 60.9573 90.0096C60.8047 89.7594 60.6754 89.5379 60.5694 89.3219C60.503 88.9258 60.4365 88.5297 60.3701 88.1336C60.2677 87.5233 60.1672 86.9075 60.081 86.2882C60.0361 85.4996 59.9948 84.7111 59.9499 83.9207C59.9086 83.1933 59.8619 82.466 59.8134 81.7368C59.8332 81.4109 59.8619 81.0851 59.9032 80.7592C60.1492 78.8166 60.9412 78.0982 62.3131 76.7479C62.5286 76.7137 62.7423 76.6759 62.9524 76.6327C63.9311 76.4293 64.9547 76.1142 65.9621 76.2276C67.0558 76.35 68.0345 76.8235 69.0976 76.2186C69.41 76.0386 70.0978 75.5417 70.1571 75.1474C70.1607 75.1222 70.166 75.1006 70.1732 75.0844C70.2469 75.0736 70.342 75.0646 70.4013 75.0628C71.2453 75.034 72.0516 75.367 72.9028 75.2752C73.9102 75.1672 74.8117 74.7189 75.4043 74.0545C76.1639 74.2418 76.9397 74.3264 77.7281 74.222C78.3889 74.1356 78.9815 73.9195 79.5669 73.599C79.9925 73.3686 79.8578 73.302 80.3212 73.4892C81.3753 73.9177 82.3288 74.483 83.5158 74.1896C84.1318 74.0383 84.6633 73.7053 85.1105 73.257C85.2164 73.1525 85.396 72.9959 85.5163 72.8483C86.0802 73.1345 87.4989 73.7809 87.7323 73.8385C88.3932 74.0005 89.0935 73.9753 89.7364 73.7593C90.2087 73.6008 90.7869 73.1688 91.2018 73.0805C91.7387 72.9653 92.9311 73.7143 93.5722 73.9717C94.6963 74.4236 95.8869 74.5352 97.0255 74.0689C97.4169 73.9087 98.1783 73.2696 98.471 73.275C98.9469 73.8637 100.276 77.0846 100.674 78.2603C102.289 83.0133 102.707 97.8539 101.962 101.64C101.933 101.752 101.903 101.862 101.872 101.973C100.956 105.266 100.003 108.615 98.471 111.683C97.0254 114.574 95.0267 117.178 92.1589 118.756C89.1851 120.395 85.6941 120.825 82.3504 120.604C80.1972 120.463 78.08 120.029 75.9969 119.486C74.9087 119.203 73.8294 118.888 72.7556 118.56C72.2869 118.418 71.811 118.285 71.3513 118.119C70.5396 117.826 70.114 117.802 69.3364 118.179C68.6289 118.521 68.4475 119.531 68.8156 120.166C69.4154 121.203 70.5144 121.275 71.5757 121.578C72.6568 121.886 73.7414 122.181 74.8333 122.445C76.9253 122.95 79.0515 123.337 81.1957 123.515C85.0351 123.837 88.9911 123.34 92.4857 121.66C92.8808 121.47 93.2615 121.266 93.6296 121.047C93.4932 121.237 93.3549 121.428 93.2148 121.617C92.8269 122.141 93.1143 123.032 93.6584 123.319C93.8308 123.409 94.0032 123.495 94.1773 123.58C94.2007 123.636 94.2258 123.691 94.2546 123.747C94.752 124.748 95.7935 125.339 96.8549 125.594C98.1155 125.897 99.527 125.683 100.809 125.645C101.998 125.609 103.187 125.573 104.374 125.537C104.654 125.53 104.934 125.521 105.214 125.512C106.626 125.468 108.035 125.427 109.445 125.384C110.702 125.346 110.643 125.443 111.823 124.939C112.349 124.712 112.78 124.392 113.143 123.965C113.369 123.864 113.588 123.749 113.798 123.618C114.473 123.196 115.073 122.631 115.626 122.008C116.565 122.305 117.882 122.03 118.065 120.847C118.359 118.954 120.812 118.146 121.958 116.778C122.883 115.674 123.544 114.228 123.51 112.84C125.84 111.71 127.108 108.73 127.405 106.202C127.543 105.03 127.521 103.775 127.721 102.584C127.809 102.488 127.888 102.387 127.954 102.279C128.539 101.33 129.049 100.353 129.498 99.3518C130.109 98.9107 130.843 98.6389 131.612 98.5939C133.501 98.4841 133.857 95.9293 132.056 95.3136C132.047 95.31 132.039 95.3082 132.03 95.3046C132.519 94.0803 132.478 92.631 131.885 91.4715C131.91 91.3455 131.934 91.2213 131.957 91.0952C132.968 90.006 133.548 88.4919 133.483 87.0174C133.945 86.6915 134.462 86.4394 135.028 86.2828C135.902 86.0415 135.908 84.9721 135.261 84.4932C135.001 84.3006 134.785 84.0755 134.606 83.8271C135.053 82.4804 134.877 80.923 133.963 79.8176C134.543 79.0722 135.123 78.3269 135.703 77.5815C136.087 77.0882 136.29 76.251 135.703 75.7829C135.328 75.4823 134.952 75.1834 134.575 74.8845Z" fill="#575757"/>
<path fill-rule="evenodd" clip-rule="evenodd" d="M92.2366 102.864C92.8527 101.774 94.6912 101.951 94.9722 103.222C95.5424 105.799 92.4772 108.179 90.1492 108.239C87.8357 108.298 85.2399 106.323 85.5748 103.83C85.6576 103.213 86.4793 103.288 86.7595 103.675L86.8682 103.823C87.6291 104.848 88.6331 105.909 90.0452 105.659C90.6304 105.555 91.162 105.189 91.5157 104.717C91.9424 104.147 91.8955 103.467 92.2366 102.864ZM77.5258 84.0101C77.8394 83.9235 78.1558 83.957 78.4336 84.0755C79.0538 84.1895 79.5719 84.708 79.754 85.2999C79.7684 85.3512 79.7844 85.4018 79.8021 85.4519L79.8298 85.5266L79.7555 85.3369C79.7898 85.5237 79.9415 85.7202 79.9961 85.9078C80.0632 86.1384 80.0796 86.4003 80.057 86.6542C80.2541 86.6562 80.4513 86.6628 80.6481 86.6799L80.8383 86.697C81.902 86.7961 83.0697 86.9779 83.7002 87.8993C84.0544 88.4171 83.722 89.3494 83.0714 89.4491C82.0698 89.6027 81.2072 89.0471 80.2091 88.9358C79.2656 88.8305 78.2782 88.8908 77.347 89.0617C75.4242 89.4141 73.6574 90.1954 71.7837 90.6857L71.5286 90.7506L71.529 90.7494C71.2079 90.8271 70.8434 90.3796 71.1611 90.1178C72.6621 88.8815 74.584 87.8795 76.4773 87.2694C76.2014 86.8296 76.1161 86.2502 76.3047 85.7779C76.3339 85.6801 76.3701 85.5849 76.4083 85.4901L76.488 85.2949C76.4958 85.2029 76.5134 85.112 76.5389 85.0229L76.543 84.9957L76.5453 84.9973C76.6863 84.538 77.0544 84.1405 77.5258 84.0101ZM96.6768 84.0812C97.0874 83.6694 97.6643 83.7303 98.0927 84.0544L98.1496 84.099C98.5534 84.2789 98.8876 84.6719 99.1071 85.0362C99.3349 85.4144 99.4863 85.7997 99.4923 86.2161C100.486 86.2194 101.438 86.5182 102.168 87.3226C102.403 87.5823 102.564 87.9827 102.434 88.3346L102.357 88.544C102.112 89.2088 101.011 89.5915 100.636 88.8097L100.619 88.7716C100.221 87.8433 98.6944 87.9407 97.8829 88.0356C97.3172 88.102 96.7585 88.243 96.2123 88.4009C96.0198 88.4565 95.8291 88.5169 95.6385 88.5786L95.448 88.6405C95.3463 88.6735 94.817 88.9617 95.1463 88.8935C95.2348 88.8751 95.3015 89.0044 95.2111 89.0478C94.8186 89.2359 94.3998 88.8613 94.426 88.4385C94.4714 87.7047 95.6337 87.3024 96.193 87.0494L96.2265 87.034C96.4409 86.9347 96.6655 86.8394 96.8974 86.751C96.767 86.5566 96.6592 86.3405 96.5696 86.1086C96.4849 85.8897 96.4283 85.6769 96.3972 85.4441C96.3667 85.3303 96.3667 85.2166 96.3972 85.1026L96.4019 85.07C96.3861 84.9947 96.3786 84.917 96.3796 84.8386L96.3764 84.8082H96.3796C96.3906 84.534 96.4992 84.2593 96.6768 84.0812ZM90.1172 91.8958C91.6944 92.3844 94.2965 93.7154 93.4746 95.7699C92.3269 97.6567 89.2832 96.27 87.8084 95.6604C86.4833 95.2204 85.7933 97.0822 87.0746 97.6433C97.6623 101.843 97.6234 90.7597 90.5011 90.9225C89.7169 90.9403 89.6923 91.7334 90.1172 91.8958ZM76.1093 77.4445L76.3783 77.3658C77.7763 76.9598 79.2034 76.2588 80.4447 77.3527C80.9321 77.7823 81.0324 78.6749 80.6837 79.2107C79.8892 80.4315 78.711 80.245 77.428 80.3491C76.4511 80.4283 75.4887 80.716 74.5768 81.0755C73.8316 81.3695 73.1404 81.7835 72.4878 82.2451C71.8467 82.699 71.4087 83.4085 70.7511 83.817C70.5101 83.9668 70.2318 83.8127 70.1452 83.5698C69.8385 82.7083 70.3567 81.6351 70.7953 80.9011C71.3306 80.0056 72.1437 79.2732 73.0181 78.719C73.9755 78.1121 75.0343 77.7617 76.1093 77.4445ZM96.4801 76.5176C98.8432 76.5169 101.117 77.8346 102.439 79.7662C102.888 80.4225 102.559 81.3947 101.914 81.7726C101.191 82.1967 100.417 81.8913 99.9408 81.2835L99.9126 81.2467C99.1546 80.2347 98.1775 79.4376 97.0192 78.9188C96.4541 78.6654 95.8292 78.46 95.2179 78.3558L95.0203 78.3218C94.7435 78.2753 94.4223 78.2309 94.1719 78.2744C94.0377 78.292 93.9145 78.3365 93.801 78.4042C93.8556 78.5238 93.7147 78.6678 93.5845 78.5961C92.9972 78.2728 93.0693 77.6959 93.5543 77.2476C94.2405 76.6134 95.5939 76.5178 96.4801 76.5176Z" fill="#575757"/>
<path fill-rule="evenodd" clip-rule="evenodd" d="M91.2282 98.8997C89.2311 97.9979 85.6449 98.7848 84.343 99.0977C81.3162 99.8254 78.2713 101.398 77.3303 103.862C76.2699 106.639 78.3857 107.513 78.6969 107.37C80.7922 107.518 83.2874 106.197 85.4831 105.857C87.2656 105.578 89.146 105.334 90.816 104.384C92.0354 105.057 94.7894 105.42 97.012 106.008C98.9049 106.509 99.7251 107.594 101.48 107.363C103.583 107.087 102.722 102.652 100.378 100.855C97.8127 98.8892 93.4738 98.0918 91.2282 98.8997ZM95.1824 117.862C93.4352 118.289 93.3179 114.45 93.1221 113.094C92.9692 112.034 92.1068 109.301 89.9203 109.419C87.7338 109.537 86.9119 111.827 87.0228 113.251C87.0947 114.174 87.9435 118.852 85.2342 119.444C83.5068 119.438 81.5085 119.321 79.6923 118.985C77.5546 118.5 74.7749 116.8 74.0406 120.147C73.7763 121.351 83.1929 124.93 87.3715 125.254C91.6093 126.115 96.5675 124.791 99.5846 121.541C100.271 120.801 102.204 117.732 102.342 116.98C102.631 115.4 101.961 114.384 100.011 114.94C98.6341 115.678 96.3061 117.588 95.1824 117.862Z" fill="#575757"/>
<path fill-rule="evenodd" clip-rule="evenodd" d="M107.101 92.9822C104.92 95.2408 101.281 95.8889 98.3799 94.6776C90.9317 91.5577 94.5773 81.8266 100.321 79.2133C101.039 79.034 101.997 78.6086 102.871 78.5121C102.95 78.4732 103.123 78.5857 103.331 78.4793C109.665 79.1883 111.107 89.0458 107.101 92.9822ZM83.077 93.5603C80.6317 96.812 76.0855 97.8151 72.3712 96.3035C65.0333 93.4063 67.6359 84.7773 72.6563 81.3943C83.2616 77.3991 87.641 87.5648 83.077 93.5603ZM67.17 86.3555C67.1632 86.3522 67.1564 86.3506 67.1494 86.3474C67.1882 86.3303 67.227 86.3132 67.2656 86.2957C67.253 86.3287 67.2394 86.3612 67.2271 86.3942C67.2081 86.381 67.1914 86.3657 67.17 86.3555ZM112.149 82.8406C111.55 82.8418 110.685 82.9405 110.19 83.3569C108.967 79.2245 104.456 75.3999 100.533 78.1887C97.443 79.1849 95.1503 81.3941 93.8473 84.3313C91.4979 82.9302 87.8037 83.5285 85.7663 85.3813C84.4321 80.9611 81.1483 79.4133 77.2398 79.1849C72.9738 78.4843 68.7218 82.638 67.395 85.9702C66.2919 85.8443 64.6436 85.4924 63.6058 86.1749C56.8704 84.404 45.0946 83.4277 43.7253 84.4116C42.7495 84.787 42.214 87.0962 43.577 87.2207C44.7647 87.0517 43.4383 85.5287 44.6356 85.3626C51.0147 84.9661 57.2074 86.2541 63.519 86.7946C64.0826 87.5545 65.9033 87.8088 66.8746 87.5034C65.3448 93.1559 68.6472 97.0016 73.5955 98.1534C81.2575 99.918 87.9236 93.0463 85.9201 85.8987C88.2411 84.7411 90.9109 84.7908 93.4393 85.4005C89.2142 100.99 114.258 100.291 110.346 83.8911C112.949 85.1892 113.514 83.1025 112.149 82.8406Z" fill="#575757"/>
<path d="M-35 0V-8H-43V0H-35ZM169 0H177V-8H169V0ZM169 276V284H177V276H169ZM-35 276H-43V284H-35V276ZM-35 8H169V-8H-35V8ZM161 0V276H177V0H161ZM169 268H-35V284H169V268ZM-27 276V0H-43V276H-27Z" fill="white"/>
</g>
</svg>
