<svg width="147" height="147" viewBox="0 0 147 147" fill="none" xmlns="http://www.w3.org/2000/svg">
<mask id="mask0_1011_809" style="mask-type:alpha" maskUnits="userSpaceOnUse" x="0" y="0" width="147" height="147">
<circle cx="73.5" cy="73.5" r="73.5" fill="#C4C4C4"/>
</mask>
<g mask="url(#mask0_1011_809)">
<path fill-rule="evenodd" clip-rule="evenodd" d="M61.336 116.724C66.5511 112.751 79.644 110.965 85.2101 114.79C90.7077 118.631 91.307 124.843 93.8688 130.558C96.286 129.418 100.278 131.051 100.978 133.294C101.847 134.352 101.887 137.326 102.486 138.748C128.565 142.901 132.525 163.241 135.664 186.333C139.816 209.765 149.243 233.146 145.151 257.258C145.684 258.03 146.104 258.78 146.493 259.671C147.425 261.257 146.225 263.501 144.346 263.414C141.914 263.201 139.506 262.909 137.063 262.818C130.29 262.583 123.51 262.611 116.735 262.697L115.811 262.709C81.6629 263.134 47.517 263.972 13.3677 264.194C12.1288 264.196 11.5223 263.085 11.6877 261.988C12.0209 259.781 12.3299 257.572 12.6526 255.363C4.57537 257.498 -4.01139 258.035 -12.0658 255.588C-12.6292 255.014 -10.7529 255.325 -10.4553 255.238C-17.8678 250.171 -15.6541 239.496 -14.9975 231.807C-10.9146 205.462 -9.47519 176.313 6.29995 153.833C13.1245 144.658 23.1299 137.395 34.6269 135.76L34.9459 135.717C38.3076 135.268 42.0542 135.124 44.9934 133.294C48.2991 130.654 49.7078 125.776 53.1856 125.73C54.334 125.715 55.8962 127.169 57.5773 128.155C57.7028 125.985 58.8722 124.153 59.1304 122.47L59.1513 122.326C59.4207 120.364 59.0517 118.598 61.336 116.724ZM117.383 187.029C110.054 181.935 91.1215 184.495 90.6881 184.78C89.7338 185.408 89.3229 185.463 88.8067 186.279C88.2972 186.346 87.788 186.417 87.2793 186.489C86.2586 186.822 87.015 188.078 88.1939 187.63C87.4848 190.689 89.5715 192.865 90.4022 195.889C90.672 196.871 90.412 198.637 90.4022 199.64C90.4828 200.92 91.8966 202.431 91.661 203.714C90.8233 208.277 86.2772 212.728 88.1939 217.153C89.4636 219.652 93.2824 220.927 95.8214 221.776C101.082 223.796 110.247 221.7 113.304 217.153C114.934 214.728 116.823 208.61 117.795 206.712L118.01 203.702C118.542 196.218 119.014 188.163 117.383 187.029Z" fill="white"/>
<path fill-rule="evenodd" clip-rule="evenodd" d="M51.9105 125.287C52.4164 124.839 53.1652 125.402 52.8436 126.008C52.1211 127.369 51.38 128.658 50.4102 129.861C49.8223 130.591 49.1925 131.281 48.5543 131.963C50.1922 133.38 51.5969 135.14 52.9235 136.79C54.6198 138.899 56.2235 141.098 58.1276 143.028C60.0055 144.932 62.082 146.263 64.5926 147.15L65.0997 147.326C67.6219 148.212 70.3175 149.408 71.7392 151.797C72.0195 152.268 71.455 152.85 70.9805 152.556C68.5102 151.026 65.6076 150.718 62.9186 149.707C60.321 148.731 58.0567 147.228 56.0559 145.309C54.0586 143.394 52.3816 141.215 50.6323 139.082C48.9024 136.973 47.0399 135.171 44.9938 133.387C41.8363 135.512 38.232 136.437 34.5672 137.345L34.1671 137.444C30.4979 138.353 26.8482 139.408 23.4058 140.991C20.3707 142.386 17.3855 144.052 14.9133 146.322C12.2889 148.732 10.2464 151.809 8.37687 154.818C4.19504 161.551 1.25504 168.927 -1.3332 176.393C-4.02517 184.158 -6.27686 192.079 -8.09461 200.094C-9.01912 204.171 -9.76996 208.277 -10.3871 212.412C-10.6841 214.403 -10.948 216.399 -11.1798 218.399C-11.4271 220.535 -11.484 222.732 -12.1389 224.785C-12.4197 225.665 -13.0826 226.031 -13.7462 225.999L-13.881 227.686C-14.0597 229.934 -14.2264 232.183 -14.2826 234.445C-14.376 238.207 -14.3337 241.958 -14.0632 245.711L-14.0249 246.223C-13.8124 248.963 -13.3374 252.041 -11.2782 254.047C-9.14567 256.125 -5.86616 256.778 -2.99186 256.815C3.70257 256.902 10.1467 253.738 16.0706 250.962C22.1716 248.103 28.1059 244.93 33.898 241.488C36.8477 239.735 39.7655 237.924 42.6462 236.06C44.0598 235.145 45.4634 234.215 46.8565 233.27C47.6545 232.728 48.4106 232.135 49.2229 231.654C48.8249 231.283 48.6472 230.701 48.9806 230.192C46.6324 228.153 45.655 224.514 45.5407 221.569C45.4484 219.193 45.7981 216.823 46.074 214.469C46.2132 213.281 46.3852 212.096 46.5637 210.915C46.6343 210.448 46.6881 209.948 46.7705 209.455C40.4298 212.941 33.9113 216.046 27.2202 218.803C23.7905 220.217 20.3169 221.488 16.7952 222.653L16.0815 222.888C12.7447 223.981 9.32815 225.013 5.87863 225.637C5.69419 225.671 5.5444 225.398 5.7413 225.312C9.10299 223.828 12.5811 222.576 15.9933 221.209L16.554 220.981V220.981C16.4895 220.977 16.4228 220.968 16.3531 220.952C14.3519 220.469 12.3664 219.724 10.4038 219.097C8.58222 218.515 6.53567 218.15 4.83307 217.272C4.70208 217.204 4.77539 217.022 4.903 217.013C6.81666 216.88 8.89405 217.438 10.7703 217.767L11.4752 217.89C12.6559 218.098 13.8629 218.322 15.0379 218.614C15.0804 218.221 15.3003 217.825 15.6132 217.593C19.0562 215.042 18.7066 209.891 19.0748 206.092L19.3479 203.271C19.8282 198.335 20.3363 193.399 21.1083 188.5C21.1495 188.239 21.5541 188.314 21.5557 188.561C21.5956 194.634 21.1373 200.679 20.9076 206.742L20.872 207.737C20.745 211.479 20.6455 215.364 18.29 218.243C18.6193 218.05 19.0647 218.05 19.3315 218.368C19.6594 218.758 19.8487 219.196 19.8428 219.626C21.9713 218.734 24.0905 217.818 26.1994 216.883C32.9796 213.878 39.6176 210.515 46.0801 206.877C46.7756 206.485 47.4367 206.793 47.7806 207.309L47.8302 207.302C47.8385 207.301 47.8469 207.3 47.8556 207.3L47.9048 207.298C47.9067 207.298 47.9086 207.298 47.9103 207.298C48.82 206.798 50.0593 207.154 50.84 207.883C50.863 207.905 50.8826 207.929 50.9031 207.952C51.8914 207.508 52.8143 206.909 53.6517 206.15C55.3655 204.596 56.8171 202.675 58.0826 200.748C60.4131 197.199 62.3927 193.253 65.5408 190.332C68.0986 187.959 71.2698 186.481 74.5966 185.554C74.5826 185.457 74.6198 185.353 74.687 185.284C74.8579 185.109 74.9798 185.048 75.2006 185.155C75.2181 185.163 75.2287 185.175 75.2359 185.188L75.5605 184.633C75.7377 184.332 75.9197 184.028 75.9827 183.949C76.3605 183.473 76.7492 183.001 77.1438 182.539C77.8129 181.756 78.5754 180.984 79.4583 180.441C81.3914 179.253 83.4235 179.925 85.4109 180.575C86.6118 180.967 87.8086 181.372 89.0074 181.771L89.131 181.811C90.0249 182.098 91.0708 182.35 91.4705 183.297C91.6288 183.672 91.6533 184.061 91.5795 184.439C100.069 182.279 109.498 183.271 117.783 185.806C118.101 185.904 118.418 186.165 118.485 186.509C119.435 191.379 119.857 196.373 119.428 201.325C119.057 205.601 118.11 209.79 116.326 213.704L116.224 213.925C114.548 217.552 111.89 222.024 107.831 223.161C105.38 223.847 102.669 223.443 100.169 223.317C97.7399 223.194 95.2567 223.177 92.8503 222.795C90.7072 222.454 88.8295 221.493 87.505 219.75C86.3625 218.246 85.7608 216.428 85.2679 214.62C85.0423 214.692 84.8181 214.769 84.5976 214.855C83.6665 215.219 82.8776 215.806 82.1644 216.497C80.6583 217.956 79.49 219.728 77.9141 221.12C76.4876 222.381 74.8621 223.361 73.1186 224.115C69.5056 225.677 65.6297 226.301 61.8081 227.128L61.5415 227.186C58.6645 227.818 55.7279 228.593 53.1884 230.092C53.1388 230.533 52.9379 230.948 52.6159 231.22C53.0638 231.641 53.2535 232.307 52.8599 232.932C51.7605 234.678 49.8668 235.671 48.1667 236.787L48.0561 236.86C46.3837 237.969 44.6967 239.056 42.996 240.121C39.5386 242.287 36.009 244.333 32.4295 246.289C26.6722 249.436 20.7914 252.404 14.8041 255.096C15.1634 256.865 15.0321 258.688 15.3022 260.469L15.3436 260.723C15.459 261.384 15.3032 261.936 14.8482 262.368L14.8 262.412L14.8009 262.406L14.7582 262.446L14.7439 262.458L14.7487 262.454C14.6963 262.502 14.6421 262.547 14.587 262.585L14.5167 262.63V262.63C14.0785 262.896 13.5143 262.893 13.0656 262.658L13.0144 262.63L12.9282 262.581C12.3354 262.239 11.9266 261.394 12.1725 260.723C12.7769 259.073 13.0053 257.311 13.5635 255.65L13.1207 255.848V255.848L12.537 256.103C6.22479 258.833 -0.786828 261.133 -7.66447 259.271C-10.7033 258.449 -13.5436 256.708 -15.0641 253.872C-16.5603 251.081 -16.7718 247.84 -16.8512 244.735C-16.9493 240.903 -16.7439 237.013 -16.2388 233.213C-15.8997 230.663 -15.4896 228.065 -14.8571 225.541C-15.1824 225.254 -15.4216 224.842 -15.4847 224.332C-15.7833 221.921 -15.2608 219.415 -14.9409 217.018C-14.6285 214.676 -14.2833 212.339 -13.8928 210.01C-13.1046 205.306 -12.1888 200.611 -11.1225 195.962C-9.22489 187.687 -6.71905 179.56 -3.70215 171.626L-3.43795 170.935C-0.650171 163.684 2.57765 156.588 7.07229 150.218C9.22236 147.17 11.4952 144.407 14.5332 142.211C17.3794 140.153 20.5898 138.671 23.9029 137.539C27.2196 136.406 30.6286 135.646 34.0979 135.174C37.6212 134.694 41.3401 134.4 44.6268 132.954C44.211 132.209 44.5678 131.202 45.2676 130.739C47.6224 129.183 49.7999 127.158 51.9105 125.287ZM127.292 192.966C127.391 192.816 127.625 192.911 127.582 193.088C126.436 197.782 125.361 202.486 124.659 207.269C123.392 215.903 123.625 224.649 123.729 233.347L123.734 233.796C123.787 238.481 123.861 243.166 124.016 247.849C124.094 250.216 124.249 252.606 124.165 254.974C124.119 256.259 123.776 257.474 123.655 258.743C123.549 259.853 123.644 260.979 123.697 262.091C123.732 262.83 122.642 262.798 122.568 262.091L122.473 261.176C122.35 260.018 122.198 258.867 121.818 257.759C121.362 256.426 121.143 255.117 120.985 253.717C120.743 251.572 120.635 249.406 120.541 247.247L120.477 245.753C120.087 236.727 120.1 227.659 120.733 218.643L120.779 217.999C121.405 209.477 122.492 200.268 127.292 192.966ZM102.879 139.252C102.58 139.129 102.685 138.677 103.016 138.756L103.618 138.899C108.033 139.957 112.367 141.103 116.487 143.071C120.61 145.041 124.101 147.981 126.874 151.596C132.266 158.624 134.506 167.165 136.275 175.697C138.241 185.179 140.03 194.695 142.013 204.173L142.381 205.939C144.216 214.767 145.948 223.6 147.224 232.532L147.316 233.18C148.603 242.366 149.377 251.869 147.973 261.079C147.695 262.901 144.664 262.447 144.783 260.647C145.125 255.443 145.37 250.266 145.133 245.051C144.896 239.834 144.407 234.64 143.678 229.469C143.064 225.117 142.15 220.819 141.34 216.502L141.214 215.82C140.536 212.148 139.837 208.48 139.14 204.812L138.098 199.319C136.537 191.095 134.945 182.863 133.146 174.691L133.039 174.21C131.278 166.347 128.683 158.111 123.402 151.867C118.044 145.531 110.372 142.34 102.879 139.252ZM83.4071 222.651C83.5359 222.363 83.9868 222.395 84.1254 222.651C84.6684 223.653 84.7287 224.932 84.8314 226.064L84.8422 226.18C84.9727 227.561 85.0883 228.947 85.1591 230.332C85.2932 232.961 85.3575 235.586 85.3492 238.219C85.3408 240.916 85.2865 243.611 85.1411 246.305L85.1017 247.026C84.969 249.367 84.7464 251.978 83.6346 254.025C83.2304 254.769 82.1312 254.55 81.8971 253.798C81.1302 251.334 81.524 248.413 81.7207 245.89L81.8735 243.921C82.0247 241.952 82.1689 239.983 82.2833 238.011C82.4401 235.314 82.5694 232.615 82.6938 229.917C82.7342 229.04 82.7779 228.164 82.8241 227.287L82.8952 225.973C82.9558 224.873 82.9507 223.667 83.4071 222.651ZM-2.82136 226.142L-2.48187 225.814C-1.43968 224.794 -0.122682 223.222 1.418 223.32C2.03236 223.359 2.42384 223.869 2.29645 224.474C2.02433 225.766 0.706235 226.437 -0.242569 227.226C-1.28201 228.09 -2.26166 229.014 -3.2394 229.947C-4.10682 230.774 -4.94102 231.624 -5.75521 232.501L-6.05962 232.832C-6.35146 233.15 -8.42973 235.031 -8.20502 235.519L-8.19279 235.54C-8.13025 235.634 -8.23441 235.762 -8.33814 235.73C-9.2356 235.446 -9.17962 234.676 -8.84032 233.897C-8.18835 232.399 -7.04666 231.013 -6.04969 229.734C-5.05541 228.457 -3.97924 227.269 -2.82136 226.142V226.142ZM86.6591 188.574C85.9651 186.933 83.4086 186.968 81.9571 187.066C78.3022 187.313 74.3477 188.238 71.0957 189.947C67.7241 191.718 65.4531 194.557 63.421 197.696L63.3259 197.844C61.3453 200.924 59.4377 204.57 56.3363 206.688C54.7567 207.766 52.9121 208.752 50.9955 209.178C50.8638 209.41 50.6507 209.593 50.3712 209.66L50.2412 209.689C49.6954 209.81 48.8473 209.943 48.1148 209.864C48.1197 210.222 48.1159 210.578 48.125 210.917C48.1507 211.891 48.1617 212.868 48.1617 213.842C48.1622 215.883 48.0525 217.927 48.1377 219.968C48.2131 221.772 48.4679 223.658 49.3341 225.271C49.9693 226.455 50.8079 227.238 51.82 227.986C54.31 226.468 57.1256 225.542 59.9832 224.847C63.4391 224.005 66.9776 223.444 70.355 222.303C71.9805 221.753 73.5432 221.035 74.9591 220.058C76.4619 219.022 77.6097 217.619 78.7907 216.247L78.9753 216.034C80.1805 214.651 81.4956 213.328 83.199 212.579C84.6658 211.933 86.5991 211.818 87.8817 210.818C88.5523 210.296 88.6085 209.537 88.679 208.76C87.8576 208.877 86.9881 208.689 86.1694 208.593L85.7452 208.543C84.9711 208.451 84.2148 208.35 83.4527 208.153C83.3112 208.116 83.3112 207.903 83.4527 207.866C84.3533 207.634 85.2459 207.535 86.1694 207.426L86.3863 207.399C87.2217 207.29 88.0998 207.124 88.9193 207.308C89.0663 206.749 89.2786 206.214 89.5765 205.679C89.9946 204.927 90.7858 204.075 90.8927 203.197C90.9246 202.935 90.8635 202.625 90.74 202.394L90.6974 202.315C90.6454 202.221 90.5839 202.127 90.4938 202.069C90.4839 202.081 90.4628 202.094 90.4169 202.108C89.7863 202.307 89.2362 201.998 88.9442 201.522C87.7047 201.676 86.3519 201.624 85.1895 201.676L84.0143 201.733C82.7585 201.79 81.4456 201.815 80.2655 201.562C80.1007 201.526 80.0509 201.252 80.2159 201.181C81.6667 200.561 83.4265 200.363 84.9797 200.124C85.8472 199.991 86.721 199.889 87.591 199.772C88.1703 199.694 88.7851 199.565 89.3853 199.534C90.8902 197.66 90.0793 194.703 87.985 193.896C87.2221 194.232 86.5362 194.037 85.7027 193.965C84.8707 193.894 84.0366 193.845 83.2013 193.849C81.5274 193.856 79.7536 194.297 78.096 194.107C77.8264 194.076 77.5759 193.717 77.844 193.498C79.1128 192.462 80.9313 192.125 82.5419 191.904L82.8757 191.859C83.4157 191.788 84.0724 191.685 84.7535 191.624C84.9075 191.323 85.1838 191.096 85.599 191.039C85.7224 191.022 85.8464 191.013 85.9702 191.002L85.9683 190.99V190.99C86.9807 190.941 86.9367 189.23 86.6591 188.574ZM17.3488 220.578C17.3309 220.605 17.3113 220.632 17.2905 220.657L17.2583 220.694L17.4248 220.627L17.3488 220.578V220.578ZM104.326 184.907C100.064 184.449 95.7971 184.546 91.5231 184.669C91.1813 185.787 89.9915 186.741 88.8386 186.776C89.7415 188.151 89.8347 190.012 89.2015 191.47C90.5458 192.005 91.704 192.967 92.4071 194.337C93.3821 196.235 93.2545 198.348 92.2909 200.103C93.1134 200.847 93.5986 202.057 93.5501 203.197C93.4958 204.468 92.7384 205.554 92.109 206.607C91.4289 207.745 91.4061 208.747 91.1972 210.022C90.8915 211.888 89.6336 213.019 88.015 213.726L88.1011 214.065C88.5184 215.69 89.0375 217.404 90.2302 218.592C91.7644 220.121 94.1445 220.107 96.1715 220.203L96.2693 220.208C98.1254 220.301 99.9807 220.41 101.836 220.515L103.228 220.593C105.364 220.71 107.416 220.725 109.16 219.312C112.007 217.005 113.959 213.189 115.194 209.81C117.788 202.718 117.819 194.935 116.628 187.549C112.636 186.261 108.495 185.355 104.326 184.907ZM68.888 196.674L68.9193 196.676C69.7967 196.776 70.3994 197.487 70.6141 198.33C70.9259 199.555 70.773 200.663 71.5232 201.769C72.2949 202.907 72.7694 203.817 72.8816 205.223C72.9277 205.801 72.9066 206.378 73.0352 206.944L73.1285 207.34C73.2276 207.763 73.3086 208.17 73.2594 208.624C73.2144 209.038 73.0128 209.361 72.5977 209.494C71.2449 209.927 70.2004 208.929 69.851 207.668C69.5491 206.579 69.9522 205.281 69.5263 204.258C69.2903 203.691 68.8551 203.217 68.6092 202.646C68.3656 202.08 68.2433 201.489 68.2042 200.874C68.13 199.711 69.1585 198.313 68.5847 197.259C68.4625 197.034 68.6009 196.667 68.888 196.674ZM50.9191 184.669C51.8351 184.483 52.8744 184.056 53.7777 184.411C54.2421 184.593 54.4715 185.16 54.0792 185.554C53.3981 186.237 52.4081 186.275 51.4906 186.436L51.4099 186.45C50.325 186.651 49.2382 186.842 48.15 187.022C46.1026 187.361 44.0503 187.661 41.9909 187.916C39.8757 188.178 37.7546 188.411 35.6305 188.587L34.8082 188.654C33.0139 188.798 31.147 188.906 29.3865 188.631C29.1306 188.591 29.1718 188.218 29.3865 188.153C31.3151 187.569 33.4308 187.412 35.4247 187.165C37.5446 186.902 39.6608 186.624 41.7716 186.295C43.879 185.965 45.9837 185.612 48.0805 185.221C49.0282 185.045 49.9745 184.861 50.9191 184.669ZM83.9729 182.794C83.169 182.51 82.2846 182.088 81.4136 182.229C79.9115 182.472 78.5745 183.936 77.3855 184.901L77.9825 184.784C81.0373 184.197 85.0827 183.564 87.647 185.507C87.6536 185.496 87.6587 185.485 87.6661 185.474C87.8731 185.159 88.1129 184.914 88.3747 184.645C88.3997 184.621 88.4239 184.597 88.4477 184.572L88.5889 184.422L88.2659 184.31C87.574 184.065 86.7544 183.749 86.6248 183.703L86.6158 183.7C85.7338 183.401 84.8507 183.106 83.9729 182.794ZM58.8739 118.739C58.7482 117.122 61.2646 117.135 61.3893 118.739C61.6612 122.241 60.8733 125.71 59.1777 128.781C59.1652 128.803 59.1515 128.823 59.1384 128.844C60.199 129.396 61.2716 129.926 62.3681 130.399C63.7707 131.005 65.1997 131.556 66.6542 132.024C67.97 132.448 69.5911 132.615 70.6973 133.496C73.0299 135.355 72.1535 139.211 71.7048 141.711L71.6348 142.105C71.4114 143.391 71.2498 144.711 71.7919 145.946C72.3707 147.264 73.5414 148.242 74.5857 149.186L74.7966 149.377C75.7217 150.22 76.7788 151.245 77.4574 152.388C78.0768 151.107 78.9213 150.06 79.8141 148.881C80.4511 148.04 79.9977 147.762 79.5401 146.941C79.0996 146.15 78.8845 145.307 79.0223 144.404C79.2764 142.738 80.6076 141.535 81.9327 140.63C83.4975 139.563 85.2441 138.772 86.8618 137.779C90.1859 135.738 93.4231 133.405 96.3397 130.814C96.4201 130.743 96.5596 130.837 96.4951 130.934C94.1913 134.44 91.4898 137.469 88.1697 140.041C86.8235 141.083 85.4093 141.948 83.9856 142.857L83.5763 143.12C83.0047 143.49 82.2917 143.986 82.0333 144.616C81.7732 145.25 82.3278 145.729 82.6263 146.255C83.5742 147.923 83.1169 149.48 81.9931 150.895L81.9407 150.96C80.824 152.337 79.9776 153.617 79.5728 155.376C78.7031 159.155 79.9145 163.09 81.1827 166.637L81.2328 166.777C81.9187 168.689 82.6478 170.587 83.2438 172.529L83.4078 173.066C83.9478 174.854 84.39 176.616 83.7842 178.454C83.5783 179.079 82.7262 179.227 82.3723 178.638C81.124 176.564 80.8128 174.068 80.0302 171.788C79.2676 169.565 78.3918 167.383 77.6552 165.151C76.7066 162.278 76.0717 159.185 76.4163 156.171C76.4061 156.153 76.3949 156.137 76.3865 156.118L76.145 155.59C75.4866 154.159 74.8506 152.91 73.6531 151.769C72.4041 150.579 71.0484 149.526 70.0656 148.086C67.9308 144.958 69.2511 141.478 69.5089 138.058L69.5384 137.638C69.5853 136.928 69.6109 135.963 69.1472 135.471C68.6256 134.918 67.4023 134.777 66.7102 134.532C64.9216 133.899 63.159 133.161 61.4803 132.275C59.8823 131.432 58.3343 130.5 56.8931 129.409L56.1626 128.859C55.01 127.989 53.8148 127.039 53.0423 125.854C52.9531 125.718 53.1046 125.498 53.266 125.563C54.5556 126.087 55.7338 126.92 56.9404 127.644C56.9592 127.6 56.9809 127.555 57.0057 127.511C58.4985 124.808 59.1124 121.813 58.8739 118.739ZM100.068 137.257C100.581 135.847 102.923 135.956 102.83 137.631C102.758 138.918 102.212 140.079 101.713 141.247L101.659 141.372C101.144 142.589 100.549 143.732 99.8362 144.848C98.4751 146.98 96.8806 148.959 95.1776 150.827C93.6336 152.52 91.6072 153.556 89.272 153.384C88.2882 153.311 87.295 153.061 86.4328 152.569C85.4088 151.985 84.2967 150.231 82.9902 150.656C82.8639 150.697 82.746 150.512 82.8552 150.424C84.3634 149.209 86.0753 151.093 87.5193 151.547C89.6952 152.231 91.9281 151.475 93.3286 149.715C94.7908 147.878 96.1365 145.821 97.3655 143.82C97.9896 142.804 98.5589 141.75 99.0508 140.664C99.547 139.567 99.6598 138.375 100.068 137.257ZM96.5602 128.583C96.4969 128.388 96.7386 128.203 96.9095 128.314C97.9005 128.959 98.7593 129.812 99.6735 130.56C100.688 131.389 101.709 132.201 102.747 133.001C104.26 134.168 102.505 136.315 101.174 135.041C99.3519 133.298 97.3565 131.019 96.5602 128.583ZM91.1191 121.76C91.5217 120.207 93.903 120.848 93.556 122.383L93.5446 122.429C92.8874 124.965 93.8235 127.546 95.8218 129.19L95.8954 129.25C97.1597 130.262 95.3685 132.031 94.1167 131.029C91.384 128.841 90.2471 125.124 91.1191 121.76Z" fill="#893DFF"/>
<path fill-rule="evenodd" clip-rule="evenodd" d="M111.802 72.3169C111.018 66.0565 108.555 59.4097 105.964 53.5732C100.139 41.2334 86.8019 39.5344 74.8461 36.9902C63.0481 35.2719 50.5547 33.7204 38.9346 37.1487C32.402 38.7497 29.8505 46.5328 30.8815 52.6749C31.4699 56.5022 33.2114 60.1246 34.6964 63.6717C37.648 70.9561 39.5207 78.7547 39.5238 86.6414C39.3212 91.7954 38.594 97.6781 44.5146 99.8612C50.1485 102.664 50.6245 110.261 57.6789 114.572C60.5314 120.352 68.3017 120.861 73.8941 122.202C77.4288 122.879 81.0035 123.377 84.5879 123.699C94.9666 125.029 103.269 122.02 108.702 112.771C112.338 107.142 115.045 100.643 114.377 93.821C113.71 86.6372 112.601 79.491 111.802 72.3169Z" fill="white"/>
<path fill-rule="evenodd" clip-rule="evenodd" d="M74.9338 21.994C75.5262 21.3224 76.4389 21.5527 76.9928 22.0839C77.3535 22.1902 77.7029 22.3483 78.0329 22.5575C78.7787 22.4618 79.5606 22.4618 80.292 22.4886C80.4695 22.3891 80.6596 22.3005 80.8666 22.2244C82.3455 21.6836 83.6552 21.9583 84.7354 22.6824C85.2557 22.19 85.9121 21.881 86.7513 21.9277C87.5002 21.9695 88.0339 22.3221 88.4913 22.7864C88.9474 22.1285 89.6847 21.659 90.6033 21.5937C91.8872 21.5024 93.1214 22.0175 94.1444 22.8149C94.7404 22.131 95.5529 21.7379 96.4584 21.7341C97.0542 21.6259 97.6829 21.6686 98.251 21.8402C99.0758 22.0894 99.8 22.5562 100.377 23.1622C101.289 22.288 102.406 21.659 103.694 21.7508C105.361 21.8712 106.743 23.0973 107.385 24.6063C108.513 25.0584 109.555 25.7032 110.425 26.6226C110.472 26.671 110.516 26.7217 110.562 26.7727C111.031 26.9458 111.473 27.1911 111.862 27.5143C113.093 28.5396 113.368 30.0232 112.96 31.4771C113.017 31.7098 113.066 31.9465 113.11 32.183C114.264 32.3584 115.312 33.0244 115.907 34.1086C116.723 35.5965 116.562 37.5577 115.679 38.9781C115.3 39.5892 114.818 40.104 114.276 40.5542C114.889 41.9449 114.595 43.6044 113.608 44.7292C113.368 45.117 113.072 45.467 112.74 45.7838C113.107 47.2217 112.455 48.7051 111.154 49.4734L111.042 49.7521C111.024 49.7984 111.005 49.8445 110.985 49.8902C110.971 49.9493 110.953 50.0066 110.935 50.0643C110.904 50.5745 110.736 51.0752 110.403 51.5469C109.72 52.5137 108.874 53.1442 108.426 54.2727L108.381 54.3913C108.188 54.9254 107.565 55.3022 107.034 55.1374C109.981 61.1906 111.526 67.9262 112.586 74.5271C113.115 77.8202 113.523 81.1246 113.854 84.4418L114.179 87.745C114.464 90.6812 114.719 93.6271 114.72 96.573C114.724 103.237 112.819 109.647 108.729 114.95C104.86 119.963 99.3863 123.596 93.2025 125.027C86.818 126.502 79.3286 125.921 73.6033 122.544C71.9152 121.551 73.3941 119.162 75.1117 119.961C78.3631 121.475 81.6673 122.599 85.2716 122.85C88.7849 123.097 92.3068 122.658 95.6385 121.508C101.15 119.604 105.841 115.616 108.855 110.649C110.341 108.202 111.416 105.545 111.988 102.738C112.701 99.2397 112.594 95.6236 112.332 92.0804L112.314 91.839C111.796 85.0122 111.114 78.1433 110.011 71.3845C109.036 65.4077 107.537 59.552 105.591 53.8259C104.829 53.1547 103.976 52.5993 103.064 52.1774C96.3821 51.8982 89.6883 51.9798 83.0152 52.441C77.3241 52.8368 71.6606 53.5066 66.0398 54.4827L65.4378 54.5885C64.1934 54.8102 62.8117 54.937 61.6392 55.4381C60.6335 55.8693 60.2258 56.6978 59.9723 57.7163C59.3342 60.2926 59.2371 63.1122 59.1293 65.7541C59.0237 68.3366 59.2624 70.9407 59.0554 73.5147C58.88 75.6684 58.3286 77.8727 56.7335 79.4306C55.899 80.2462 54.8723 80.6922 53.9089 81.3114C53.2857 81.7111 53.0216 82.123 53.1019 82.8627C53.2751 84.4817 54.5786 86.5212 53.1145 87.9077C52.8568 88.1507 52.411 88.1824 52.1575 87.9077C51.5533 87.2506 50.7188 86.7495 50.0026 86.219C49.7026 85.9994 49.9519 85.5724 50.292 85.7244C50.7399 85.9254 51.1962 86.1621 51.6631 86.3692C50.6321 85.5196 49.1659 85.103 47.9448 84.8558C47.33 84.7332 46.6835 84.6972 46.0434 84.7545C45.5702 84.9804 45.0864 85.1899 44.6026 85.3947C43.9878 85.6528 43.3666 85.8871 42.7413 86.1093C40.5716 87.8781 39.5364 90.7548 39.9885 93.5678C40.2357 95.121 40.9519 96.8099 42.3019 97.7166C43.9012 98.7903 46.0434 98.3293 47.7716 99.1263C49.3899 99.8722 50.3744 101.379 51.1117 102.939L51.4191 103.588C52.1035 105.026 52.8069 106.426 53.742 107.734C54.8237 109.25 56.1483 110.611 57.5934 111.78C58.2945 112.346 59.0417 112.854 59.8139 113.318L60.0251 113.443C60.8068 113.902 61.3666 114.339 61.4195 115.309C61.4364 115.647 61.223 115.956 60.9483 116.131C59.7652 116.882 58.5885 115.943 57.604 115.288C56.5413 114.582 55.5251 113.788 54.585 112.921C52.7976 111.277 51.2511 109.324 50.0617 107.204C49.1554 105.589 48.6399 103.317 47.2075 102.066C46.3328 101.303 45.0969 101.297 44.0047 101.157C42.9885 101.026 42.0272 100.815 41.123 100.314C37.4448 98.2704 36.4054 93.3227 37.2779 89.4993C37.4258 88.8545 37.6328 88.2268 37.8885 87.6223C36.5195 87.8506 34.9814 86.4347 35.5371 85.0058C35.5793 84.898 35.6279 84.7968 35.6744 84.693C34.7723 84.0991 34.0603 83.199 33.7223 82.0215C33.549 81.4129 33.5237 80.7978 33.6145 80.2039C33.1772 79.9104 32.8159 79.5065 32.5835 79.0098C31.8568 78.6738 31.2124 78.171 30.8279 77.4524C30.2955 76.4609 30.3631 75.5479 30.7688 74.7257C30.7117 74.6224 30.6568 74.5167 30.604 74.4087C29.1145 73.4642 28.0751 71.8366 28.1934 70.0316C28.2314 69.4335 28.3793 68.8946 28.6075 68.4087C28.5885 68.3474 28.5695 68.2838 28.5526 68.2225C27.3061 67.5884 26.2751 66.5467 25.9075 65.156C25.5399 63.7566 25.973 62.3617 26.8392 61.2881C25.5716 60.3605 24.8089 59.0649 25.2716 57.1055C25.4596 56.3089 25.8378 55.5837 26.349 54.9729C26.3469 54.9541 26.3427 54.9351 26.3385 54.9159L26.2199 54.8238C24.655 53.5885 23.7555 52.0142 24.7159 50.0781C25.1469 49.2075 25.7617 48.6007 26.4843 48.2013L26.5202 48.0871V48.0871C26.0026 46.9775 25.8272 45.7454 26.1843 44.4498C26.4758 43.3827 27.1667 42.5328 28.0497 41.9688C27.9906 41.4909 27.999 40.9817 28.0941 40.4299C28.2526 39.4981 28.7152 38.6844 29.3913 38.1074C29.4166 37.9846 29.4483 37.8643 29.4843 37.7437C29.7124 37.0063 30.1392 36.2052 30.6336 35.6111C31.0413 35.1187 31.4976 34.939 32.0554 34.92C32.0216 34.4658 32.0448 34.0049 32.1378 33.5378C32.423 32.0966 33.3399 30.7416 34.6983 30.1266C35.2561 29.8751 35.8434 29.8013 36.4096 29.8624C36.8913 28.8479 37.8314 28.1126 38.9871 27.9541C39.4371 27.8907 39.8554 27.8947 40.2399 27.952C40.4575 27.8503 40.6835 27.7597 40.9202 27.677C41.0765 27.6221 41.235 27.5714 41.3934 27.5208C41.9279 26.8572 42.6314 26.3265 43.4533 26.0076C44.4019 25.6377 45.3673 25.6755 46.223 25.9862L46.4955 25.9292V25.9292C46.9223 25.1894 47.6026 24.6167 48.6483 24.3567C49.8357 24.0629 51.0547 24.473 51.9885 25.2192C51.9927 25.2192 51.9969 25.2192 52.0033 25.2169C52.4913 24.1242 53.3258 23.3634 54.7265 23.4162C55.599 23.45 56.3871 23.8835 56.9955 24.5007C57.3335 24.4582 57.6716 24.4201 58.0117 24.3823C58.3709 23.9615 58.7702 23.5686 59.2117 23.2156C59.9342 22.6363 60.8744 22.683 61.4068 23.4986C61.523 23.6762 61.6307 23.8558 61.7385 24.0355L62.2265 24.0017V24.0017C62.8011 23.226 63.5849 22.7018 64.6582 22.6598C65.6427 22.6194 66.3441 23.1015 66.8786 23.7755C67.3138 23.7649 67.7511 23.7567 68.1885 23.7501C68.6976 23.1605 69.2976 22.6406 69.9821 22.2094C70.5061 21.8797 71.2793 21.9919 71.704 22.4315C71.9909 22.7304 72.2579 23.0423 72.5061 23.3653C73.1461 22.6475 74.0104 22.1747 74.9338 21.994ZM43.8399 89.1082C44.8265 88.5461 46.1533 89.1547 47.1082 89.6324C48.2723 90.2136 49.4279 91.0907 50.1399 92.1897C51.1096 93.6861 48.83 94.895 47.8096 93.5529C47.1821 92.7265 46.6814 91.8938 45.9209 91.171C45.2258 90.5074 44.2181 90.0635 43.8188 89.1886C43.804 89.159 43.8082 89.1252 43.8399 89.1082ZM44.533 52.7875L44.5514 52.7347C44.832 51.9669 43.6075 51.6359 43.3293 52.3974C42.9076 53.5516 43.3937 54.8064 44.5333 55.3047C44.8491 55.443 45.21 55.395 45.4003 55.0773C45.5602 54.81 45.4861 54.3467 45.173 54.2099C44.5318 53.9294 44.317 53.4344 44.533 52.7875V52.7875ZM33.984 50.6404C34.5969 50.0994 33.6976 49.2052 33.0876 49.7439C32.5185 50.2465 32.0964 50.9292 32.206 51.7143C32.3178 52.5145 32.9209 53.0794 33.5812 53.4787C34.2809 53.902 34.9187 52.806 34.2209 52.3837L34.1425 52.3357C33.8496 52.1537 33.5067 51.9035 33.4571 51.5455C33.4045 51.165 33.7263 50.8681 33.984 50.6404ZM37.4631 41.0934L37.5065 41.0614C38.1648 40.5914 37.5325 39.4911 36.8666 39.9664C36.256 40.4024 35.7663 40.9688 35.7147 41.75C35.6647 42.5092 36.0509 43.1673 36.5558 43.7014C37.1176 44.2955 38.0129 43.3977 37.4522 42.8048C36.9059 42.2271 36.7991 41.5966 37.4631 41.0934V41.0934Z" fill="#893DFF"/>
<path fill-rule="evenodd" clip-rule="evenodd" d="M94.4516 105.137C94.7757 104.573 95.5219 104.051 96.2047 104.131C99.2637 104.49 99.2584 108.2 98.0772 110.366C97.03 112.286 94.8626 113.414 92.6933 113.249C90.4143 113.076 88.4726 111.735 87.618 109.603C87.0528 108.192 86.7917 105.587 88.2951 104.64C88.323 104.622 88.369 104.626 88.3912 104.652C89.1121 105.491 89.1404 106.75 89.7714 107.684C90.3583 108.553 91.2702 109.27 92.3383 109.381C93.1361 109.464 93.9431 109.176 94.2552 108.459C94.424 108.072 94.4048 107.861 94.3413 107.595L94.2836 107.363C94.0838 106.551 93.9941 105.933 94.4516 105.137ZM95.2694 88.8659C96.8647 89.836 99.2956 92.0981 97.5793 94.5031C95.5591 96.6237 92.6505 94.1923 91.2172 93.0927C89.8882 92.2405 88.3949 94.4323 89.628 95.4274C99.9851 103.098 104.188 89.1196 96.0763 87.7253C95.1831 87.5717 94.8514 88.5658 95.2694 88.8659ZM78.4223 82.2137C79.4015 80.744 81.6367 80.9604 82.1761 82.7045C82.4683 83.6492 82.0648 84.4984 82.0857 85.4419C82.1032 86.2389 82.051 87.127 81.8068 87.8989C81.2499 89.659 79.6675 90.9021 77.7955 90.8506C75.9295 90.7992 74.2861 89.6178 73.5046 87.9538C72.7204 86.2835 72.8864 84.5549 73.459 82.8565C73.4864 82.7749 73.5933 82.7354 73.6578 82.804C74.3345 83.5235 74.83 84.2831 75.3426 85.0888L75.8679 85.9145C76.2694 86.5363 76.8529 87.3306 77.6026 87.2808L77.715 87.2697C77.9234 87.2518 77.8915 87.2931 78.0521 87.0091C78.1265 86.8776 78.113 86.6333 78.1489 86.4782L78.1614 86.4257V86.4257L78.1546 86.3975C78.1387 86.3224 78.123 86.1808 78.1102 85.9351L78.1075 85.8809C78.0532 84.7318 77.7285 83.2551 78.4223 82.2137ZM103.244 83.1922C103.069 81.3124 105.711 80.895 106.589 82.2859C107.047 83.0112 107.18 83.9224 107.282 84.7856L107.329 85.1954C107.433 86.082 107.474 87.0043 107.089 87.8313C106.483 89.1339 105.166 89.8225 103.744 89.7134C102.387 89.609 101.148 88.8217 100.496 87.6265C99.9136 86.5601 99.335 84.4778 100.042 83.3655C100.085 83.2981 100.17 83.2894 100.228 83.3414C100.896 83.9347 101.005 85.0168 101.402 85.7897C101.812 86.5869 102.433 87.3638 103.375 87.4849C104.276 87.6007 104.62 87.1085 104.39 86.2494C104.094 85.1402 103.356 84.3857 103.244 83.1922ZM79.1358 71.0382L79.5678 70.8727C81.048 70.3133 83.0802 69.6668 84.2836 70.8708C85.026 71.6133 85.1673 72.7071 84.6374 73.6131C83.9954 74.7107 82.8438 74.7377 81.7317 74.8994C80.4668 75.0833 79.1804 75.4328 78.0028 75.9312C76.6762 76.4928 75.4452 77.1928 74.2391 77.9745C73.0927 78.7174 71.9504 79.9316 70.5782 80.1605C70.5222 80.1698 70.4586 80.1457 70.4441 80.0842C70.1324 78.7422 70.9984 77.4214 71.7712 76.3744C72.7063 75.1067 73.8393 74.0663 75.1057 73.1334C76.3279 72.2328 77.7243 71.582 79.1358 71.0382ZM106.023 75.8098L106.155 75.7867C107.053 75.6372 107.866 75.6716 108.543 76.3828C109.059 76.9253 109.258 77.6285 109.012 78.3458C108.785 79.0075 108.277 79.6798 107.54 79.8185C105.051 80.2868 102.295 80.2095 99.7938 79.8548C98.6496 79.6925 97.495 79.4939 96.3805 79.1806L95.8677 79.0319C94.9373 78.7661 93.872 78.4883 93.1962 77.8037C92.9532 77.5577 93.0933 77.2056 93.384 77.0917C94.5633 76.6296 96.1797 76.8754 97.4372 76.8393C98.9 76.7975 100.365 76.6878 101.821 76.5366C103.244 76.3887 104.62 76.0672 106.023 75.8098Z" fill="#893DFF"/>
<path fill-rule="evenodd" clip-rule="evenodd" d="M76.4495 110.598C78.16 106.589 81.8932 103.643 86.1914 102.566C89.3478 101.777 92.6603 101.802 95.8779 102.115C97.5637 102.278 99.3718 102.411 100.961 103.038C102.317 103.573 103.423 104.584 104.254 105.771C105.244 107.178 105.917 108.788 106.389 110.438C106.456 110.673 106.519 110.909 106.578 111.147C106.373 112.392 105.936 113.452 104.784 114.235C103.659 114.999 102.316 115.312 100.978 115.423C100.847 115.36 100.72 115.295 100.604 115.229C98.5188 114.034 97.0512 111.212 94.4193 111.594C92.0706 111.935 90.5245 114.892 89.1278 116.625C84.6443 117.148 80.1642 115.8 76.5162 113.236C76.331 112.358 76.3202 111.472 76.4495 110.598M109.626 107.557C109.267 106.55 108.815 105.575 108.28 104.656C106.51 101.618 103.792 99.1972 100.566 97.8135C92.9346 94.5447 83.0604 96.8489 76.8975 102.21C74.7922 104.043 72.6636 106.736 72.0199 109.633C71.8277 109.671 71.6462 109.771 71.4968 109.912C67.0442 107.107 62.4588 104.409 58.8707 100.522C56.265 97.6971 54.4526 94.3545 53.3429 90.6813C53.2521 90.3789 52.7648 90.4232 52.7795 90.7577C52.7837 90.8359 52.788 90.914 52.7922 90.9923C52.7458 90.8484 52.5263 90.9225 52.5095 91.0621C51.9124 95.5243 51.1655 100.255 51.8533 104.741C52.2647 107.417 53.48 109.376 55.1046 111.492C56.8452 113.76 58.8159 115.869 60.8308 117.892C62.1094 119.176 63.4449 120.657 65.0104 121.599C66.8313 122.693 68.8968 123.524 70.84 124.368C72.817 125.23 74.8235 126.025 76.8679 126.715C80.9547 128.099 85.1787 129.055 89.4765 129.474C92.9177 129.808 96.8505 130.172 100.148 128.877C102.676 127.885 104.716 126.091 106.334 123.933C108.096 121.582 109.489 118.905 110.259 116.081C111.059 113.148 109.794 108.029 109.626 107.557" fill="#893DFF"/>
</g>
</svg>
