<svg width="147" height="147" viewBox="0 0 147 147" fill="none" xmlns="http://www.w3.org/2000/svg">
<mask id="mask0_1011_808" style="mask-type:alpha" maskUnits="userSpaceOnUse" x="0" y="0" width="147" height="147">
<circle cx="73.5" cy="73.5" r="73.5" fill="#C4C4C4"/>
</mask>
<g mask="url(#mask0_1011_808)">
<path fill-rule="evenodd" clip-rule="evenodd" d="M-4.84098 266.363C-3.72696 268.057 -1.5357 267.796 -0.594921 266.485C10.1176 268.982 21.0999 267.998 31.9614 267.386C62.5684 266.14 93.3479 270.045 123.831 265.96C127.065 265.313 130.829 265.622 133.474 263.378C137.706 258.417 136.795 250.885 136.121 244.842C130.717 210.78 123.035 176.406 119.203 142.125C118.989 138.859 120.334 134.802 121.54 131.733C121.838 131.161 123.72 130.602 124.697 129.943C127.695 127.79 127.209 123.932 124.61 121.668C116.195 115.735 104.481 117.808 95.554 119.997C93.8433 113.57 91.9203 109.342 88.6631 108.923C82.4636 108.127 67.4249 105.691 62.7926 108.923C60.5764 110.47 59.154 115.918 57.5588 118.572C45.9249 118.365 22.313 102.794 17.4587 120.328C13.5148 120.6 9.60846 124.045 10.3629 128.179C5.24789 132.7 9.28226 139.48 9.21148 145.108C8.53902 157.049 2.08015 167.728 -0.606964 179.263C-6.74915 201.636 -13.7011 242.331 -6.08302 264.169C-6.24696 264.083 -6.60506 264.212 -6.37309 264.394C-5.51048 264.637 -5.3983 265.724 -4.84098 266.363Z" fill="white"/>
<path fill-rule="evenodd" clip-rule="evenodd" d="M128.915 260.673C127.486 249.198 126.492 235.346 126.481 223.775C126.48 222.685 128.17 222.687 128.171 223.775C128.182 235.346 129.176 249.198 130.605 260.673C130.739 261.752 129.047 261.739 128.915 260.673M118.33 189.523C116.122 190.874 113.223 189.937 111.038 189.042C110.043 188.635 110.481 187 111.487 187.412C113.15 188.093 115.581 189.095 117.336 188.146C119.087 187.198 119.166 184.591 119.179 182.871C119.188 181.782 120.877 181.783 120.869 182.871C120.852 185.211 120.539 188.171 118.33 189.523M114.243 242.035C112.016 240.893 110.116 239.331 108.586 237.349C107.921 236.487 109.39 235.646 110.045 236.496C111.392 238.24 113.146 239.574 115.097 240.575C116.066 241.072 115.21 242.53 114.243 242.035M103.537 183.025C99.7154 198.346 97.1506 213.942 95.8936 229.683C95.638 232.879 95.4584 236.07 95.357 239.264C95.2556 240.096 95.1584 240.931 95.0675 241.766C94.7232 244.923 94.4591 248.132 94.4823 251.311C94.4929 252.737 94.5373 254.157 94.6344 255.58C94.4654 255.104 94.3091 254.627 94.157 254.151C93.8464 253.177 93.6415 252.166 93.3246 251.198C93.0626 250.397 92.7246 249.63 92.4098 248.855V248.852C92.5049 245.676 92.2894 242.47 92.1795 239.308C92.038 235.212 91.8626 231.12 91.7718 227.022C91.5901 218.826 91.6809 210.623 91.9767 202.432C92.5704 185.925 94.0704 169.497 95.583 153.058C96.0035 148.486 96.4556 143.917 96.7682 139.337C97.083 134.709 97.2098 130.072 97.2457 125.43C97.2478 125.096 96.7408 125.008 96.6478 125.331C96.5654 124.23 96.4197 123.131 96.1767 122.068C99.8211 124.393 103.664 126.402 107.431 128.516C109.415 129.63 111.39 130.763 113.435 131.76C114.559 132.31 115.694 132.815 116.851 133.293C118.051 133.787 119.199 134.468 120.519 134.123C120.633 134.094 120.741 134.051 120.844 133.996C120.694 134.281 120.544 134.565 120.401 134.852C119.902 135.844 119.427 136.839 118.966 137.843C118.844 137.934 118.736 138.059 118.651 138.221C118.427 138.659 118.21 139.1 117.999 139.548C117.956 139.508 117.914 139.468 117.872 139.428C117.694 139.261 117.449 139.512 117.606 139.694C117.677 139.777 117.747 139.857 117.817 139.939C116.439 142.905 115.32 146.022 114.166 149.066C112.749 152.806 111.405 156.575 110.139 160.369C107.644 167.831 105.443 175.391 103.537 183.025M48.8971 238.626C41.8533 242.4 35.271 246.91 28.9402 251.774C28.0771 252.437 27.2363 250.967 28.0871 250.314C34.4179 245.45 41.0004 240.94 48.0442 237.166C49.0038 236.652 49.8565 238.112 48.8971 238.626M25.1063 194.429C24.7402 194.402 24.3844 194.189 24.2914 193.809C23.7208 191.472 23.274 188.926 23.8047 186.542C24.0413 185.478 25.6704 185.931 25.4344 186.991C25.0159 188.871 25.3484 190.903 25.783 192.777C31.9264 193.046 37.9875 190.841 43.8652 189.36C44.9221 189.094 45.3686 190.725 44.3145 190.99C38.0796 192.561 31.6305 194.912 25.1063 194.429M147.409 256.77C147.415 256.755 147.422 256.738 147.426 256.723C147.787 255.628 147.796 254.356 147.836 253.209C147.906 251.167 147.832 249.121 147.648 247.086C147.259 242.802 146.422 238.587 145.423 234.409C143.444 226.132 140.646 218.08 139.127 209.691C136.146 193.225 136.854 176.08 131.004 160.198C128.572 153.595 125.099 147.248 120.38 142.002C120.724 140.954 121.06 139.904 121.387 138.849C121.96 137.014 122.545 135.121 122.898 133.231C122.906 133.18 122.917 133.128 122.923 133.075C124.932 132.208 126.76 130.575 127.072 128.402C127.208 127.463 127.051 126.424 126.646 125.517C127.474 124.752 128.006 123.758 127.88 122.427C127.643 119.92 124.717 119.276 122.68 118.785C120.365 118.23 117.963 118.075 115.594 118.337C114.399 118.468 113.215 118.688 112.06 119.018C111.056 119.303 109.964 119.597 109.159 120.286C109.064 120.366 109.142 120.523 109.256 120.523C110.885 120.517 112.508 119.918 114.153 119.84C115.877 119.76 117.597 119.901 119.287 120.256C120.939 120.603 122.587 121.11 124.089 121.894C124.512 122.116 125.131 122.266 124.634 122.714C124.271 123.042 123.557 123.07 123.09 123.118C122.057 123.226 121.165 123.83 121.034 124.934C120.918 125.908 121.499 127.011 122.534 127.231C122.592 127.244 122.644 127.258 122.691 127.277C122.718 127.33 122.761 127.375 122.756 127.303C122.756 127.303 122.758 127.301 122.758 127.303C122.784 127.457 122.792 127.518 122.792 127.529C122.786 127.516 122.775 127.463 122.767 127.421C122.773 127.459 122.786 127.521 122.803 127.611C122.78 127.512 122.799 127.755 122.78 127.793C122.23 128.808 120.606 129.093 119.659 129.53C119.475 129.615 119.317 129.714 119.182 129.826C118.958 129.748 118.73 129.67 118.499 129.583C117.365 129.158 116.232 128.746 115.083 128.364C112.865 127.622 110.619 126.96 108.401 126.217C104.201 124.809 100.14 123.031 96.0183 121.421C95.8873 120.935 95.7352 120.459 95.5556 119.996C95.5197 119.899 95.3464 119.868 95.3274 119.996C95.264 120.406 95.2133 120.819 95.1711 121.233C95.1542 121.271 95.15 121.313 95.1584 121.353C94.9197 123.763 94.9831 126.229 94.8605 128.636C94.7084 131.638 94.2838 134.618 94.1633 137.621V137.676C93.7197 140.24 93.3183 142.812 92.9549 145.392C92.5471 145.266 92.0802 145.291 91.6028 145.547C88.2267 147.349 84.4323 148.353 80.6147 148.577C78.6922 148.689 76.7887 148.626 74.8767 148.404C73.6197 148.26 72.3816 147.998 71.1415 147.749C71.7943 145.012 72.4957 142.288 73.288 139.591C73.9408 137.374 74.6676 135.167 75.5654 133.035C76.4718 130.881 77.6 128.825 78.65 126.736C79.1338 125.771 78.5633 124.293 77.3063 124.395C76.9345 124.424 76.5626 124.447 76.1887 124.464C72.5507 124.638 68.7669 124.232 65.1753 123.871C61.0873 123.456 56.9443 123.027 52.8922 122.353C52.5922 122.304 52.4697 122.712 52.7654 122.812C54.688 123.458 56.5873 124.189 58.5584 124.674C60.5866 125.175 62.6274 125.631 64.6852 125.988C66.6563 126.329 68.6359 126.614 70.6218 126.855C71.9169 127.013 73.2267 127.094 74.5302 127.199C72.7746 130.006 71.564 133.172 70.5098 136.289C69.1556 140.292 68.1605 144.412 67.1866 148.522C65.1035 157.334 63.3859 166.234 62.0422 175.188C61.0788 181.609 60.2992 188.055 59.714 194.519C59.5408 192.555 59.3295 190.598 59.0908 188.643C58.2922 182.152 57.126 175.704 55.5669 169.353C55.7063 169.108 55.7718 168.814 55.7253 168.529C55.4443 166.783 54.7049 165.263 54.0563 163.645C53.4119 161.383 52.7169 159.136 51.969 156.907C51.1197 153.87 50.1669 150.879 48.9478 147.958C48.0162 145.733 46.9535 143.564 45.7704 141.461C44.357 138.521 42.8042 135.645 41.0992 132.895C41.0105 132.639 40.8669 132.401 40.6619 132.2C40.3514 131.709 40.0366 131.226 39.7154 130.746C39.5063 130.433 38.9063 130.623 39.0647 131.02C39.1387 131.207 39.2126 131.392 39.2887 131.577C32.3443 129.839 25.5352 132.496 18.9204 134.457C17.2514 134.954 15.5654 135.402 13.8542 135.725C12.5084 135.979 10.9408 136.287 9.59925 136.008C8.70136 135.822 8.30417 135.414 8.7415 134.455C9.19361 133.462 10.4274 132.809 11.4985 132.369C11.9021 132.282 12.2992 132.128 12.6816 131.895C13.5732 131.354 13.964 130.226 13.5436 129.264C13.1612 128.396 12.0457 127.647 11.0591 128.045C10.9176 128.102 10.7781 128.157 10.6387 128.212C10.6239 128.191 10.607 128.161 10.5922 128.119C10.4507 127.732 10.3894 128.195 10.4507 127.641C10.5521 126.736 11.5091 125.914 12.164 125.396C13.7929 124.105 16.1464 123.15 18.2485 123.638C18.407 123.674 18.5654 123.718 18.7218 123.773C20.8873 124.524 21.9415 121.404 20.2112 120.242C20.1056 120.172 19.9725 120.083 19.8267 119.98C19.1063 119.479 18.0521 118.635 18.3394 117.875C18.6943 116.93 20.788 116.387 21.5802 116.065C24.445 114.903 27.5401 114.244 30.6288 114.108C33.7366 113.973 36.8845 114.315 39.8823 115.154C41.3528 115.564 42.8633 116.188 44.2535 116.818C45.5021 117.382 48.219 118.128 48.3922 119.709C48.4302 120.058 48.9267 120.176 49.0345 119.796C49.8859 116.761 46.5816 114.801 44.4014 113.548C42.9711 112.724 41.3485 112.21 39.7788 111.705C38.2746 111.219 36.7387 110.862 35.1711 110.646C31.8056 110.186 28.3999 110.245 25.0619 110.891C22.0218 111.481 18.6394 112.487 16.1823 114.444C14.6739 115.645 13.9915 117.555 14.5978 119.419C14.619 119.481 14.6401 119.544 14.6612 119.605C11.9464 120.092 9.37741 121.647 7.65981 123.816C6.24854 125.597 5.5091 128.076 6.77248 130.15C6.71967 130.188 6.66685 130.228 6.61615 130.27C5.41192 131.234 4.51615 132.633 4.24995 134.163C3.72812 137.181 5.55136 139.293 8.10136 140.1C7.46967 140.717 6.86333 141.372 6.26967 142.028C4.94079 143.497 3.67107 145.096 2.55136 146.728C0.282342 150.034 -1.65709 153.633 -3.35357 157.26C-6.8416 164.708 -9.0409 172.724 -10.2071 180.853C-10.7944 184.949 -11.1874 189.066 -11.3374 193.2C-11.5106 197.913 -11.3353 202.628 -11.4261 207.343C-11.5148 211.875 -12.0155 216.296 -13.0275 220.714C-13.9972 224.938 -15.2902 229.079 -16.4606 233.249C-17.781 237.945 -19.2346 242.62 -19.9317 247.462C-20.2846 249.926 -20.5381 252.397 -20.3416 254.889C-20.143 257.427 -19.2219 259.598 -18.3726 261.958C-18.1571 262.561 -17.5001 262.804 -16.974 262.675C-16.8557 263.806 -16.4289 264.909 -15.793 265.864C-14.443 267.889 -12.3641 269.18 -9.98315 269.649C-7.30005 270.176 -4.53456 270.051 -1.81766 269.954C1.12953 269.848 4.07882 269.753 7.026 269.63C10.1116 269.503 13.1969 269.372 16.2825 269.24C16.1804 266.077 16.0588 262.914 15.9212 259.752C15.1773 242.657 14.0059 225.552 13.9748 208.435C13.915 208.399 13.8563 208.358 13.8001 208.303C12.411 206.96 10.7057 206.078 9.1034 205.027C8.19664 204.432 9.04424 202.968 9.9565 203.567C11.3073 204.453 12.715 205.241 13.9809 206.234C13.9883 204.452 14.004 202.67 14.0392 200.888C14.0608 199.8 15.7509 199.8 15.7294 200.888C15.6233 206.259 15.6588 211.631 15.7803 217.001C16.1735 234.403 17.4094 251.773 17.9722 269.168C26.2539 268.814 34.536 268.457 42.819 268.155C49.5563 267.91 56.2936 267.665 63.0309 267.42C64.4443 267.369 65.2387 266.358 65.4119 265.038C65.7288 262.607 65.133 260.094 63.7852 258.05C63.6457 257.839 63.4809 257.651 63.2971 257.49C63.3288 256.034 63.388 254.576 63.3056 253.12C63.1831 250.896 62.9992 248.673 62.8387 246.452C62.5133 242.003 62.2619 237.545 62.1626 233.086C61.9598 224.167 62.1077 215.239 62.6126 206.333C63.6246 188.539 65.9802 170.86 69.8359 153.455C70.1169 152.187 70.4 150.919 70.6936 149.653C73.6915 151.211 77.338 151.771 80.6147 151.792C84.7218 151.817 88.738 150.872 92.4478 149.155C92.4225 149.347 92.3971 149.537 92.3739 149.729C91.3387 157.972 90.4661 166.231 89.7056 174.502C88.1887 190.989 87.2591 207.544 87.388 224.105C87.4239 228.694 87.5992 233.268 87.8169 237.85C88.0387 242.51 88.3788 247.434 89.676 251.93C89.8197 252.426 90.1387 252.712 90.5063 252.815C90.5253 253.471 90.5676 254.128 90.614 254.775C90.764 256.877 91.1929 261.246 92.1098 263.152C93.0035 265.012 94.4929 266.488 96.3922 267.299C98.8049 268.328 101.414 268.033 103.962 267.868C115.041 267.145 126.111 266.177 137.184 265.327C138.726 265.209 140.268 265.093 141.808 264.972C143.18 264.867 144.597 264.773 145.814 264.061C147.198 263.252 148.277 259.276 147.8 257.632C147.713 257.332 147.582 257.036 147.409 256.77" fill="#893DFF"/>
<path fill-rule="evenodd" clip-rule="evenodd" d="M108.856 59.6404C101.423 40.0784 88.0252 25.7559 65.4382 34.7518C64.7903 34.3105 63.9448 34.1921 63.1345 34.7089C50.8305 42.4377 41.9702 54.829 38.1304 68.8016C35.7936 69.246 33.5229 70.0213 31.4947 71.2926C27.0868 74.0555 24.1213 78.452 21.3414 82.734C20.5054 84.0213 21.2795 86.1526 22.8505 86.4449C23.5329 86.5721 24.2091 86.6478 24.8816 86.6677C24.7179 87.2622 24.5024 87.8366 24.2279 88.3635C23.2343 90.2708 25.1115 92.2957 26.8707 91.7743C27.0659 91.8777 27.2704 91.9626 27.4823 92.0264C27.5064 93.1069 28.0614 94.5531 29.1598 94.7715C30.9361 95.1527 33.2968 93.7927 32.8777 91.8052C33.4143 91.8996 33.949 91.9115 34.4702 91.846C34.5285 92.8809 34.5103 93.9609 34.6531 94.9156C35.12 99.4148 39.6137 102.437 43.8991 101.068C44.1619 102.47 44.4705 104.44 45.8507 105.201C47.4644 109.729 50.2508 114.897 54.8146 116.961C54.4084 118.002 54.6287 119.269 55.8524 119.966C64.2061 124.73 74.2329 126.342 83.6774 124.571C87.4519 124.346 91.1294 123.493 94.6593 121.675C97.2333 120.349 99.5997 118.666 101.91 116.931C104.221 115.195 106.692 113.504 108.537 111.25C110.541 108.802 111.473 105.922 112.079 102.856C114.852 88.9412 113.894 75.278 108.856 62.0225C102.619 45.6143 115.091 76.0494 108.856 59.6404Z" fill="white"/>
<path fill-rule="evenodd" clip-rule="evenodd" d="M72.9201 30.9397C76.724 30.6711 80.5971 31.3126 84.2195 32.46C89.9969 34.2894 95.3026 37.518 99.6617 41.7211C104.154 46.0528 107.477 51.3934 109.497 57.292C111.934 64.4056 112.298 72.0011 112.984 79.4269C113.33 83.1787 113.901 86.8733 114.495 90.5888L114.589 91.1756C115.168 94.7956 115.495 98.4569 114.694 102.071C113.362 108.078 109.371 113.177 104.633 116.945C94.9008 124.685 79.75 129.404 68.4182 122.282C66.6651 121.18 68.3263 118.362 70.0378 119.51C71.2422 120.318 72.5183 121.027 73.8867 121.516C79.604 123.56 85.8831 122.832 91.5336 120.931C97.102 119.057 102.445 115.891 106.554 111.667C110.87 107.23 113.261 101.749 112.916 95.5121C112.71 91.8014 111.865 88.1595 111.396 84.479C110.98 81.2193 110.731 77.9419 110.444 74.669L110.339 73.4917C109.73 66.8235 108.856 59.9723 105.823 53.9194C103.272 48.8272 99.5364 44.2969 95.0449 40.7982C90.3425 37.1353 84.7259 34.5735 78.8328 33.618C71.9028 32.4944 65.269 34.5376 59.4881 38.341C54.3611 41.7142 49.9532 46.2218 46.5733 51.3365C44.9343 53.8165 43.5381 56.4649 42.3324 59.181C41.1962 61.74 40.4128 64.4221 39.499 67.0597C40.2509 67.0373 41.0153 67.0663 41.7915 67.1521C45.7726 67.5934 49.4819 69.6574 51.8432 72.912C54.7289 76.889 53.9489 81.7708 55.076 86.2937C55.1633 86.6447 55.015 86.9884 54.7143 87.1826C53.0054 88.2875 50.7182 88.3243 49.0642 87.0801C47.6286 86.0003 46.9547 84.0481 47.5359 82.3422C47.6117 82.1199 47.9354 82.1592 47.9445 82.3976C48.0537 85.3005 50.7459 87.536 53.3848 86.1546C52.2528 82.2545 52.8486 77.8988 50.5333 74.376C46.4354 68.1412 37.9551 67.8836 31.9988 71.3983C28.8642 73.2478 26.383 76.0287 24.5354 79.1393L24.0031 80.0423C23.2949 81.2488 22.5449 82.6137 22.398 83.9424C22.3133 84.7092 22.5962 85.4296 23.4755 85.0433C24.1868 84.7309 24.7376 84.002 25.1601 83.3753C25.8807 82.3065 27.5367 83.2299 26.9414 84.368L26.9212 84.4052C26.055 85.9406 25.5216 87.6324 25.4237 89.3953L25.3988 89.8834C25.3825 90.2392 25.3707 90.7448 25.446 90.7633C25.5362 90.7855 26.163 90.0616 26.2674 89.9614C26.7702 89.4783 27.288 89.0835 27.9879 88.9548C28.908 88.7861 29.8364 89.9249 29.0377 90.6715L29.0043 90.7016C28.2915 91.3215 28.3232 92.5576 29.1106 93.1374C30.2219 93.9556 31.59 92.6201 31.7513 91.5206L31.7567 91.48C31.8993 90.292 33.5487 90.2499 33.6383 91.48C33.8329 94.1493 30.656 96.3867 28.2389 95.04C27.2831 94.5078 26.6755 93.5332 26.4852 92.4887C26.1801 92.65 25.851 92.7618 25.503 92.7927C24.3702 92.8931 23.5648 92.0963 23.3817 91.0268C23.1683 89.7809 23.2948 88.4469 23.6229 87.153C23.0077 87.3014 22.3606 87.2447 21.7101 86.8692C19.7421 85.7332 20.3073 83.2062 21.0503 81.5002C24.2225 74.2184 30.7946 67.6109 38.9369 67.0863C38.9814 65.8015 39.1555 64.5869 39.4403 63.3004C42.2252 50.7168 51.2472 39.0647 62.9926 33.6186C66.1312 32.1632 69.4597 31.1843 72.9201 30.9397ZM42.1186 81.2064L42.2303 81.1812C43.4992 80.9077 46.8386 80.5864 46.4361 82.7226C46.4171 82.823 46.2711 82.8108 46.2451 82.7226C45.8509 81.3795 43.1729 82.4536 42.391 82.777C41.3131 83.2225 40.2498 83.8798 39.3696 84.6438C37.4427 86.3169 36.151 88.6747 35.9545 91.2354C35.7597 93.7756 36.4964 96.5194 38.3281 98.3569C39.226 99.2574 40.3721 99.8689 41.6596 99.9139C42.8162 99.954 44.0942 99.0532 45.1615 99.5808C45.3719 99.6848 45.5386 99.9703 45.5196 100.205C45.4837 100.65 45.2847 100.997 44.9885 101.265C46.7754 104.523 48.2378 107.971 50.5172 110.933C51.661 112.419 52.9571 113.796 54.4248 114.967C55.1224 115.524 55.8808 116.013 56.6629 116.443C57.5794 116.947 58.3725 117.262 59.0266 118.116C59.5843 118.844 59.0264 120.252 58.1069 120.377C55.9417 120.672 53.8374 118.921 52.2479 117.609C50.6598 116.298 49.2872 114.682 48.1529 112.966C45.9747 109.672 44.4846 105.785 43.8888 101.854C43.1972 102.073 42.4184 102.14 41.8326 102.141C40.2739 102.145 38.7855 101.584 37.5605 100.636C33.0762 97.1663 32.5778 90.0423 35.7424 85.5499C37.2567 83.4002 39.5579 81.8119 42.1186 81.2064ZM42.1467 89.4689C43.1866 89.3776 44.2256 89.5418 45.2029 89.8965L45.6058 90.0426C46.4569 90.3539 47.3628 90.7199 47.9775 91.3582C48.9166 92.3338 47.9815 94.0242 46.6438 93.6503C45.1647 93.2369 43.9626 91.9908 42.4839 91.4681C41.1622 91.001 39.6652 91.0671 38.4922 91.8716C38.3374 91.9779 38.1337 91.7682 38.2349 91.6139C39.1322 90.2471 40.5487 89.609 42.1467 89.4689Z" fill="#893DFF"/>
<path fill-rule="evenodd" clip-rule="evenodd" d="M84.8334 99.8398C86.0152 97.8949 88.5343 102.659 88.802 103.478C89.0391 104.204 89.1955 104.947 89.2751 105.699C90.1913 105.905 91.1428 105.905 92.0816 105.725C93.477 105.457 94.3299 104.707 95.5427 104.063C96.3803 103.617 97.4359 104.139 97.8715 104.878C98.3839 105.747 98.0575 106.649 97.3836 107.297C96.1056 108.526 93.5912 108.808 91.923 108.482C90.9673 108.295 90.0913 107.937 89.3178 107.415C89.3126 107.513 89.3092 107.61 89.3015 107.707L89.2868 107.875C89.1586 109.238 88.7842 110.952 87.7261 111.839C85.9907 113.293 83.8489 110.496 85.5352 109.043L85.5875 108.999C86.6356 108.152 86.8643 105.879 86.8078 104.627C86.7708 103.81 86.622 102.982 86.3641 102.204L86.3111 102.049C86.2334 101.829 85.387 99.7435 85.0811 100.009L85.0665 100.024C84.9403 100.175 84.7365 99.9993 84.8334 99.8398ZM94.2695 88.8654C95.8649 89.8355 98.2957 92.0976 96.5795 94.5026C94.5593 96.6232 91.6507 94.1918 90.2174 93.0922C88.8883 92.24 87.3951 94.4318 88.6282 95.4269C98.9853 103.098 103.188 89.1191 95.0764 87.7248C94.1833 87.5712 93.8515 88.5653 94.2695 88.8654ZM77.2338 79.8985C78.793 79.6218 80.3902 80.0097 81.6804 80.9223L81.7782 80.9926C83.0212 81.902 84.4119 83.4989 83.6986 85.0664C83.4123 85.6958 82.555 85.7945 82.011 85.5092C81.1053 85.0341 80.9411 83.8651 80.1331 83.2182C79.4703 82.6879 78.5779 82.3662 77.7244 82.4438C75.7192 82.626 74.4859 84.6044 73.8631 86.3094C73.7834 86.5275 73.4633 86.6122 73.3383 86.3781C71.8697 83.6322 74.4692 80.3892 77.2338 79.8985ZM102.208 78.8622C105.195 78.616 108.69 81.7136 107.904 84.8673C107.527 86.3806 105.283 86.3373 104.884 84.8673C104.665 84.0585 104.687 83.3429 104.105 82.6712C103.624 82.1166 102.942 81.7945 102.208 81.844C101.399 81.8985 100.653 82.3028 100.086 82.8711C99.5744 83.3843 99.2683 84.1352 98.738 84.5894C98.6075 84.701 98.4327 84.7082 98.3039 84.5894C97.3912 83.7476 97.939 81.9951 98.5177 81.1163C99.3458 79.8588 100.694 78.9872 102.208 78.8622ZM71.5463 74.3051C73.4623 72.6083 76.9438 70.9697 79.5274 71.8048C81.0128 72.2848 81.6603 74.6792 80.0021 75.4381C78.0819 76.3169 75.868 75.9593 73.9136 76.8702C73.0928 77.253 72.3208 77.7313 71.7493 78.4327C71.2991 78.9856 70.8411 79.7131 70.19 80.0318C70.0188 80.1157 69.7871 80.1178 69.65 79.9623C68.2227 78.3471 70.3 75.4085 71.5463 74.3051ZM98.9147 71.7206C100.099 71.3881 101.413 71.3949 102.615 71.6037C103.818 71.8125 105.039 72.3111 106.021 73.0383L106.135 73.1235C107.206 73.9314 108.485 75.107 108.417 76.5383C108.36 77.7335 107.103 78.5419 106.018 77.9155C105.133 77.4046 104.717 76.3813 103.968 75.6999C103.35 75.1375 102.624 74.6941 101.85 74.3834C100.989 74.0382 100.128 73.8765 99.2044 73.8611C98.4934 73.8493 97.7783 74.0826 97.0807 74.1572C97.1382 74.2752 96.5868 74.2202 96.2707 74.1156C96.0366 74.0158 96.0353 73.7197 96.1165 73.5276C96.5189 72.5759 97.9832 71.9818 98.9147 71.7206Z" fill="#893DFF"/>
<path fill-rule="evenodd" clip-rule="evenodd" d="M112.774 97.3935C112.493 96.5519 111.044 96.6253 111.133 97.6159C111.235 98.7476 110.848 100.01 109.764 100.559C108.629 101.135 107.352 100.617 106.66 99.6305C106.058 98.7726 105.643 97.8395 104.885 97.0913C104.181 96.3955 103.325 95.8589 102.388 95.5404C101.658 95.2925 100.901 95.2265 100.167 95.3079C98.3373 94.8943 96.2174 95.835 95.0772 97.2621C95.0037 97.354 94.9355 97.4485 94.8695 97.5438C94.7565 97.3899 94.6382 97.2375 94.5129 97.0873C94.1899 96.7001 93.7889 96.617 93.4268 96.7225C91.3646 95.1883 88.4747 94.985 86.1326 96.3695C84.2561 97.4789 82.7039 99.1139 80.3965 99.2411C78.5688 99.342 76.578 98.2987 76.4491 96.2894C76.3815 95.2403 74.9525 94.3657 74.1508 95.3371C72.4653 97.3796 72.1281 100.093 73.0606 102.562C74.0447 105.168 76.0496 107.004 78.5882 108.083C81.3296 109.249 84.5422 109.654 87.5077 109.562C90.4642 109.47 93.1524 108.333 94.9344 105.913C95.1472 105.625 95.3341 105.331 95.4981 105.034C97.2283 107.238 99.9406 108.165 102.703 108.231C105.593 108.301 109.01 107.793 111.053 105.548C113.022 103.384 113.702 100.165 112.774 97.3935" fill="#893DFF"/>
<path fill-rule="evenodd" clip-rule="evenodd" d="M109.094 92.4656C105.923 93.9932 101.499 91.74 99.3674 89.3799C98.5914 88.5205 97.9927 86.0619 98.2912 84.5026C99.0997 80.2796 102.138 77.7451 105.345 76.8796C109.791 75.6795 114.265 78.7196 113.744 82.307C113.249 85.707 112.5 90.6389 109.094 92.4656M87.5123 84.3536C87.2582 88.9557 83.5637 92.9838 79.1482 94.1773C72.034 96.1632 68.5181 91.1603 66.9256 85.7707C66.7673 85.2351 66.3953 83.6005 67.3935 82.1984C71.3195 76.6832 80.8716 77.6233 85.6424 79.1374C87.0389 80.4734 87.6097 82.4015 87.5123 84.3536M112.538 76.4159C112.536 76.4186 112.534 76.4209 112.532 76.4237C112.515 76.4138 112.499 76.4036 112.483 76.3939C112.501 76.4015 112.521 76.4081 112.538 76.4159M118.491 76.9478C118.077 72.2622 103.381 74.0564 101.663 74.4404C96.9735 75.8201 92.9233 79.5737 87.6805 77.9236C82.2482 71.8657 63.9547 73.603 60.1198 76.6889C59.3939 76.404 58.5112 76.5568 57.5759 76.8257C52.773 76.6522 30.8468 78.3085 35.3315 84.4408C36.0122 84.9132 36.6923 84.4326 36.7111 83.4595C60.0906 75.0167 57.8244 82.9248 60.597 82.0012C61.0204 82.1232 61.4622 82.2003 61.8486 82.2815C63.9947 82.9722 64.7233 82.7587 65.006 85.1687C66.9482 103.778 91.7204 97.3554 89.6886 82.0908C91.7003 81.9801 93.4599 81.11 95.5872 81.9596C97.0642 96.3392 108.631 96.9196 112.112 91.9349C114.737 88.4751 113.696 83.2539 117.305 80.5321C118.729 81.7246 118.821 77.7 118.491 76.9478" fill="#893DFF"/>
</g>
</svg>
