<svg width="147" height="147" viewBox="0 0 147 147" fill="none" xmlns="http://www.w3.org/2000/svg">
<mask id="mask0_1011_806" style="mask-type:alpha" maskUnits="userSpaceOnUse" x="0" y="0" width="147" height="147">
<circle cx="73.5" cy="73.5" r="73.5" fill="#C4C4C4"/>
</mask>
<g mask="url(#mask0_1011_806)">
<path fill-rule="evenodd" clip-rule="evenodd" d="M134.454 154.121C131.522 140.222 121.121 129.437 107.134 124.064C104.445 122.543 101.839 116.015 98.2252 114.82C97.6459 114.628 98.5602 116.153 98.2252 116.244C97.0302 116.569 95.6912 116.603 94.3717 115.43C92.0136 113.333 91.2738 107.207 89.8401 104.439C82.2786 89.8374 63.3992 95.5505 60.8699 111.692C59.1064 112.842 56.6133 113.855 54.6936 114.782C52.7168 115.736 50.978 118.047 48.9408 118.873C47.1232 119.61 44.1282 119.088 42.2966 119.731C33.8725 122.687 26.7376 126.417 21.1438 133.975C19.9652 135.569 18.6365 137.529 17.5639 139.139C12.0342 145.507 8.19332 152.645 4.65586 160.303C-5.24118 182.78 -7.93316 207.667 -10.3484 231.885C-10.2934 236.123 -13.1041 247.872 -8.94703 249.904C-9.19548 250.162 -9.10548 250.679 -8.64449 250.675C1.89628 250.568 12.4125 251.512 22.7898 253.347C27.7966 254.232 32.7766 255.446 37.8766 255.645C48.4635 255.572 59.0123 253.798 69.5851 255.477C82.2955 255.477 97.7424 255.106 111.882 254.563C125.098 254.054 138.384 255.202 151.435 252.954C152.469 252.79 152.973 251.53 152.757 250.627C151.225 245.045 150.474 239.3 149.614 233.587C149.785 229.923 149.479 226.097 148.124 222.684C144.584 199.643 140.044 176.752 134.454 154.121Z" fill="white"/>
<path fill-rule="evenodd" clip-rule="evenodd" d="M130.188 184.405C129.909 185.76 129.518 187.115 128.998 188.398C128.498 189.636 127.744 190.746 127.224 191.97C127.154 192.134 127.04 192.259 126.903 192.354L126.946 192.687L126.985 193.02C127.244 195.266 127.536 197.507 127.788 199.753L127.911 200.876C128.407 205.566 129.191 210.232 129.799 214.91C130.395 219.49 131.001 224.07 131.65 228.643C132.32 233.358 133.002 238.067 133.798 242.763C134.135 244.747 134.486 246.729 134.851 248.709L135.134 250.224C138.041 250.924 138.835 254.977 135.875 256.474C134.532 257.15 132.806 256.987 131.698 255.924C130.548 254.817 130.5 252.819 130.233 251.319L129.976 249.925C128.051 239.441 126.38 228.836 125.599 218.205C125.398 215.459 125.229 212.712 125.12 209.962C125.015 207.375 125.065 204.789 125.025 202.203L125.012 201.497C124.951 198.739 125.001 195.985 125.073 193.227C125.082 192.891 125.096 192.555 125.113 192.217C125.016 192.103 124.946 191.968 124.917 191.836L124.879 191.663C124.784 191.217 124.891 190.695 125.234 190.376C125.382 188.497 125.576 186.62 125.629 184.744C125.633 184.589 125.855 184.594 125.868 184.744C125.992 186.341 126.241 187.943 126.491 189.543C128.094 188.254 129.279 186.128 129.979 184.348C130.029 184.219 130.218 184.266 130.188 184.405ZM92.2484 109.71C92.5146 110.927 93.0406 112.02 93.7463 113.037C94.0824 113.523 94.4646 113.975 94.923 114.353C95.3162 114.677 95.7641 114.888 96.1822 115.169C96.7906 115.074 97.4265 115.305 97.8533 115.752L97.7859 115.097C97.7646 114.886 98.1155 114.844 98.1556 115.049C100.004 124.374 101.69 133.705 103.149 143.097L103.788 147.245L104.39 151.139C105.389 157.628 106.356 164.114 107.084 170.651C108.054 179.373 108.869 188.119 109.465 196.877C110.062 205.697 110.43 214.523 110.692 223.359C110.758 225.587 110.827 227.813 110.895 230.04L111.346 227.377C111.797 224.713 112.238 222.047 112.617 219.371C113.975 209.795 115.061 200.151 115.591 190.492C116.077 181.654 115.915 172.64 113.667 164.029C113.1 161.863 112.408 159.73 111.571 157.653C110.76 155.632 109.653 153.759 108.78 151.769C107.766 149.452 107.462 147.267 107.984 144.773C108.44 142.6 109.241 140.557 109.384 138.321C109.653 134.17 108.303 130.15 106.395 126.517C105.892 125.559 105.362 124.614 104.808 123.678C103.133 120.848 101.244 118.122 99.2838 115.507C99.1782 115.368 99.4019 115.214 99.5162 115.328C101.303 117.095 103.258 118.832 104.865 120.762C105.647 121.7 106.41 122.657 107.132 123.64C115.059 124.965 121.87 129.904 126.527 136.427C131.81 143.828 134.483 152.737 136.461 161.51C138.66 171.26 140.515 181.098 142.49 190.896C144.535 201.035 146.57 211.173 148.627 221.309C149.65 226.341 150.673 231.374 151.693 236.408C152.21 238.957 152.754 241.5 153.322 244.04C153.613 245.342 153.926 246.642 154.196 247.948C154.5 249.421 154.217 250.363 153.22 251.446C152.853 251.847 152.272 251.841 151.815 251.628L151.673 251.56L151.535 251.494C150.97 251.216 150.527 250.928 150.176 250.311C149.789 249.632 149.728 248.88 149.595 248.125C149.35 246.737 149.107 245.348 148.862 243.958C148.496 241.878 148.098 239.804 147.692 237.731L145.659 227.37C145.117 224.607 144.574 221.845 144.028 219.084C142.078 209.21 140.126 199.337 138.174 189.465C136.3 179.986 134.641 170.442 132.508 161.017L132.386 160.486L132.263 159.956C130.355 151.832 127.689 143.973 122.853 137.088C119.13 131.794 113.961 127.066 107.872 124.673C108.301 125.291 108.713 125.921 109.106 126.563C111.573 130.596 113.375 135.383 112.953 140.185C112.746 142.531 111.854 144.836 111.939 147.202C112.017 149.302 113.316 151.147 114.214 152.975C116.253 157.118 117.727 161.52 118.678 166.037C120.586 175.106 120.58 184.437 119.922 193.643C119.208 203.651 117.852 213.656 116.308 223.566C115.515 228.649 114.461 233.69 113.654 238.765C113.255 241.267 112.712 243.763 112.236 246.253L112.01 247.442C111.883 248.103 111.751 248.761 111.599 249.412L111.506 249.801V249.871C111.501 250.351 111.37 250.748 111.159 251.065C110.87 251.993 110.511 252.898 110.033 253.766C109.788 254.21 109.433 254.459 109.046 254.551C108.658 255.44 107.777 256.125 106.725 256.121L92.8885 256.068C84.8519 256.036 76.8153 255.983 68.7787 255.939C66.7507 255.929 64.7246 255.891 62.6986 255.838C60.7993 255.785 58.9782 255.557 57.1 255.32C54.9787 255.054 53.8296 253.551 54.1465 251.431C54.2162 250.964 54.292 250.499 54.3641 250.034C53.9415 250.173 53.4387 250.108 53.0986 249.776L52.7797 249.464C52.3376 249.026 51.9423 248.597 51.662 248.013C51.3725 247.413 51.1378 246.779 50.8822 246.166C50.3308 244.847 49.7944 243.524 49.2723 242.195C48.2268 239.536 47.181 236.867 46.2089 234.18C44.2845 228.861 42.5815 223.461 41.1007 218C38.4599 208.256 36.5498 198.325 35.3456 188.305L35.0576 185.917L34.9739 185.211C34.5173 181.328 34.133 177.384 34.3146 173.508C34.4268 171.082 34.8026 168.637 35.7091 166.371C36.5456 164.281 37.8364 162.493 39.0639 160.624L39.2043 160.409L39.3455 160.188C40.419 158.491 41.2732 156.717 41.316 154.656C41.3594 152.564 40.7503 150.529 40.0694 148.571L39.8996 148.088L39.7857 147.769C38.3371 143.722 36.6885 139.733 37.2322 135.33C38.0352 128.846 41.9646 123.619 46.9084 119.589C42.5117 120.459 38.1599 122.18 34.319 124.361C29.7829 126.939 25.6991 130.342 22.1772 134.182C15.5223 141.44 10.7709 150.148 6.88168 159.139C2.81034 168.548 -0.208673 178.407 -2.48381 188.396C-4.77184 198.441 -6.30353 208.647 -7.34952 218.894C-7.87114 223.994 -8.28121 229.106 -8.62114 234.221C-8.79438 236.842 -8.92536 239.466 -9.12818 242.083C-9.331 244.697 -9.42205 247.352 -10.0601 249.897C-10.358 251.082 -12.3671 251.203 -12.5824 249.897C-13.0602 246.98 -12.9267 243.963 -12.7933 241.009L-12.7812 240.741C-12.65 237.799 -12.4789 234.859 -12.2763 231.919C-11.862 225.91 -11.3087 219.91 -10.5861 213.929C-8.05304 192.933 -3.3817 172.048 5.78097 152.883C10.0951 143.856 15.6324 135.085 23.3352 128.567C27.0026 125.466 31.1371 122.991 35.5927 121.199C39.5775 119.595 43.6253 118.836 47.8591 118.838C49.9824 117.211 52.262 115.793 54.5392 114.581C54.6765 114.508 54.8202 114.685 54.7063 114.799C54.6472 114.856 54.5899 114.915 54.531 114.971C54.7887 114.987 55.0547 115.108 55.2934 115.359C56.1303 116.236 56.8359 117.333 57.4674 118.472C58.4286 119.673 59.3456 120.914 60.3049 122.101C61.8406 124.003 63.4125 125.878 65.0035 127.738C67.6755 130.864 70.4345 133.93 73.3116 136.874L73.7922 137.363C75.2836 138.874 76.7944 140.683 78.5582 141.879L78.6524 141.942C79.3966 142.427 79.9243 142.515 80.5589 141.791C81.1359 141.132 81.6161 140.366 82.1097 139.639L82.2239 139.472C84.7444 135.81 87.081 132.012 89.1958 128.102C90.1597 126.322 91.0767 124.517 91.9467 122.692L92.2063 122.144C92.6796 121.138 93.193 120.151 93.5836 119.115C93.6744 118.872 93.7632 118.629 93.8498 118.388C92.5188 117.515 91.488 115.626 91.1141 114.146C90.7253 112.61 90.9218 111.033 91.6146 109.628C91.7456 109.363 92.185 109.429 92.2484 109.71ZM26.5889 172.149C26.4047 177.991 26.293 183.839 26.0181 189.677L25.9232 191.669C26.3519 192.147 26.6033 192.699 26.4026 193.456C26.3247 193.745 26.0942 194.007 25.8068 194.104L25.7173 195.957C25.3095 204.294 24.8316 212.613 23.9582 220.929C22.866 231.336 21.6026 241.726 20.3416 252.114C20.162 253.585 19.1392 254.751 17.5484 254.536C15.9387 254.318 15.2859 252.917 15.4972 251.456C16.3275 245.727 17.1258 239.993 17.8254 234.244L18.6218 227.695C19.6205 219.507 20.6427 211.322 21.8204 203.161C22.3127 199.75 22.8239 196.34 23.3371 192.931L23.1578 192.699C22.4244 191.746 21.666 190.814 20.916 189.875C19.4754 188.066 18.0535 186.272 16.7331 184.378C16.6674 184.283 16.8007 184.143 16.8956 184.215C18.7463 185.583 20.4979 187.045 22.2599 188.531L23.8021 189.837C24.6894 183.947 25.5683 178.054 26.3519 172.149C26.3711 172.001 26.593 171.991 26.5889 172.149ZM53.2105 116.243C52.097 117.293 50.9584 118.32 49.8364 119.365L49.4254 119.749L49.0163 120.135C47.0444 122.006 45.1552 123.953 43.581 126.189C40.6908 130.296 38.969 135.302 40.1709 140.316C41.1683 144.469 43.4563 148.233 44.0711 152.489C44.3794 154.622 44.2296 156.765 43.4265 158.779C42.6068 160.834 41.297 162.594 40.1202 164.448C37.5639 168.476 37.2153 172.897 37.469 177.564C37.7352 182.438 38.2949 187.313 38.9859 192.143C40.3843 201.929 42.4927 211.613 45.2836 221.096C46.6803 225.845 48.3301 230.493 49.9718 235.159C50.7892 237.482 51.7422 239.75 52.7244 242.007C53.242 243.195 53.7725 244.376 54.3112 245.555C54.1124 243.89 54.1124 242.18 54.0153 240.525C53.8758 238.154 53.6984 235.787 53.5357 233.418C53.2042 228.609 52.9084 223.797 52.6443 218.985C51.7084 201.823 51.0197 184.646 51.0702 167.457C51.0958 158.862 51.2711 150.266 51.6408 141.679C51.8141 137.635 52.1498 133.595 52.4531 129.557L52.5176 128.691C52.7859 125.067 53.107 121.434 53.6582 117.841C53.495 117.472 53.3534 117.099 53.2482 116.717L53.2105 116.573L53.238 116.577C53.2127 116.465 53.2042 116.353 53.2105 116.243ZM62.8402 101.474C62.8632 101.374 63.0048 101.383 63.0301 101.474C63.6576 103.587 63.4358 105.912 62.8951 108.038C62.6036 109.19 62.1895 110.308 61.6888 111.386L61.5136 111.763C61.0845 112.681 60.6015 113.627 59.766 114.199C59.4176 114.438 58.7942 114.453 58.4456 114.199L58.2678 114.064C58.2385 114.041 58.2097 114.018 58.1815 113.994C57.8564 113.721 57.6956 113.119 57.8456 112.722C58.2322 111.697 59.1092 110.944 59.7153 110.031C60.2521 109.22 60.7275 108.364 61.1224 107.474C61.9738 105.549 62.3562 103.505 62.8402 101.474Z" fill="#893DFF"/>
<path fill-rule="evenodd" clip-rule="evenodd" d="M87.4979 116.49C83.1247 116.478 79.1218 115.625 75.3239 113.759C70.7381 112.262 65.7304 111.447 62.0089 108.133C60.1967 108.518 58.3392 106.656 56.8358 105.548C54.3839 114.574 41.6233 113.072 36.2315 107.239C32.9332 104.453 31.6065 97.5598 37.3341 95.7362C27.9498 89.3598 24.5603 78.3451 25.2053 66.4264C25.8841 46.4331 41.2487 25.6472 60.997 22.1794C64.8927 21.4937 68.8935 21.5662 72.7726 22.3816C74.9387 22.8517 77.0326 23.763 79.3508 23.7216C88.342 22.2998 98.2172 22.4632 105.644 28.2197C117.513 36.1642 119.163 52.0596 117.776 64.8396L117.832 64.9592C117.142 69.6503 115.996 73.9469 113.827 76.7751C113.658 80.8413 112.246 89.521 112.141 92.9525C112.395 108.92 103.329 116.007 87.4979 116.49" fill="white"/>
<path fill-rule="evenodd" clip-rule="evenodd" d="M35.2695 95.5166C6.84326 70.3904 36.0056 13.8453 72.9914 21.3476C76.7346 22.6016 80.5359 23.0367 84.4125 22.1076C103.948 19.056 119.929 35.6387 119.103 54.824C119.241 58.1055 119.214 61.3898 118.859 64.6582C118.454 68.9541 117.347 73.5484 114.877 77.1196C114.849 79.5183 113.437 88.5163 113.211 92.7496L113.167 93.6337C112.942 97.9843 112.457 102.422 110.545 106.389C104.666 117.046 89.5209 119.333 78.6618 116.228L78.2102 116.08C76.1931 115.409 73.9065 114.515 72.6257 112.825C71.9488 111.932 73.0693 110.792 74.0012 111.035C75.2008 111.348 76.195 112.079 77.3149 112.599C84.6195 115.828 93.2589 114.747 100.469 111.73L100.687 111.638C113.601 106.394 110.064 87.7402 111.764 77.1035C112.15 63.5968 100.889 54.3988 92.405 45.4654L92.151 45.1824C91.2793 44.2154 90.3587 43.2729 89.1466 43.0666C88.8147 44.0741 87.9983 44.9316 87.2411 45.6664L85.5289 47.5176C83.8162 49.3666 82.1001 51.2081 80.3593 53.033C71.9073 61.6221 63.2959 73.2836 50.2676 74.1617C51.0685 74.8867 51.7708 75.715 52.6102 76.3976C52.9642 76.752 52.6032 77.347 52.1283 77.2255C51.2426 76.9991 50.6762 76.1588 50.095 75.5021C43.0585 72.5472 37.28 83.4666 43.2415 87.9872C45.453 90.3298 51.9155 88.5473 50.4212 91.436C52.0522 96.5528 54.5627 101.699 58.8094 105.122C60.0563 106.064 62.0038 106.541 62.8311 107.927C63.0307 108.261 62.9289 108.806 62.5539 108.984C60.7499 109.826 58.8119 108.41 57.4264 107.344C50.1098 121.652 23.2797 105.844 35.2695 95.5166ZM78.7482 25.6034L78.0151 25.4599C70.1978 23.9128 65.0445 22.3812 56.7797 25.1783C38.3587 31.3335 26.4831 50.9407 26.9965 69.9975C27.0085 80.8233 32.3733 94.6281 44.4569 96.1646C46.2839 96.3098 46.3125 99.146 44.5122 99.061L44.4571 99.0575C41.4785 98.8716 38.5951 97.7909 36.1372 96.1282C32.8397 101.471 36.1444 106.318 41.282 108.615C46.4876 111.363 52.0526 110.487 55.5309 105.632C52.3564 102.103 50.0164 96.8301 49.4752 92.1525C40.5597 95.6123 33.8357 82.8586 39.6362 76.095C41.6775 73.1836 45.64 71.3639 48.9066 73.4305C62.9604 68.0216 72.7721 56.5258 82.1663 45.2649L82.6678 44.6943C84.3126 42.8358 88.0945 38.6379 88.514 38.0952C88.9854 37.4851 89.9371 38.0344 89.949 38.6898C89.9574 39.1558 89.9314 39.6284 89.879 40.0999C91.6281 41.2283 93.0455 42.9417 94.3501 44.5237C104.089 52.1701 112.009 60.1784 114.473 72.3093C116.003 70.5229 116.696 68.178 117.197 65.9383C118.247 51.1641 115.426 33.4722 100.189 27.0632C92.8661 23.429 86.3329 25.0944 78.7482 25.6034ZM44.194 81.09C43.5596 80.5233 47.7513 80.4548 48.147 80.8987L48.2373 80.9295C49.7381 81.4574 52.4862 83.1592 51.1367 84.9262C49.2125 86.7402 47.8724 81.3543 44.194 81.09Z" fill="#893DFF"/>
<path fill-rule="evenodd" clip-rule="evenodd" d="M91.1507 99.2734C89.7305 98.6938 88.4633 97.727 87.5369 96.4919C87.2148 96.0626 87.1313 95.6092 87.1989 95.1945C87.2748 94.7283 87.5506 94.3057 87.9266 94.0222C88.3039 93.7379 88.7757 93.5976 89.2319 93.6691C89.6283 93.7312 90.0229 93.9483 90.3352 94.3987L90.4005 94.4887C90.9512 95.2341 91.669 95.8457 92.4867 96.24C93.275 96.6199 94.1565 96.7973 95.0687 96.6941C96.8062 96.4978 98.0037 95.5578 99.2765 94.2813C99.4343 94.1202 99.5922 93.9539 99.7508 93.7851C99.851 93.632 99.99 93.5336 100.144 93.4819C100.316 93.4246 100.51 93.4279 100.687 93.4899C100.859 93.5497 101.012 93.663 101.114 93.8138C101.212 93.9571 101.267 94.1342 101.249 94.3378C101.133 95.6607 100.441 96.8413 99.4594 97.7683C98.3687 98.7979 96.923 99.5102 95.5618 99.76C94.0623 100.035 92.5343 99.838 91.1507 99.2734ZM96.2692 78.8655C97.8646 79.8356 100.295 82.0977 98.5792 84.5027C96.559 86.6233 93.6504 84.1919 92.2171 83.0923C90.8881 82.2401 89.3948 84.4319 90.6279 85.427C100.985 93.098 105.188 79.1192 97.0761 77.7249C96.183 77.5713 95.8513 78.5654 96.2692 78.8655ZM77.7092 69.9421C77.8854 67.7533 81.2177 67.2563 81.5492 69.4222C81.846 71.3624 81.4966 73.1447 80.623 74.8916C79.7882 76.5604 77.6903 75.7818 77.5316 74.2622C77.3189 72.2252 77.5995 71.3037 77.7092 69.9421ZM103.075 68.9731C103.539 68.3644 104.21 67.9489 105.014 68.1837C107.525 68.9178 106.785 72.4839 105.903 74.2197C105.424 75.1623 103.875 75.4014 103.175 74.5714C102.034 73.2179 101.488 70.5149 102.938 69.1817C102.977 69.1128 103.021 69.0433 103.075 68.9731ZM80.5876 60.3646L80.9842 60.2952C82.2112 60.0829 83.7369 59.8789 84.6049 60.8657C85.0652 61.389 85.2237 62.3617 84.6049 62.8626C83.5164 63.7439 82.313 63.4024 81.0087 63.477C79.9337 63.5387 78.9006 63.7166 77.8652 64.0127C75.5937 64.6622 73.7427 65.8479 71.8027 67.1498C71.5481 67.3206 71.2882 66.9949 71.4097 66.7567C72.5296 64.5622 74.7 62.7596 76.8739 61.6608C78.0342 61.0743 79.3039 60.5878 80.5876 60.3646ZM100.786 59.3816L101.089 59.4438C104.393 60.1346 108.685 61.5146 110.25 64.7608C110.309 65.2198 110.246 65.3182 110.195 65.3825L110.178 65.4038C110.136 65.4587 110.102 65.5344 109.903 65.5969C109.848 65.5837 109.792 65.5698 109.736 65.555C109.019 65.367 108.452 65.108 107.902 64.8393L107.307 64.5458C106.616 64.2068 105.919 63.8802 105.18 63.6391C103.603 63.1247 101.982 62.7623 100.335 62.5688C99.9783 62.5269 99.6346 62.4064 99.3635 62.1999C99.1061 62.0039 98.9095 61.7325 98.8198 61.3717C98.7037 60.9048 98.737 60.5513 98.9875 60.1301C99.1757 59.8138 99.4452 59.5946 99.7545 59.4687C100.07 59.3403 100.429 59.3101 100.786 59.3816Z" fill="#893DFF"/>
</g>
</svg>
