<svg width="69" height="69" viewBox="0 0 69 69" fill="none" xmlns="http://www.w3.org/2000/svg">
<path fill-rule="evenodd" clip-rule="evenodd" d="M64.6875 34.5C64.6875 26.4938 61.507 18.8155 55.8458 13.1542C50.1845 7.49296 42.5062 4.31249 34.5 4.31249C26.4938 4.3125 18.8155 7.49296 13.1542 13.1542C7.49296 18.8155 4.3125 26.4938 4.3125 34.5C4.3125 42.5062 7.49297 50.1845 13.1542 55.8458C18.8155 61.507 26.4938 64.6875 34.5 64.6875C42.5062 64.6875 50.1845 61.507 55.8458 55.8458C61.507 50.1845 64.6875 42.5062 64.6875 34.5ZM3.64961e-06 34.5C2.59411e-06 25.35 3.63481 16.5748 10.1048 10.1048C16.5748 3.63481 25.35 -4.73743e-06 34.5 -5.34365e-06C43.65 -5.94987e-06 52.4252 3.6348 58.8952 10.1048C65.3652 16.5748 69 25.35 69 34.5C69 43.65 65.3652 52.4252 58.8952 58.8952C52.4252 65.3652 43.65 69 34.5 69C25.35 69 16.5748 65.3652 10.1048 58.8952C3.63482 52.4252 4.70512e-06 43.65 3.64961e-06 34.5ZM32.3438 49.5938C32.3438 50.1656 32.5709 50.7141 32.9753 51.1184C33.3797 51.5228 33.9281 51.75 34.5 51.75C35.0719 51.75 35.6203 51.5228 36.0247 51.1184C36.4291 50.7141 36.6563 50.1656 36.6563 49.5938L36.6562 24.6114L45.9109 33.8704C46.3158 34.2753 46.8649 34.5027 47.4375 34.5027C48.0101 34.5027 48.5592 34.2753 48.9641 33.8704C49.369 33.4655 49.5965 32.9163 49.5965 32.3437C49.5965 31.7711 49.369 31.222 48.9641 30.8171L36.0266 17.8796C35.8263 17.6788 35.5884 17.5195 35.3264 17.4108C35.0645 17.3021 34.7836 17.2461 34.5 17.2461C34.2164 17.2461 33.9355 17.3021 33.6736 17.4108C33.4116 17.5195 33.1737 17.6788 32.9734 17.8796L20.0359 30.8171C19.631 31.222 19.4035 31.7712 19.4035 32.3437C19.4035 32.9163 19.631 33.4655 20.0359 33.8704C20.4408 34.2753 20.9899 34.5027 21.5625 34.5027C22.1351 34.5027 22.6842 34.2753 23.0891 33.8704L32.3437 24.6114L32.3438 49.5938Z" fill="#F0F0F0"/>
</svg>
