<svg width="80" height="80" viewBox="0 0 80 80" fill="none" xmlns="http://www.w3.org/2000/svg">
<path d="M35.8332 73.3333H16.3899C14.5481 73.3315 12.7822 72.5991 11.4798 71.2967C10.1774 69.9944 9.44499 68.2285 9.44322 66.3866V34.0533C8.12778 33.1198 7.20038 31.7363 6.8367 30.1649C6.47301 28.5934 6.6983 26.9431 7.46989 25.5266C10.4699 20.1666 13.5299 14.8833 16.5399 9.81998C17.1333 8.84826 17.9686 8.04697 18.9641 7.49431C19.9596 6.94165 21.0813 6.65648 22.2199 6.66664C23.6332 6.67998 25.0066 7.12998 26.1532 7.94998L26.2332 7.99998C27.6066 8.79998 40.8732 16.6966 51.5365 23.04L61.0032 28.6666L61.4365 28.9233C64.4932 30.7191 67.5421 32.528 70.5832 34.35C71.8977 35.2806 72.8227 36.6634 73.1813 38.2336C73.5398 39.8037 73.3067 41.451 72.5265 42.86C69.5832 48.1166 66.5265 53.4 63.4599 58.5666C62.8738 59.5283 62.0517 60.3243 61.0717 60.8791C60.0916 61.4339 58.986 61.7291 57.8599 61.7366C57.4065 61.7366 56.9599 61.6866 56.5265 61.5866C56.1365 61.8166 54.0032 63.1866 51.2999 64.92C46.4899 68.0033 39.9165 72.22 39.1565 72.61C38.1312 73.1379 36.9852 73.3873 35.8332 73.3333ZM14.9999 43.4333V66.3866C14.9999 67.1533 15.6232 67.7766 16.3899 67.7766H29.1332C24.3517 59.7033 19.6404 51.5885 14.9999 43.4333ZM19.5266 40.1C20.8599 42.39 35.2465 67.2066 35.3665 67.3733C35.5109 67.5618 35.7176 67.6928 35.9496 67.7429C36.1817 67.793 36.424 67.7589 36.6332 67.6466C37.0799 67.3933 50.6099 58.7 50.7432 58.6133C49.6965 57.9966 42.1232 53.4833 34.1032 48.7066L19.4599 40L19.4832 40.0366L19.5166 40.0933V40.1133L19.5266 40.1ZM21.1066 13C18.4132 17.3333 12.3866 28.0933 12.3066 28.29C12.2109 28.5185 12.2 28.7737 12.2757 29.0096C12.3515 29.2455 12.509 29.4466 12.7199 29.5766C13.1632 29.84 57.2332 56.0966 57.6532 56.1633C57.7065 56.1673 57.7599 56.1673 57.8132 56.1633C57.9913 56.1639 58.1665 56.1185 58.3218 56.0315C58.4772 55.9445 58.6074 55.8188 58.6999 55.6666C61.7269 50.5006 64.7203 45.3149 67.6799 40.11C67.7734 39.8803 67.7829 39.625 67.7066 39.389C67.6304 39.1531 67.4734 38.9516 67.2632 38.82C66.8399 38.5666 22.8532 12.4266 22.5699 12.3033C22.345 12.2095 22.0944 12.1972 21.8613 12.2684C21.6283 12.3396 21.4273 12.4898 21.2932 12.6933L21.2699 12.7333L21.2432 12.7733L21.2032 12.84V12.8566L21.1532 12.9366L21.1032 13H21.1066ZM25.6166 31.3C24.5189 31.2993 23.4461 30.9734 22.5336 30.3634C21.6211 29.7533 20.9098 28.8866 20.4896 27.8726C20.0694 26.8585 19.9591 25.7427 20.1727 24.6661C20.3863 23.5894 20.9141 22.6002 21.6896 21.8234C22.465 21.0465 23.4533 20.5169 24.5296 20.3014C25.6058 20.0859 26.7218 20.1942 27.7366 20.6125C28.7514 21.0309 29.6194 21.7406 30.2311 22.652C30.8427 23.5634 31.1706 24.6357 31.1732 25.7333C31.1715 27.2065 30.5855 28.6188 29.5438 29.6605C28.5021 30.7022 27.0897 31.2882 25.6166 31.29V31.3Z" fill="#D0D0D0"/>
</svg>
