<svg width="80" height="80" viewBox="0 0 80 80" fill="none" xmlns="http://www.w3.org/2000/svg">
<path d="M26.1002 8.13333C25.6064 7.39956 24.8414 6.89199 23.9734 6.72227C23.1054 6.55255 22.2056 6.73458 21.4718 7.22833C20.7381 7.72207 20.2305 8.48708 20.0608 9.35506C19.891 10.223 20.0731 11.1229 20.5668 11.8567L36.5435 35.57L28.7902 47.83C25.8313 46.5018 22.4897 46.2976 19.3912 47.2557C16.2926 48.2138 13.6495 50.2685 11.9567 53.035C10.264 55.8015 9.63762 59.0902 10.195 62.2852C10.7523 65.4803 12.4551 68.3627 14.9845 70.3927C17.514 72.4227 20.6966 73.4611 23.9366 73.3136C27.1765 73.166 30.2516 71.8425 32.5861 69.591C34.9205 67.3395 36.3542 64.3143 36.6188 61.0818C36.8834 57.8493 35.9607 54.6312 34.0235 52.03L40.6135 41.61L46.8935 50.93C44.687 53.3098 43.4242 56.4126 43.3418 59.6568C43.2595 62.9011 44.3631 66.064 46.446 68.5527C48.5288 71.0414 51.4478 72.685 54.6558 73.1755C57.8638 73.666 61.1406 72.9696 63.8719 71.2169C66.6032 69.4642 68.6015 66.7755 69.4922 63.6548C70.3829 60.5342 70.1049 57.1958 68.7103 54.2655C67.3156 51.3351 64.9001 49.014 61.9166 47.7372C58.933 46.4605 55.5862 46.3157 52.5035 47.33L40.4368 29.4133V29.4167L26.1002 8.13333ZM16.6668 60C16.6668 58.2319 17.3692 56.5362 18.6194 55.2859C19.8697 54.0357 21.5654 53.3333 23.3335 53.3333C25.1016 53.3333 26.7973 54.0357 28.0475 55.2859C29.2978 56.5362 30.0002 58.2319 30.0002 60C30.0002 61.7681 29.2978 63.4638 28.0475 64.714C26.7973 65.9643 25.1016 66.6667 23.3335 66.6667C21.5654 66.6667 19.8697 65.9643 18.6194 64.714C17.3692 63.4638 16.6668 61.7681 16.6668 60ZM50.0001 60C50.0001 58.2319 50.7025 56.5362 51.9528 55.2859C53.203 54.0357 54.8987 53.3333 56.6668 53.3333C58.4349 53.3333 60.1306 54.0357 61.3809 55.2859C62.6311 56.5362 63.3335 58.2319 63.3335 60C63.3335 61.7681 62.6311 63.4638 61.3809 64.714C60.1306 65.9643 58.4349 66.6667 56.6668 66.6667C54.8987 66.6667 53.203 65.9643 51.9528 64.714C50.7025 63.4638 50.0001 61.7681 50.0001 60ZM48.4001 29.3L59.4835 11.78C59.9564 11.033 60.1133 10.1287 59.9195 9.26598C59.7257 8.40332 59.1972 7.65297 58.4501 7.18C57.7031 6.70703 56.7988 6.55018 55.9361 6.74397C55.0735 6.93776 54.3231 7.4663 53.8501 8.21333L44.3335 23.2633L48.4001 29.3033V29.3Z" fill="#D0D0D0"/>
</svg>
