<svg width="80" height="80" viewBox="0 0 80 80" fill="none" xmlns="http://www.w3.org/2000/svg">
<path d="M55 26.6666C55 31.6666 53.3333 38.3333 45.3333 41C47.6667 35.3333 48 29.6666 46.3333 24.3333C44 17.3333 36.3333 12 31 8.99998C29.6667 7.99997 27.3333 9.33331 27.6667 11.3333C27.6667 15 26.6667 20.3333 21 26C13.6667 33.3333 10 41 10 48.3333C10 58 16.6667 70 30 70C16.6667 56.6667 26.6667 45 26.6667 45C29.3333 64.6667 43.3333 70 50 70C55.6667 70 66.6667 66 66.6667 48.6666C66.6667 38.3333 62.3333 30.3333 58.6667 25.6666C57.6667 24 55.3333 25 55 26.6666Z" fill="#D0D0D0"/>
</svg>
