<svg width="214" height="152" viewBox="0 0 214 152" fill="none" xmlns="http://www.w3.org/2000/svg">
<g filter="url(#filter0_ii_98_101)">
<path fill-rule="evenodd" clip-rule="evenodd" d="M26.3747 37.6656C26.3747 20.8117 59.3983 16.4631 76.44 15.341C82.5662 14.9376 88.2128 11.6272 91.2026 6.26481V6.26481C92.135 4.59273 93.4969 3.19996 95.1477 2.23045C96.7985 1.26094 98.6783 0.749873 100.593 0.750061H114.347C116.262 0.749873 118.142 1.26094 119.792 2.23045C121.443 3.19996 122.805 4.59273 123.738 6.26481V6.26481C126.724 11.6268 132.366 14.9368 138.49 15.351C155.308 16.4886 187.625 20.8602 187.625 37.6602V37.6602C187.625 38.1869 187.985 38.6453 188.497 38.7696L196.923 40.8153C201.921 42.0274 206.318 44.9902 209.318 49.1665C212.318 53.3428 213.721 58.4559 213.274 63.5784L210.28 97.9086C209.924 101.989 208.409 105.884 205.914 109.133C203.42 112.382 200.048 114.85 196.198 116.248L159.89 129.428V129.428C158.323 130 156.591 130.394 155.362 131.522C133.892 151.25 109.601 151.25 109.601 151.25C109.601 151.25 109.601 151.25 109.601 151.25H104.398C104.398 151.25 104.398 151.25 104.398 151.25C104.398 151.25 81.8417 151.25 60.9812 133.595C57.7275 130.841 54.1706 128.414 50.1981 126.869L17.5651 114.173C13.8521 112.729 10.6133 110.282 8.21015 107.104C5.80702 103.927 4.33406 100.144 3.95561 96.1778L0.875735 63.8149C0.378605 58.5961 1.80544 53.3754 4.88787 49.1348C7.97029 44.8942 12.4959 41.926 17.6135 40.7884L25.2256 39.0979C25.897 38.9488 26.3747 38.3533 26.3747 37.6656V37.6656ZM192.532 106.148C184.969 108.894 177.22 99.9288 179.78 92.3013C183.145 82.2741 185.625 70.5414 186.822 56.8111C187.15 53.0479 190.721 50.3765 194.392 51.2697V51.2697C196.889 51.8767 199.086 53.3582 200.585 55.4457C202.084 57.5332 202.785 60.0885 202.562 62.6486L199.573 96.9787C199.395 99.0191 198.638 100.966 197.39 102.591C196.143 104.215 194.457 105.45 192.532 106.148V106.148ZM27.1639 56.6778C26.8527 53.0777 23.474 50.4984 19.9462 51.2804V51.2804C17.3874 51.8492 15.1246 53.3333 13.5834 55.4536C12.0422 57.5739 11.3288 60.1842 11.5774 62.7937L14.6572 95.1566C14.8465 97.1395 15.5829 99.031 16.7845 100.62C17.9861 102.209 19.6055 103.432 21.462 104.154V104.154C28.6657 106.955 36.2454 98.5476 33.855 91.1975C30.663 81.3827 28.3127 69.9633 27.1639 56.6778ZM107 46.2743C107 46.2726 107.001 46.2713 107.003 46.2717L140.551 54.6559C141.934 55.0016 143.123 55.8827 143.857 57.1055C144.591 58.3282 144.809 59.7923 144.464 61.1758C144.118 62.5593 143.237 63.7488 142.014 64.4826C140.791 65.2164 139.327 65.4345 137.944 65.0888L114.456 59.2139C109.561 57.9894 104.439 57.9893 99.5431 59.2136L76.0505 65.0888C75.3613 65.2737 74.6421 65.3196 73.935 65.2236C73.2278 65.1277 72.5469 64.8919 71.9319 64.53C71.3168 64.1681 70.78 63.6873 70.3527 63.1158C69.9254 62.5442 69.6162 61.8933 69.4432 61.201C69.2701 60.5087 69.2366 59.7889 69.3447 59.0835C69.4527 58.3781 69.7001 57.7013 70.0725 57.0926C70.4449 56.4839 70.9348 55.9554 71.5136 55.5379C72.0923 55.1205 72.7484 54.8225 73.4436 54.6613L106.998 46.2768C106.999 46.2765 107 46.2755 107 46.2743V46.2743Z" fill="url(#paint0_linear_98_101)"/>
</g>
<defs>
<filter id="filter0_ii_98_101" x="-3.83099" y="-3.85973" width="221.796" height="159.72" filterUnits="userSpaceOnUse" color-interpolation-filters="sRGB">
<feFlood flood-opacity="0" result="BackgroundImageFix"/>
<feBlend mode="normal" in="SourceGraphic" in2="BackgroundImageFix" result="shape"/>
<feColorMatrix in="SourceAlpha" type="matrix" values="0 0 0 0 0 0 0 0 0 0 0 0 0 0 0 0 0 0 127 0" result="hardAlpha"/>
<feOffset dx="4.6098" dy="4.6098"/>
<feGaussianBlur stdDeviation="4.6098"/>
<feComposite in2="hardAlpha" operator="arithmetic" k2="-1" k3="1"/>
<feColorMatrix type="matrix" values="0 0 0 0 0 0 0 0 0 0 0 0 0 0 0 0 0 0 0.25 0"/>
<feBlend mode="overlay" in2="shape" result="effect1_innerShadow_98_101"/>
<feColorMatrix in="SourceAlpha" type="matrix" values="0 0 0 0 0 0 0 0 0 0 0 0 0 0 0 0 0 0 127 0" result="hardAlpha"/>
<feOffset dx="-4.6098" dy="-4.6098"/>
<feGaussianBlur stdDeviation="4.6098"/>
<feComposite in2="hardAlpha" operator="arithmetic" k2="-1" k3="1"/>
<feColorMatrix type="matrix" values="0 0 0 0 1 0 0 0 0 1 0 0 0 0 1 0 0 0 0.25 0"/>
<feBlend mode="overlay" in2="effect1_innerShadow_98_101" result="effect2_innerShadow_98_101"/>
</filter>
<linearGradient id="paint0_linear_98_101" x1="0.361657" y1="150.951" x2="304.433" y2="-21.4977" gradientUnits="userSpaceOnUse">
<stop stop-color="#3241C0"/>
<stop offset="0.713542" stop-color="#4CA3D3"/>
</linearGradient>
</defs>
</svg>
