<svg width="226" height="226" viewBox="0 0 226 226" fill="none" xmlns="http://www.w3.org/2000/svg">
<mask id="mask0_49_863" style="mask-type:alpha" maskUnits="userSpaceOnUse" x="0" y="0" width="226" height="226">
<circle cx="113" cy="113" r="113" fill="#FFEDEF"/>
</mask>
<g mask="url(#mask0_49_863)">
<g clip-path="url(#clip0_49_863)">
<path d="M145.116 215.592C136.552 203.698 129.851 180.701 129.058 169.203L88.3187 151.658L71.3687 215.592H145.116Z" fill="#AC6651" stroke="black" stroke-width="2.37895"/>
<mask id="mask1_49_863" style="mask-type:alpha" maskUnits="userSpaceOnUse" x="71" y="151" width="75" height="71">
<path d="M145.116 221.54C136.552 209.645 129.851 180.701 129.058 169.203L88.3187 151.658L71.3687 221.54H145.116Z" fill="#AC6651"/>
</mask>
<g mask="url(#mask1_49_863)">
<g style="mix-blend-mode:multiply">
<ellipse cx="127.274" cy="150.468" rx="35.0895" ry="32.1158" fill="black"/>
</g>
</g>
<mask id="path-5-inside-1_49_863" fill="white">
<path fill-rule="evenodd" clip-rule="evenodd" d="M162.891 115.332C162.875 115.262 162.859 115.193 162.842 115.123C162.825 115.054 162.808 114.984 162.791 114.915L153.04 74.2165C153.031 74.1756 153.021 74.1348 153.011 74.094C153.001 74.0531 152.992 74.0123 152.982 73.9715L152.939 73.7925L152.938 73.7927C146.861 49.144 122.015 33.988 97.2891 39.9121C72.5634 45.8361 57.2832 70.606 63.036 95.3324L63.0349 95.3327L73.1402 137.51L73.1485 137.508C79.4544 161.836 104.116 176.726 128.66 170.845C153.203 164.965 168.44 140.515 163.037 115.972L163.044 115.97L162.891 115.332Z"/>
</mask>
<path fill-rule="evenodd" clip-rule="evenodd" d="M162.891 115.332C162.875 115.262 162.859 115.193 162.842 115.123C162.825 115.054 162.808 114.984 162.791 114.915L153.04 74.2165C153.031 74.1756 153.021 74.1348 153.011 74.094C153.001 74.0531 152.992 74.0123 152.982 73.9715L152.939 73.7925L152.938 73.7927C146.861 49.144 122.015 33.988 97.2891 39.9121C72.5634 45.8361 57.2832 70.606 63.036 95.3324L63.0349 95.3327L73.1402 137.51L73.1485 137.508C79.4544 161.836 104.116 176.726 128.66 170.845C153.203 164.965 168.44 140.515 163.037 115.972L163.044 115.97L162.891 115.332Z" fill="#AC6651"/>
<path d="M162.891 115.332L160.575 115.876L160.578 115.886L162.891 115.332ZM162.791 114.915L160.478 115.469L160.48 115.479L162.791 114.915ZM153.04 74.2165L150.726 74.7647L150.727 74.7708L153.04 74.2165ZM153.011 74.094L150.698 74.6481L150.698 74.6483L153.011 74.094ZM152.982 73.9715L150.668 74.5258L150.67 74.532L152.982 73.9715ZM152.939 73.7925L155.252 73.2383L154.697 70.9222L152.382 71.4796L152.939 73.7925ZM152.938 73.7927L150.628 74.3622L151.195 76.6593L153.495 76.1056L152.938 73.7927ZM97.2891 39.9121L96.7349 37.5986L97.2891 39.9121ZM63.036 95.3324L63.5875 97.6466L65.8893 97.098L65.3531 94.7934L63.036 95.3324ZM63.0349 95.3327L62.4833 93.0186L60.1664 93.5708L60.7214 95.887L63.0349 95.3327ZM73.1402 137.51L70.8267 138.064L71.381 140.378L73.6945 139.824L73.1402 137.51ZM73.1485 137.508L75.4513 136.911L74.8653 134.651L72.5942 135.195L73.1485 137.508ZM128.66 170.845L128.106 168.532L128.66 170.845ZM163.037 115.972L162.484 113.658L160.211 114.201L160.714 116.483L163.037 115.972ZM163.044 115.97L163.597 118.284L165.912 117.73L165.358 115.416L163.044 115.97ZM165.207 114.788C165.19 114.715 165.173 114.642 165.155 114.569L160.528 115.678C160.544 115.744 160.56 115.81 160.575 115.876L165.207 114.788ZM165.155 114.569C165.138 114.496 165.12 114.423 165.102 114.35L160.48 115.479C160.497 115.545 160.513 115.611 160.528 115.678L165.155 114.569ZM150.727 74.7708L160.478 115.469L165.105 114.36L155.354 73.6622L150.727 74.7708ZM155.355 73.6683C155.345 73.6255 155.335 73.5826 155.325 73.5396L150.698 74.6483C150.707 74.687 150.716 74.7258 150.726 74.7647L155.355 73.6683ZM155.325 73.5398C155.314 73.4966 155.304 73.4537 155.294 73.411L150.67 74.532C150.679 74.5709 150.689 74.6096 150.698 74.6481L155.325 73.5398ZM150.625 74.3468L150.668 74.5258L155.295 73.4173L155.252 73.2383L150.625 74.3468ZM153.495 76.1056L153.496 76.1054L152.382 71.4796L152.381 71.4798L153.495 76.1056ZM155.248 73.2232C148.858 47.3056 122.733 31.3696 96.7349 37.5986L97.8434 42.2255C121.297 36.6064 144.864 50.9824 150.628 74.3622L155.248 73.2232ZM96.7349 37.5986C70.7365 43.8276 54.67 69.8722 60.7189 95.8715L65.3531 94.7934C59.8964 71.3399 74.3903 47.8447 97.8434 42.2255L96.7349 37.5986ZM63.5864 97.6469L63.5875 97.6466L62.4845 93.0183L62.4833 93.0186L63.5864 97.6469ZM75.4537 136.956L65.3483 94.7784L60.7214 95.887L70.8267 138.064L75.4537 136.956ZM72.5942 135.195L72.5859 135.197L73.6945 139.824L73.7028 139.822L72.5942 135.195ZM70.8456 138.105C77.4763 163.686 103.407 179.342 129.214 173.159L128.106 168.532C104.826 174.11 81.4325 159.986 75.4513 136.911L70.8456 138.105ZM129.214 173.159C155.021 166.976 171.042 141.268 165.36 115.46L160.714 116.483C165.838 139.763 151.386 162.954 128.106 168.532L129.214 173.159ZM162.491 113.656L162.484 113.658L163.59 118.285L163.597 118.284L162.491 113.656ZM160.578 115.886L160.731 116.524L165.358 115.416L165.205 114.778L160.578 115.886Z" fill="black" mask="url(#path-5-inside-1_49_863)"/>
</g>
<path d="M145.069 128.659C144.968 127.43 143.711 126.745 142.645 127.165C140.13 128.156 131.81 131.308 125.944 132.115C119.507 133 109.76 131.925 106.938 131.574C105.791 131.432 104.768 132.418 104.966 133.616C105.353 135.961 106.152 138.222 107.326 140.293C108.636 142.603 110.388 144.632 112.482 146.265C114.576 147.898 116.971 149.103 119.531 149.81C122.09 150.517 124.764 150.713 127.399 150.387C130.035 150.061 132.58 149.219 134.89 147.91C137.2 146.6 139.229 144.848 140.862 142.754C142.495 140.66 143.7 138.265 144.407 135.705C145.041 133.412 145.264 131.026 145.069 128.659Z" fill="black" stroke="black" stroke-width="2.37895"/>
<mask id="mask2_49_863" style="mask-type:alpha" maskUnits="userSpaceOnUse" x="106" y="127" width="38" height="23">
<path d="M143.804 127.982C144.111 130.463 143.926 132.979 143.26 135.388C142.595 137.797 141.461 140.052 139.924 142.022C138.387 143.993 136.477 145.642 134.303 146.875C132.129 148.108 129.734 148.9 127.253 149.207C124.773 149.514 122.256 149.329 119.847 148.663C117.438 147.998 115.184 146.864 113.213 145.327C111.242 143.79 109.593 141.88 108.361 139.706C107.128 137.532 106.336 135.136 106.029 132.656L143.804 127.982Z" fill="#171921"/>
</mask>
<g mask="url(#mask2_49_863)">
<circle cx="127.585" cy="151.845" r="12.7868" transform="rotate(-7.05286 127.585 151.845)" fill="#FC909F"/>
</g>
<path d="M130.247 78.6327C133.617 77.0467 141.547 75.5995 146.305 82.4985" stroke="black" stroke-width="2.37895" stroke-linecap="round"/>
<path d="M85.3915 93.6835C86.623 90.1683 91.1498 83.4986 99.4052 84.9417" stroke="black" stroke-width="2.37895" stroke-linecap="round"/>
<path d="M159.722 48.5304C154.772 72.2587 96.2763 75.5908 84.4875 75.5908C53.5479 79.1157 68.3984 116.251 74.0796 134.767C69.6191 135.362 70.2139 140.715 52.9665 98.1909C39.1686 64.1719 78.2463 43.4378 107.279 36.3996C136.312 29.3614 147.424 19.451 147.424 19.451C159.722 24.5052 162.659 34.4482 159.722 48.5304Z" fill="black"/>
<path d="M156.723 92.2734L147.315 60.4909L153.285 55.0535C159.682 77.111 159.974 89.9193 156.723 92.2734Z" fill="black"/>
<path d="M82.6686 119.542C79.3381 103.365 70.9721 106.259 65.4212 107.052L59.4739 80.884L83.6109 75.8321C84.0581 75.6893 84.5366 75.5881 85.0476 75.5314L83.6109 75.8321C72.8157 79.2776 80.2638 106.931 89.2107 118.352L82.6686 119.542Z" fill="black"/>
<path d="M49.9516 58.5001C55.2123 55.8511 61.4252 57.3844 63.8741 58.4822L56.8735 67.3321C58.6787 64.4437 53.0111 60.2406 49.9516 58.5001Z" fill="black"/>
<path d="M41.0369 68.692C47.9358 64.6478 54.6167 66.0157 57.0948 67.2052L54.4184 76.4238C53.7048 71.428 45.2 69.1877 41.0369 68.692Z" fill="black"/>
<path fill-rule="evenodd" clip-rule="evenodd" d="M93.9968 102.659C94.0647 103.142 94.6793 103.25 95.0209 102.901C96.487 101.405 98.741 100.306 101.357 99.9949C102.901 99.8115 104.385 99.9243 105.708 100.276C106.157 100.395 106.597 100.016 106.441 99.5795C105.45 96.8166 102.655 95.0006 99.6163 95.3617C96.0829 95.7815 93.5589 98.9863 93.9787 102.52C93.9843 102.566 93.9903 102.613 93.9968 102.659Z" fill="black"/>
<path fill-rule="evenodd" clip-rule="evenodd" d="M132.118 96.7115C132.185 97.1951 132.8 97.303 133.142 96.9548C134.595 95.4764 136.824 94.3906 139.412 94.0831C140.937 93.9019 142.405 94.0127 143.713 94.3588C144.161 94.4774 144.602 94.0988 144.445 93.6623C143.461 90.9304 140.694 89.1358 137.687 89.4931C134.186 89.909 131.686 93.084 132.102 96.5846C132.107 96.627 132.112 96.6694 132.118 96.7115Z" fill="black"/>
<path d="M119.113 106.414C122.218 105.233 127.632 105.59 127.298 111.596C127.002 116.934 121.525 117.994 119.78 116.75" stroke="black" stroke-width="2.37895"/>
<path d="M74.0449 107.157C72.6592 106.701 71.1633 106.458 69.632 106.458C63.3912 106.458 58.332 110.324 58.9267 117.46C59.5462 124.895 63.9859 127.571 70.2267 127.571C70.9211 127.571 71.6009 127.51 72.2607 127.393C72.9807 127.266 73.6769 127.072 74.3423 126.818" stroke="black" stroke-width="4.75789"/>
<path d="M74.6397 126.7C73.2839 127.261 71.7925 127.571 70.2267 127.571C63.9859 127.571 59.5462 124.895 58.9267 117.46C58.332 110.324 63.3912 106.458 69.632 106.458C71.498 106.458 73.3114 106.818 74.937 107.486L74.6397 126.7Z" fill="#AC6651"/>
<path d="M72.2607 111.513C69.8817 110.423 64.648 109.848 62.7449 116.271" stroke="black" stroke-width="2.37895"/>
<path d="M66.0161 111.81C67.3047 112.901 69.763 116.271 69.2872 121.029" stroke="black" stroke-width="2.37895"/>
<path d="M136.523 196.53L136.607 196.549L136.692 196.556C164.124 198.819 180.574 211.004 192.513 227.784H29.9596C39.6537 210.333 53.4418 199.226 75.796 194.129C85.3198 191.958 96.4145 190.875 109.432 190.875C115.055 190.875 119.431 191.733 123.584 192.865C125.122 193.284 126.669 193.754 128.251 194.234C130.869 195.03 133.585 195.855 136.523 196.53Z" fill="#6BD9E9" stroke="black" stroke-width="2.37895"/>
<path d="M68.9477 195.419L74.3914 183.764C74.5214 183.486 74.8445 183.353 75.1342 183.456C97.6905 191.44 118.21 190.878 137.227 185.585C137.466 185.518 137.722 185.606 137.868 185.807L146.155 197.138C146.382 197.449 146.266 197.889 145.907 198.03C125.92 205.878 88.4149 204.544 69.2359 196.206C68.9317 196.074 68.8073 195.72 68.9477 195.419Z" fill="#D2EFF3" stroke="black" stroke-width="2.37895"/>
</g>
<defs>
<clipPath id="clip0_49_863">
<rect width="118.947" height="190.316" fill="white" transform="translate(53.5266 25.5736)"/>
</clipPath>
</defs>
</svg>
