<svg width="226" height="226" viewBox="0 0 226 226" fill="none" xmlns="http://www.w3.org/2000/svg">
<mask id="mask0_49_875" style="mask-type:alpha" maskUnits="userSpaceOnUse" x="0" y="0" width="226" height="226">
<circle cx="113" cy="113" r="113" fill="#FFEDEF"/>
</mask>
<g mask="url(#mask0_49_875)">
<g clip-path="url(#clip0_49_875)">
<path d="M145.115 215.592C136.551 203.698 129.85 180.701 129.057 169.203L88.3174 151.658L71.3674 215.592H145.115Z" fill="#F9C9B6" stroke="black" stroke-width="2.37895"/>
<mask id="mask1_49_875" style="mask-type:alpha" maskUnits="userSpaceOnUse" x="71" y="151" width="75" height="71">
<path d="M145.115 221.54C136.551 209.645 129.85 180.701 129.057 169.203L88.3174 151.658L71.3674 221.54H145.115Z" fill="#AC6651"/>
</mask>
<g mask="url(#mask1_49_875)">
<g style="mix-blend-mode:multiply">
<ellipse cx="127.273" cy="150.468" rx="35.0895" ry="32.1158" fill="black"/>
</g>
</g>
<mask id="path-5-inside-1_49_875" fill="white">
<path fill-rule="evenodd" clip-rule="evenodd" d="M162.89 115.332C162.874 115.262 162.857 115.193 162.841 115.123C162.824 115.054 162.807 114.984 162.79 114.915L153.039 74.2165C153.03 74.1756 153.02 74.1348 153.01 74.094C153 74.0531 152.99 74.0123 152.981 73.9715L152.938 73.7925L152.937 73.7927C146.86 49.144 122.014 33.988 97.2879 39.9121C72.5622 45.8361 57.282 70.606 63.0348 95.3324L63.0336 95.3327L73.139 137.51L73.1473 137.508C79.4532 161.836 104.115 176.726 128.659 170.845C153.202 164.965 168.439 140.515 163.036 115.972L163.043 115.97L162.89 115.332Z"/>
</mask>
<path fill-rule="evenodd" clip-rule="evenodd" d="M162.89 115.332C162.874 115.262 162.857 115.193 162.841 115.123C162.824 115.054 162.807 114.984 162.79 114.915L153.039 74.2165C153.03 74.1756 153.02 74.1348 153.01 74.094C153 74.0531 152.99 74.0123 152.981 73.9715L152.938 73.7925L152.937 73.7927C146.86 49.144 122.014 33.988 97.2879 39.9121C72.5622 45.8361 57.282 70.606 63.0348 95.3324L63.0336 95.3327L73.139 137.51L73.1473 137.508C79.4532 161.836 104.115 176.726 128.659 170.845C153.202 164.965 168.439 140.515 163.036 115.972L163.043 115.97L162.89 115.332Z" fill="#F9C9B6"/>
<path d="M162.89 115.332L160.574 115.876L160.577 115.886L162.89 115.332ZM162.79 114.915L160.477 115.469L160.479 115.479L162.79 114.915ZM153.039 74.2165L150.724 74.7647L150.726 74.7708L153.039 74.2165ZM153.01 74.094L150.697 74.6481L150.697 74.6483L153.01 74.094ZM152.981 73.9715L150.667 74.5258L150.669 74.532L152.981 73.9715ZM152.938 73.7925L155.251 73.2383L154.696 70.9222L152.381 71.4796L152.938 73.7925ZM152.937 73.7927L150.627 74.3622L151.193 76.6593L153.494 76.1056L152.937 73.7927ZM97.2879 39.9121L96.7336 37.5986L97.2879 39.9121ZM63.0348 95.3324L63.5863 97.6466L65.888 97.098L65.3518 94.7934L63.0348 95.3324ZM63.0336 95.3327L62.4821 93.0186L60.1652 93.5708L60.7202 95.887L63.0336 95.3327ZM73.139 137.51L70.8255 138.064L71.3798 140.378L73.6933 139.824L73.139 137.51ZM73.1473 137.508L75.4501 136.911L74.8641 134.651L72.5929 135.195L73.1473 137.508ZM128.659 170.845L128.104 168.532L128.659 170.845ZM163.036 115.972L162.482 113.658L160.21 114.201L160.712 116.483L163.036 115.972ZM163.043 115.97L163.596 118.284L165.911 117.73L165.356 115.416L163.043 115.97ZM165.206 114.788C165.189 114.715 165.172 114.642 165.154 114.569L160.527 115.678C160.543 115.744 160.559 115.81 160.574 115.876L165.206 114.788ZM165.154 114.569C165.137 114.496 165.119 114.423 165.101 114.35L160.479 115.479C160.495 115.545 160.511 115.611 160.527 115.678L165.154 114.569ZM150.726 74.7708L160.477 115.469L165.104 114.36L155.353 73.6622L150.726 74.7708ZM155.354 73.6683C155.344 73.6255 155.334 73.5826 155.323 73.5396L150.697 74.6483C150.706 74.687 150.715 74.7258 150.724 74.7647L155.354 73.6683ZM155.324 73.5398C155.313 73.4966 155.303 73.4537 155.292 73.411L150.669 74.532C150.678 74.5709 150.687 74.6096 150.697 74.6481L155.324 73.5398ZM150.624 74.3468L150.667 74.5258L155.294 73.4173L155.251 73.2383L150.624 74.3468ZM153.494 76.1056L153.494 76.1054L152.381 71.4796L152.38 71.4798L153.494 76.1056ZM155.247 73.2232C148.857 47.3056 122.732 31.3696 96.7336 37.5986L97.8422 42.2255C121.295 36.6064 144.863 50.9824 150.627 74.3622L155.247 73.2232ZM96.7336 37.5986C70.7353 43.8276 54.6688 69.8722 60.7177 95.8715L65.3518 94.7934C59.8952 71.3399 74.3891 47.8447 97.8422 42.2255L96.7336 37.5986ZM63.5852 97.6469L63.5863 97.6466L62.4832 93.0183L62.4821 93.0186L63.5852 97.6469ZM75.4525 136.956L65.3471 94.7784L60.7202 95.887L70.8255 138.064L75.4525 136.956ZM72.5929 135.195L72.5847 135.197L73.6933 139.824L73.7016 139.822L72.5929 135.195ZM70.8444 138.105C77.4751 163.686 103.406 179.342 129.213 173.159L128.104 168.532C104.824 174.11 81.4312 159.986 75.4501 136.911L70.8444 138.105ZM129.213 173.159C155.02 166.976 171.04 141.268 165.359 115.46L160.712 116.483C165.837 139.763 151.385 162.954 128.104 168.532L129.213 173.159ZM162.49 113.656L162.482 113.658L163.589 118.285L163.596 118.284L162.49 113.656ZM160.577 115.886L160.73 116.524L165.356 115.416L165.204 114.778L160.577 115.886Z" fill="black" mask="url(#path-5-inside-1_49_875)"/>
</g>
<path d="M122.515 130.661C124.993 129.274 135.005 127.509 135.005 131.554C135.005 136.609 128.165 136.311 128.165 136.311C128.165 136.311 135.924 134.431 134.41 139.88C132.923 145.232 128.76 143.151 127.571 142.556" stroke="black" stroke-width="2.37895"/>
<path d="M130.247 78.6326C133.617 77.0466 141.547 75.5994 146.304 82.4984" stroke="black" stroke-width="2.37895" stroke-linecap="round"/>
<path d="M85.3911 93.6834C86.6225 90.1682 91.1493 83.4985 99.4047 84.9416" stroke="black" stroke-width="2.37895" stroke-linecap="round"/>
<path d="M86.8749 90.0773L83.2183 86.85" stroke="black" stroke-width="2.37895" stroke-linecap="round"/>
<path d="M144.497 79.1932L148.154 75.9658" stroke="black" stroke-width="2.37895" stroke-linecap="round"/>
<path d="M90.7104 86.7209L88.3037 82.4789" stroke="black" stroke-width="2.37895" stroke-linecap="round"/>
<path d="M140.067 77.0263L142.474 72.7843" stroke="black" stroke-width="2.37895" stroke-linecap="round"/>
<path d="M95.5136 84.5717L94.2046 79.8734" stroke="black" stroke-width="2.37895" stroke-linecap="round"/>
<path d="M134.669 76.6613L135.978 71.963" stroke="black" stroke-width="2.37895" stroke-linecap="round"/>
<path d="M97.6652 70.7874C97.1978 69.7514 97.1974 69.7516 97.1969 69.7519L97.1955 69.7525L97.1911 69.7545L97.1762 69.7613L97.1227 69.7859C97.0855 69.8032 97.0349 69.8268 96.9716 69.8569C96.9564 69.8641 96.9405 69.8717 96.9238 69.8796C96.7518 69.9618 96.5026 70.0831 96.187 70.2432C95.5561 70.5633 94.6589 71.0385 93.5823 71.6648C91.4315 72.9159 88.5524 74.7766 85.6462 77.2144C79.8673 82.0617 73.7972 89.3491 73.4315 98.8034C73.2742 102.871 72.7656 122.521 72.8794 130.031C72.9752 136.355 76.2475 143.144 80.7871 149.405C84.7423 154.86 89.7375 160.02 94.6885 164.273C72.2278 165.161 55.2119 162.214 43.7128 158.988C37.7162 157.305 33.2177 155.546 30.228 154.214C29.0462 153.687 28.1002 153.227 27.3905 152.864C32.7993 148.889 37.3116 142.074 40.2889 131.959C43.5539 120.867 45.0017 105.719 43.7314 85.7409C42.5803 67.6384 51.3777 52.3444 64.6709 41.532C77.9779 30.7084 95.7102 24.4523 112.177 24.4523C121.088 24.4523 128.318 26.1972 134.146 30.4298C139.977 34.6639 144.549 41.4921 147.936 51.9418L148.171 52.667L148.931 52.7246C156.291 53.2825 161.467 56.3166 165.283 61.178C169.141 66.0916 171.652 72.9297 173.493 81.1433C174.706 86.5552 173.525 91.8954 172.105 98.0448L172.039 98.3316C170.648 104.349 169.102 111.043 169.782 118.869C170.395 125.914 173.206 132.827 175.543 138.144C175.843 138.827 176.134 139.48 176.411 140.103C177.229 141.939 177.928 143.51 178.4 144.792C178.716 145.652 178.899 146.302 178.957 146.763C178.987 146.999 178.977 147.121 178.968 147.172C178.704 147.417 178.214 147.687 177.431 147.926C176.617 148.175 175.591 148.358 174.413 148.473C172.057 148.703 169.213 148.65 166.48 148.387C163.743 148.123 161.184 147.656 159.39 147.086C158.48 146.796 157.85 146.506 157.495 146.254C157.441 146.216 157.399 146.183 157.367 146.156C157.589 145.391 157.909 144.478 158.278 143.423C160.178 137.996 163.39 128.821 161.313 116.737C160.07 109.507 156.754 96.74 153.764 85.8287C152.266 80.3625 150.845 75.345 149.799 71.6943C149.276 69.8688 148.846 68.3848 148.547 67.357C148.398 66.843 148.281 66.4431 148.202 66.1716L148.111 65.8623L148.088 65.7832L148.082 65.7632L148.081 65.7581L148.08 65.7568C148.08 65.7565 148.08 65.7563 146.99 66.077L148.08 65.7563L147.528 63.8775L146.171 65.2891L146.171 65.2893L146.17 65.2894L146.168 65.2917L146.157 65.3037L146.106 65.3558C146.059 65.4029 145.988 65.4744 145.893 65.5686C145.702 65.7569 145.414 66.036 145.033 66.3921C144.27 67.1045 143.132 68.1251 141.644 69.3451C138.667 71.7858 134.295 75.0208 128.728 78.1843C118.132 84.2061 103.243 89.9483 85.4188 89.5039C91.1368 84.1923 94.4267 79.8265 96.3118 76.6641C97.3628 74.9009 97.9761 73.5133 98.3298 72.5467C98.5065 72.0636 98.6182 71.6863 98.6871 71.4204C98.7215 71.2876 98.7453 71.1826 98.7611 71.1063C98.7691 71.0682 98.775 71.0373 98.7793 71.0136L98.7847 70.9835L98.7865 70.9726L98.7872 70.9682L98.7875 70.9662C98.7877 70.9653 98.7878 70.9644 97.6652 70.7874ZM97.6652 70.7874L97.1978 69.7514L99.1156 68.8862L98.7878 70.9644L97.6652 70.7874ZM96.5439 70.6023C96.544 70.6014 96.5439 70.6024 96.5433 70.6052L96.5434 70.6049L96.5439 70.6023ZM157.276 146.063C157.278 146.063 157.285 146.071 157.293 146.086C157.279 146.07 157.275 146.062 157.276 146.063Z" fill="#FC909F" stroke="black" stroke-width="2.27299"/>
<path d="M148.684 52.9315C148.981 55.6078 148.505 60.9605 147.792 64.5289" stroke="black" stroke-width="2.37895"/>
<ellipse cx="100.437" cy="99.5989" rx="5.35263" ry="5.94737" transform="rotate(-6.77646 100.437 99.5989)" fill="black"/>
<ellipse cx="138.519" cy="93.6493" rx="5.35263" ry="5.94737" transform="rotate(-6.27568 138.519 93.6493)" fill="black"/>
<path d="M119.112 106.414C122.217 105.233 127.631 105.59 127.298 111.596C127.002 116.934 121.525 117.994 119.78 116.75" stroke="black" stroke-width="2.37895"/>
<path d="M74.0442 107.157C72.6585 106.701 71.1625 106.458 69.6313 106.458C63.3905 106.458 58.3313 110.324 58.926 117.46C59.5455 124.895 63.9852 127.571 70.226 127.571C70.9204 127.571 71.6002 127.51 72.26 127.393C72.9799 127.266 73.6761 127.072 74.3416 126.818" stroke="black" stroke-width="4.75789"/>
<path d="M74.6389 126.7C73.2832 127.261 71.7918 127.571 70.226 127.571C63.9852 127.571 59.5455 124.895 58.926 117.46C58.3313 110.324 63.3905 106.458 69.6313 106.458C71.4972 106.458 73.3107 106.818 74.9363 107.486L74.6389 126.7Z" fill="#F9C9B6"/>
<path d="M72.2599 111.513C69.881 110.423 64.6473 109.848 62.7441 116.271" stroke="black" stroke-width="2.37895"/>
<path d="M66.0154 111.81C67.304 112.901 69.7622 116.271 69.2864 121.029" stroke="black" stroke-width="2.37895"/>
<circle cx="71.3675" cy="124.3" r="2.37895" fill="#6BD9E9"/>
<circle cx="71.9622" cy="123.705" r="0.594737" fill="#FFEDEF"/>
<path d="M192.317 227.703H30.0075C30.028 227.661 30.0487 227.619 30.0695 227.576C32.7724 222.072 37.7591 211.916 44.2492 202.83C47.9328 197.673 52.0568 192.925 56.4646 189.585C60.8729 186.245 65.4569 184.392 70.1138 184.8C79.0672 185.583 87.042 190.485 95.0482 195.407C95.8068 195.873 96.5657 196.34 97.3257 196.803C105.94 202.053 114.787 206.927 124.516 204.794C127.808 204.073 130.026 202.528 131.422 200.533C132.798 198.566 133.293 196.28 133.379 194.191C133.464 192.099 133.144 190.122 132.811 188.684C132.655 188.011 132.494 187.448 132.366 187.035C134.522 184.865 136.805 183.601 139.161 183.032C141.715 182.415 144.447 182.594 147.32 183.443C153.106 185.155 159.298 189.541 165.34 195.18C176.411 205.512 186.568 219.65 192.317 227.703Z" fill="#E0DDFF" stroke="black" stroke-width="2.54209"/>
</g>
<defs>
<clipPath id="clip0_49_875">
<rect width="118.947" height="190.316" fill="white" transform="translate(53.5254 25.5736)"/>
</clipPath>
</defs>
</svg>
