<svg width="226" height="226" viewBox="0 0 226 226" fill="none" xmlns="http://www.w3.org/2000/svg">
<mask id="mask0_49_888" style="mask-type:alpha" maskUnits="userSpaceOnUse" x="0" y="0" width="226" height="226">
<circle cx="113" cy="113" r="113" fill="#FFEDEF"/>
</mask>
<g mask="url(#mask0_49_888)">
<g clip-path="url(#clip0_49_888)">
<path d="M145.116 215.592C136.552 203.698 129.851 180.701 129.058 169.203L88.3187 151.658L71.3687 215.592H145.116Z" fill="#F9C9B6" stroke="black" stroke-width="2.37895"/>
<mask id="mask1_49_888" style="mask-type:alpha" maskUnits="userSpaceOnUse" x="71" y="151" width="75" height="71">
<path d="M145.116 221.54C136.552 209.645 129.851 180.701 129.058 169.203L88.3187 151.658L71.3687 221.54H145.116Z" fill="#AC6651"/>
</mask>
<g mask="url(#mask1_49_888)">
<g style="mix-blend-mode:multiply">
<ellipse cx="127.274" cy="150.468" rx="35.0895" ry="32.1158" fill="black"/>
</g>
</g>
<mask id="path-5-inside-1_49_888" fill="white">
<path fill-rule="evenodd" clip-rule="evenodd" d="M162.891 115.332C162.875 115.262 162.858 115.193 162.842 115.123C162.825 115.054 162.808 114.984 162.791 114.915L153.04 74.2165C153.031 74.1756 153.021 74.1348 153.011 74.094C153.001 74.0531 152.991 74.0123 152.981 73.9715L152.939 73.7925L152.938 73.7927C146.861 49.144 122.015 33.988 97.2889 39.9121C72.5632 45.8361 57.283 70.606 63.0358 95.3324L63.0346 95.3327L73.14 137.51L73.1482 137.508C79.4541 161.836 104.116 176.726 128.66 170.845C153.203 164.965 168.44 140.515 163.037 115.972L163.044 115.97L162.891 115.332Z"/>
</mask>
<path fill-rule="evenodd" clip-rule="evenodd" d="M162.891 115.332C162.875 115.262 162.858 115.193 162.842 115.123C162.825 115.054 162.808 114.984 162.791 114.915L153.04 74.2165C153.031 74.1756 153.021 74.1348 153.011 74.094C153.001 74.0531 152.991 74.0123 152.981 73.9715L152.939 73.7925L152.938 73.7927C146.861 49.144 122.015 33.988 97.2889 39.9121C72.5632 45.8361 57.283 70.606 63.0358 95.3324L63.0346 95.3327L73.14 137.51L73.1482 137.508C79.4541 161.836 104.116 176.726 128.66 170.845C153.203 164.965 168.44 140.515 163.037 115.972L163.044 115.97L162.891 115.332Z" fill="#F9C9B6"/>
<path d="M162.891 115.332L160.575 115.876L160.578 115.886L162.891 115.332ZM162.791 114.915L160.478 115.469L160.48 115.479L162.791 114.915ZM153.04 74.2165L150.725 74.7647L150.727 74.7708L153.04 74.2165ZM153.011 74.094L150.697 74.6481L150.698 74.6483L153.011 74.094ZM152.981 73.9715L150.668 74.5258L150.67 74.532L152.981 73.9715ZM152.939 73.7925L155.252 73.2383L154.697 70.9222L152.382 71.4796L152.939 73.7925ZM152.938 73.7927L150.628 74.3622L151.194 76.6593L153.495 76.1056L152.938 73.7927ZM97.2889 39.9121L96.7346 37.5986L97.2889 39.9121ZM63.0358 95.3324L63.5873 97.6466L65.889 97.098L65.3528 94.7934L63.0358 95.3324ZM63.0346 95.3327L62.4831 93.0186L60.1662 93.5708L60.7211 95.887L63.0346 95.3327ZM73.14 137.51L70.8265 138.064L71.3808 140.378L73.6943 139.824L73.14 137.51ZM73.1482 137.508L75.4511 136.911L74.8651 134.651L72.5939 135.195L73.1482 137.508ZM128.66 170.845L128.105 168.532L128.66 170.845ZM163.037 115.972L162.483 113.658L160.211 114.201L160.713 116.483L163.037 115.972ZM163.044 115.97L163.597 118.284L165.912 117.73L165.357 115.416L163.044 115.97ZM165.207 114.788C165.19 114.715 165.173 114.642 165.155 114.569L160.528 115.678C160.544 115.744 160.56 115.81 160.575 115.876L165.207 114.788ZM165.155 114.569C165.138 114.496 165.12 114.423 165.102 114.35L160.48 115.479C160.496 115.545 160.512 115.611 160.528 115.678L165.155 114.569ZM150.727 74.7708L160.478 115.469L165.105 114.36L155.354 73.6622L150.727 74.7708ZM155.355 73.6683C155.345 73.6255 155.335 73.5826 155.324 73.5396L150.698 74.6483C150.707 74.687 150.716 74.7258 150.725 74.7647L155.355 73.6683ZM155.325 73.5398C155.314 73.4966 155.304 73.4537 155.293 73.411L150.67 74.532C150.679 74.5709 150.688 74.6096 150.697 74.6481L155.325 73.5398ZM150.625 74.3468L150.668 74.5258L155.295 73.4173L155.252 73.2383L150.625 74.3468ZM153.495 76.1056L153.495 76.1054L152.382 71.4796L152.381 71.4798L153.495 76.1056ZM155.248 73.2232C148.858 47.3056 122.733 31.3696 96.7346 37.5986L97.8432 42.2255C121.296 36.6064 144.864 50.9824 150.628 74.3622L155.248 73.2232ZM96.7346 37.5986C70.7363 43.8276 54.6698 69.8722 60.7187 95.8715L65.3528 94.7934C59.8962 71.3399 74.3901 47.8447 97.8432 42.2255L96.7346 37.5986ZM63.5861 97.6469L63.5873 97.6466L62.4842 93.0183L62.4831 93.0186L63.5861 97.6469ZM75.4534 136.956L65.3481 94.7784L60.7211 95.887L70.8265 138.064L75.4534 136.956ZM72.5939 135.195L72.5856 135.197L73.6943 139.824L73.7026 139.822L72.5939 135.195ZM70.8454 138.105C77.4761 163.686 103.407 179.342 129.214 173.159L128.105 168.532C104.825 174.11 81.4322 159.986 75.4511 136.911L70.8454 138.105ZM129.214 173.159C155.021 166.976 171.041 141.268 165.36 115.46L160.713 116.483C165.838 139.763 151.385 162.954 128.105 168.532L129.214 173.159ZM162.491 113.656L162.483 113.658L163.59 118.285L163.597 118.284L162.491 113.656ZM160.578 115.886L160.73 116.524L165.357 115.416L165.205 114.778L160.578 115.886Z" fill="black" mask="url(#path-5-inside-1_49_888)"/>
</g>
<path d="M106.755 131.139C108.242 141.25 125.192 146.008 140.655 134.41" stroke="black" stroke-width="2.37895"/>
<path d="M130.248 78.6326C133.618 77.0466 141.548 75.5994 146.305 82.4984" stroke="black" stroke-width="2.37895" stroke-linecap="round"/>
<path d="M85.3918 93.6834C86.6233 90.1682 91.1501 83.4985 99.4054 84.9416" stroke="black" stroke-width="2.37895" stroke-linecap="round"/>
<ellipse cx="123.023" cy="52.4434" rx="4.07846" ry="10.9666" transform="rotate(117 123.023 52.4434)" fill="#FCFDFF"/>
<ellipse cx="100.438" cy="99.5989" rx="5.35263" ry="5.94737" transform="rotate(-6.77646 100.438 99.5989)" fill="black"/>
<ellipse cx="138.519" cy="93.6493" rx="5.35263" ry="5.94737" transform="rotate(-6.27568 138.519 93.6493)" fill="black"/>
<path d="M119.112 106.414C122.217 105.233 127.631 105.59 127.298 111.596C127.002 116.934 121.525 117.994 119.78 116.75" stroke="black" stroke-width="2.37895"/>
<path d="M74.0447 107.157C72.6589 106.701 71.163 106.458 69.6318 106.458C63.3909 106.458 58.3318 110.324 58.9265 117.46C59.546 124.895 63.9857 127.571 70.2265 127.571C70.9209 127.571 71.6007 127.51 72.2605 127.393C72.9804 127.266 73.6766 127.072 74.3421 126.818" stroke="black" stroke-width="4.75789"/>
<path d="M74.6394 126.7C73.2837 127.261 71.7923 127.571 70.2265 127.571C63.9857 127.571 59.546 124.895 58.9265 117.46C58.3318 110.324 63.3909 106.458 69.6318 106.458C71.4977 106.458 73.3112 106.818 74.9368 107.486L74.6394 126.7Z" fill="#F9C9B6"/>
<path d="M72.2604 111.513C69.8815 110.423 64.6478 109.848 62.7446 116.271" stroke="black" stroke-width="2.37895"/>
<path d="M66.0156 111.81C67.3042 112.901 69.7625 116.271 69.2867 121.029" stroke="black" stroke-width="2.37895"/>
<path d="M112.864 213.854C112.864 213.854 112.864 213.854 113.595 212.915L112.864 213.854L113.888 214.651L114.593 213.562L114.593 213.562L114.594 213.56L114.6 213.552L114.624 213.514C114.646 213.481 114.68 213.43 114.724 213.363C114.814 213.229 114.948 213.031 115.123 212.778C115.473 212.272 115.987 211.548 116.638 210.683C117.943 208.949 119.789 206.66 121.963 204.421C124.143 202.177 126.618 200.02 129.175 198.519C131.742 197.012 134.278 196.232 136.63 196.55C161.87 199.953 180.444 211.132 192.501 227.784H29.9594C39.6534 210.334 53.4416 199.226 75.7958 194.129C76.7485 193.912 78.0437 193.978 79.6631 194.355C81.2659 194.727 83.0932 195.382 85.064 196.248C89.0051 197.981 93.4047 200.507 97.5391 203.124C101.667 205.737 105.5 208.421 108.304 210.453C109.704 211.469 110.846 212.32 111.637 212.918C112.033 213.216 112.34 213.451 112.549 213.611C112.653 213.691 112.732 213.752 112.785 213.793L112.845 213.839L112.859 213.85L112.863 213.853L112.864 213.854Z" fill="#9287FF" stroke="black" stroke-width="2.37895"/>
<path d="M68.7589 195.719L71.8317 184.281C71.9561 183.818 72.5554 183.687 72.879 184.041C81.7187 193.714 92.8737 193.335 96.5762 192.891C97.0788 192.831 97.4724 193.38 97.2363 193.828L89.4113 208.669C89.2914 208.896 89.0459 209.021 88.7942 208.969C86.4458 208.48 74.7448 205.62 68.8279 196.184C68.7413 196.046 68.7166 195.876 68.7589 195.719Z" fill="#E0DDFF" stroke="black" stroke-width="2.37895"/>
<path d="M146.421 195.657L139.533 184.07C139.3 183.677 138.723 183.683 138.474 184.067C135.062 189.322 129.178 191.743 127.12 192.458C126.75 192.587 126.58 193.027 126.78 193.364L134.81 206.933C134.93 207.135 135.157 207.245 135.383 207.181C136.652 206.819 141.009 204.997 146.413 196.276C146.529 196.088 146.533 195.847 146.421 195.657Z" fill="#E0DDFF" stroke="black" stroke-width="2.37895"/>
<path d="M102.592 206.076L97.2393 193.289L93.0762 202.21L102.592 206.076Z" fill="black" stroke="black" stroke-width="2.37895" stroke-linejoin="round"/>
<path d="M121.326 205.482L126.679 192.695L130.842 201.616L121.326 205.482Z" fill="black" stroke="black" stroke-width="2.37895" stroke-linejoin="round"/>
<path d="M79.3971 181.989L72.2603 183.774L78.2076 187.639L79.3971 181.989Z" fill="black" stroke="black" stroke-width="2.37895" stroke-linejoin="round"/>
<path d="M132.626 181.989L139.168 183.774L135.005 187.639L132.626 181.989Z" fill="black" stroke="black" stroke-width="2.37895" stroke-linejoin="round"/>
</g>
<defs>
<clipPath id="clip0_49_888">
<rect width="118.947" height="190.316" fill="white" transform="translate(53.5264 25.5736)"/>
</clipPath>
</defs>
</svg>
