<svg width="80" height="80" viewBox="0 0 80 80" fill="none" xmlns="http://www.w3.org/2000/svg">
<path fill-rule="evenodd" clip-rule="evenodd" d="M26.0848 3.62867C26.9782 3.22534 28.0037 3.23562 28.8888 3.65678L34.376 6.2679L38.6459 3.7851C39.6818 3.1828 40.9612 3.1828 41.997 3.7851L46.267 6.2679L51.7542 3.65678C52.676 3.21814 53.748 3.22607 54.6631 3.6783L61.4765 7.04496C62.6135 7.60679 63.3331 8.76514 63.3331 10.0334V55C63.3331 62.2324 60.399 67.8605 55.8838 71.6233C51.445 75.3222 45.6542 77.0834 39.9998 77.0834C34.3454 77.0834 28.5547 75.3222 24.1159 71.6233C19.6006 67.8605 16.6665 62.2324 16.6665 55V10.0334C16.6665 8.72317 17.434 7.53449 18.6282 6.99534L26.0848 3.62867ZM23.3332 26.6667V55C23.3332 60.2677 25.399 64.0145 28.3838 66.5018C31.445 69.0528 35.6543 70.4167 39.9998 70.4167C44.3454 70.4167 48.5546 69.0528 51.6159 66.5018C54.6006 64.0145 56.6665 60.2677 56.6665 55V26.6667H23.3332ZM56.6665 20H23.3332V12.1857L27.4197 10.3407L33.0992 13.0433C34.0928 13.5161 35.2558 13.4681 36.207 12.915L40.3215 10.5226L44.4359 12.915C45.3872 13.4681 46.5502 13.5161 47.5438 13.0433L53.1591 10.3712L56.6665 12.1043V20ZM29.9998 58.3334C29.9998 56.4924 31.4922 55 33.3332 55H46.6665C48.5074 55 49.9998 56.4924 49.9998 58.3334C49.9998 60.1743 48.5074 61.6667 46.6665 61.6667H33.3332C31.4922 61.6667 29.9998 60.1743 29.9998 58.3334Z" fill="#D0D0D0"/>
<path fill-rule="evenodd" clip-rule="evenodd" d="M40 38.3334C38.1591 38.3334 36.6667 39.8258 36.6667 41.6668C36.6667 43.5077 38.1591 45.0001 40 45.0001C41.841 45.0001 43.3333 43.5077 43.3333 41.6668C43.3333 39.8258 41.841 38.3334 40 38.3334ZM30 41.6668C30 36.1439 34.4772 31.6667 40 31.6667C45.5229 31.6667 50 36.1439 50 41.6668C50 47.1896 45.5229 51.6668 40 51.6668C34.4772 51.6668 30 47.1896 30 41.6668Z" fill="#D0D0D0"/>
</svg>
