<svg width="92" height="22" viewBox="0 0 92 22" fill="none" xmlns="http://www.w3.org/2000/svg">
<path d="M9.91088 9.68905C10.1689 8.28124 9.45537 7.02115 7.95013 7.14043C5.90834 7.30247 4.48755 11.4817 8.83131 12.8724C12.3924 14.0127 14.9851 11.373 19.0879 7.30017C28.255 -1.80014 39.3243 -2.68278 46.0748 6.50394C48.8571 1.46908 59.8245 -6.92388 76.5706 10.4855C82.7224 16.8808 88.2191 10.8664 85.2077 7.56576C83.8378 6.0643 81.1602 8.16108 82.5086 9.68905H82.2385C75.9534 4.20765 89.0819 -0.914319 91.6835 8.36199C94.3716 22.3247 79.3941 24.5945 67.3956 19.508C44.2057 8.09499 43.9583 11.161 21.5151 20.5698C14.6273 23.3464 6.19188 21.76 2.7868 18.5494C-1.25742 14.7365 -1.0073 5.67537 4.24281 3.84965C9.6011 1.73591 14.1343 6.26114 9.91088 9.68905Z" fill="white"/>
</svg>
