<svg width="80" height="80" viewBox="0 0 80 80" fill="none" xmlns="http://www.w3.org/2000/svg">
<path d="M40.0002 6.66663C22.2335 21.8333 13.3335 34.9333 13.3335 46C13.3335 62.5999 26.0002 73.3333 40.0002 73.3333C54.0002 73.3333 66.6668 62.5999 66.6668 46C66.6668 34.9333 57.7668 21.8333 40.0002 6.66663ZM26.1002 46.6666C27.3335 46.6666 28.3335 47.5333 28.5668 48.7333C29.9335 56.1333 36.1668 58.6666 40.7002 58.2999C42.1335 58.2333 43.3335 59.3666 43.3335 60.7999C43.3335 62.1333 42.2668 63.2333 40.9335 63.2999C33.8335 63.7333 25.5335 59.6666 23.6335 49.5666C23.5756 49.2092 23.596 48.8435 23.6932 48.4948C23.7905 48.1461 23.9624 47.8226 24.197 47.5469C24.4316 47.2711 24.7232 47.0495 25.0518 46.8976C25.3804 46.7456 25.7381 46.6668 26.1002 46.6666Z" fill="#D0D0D0"/>
</svg>
