<svg width="80" height="80" viewBox="0 0 80 80" fill="none" xmlns="http://www.w3.org/2000/svg">
<g clip-path="url(#clip0_51_6157)">
<path d="M24.4844 40H2.5C1.125 40 0 41.125 0 42.5V47.5C0 48.875 1.125 50 2.5 50H24.7188C27.2031 50 29.5313 51.7032 29.9375 54.1563C30.4531 57.2813 28.0469 60 25 60C22.7969 60 20.9219 58.5625 20.25 56.5782C19.9219 55.5938 18.9062 55 17.875 55H12.75C11.2188 55 9.98438 56.375 10.2656 57.875C11.6094 64.7657 17.7031 70 24.9844 70C33.9062 70 41.0312 62.1719 39.8594 53.0313C38.9062 45.4688 32.0938 40 24.4844 40ZM2.5 35H55C64.3281 35 71.6875 26.4375 69.6562 16.7657C68.4688 11.1094 63.8906 6.53128 58.2344 5.34378C49.5781 3.53128 41.8125 9.23441 40.2812 17.1407C39.9844 18.6407 41.2344 20 42.75 20H47.875C48.9219 20 49.9219 19.4063 50.25 18.4219C50.9219 16.4375 52.7969 15 55 15C58.0312 15 60.4531 17.7188 59.9375 20.8438C59.5312 23.2969 57.2188 25 54.7188 25H2.5C1.125 25 0 26.125 0 27.5V32.5C0 33.875 1.125 35 2.5 35ZM62.5 40H38.0781C41.0938 42.5938 43.2656 46.0625 44.2969 50H62.5C66.6406 50 70 53.3594 70 57.5C70 61.6407 66.6406 65 62.5 65C59.7031 65 57.2969 63.4532 56 61.1875C55.5469 60.4063 54.6406 60 53.7344 60H48.4531C46.75 60 45.4844 61.6875 46.0625 63.2969C48.8437 71.2032 57.0781 76.5469 66.2812 74.5938C72.7188 73.2344 78.0156 68.0938 79.5156 61.6719C82.1875 50.2344 73.5156 40 62.5 40Z" fill="#D0D0D0"/>
</g>
<defs>
<clipPath id="clip0_51_6157">
<rect width="80" height="80" fill="white"/>
</clipPath>
</defs>
</svg>
