<svg id="Layer_1" data-name="Layer 1" xmlns="http://www.w3.org/2000/svg" width="176.25" height="250" viewBox="0 0 176.25 250"><title>ByPW copy</title><path d="M162.55,3A10.67,10.67,0,0,1,173.21,13.7V236.28A10.67,10.67,0,0,1,162.55,247H13.71A10.67,10.67,0,0,1,3.05,236.28V13.7A10.67,10.67,0,0,1,13.71,3H162.55m0-3H13.71A13.7,13.7,0,0,0,0,13.7V236.28A13.7,13.7,0,0,0,13.71,250H162.55a13.71,13.71,0,0,0,13.7-13.71V13.7A13.71,13.71,0,0,0,162.55,0Z" style="fill:#f2f2f2"/><path d="M19,217.65V195.12H27.7A8.23,8.23,0,0,1,33,196.64a5.32,5.32,0,0,1,1.9,4.4,5.08,5.08,0,0,1-1.08,3.3,5.84,5.84,0,0,1-2.91,1.92V206a5.6,5.6,0,0,1,3.31,1.85,6.26,6.26,0,0,1-.72,8.22A8.43,8.43,0,0,1,28,217.65ZM21,205.34h6.46a6.5,6.5,0,0,0,4.11-1.11A3.89,3.89,0,0,0,32.92,201a3.68,3.68,0,0,0-1.36-3.11,6.66,6.66,0,0,0-4.14-1.06H21ZM21,216h6.93a6.69,6.69,0,0,0,4.2-1.07,4,4,0,0,0,1.34-3.32,4.13,4.13,0,0,0-1.36-3.36,6.42,6.42,0,0,0-4.18-1.14H21Z" style="fill:#fff"/><path d="M45.11,218.38,38.05,201.8h2.06l6.07,14.71Zm-6,6.45-.38-1.51a13.42,13.42,0,0,0,2.47-.83,5.05,5.05,0,0,0,1.69-1.23,7.41,7.41,0,0,0,1.22-2l1-2.24.38-.48,6.14-14.71h1.93l-7.44,17.5a11.31,11.31,0,0,1-1.85,3A7.16,7.16,0,0,1,42,224,13.89,13.89,0,0,1,39.16,224.83Z" style="fill:#fff"/><path d="M65.11,217.65V195.12h8.64a8,8,0,0,1,5.31,1.64A5.63,5.63,0,0,1,81,201.29a5.72,5.72,0,0,1-1.93,4.56,7.81,7.81,0,0,1-5.31,1.67H67v10.13ZM67,205.82h6.61a5.93,5.93,0,0,0,4-1.19A4.24,4.24,0,0,0,79,201.29,4.19,4.19,0,0,0,77.66,198a6,6,0,0,0-4-1.17H67Z" style="fill:#fff"/><path d="M84.86,217.65V206.2c0-.72,0-1.45,0-2.2a19.52,19.52,0,0,0-.21-2.2h1.84l.31,3.79-.31-.06a5,5,0,0,1,1.94-3.07,5.58,5.58,0,0,1,3.31-1c.27,0,.52,0,.74,0a6.37,6.37,0,0,1,.65.09L93,203.32a5.75,5.75,0,0,0-1.49-.16,4.26,4.26,0,0,0-4.29,2.77,6.74,6.74,0,0,0-.45,2.42v9.3Z" style="fill:#fff"/><path d="M101.88,217.87a7.05,7.05,0,0,1-3.84-1A6.83,6.83,0,0,1,95.49,214a10.77,10.77,0,0,1,0-8.71A6.83,6.83,0,0,1,98,202.43a7.75,7.75,0,0,1,7.65,0,6.74,6.74,0,0,1,2.54,2.86,11,11,0,0,1,0,8.71,6.74,6.74,0,0,1-2.54,2.86A7,7,0,0,1,101.88,217.87Zm0-1.71a4.76,4.76,0,0,0,3.91-1.67,9.14,9.14,0,0,0,0-9.66,5.29,5.29,0,0,0-7.77,0,7.37,7.37,0,0,0-1.41,4.81,7.47,7.47,0,0,0,1.38,4.85A4.76,4.76,0,0,0,101.85,216.16Z" style="fill:#fff"/><path d="M109.1,222.59c.31.08.59.15.84.19a4.34,4.34,0,0,0,.71.06,3.38,3.38,0,0,0,1.37-.27,2,2,0,0,0,1-1,4.69,4.69,0,0,0,.36-2.07V201.8h1.93v18.07a4.76,4.76,0,0,1-1.19,3.59,4.33,4.33,0,0,1-3.11,1.12,7.3,7.3,0,0,1-1.9-.25Zm4-27.34h2.57v2.46h-2.57Z" style="fill:#fff"/><path d="M133.31,215.69a7.13,7.13,0,0,1-2.63,1.6,9.67,9.67,0,0,1-3.32.58,8.25,8.25,0,0,1-4.15-1,6.64,6.64,0,0,1-2.69-2.81,10.58,10.58,0,0,1,0-8.74,6.91,6.91,0,0,1,2.61-2.89,7.16,7.16,0,0,1,3.86-1,6.7,6.7,0,0,1,3.54.9,5.83,5.83,0,0,1,2.28,2.61,9.79,9.79,0,0,1,.79,4.15v.41H121.28l0-1.46h11.3l-.73,1.23a7.08,7.08,0,0,0-1.16-4.65A4.38,4.38,0,0,0,127,203a4.79,4.79,0,0,0-3.94,1.76,7.39,7.39,0,0,0-1.44,4.82,7.26,7.26,0,0,0,1.47,4.91,5.34,5.34,0,0,0,4.25,1.67,7.7,7.7,0,0,0,2.74-.47,8.7,8.7,0,0,0,2.52-1.49Z" style="fill:#fff"/><path d="M144.16,217.87a7.3,7.3,0,0,1-3.94-1,6.88,6.88,0,0,1-2.58-2.86,10.45,10.45,0,0,1,0-8.62,6.85,6.85,0,0,1,2.61-2.91,7.36,7.36,0,0,1,3.95-1,8.59,8.59,0,0,1,3.06.55,6.7,6.7,0,0,1,2.45,1.54L149,205a10.23,10.23,0,0,0-2.34-1.45,5.83,5.83,0,0,0-2.34-.48,5.05,5.05,0,0,0-4,1.76,7.25,7.25,0,0,0-1.5,4.86,7,7,0,0,0,1.49,4.76,5.1,5.1,0,0,0,4,1.69,6,6,0,0,0,2.32-.46,9.66,9.66,0,0,0,2.36-1.43l.76,1.48a7.26,7.26,0,0,1-2.5,1.55A8.52,8.52,0,0,1,144.16,217.87Z" style="fill:#fff"/><path d="M150.9,203.35V201.8h9.75v1.55Zm9.65,12.5v1.74a7.76,7.76,0,0,1-1,.19,9.06,9.06,0,0,1-1.09.06,4.15,4.15,0,0,1-4.47-4.68V197.59l1.93-.73v15.92a4.69,4.69,0,0,0,.37,2.05,2,2,0,0,0,1,1,3.6,3.6,0,0,0,1.47.28,5.75,5.75,0,0,0,.89-.06A6,6,0,0,0,160.55,215.85Z" style="fill:#fff"/><path d="M89.45,64.94c6,6.12,12,12.15,17.83,18-5.39,10.54-10.64,20.9-15.62,30.81h0c-1.49-.07-3-.11-4.44-.11a69.1,69.1,0,0,0-29.5,6.12c4.66-4.66,9.44-9.45,14.15-14.18a8.21,8.21,0,0,0,2.35.35,8,8,0,0,0,5.71-2.4,8.91,8.91,0,0,0,2.53-6.42v-.21A8,8,0,0,0,77.59,90,8.57,8.57,0,0,0,74,89.21a8.1,8.1,0,0,0-5.25,2,7.8,7.8,0,0,0-2.59,8.65C61.88,104.15,57.62,108.4,53,113a60.09,60.09,0,0,0,3.62-12,89.64,89.64,0,0,0,1.68-20.74v-.1l.08,0c9.07-4.37,18.94-9.18,31-15.12m.31-3.29a2.79,2.79,0,0,0-1.21.34Q72.85,69.72,57.1,77.32a2.75,2.75,0,0,0-1.79,3,85.7,85.7,0,0,1-1.63,20c-1.51,7.4-3.86,14.43-8.85,20.31-.95,1.11-.33,1.77.46,2.56a1.31,1.31,0,0,0,.92.49,1.79,1.79,0,0,0,1.15-.69q10.47-10.51,21-21a2.45,2.45,0,0,0,.77-3,4.74,4.74,0,0,1,1.63-5.48A5.05,5.05,0,0,1,74,92.25a5.57,5.57,0,0,1,2.29.53,5,5,0,0,1,3.07,4.3,5.41,5.41,0,0,1-5.2,5.76,5.21,5.21,0,0,1-1.75-.31,2.84,2.84,0,0,0-1-.2,2.18,2.18,0,0,0-1.57.82q-10.28,10.35-20.6,20.64c-.34.34-.67.7-1,1.06a.69.69,0,0,0-.14.84,2.24,2.24,0,0,0,2,1.3,2.15,2.15,0,0,0,1.19-.36c11-7.07,23.05-10,35.8-10,1.42,0,2.85,0,4.29.1h.32a2.45,2.45,0,0,0,2.51-1.56q7.88-15.69,15.88-31.32a2,2,0,0,0-.41-2.75q-9.35-9.3-18.58-18.72a2,2,0,0,0-1.45-.74Z" style="fill:#f2f2f2"/><path d="M99.54,43.24,129,71.39l-.61.45L125,74.3l-5.55-5.44-7.66-7.51-.74-.73c-4.57-4.48-9.29-9.1-14-13.66.53-.78,1-1.56,1.55-2.32l.93-1.4m-.35-4.08c-.41,0-.77.33-1.23,1-1.4,2-2.74,4.12-4.14,6.15A1.26,1.26,0,0,0,94,48.25q7.84,7.61,15.64,15.27l13.9,13.63c.39.38.75.81,1.24.81a1.26,1.26,0,0,0,.77-.3c2.26-1.71,4.55-3.36,6.83-5a1.31,1.31,0,0,0,.64-1.16,2.32,2.32,0,0,0-.88-1.21Q116.33,55.1,100.49,39.94c-.54-.51-.94-.78-1.3-.78Z" style="fill:#f2f2f2"/><path d="M92.52,53.74l10,9.78,4.37,4.3L111.1,72l7.31,7.18-2,1.5Q108,72.2,99.6,63.73l-3.48-3.51-1.57-1.59c-1-1-2.08-2.12-3.16-3.19l1.09-1.64,0-.06m-.4-4.35c-.29,0-.54.31-1,1-.92,1.35-1.79,2.73-2.73,4.07A1.74,1.74,0,0,0,88.64,57c1.8,1.76,3.55,3.57,5.32,5.36q10.31,10.4,20.61,20.8c.45.46.85,1,1.39,1h0a2.06,2.06,0,0,0,1.38-.53l4.06-3c1.66-1.23,1.66-1.23.15-2.72L109,65.65Q101.1,57.9,93.2,50.15c-.51-.5-.81-.76-1.08-.76Z" style="fill:#f2f2f2"/></svg>