<svg id="Layer_1" data-name="Layer 1" xmlns="http://www.w3.org/2000/svg" width="175.82" height="250" viewBox="0 0 175.82 250"><title>BySW copy</title><path d="M41.81,217.5V195h8.65a8.22,8.22,0,0,1,5.27,1.51,5.3,5.3,0,0,1,1.89,4.39,5.07,5.07,0,0,1-1.07,3.3,5.8,5.8,0,0,1-2.9,1.91v-.25a5.55,5.55,0,0,1,3.29,1.85,6.22,6.22,0,0,1-.71,8.2,8.4,8.4,0,0,1-5.46,1.57Zm1.92-12.28h6.44a6.5,6.5,0,0,0,4.11-1.11,3.93,3.93,0,0,0,1.39-3.25,3.71,3.71,0,0,0-1.36-3.11,6.68,6.68,0,0,0-4.14-1.06H43.73Zm0,10.6h6.92a6.71,6.71,0,0,0,4.18-1.07,4,4,0,0,0,1.34-3.32,4.1,4.1,0,0,0-1.36-3.34A6.36,6.36,0,0,0,50.65,207H43.73Z" style="fill:#fff"/><path d="M67.82,218.22l-7-16.54h2l6.06,14.68Zm-5.94,6.44-.37-1.51a13.6,13.6,0,0,0,2.46-.82,5.33,5.33,0,0,0,1.69-1.24,7.19,7.19,0,0,0,1.21-2l.95-2.24.38-.47,6.12-14.68h1.93l-7.42,17.46a11,11,0,0,1-1.85,3,6.88,6.88,0,0,1-2.3,1.69A13.5,13.5,0,0,1,61.88,224.66Z" style="fill:#fff"/><path d="M94.69,217.75a15.41,15.41,0,0,1-3.22-.32,11,11,0,0,1-2.74-1,10.2,10.2,0,0,1-2.32-1.66l.82-1.54a10.92,10.92,0,0,0,3.4,2.11,11.92,11.92,0,0,0,4.09.63,7.32,7.32,0,0,0,4.42-1.17,3.84,3.84,0,0,0,1.58-3.28,2.68,2.68,0,0,0-.83-2.08,5.65,5.65,0,0,0-2.14-1.2c-.89-.3-1.85-.57-2.91-.82s-2-.46-2.9-.75a11.87,11.87,0,0,1-2.59-1.1,5.36,5.36,0,0,1-1.85-1.75,5.09,5.09,0,0,1-.68-2.75,5.87,5.87,0,0,1,1-3.33,6.23,6.23,0,0,1,2.74-2.23,10.57,10.57,0,0,1,4.25-.78,12.45,12.45,0,0,1,2.9.33,10.22,10.22,0,0,1,2.59,1,9.52,9.52,0,0,1,2.15,1.61l-.82,1.55a10.94,10.94,0,0,0-3.22-2.08,9.42,9.42,0,0,0-3.6-.67,7.1,7.1,0,0,0-4.42,1.22,4,4,0,0,0-1.58,3.39,3.21,3.21,0,0,0,.73,2.2,4.9,4.9,0,0,0,2,1.31,26,26,0,0,0,2.73.85c1,.23,2,.48,3,.74a14.27,14.27,0,0,1,2.74,1,5.3,5.3,0,0,1,2,1.64,4.49,4.49,0,0,1,.74,2.7,5.5,5.5,0,0,1-1,3.25A6.44,6.44,0,0,1,99,217,10.84,10.84,0,0,1,94.69,217.75Z" style="fill:#fff"/><path d="M106.81,217.5V194.26h1.92V217.5Zm10.61,0-9.1-8.09,8.31-7.73h2.55L110.06,210l.06-1.42L120,217.5Z" style="fill:#fff"/><path d="M122.25,195.14h2.55v2.47h-2.55Zm.28,22.36V201.68h1.93V217.5Z" style="fill:#fff"/><path d="M129.73,217.5V194.26h1.92V217.5Z" style="fill:#fff"/><path d="M136.93,217.5V194.26h1.92V217.5Z" style="fill:#fff"/><path d="M106.74,41.36h.11c.65.09,1.31.16,2,.24l.7.08a14.41,14.41,0,0,0,1.2,5.36,8.5,8.5,0,0,0,7.88,5.22,9.85,9.85,0,0,0,2.07-.22A15.31,15.31,0,0,0,125,50.44h0c.36.49.74,1,1.11,1.44.21.26.41.51.61.78a15.41,15.41,0,0,0-2.7,4.06,8.57,8.57,0,0,0,3.11,11.05,14.53,14.53,0,0,0,4.32,2c-.11.81-.2,1.61-.29,2.39l-.05.42h0A13.27,13.27,0,0,0,125.26,74a8.45,8.45,0,0,0-4.62,9.15A14.42,14.42,0,0,0,122.3,88l0,.08,0,0-2.13,1.66-.06,0-.09-.07a12.91,12.91,0,0,0-5.64-3.22,9.48,9.48,0,0,0-2.27-.29,8.32,8.32,0,0,0-6.54,3.25,13.57,13.57,0,0,0-2.54,4.9,1.09,1.09,0,0,1-.05.14h-.13c-.88-.09-1.77-.19-2.66-.31v0a12.94,12.94,0,0,0-2-6.76,8.2,8.2,0,0,0-7.08-3.79,11.28,11.28,0,0,0-1.62.13,14.71,14.71,0,0,0-4.78,1.67l-.88-1.13L83,83.2v0l0,0a13.06,13.06,0,0,0,3.26-5.66,8.33,8.33,0,0,0-3-8.88,13.54,13.54,0,0,0-5-2.54,3.66,3.66,0,0,0,.07-.87l.06-.38c.07-.5.14-1,.21-1.54a15.42,15.42,0,0,0,4.84-1A8.7,8.7,0,0,0,89,51.93a16.1,16.1,0,0,0-1.57-4.13l2.22-1.74A12.77,12.77,0,0,0,95,49.27a9.62,9.62,0,0,0,2.6.38,8.33,8.33,0,0,0,6.82-3.6,14.65,14.65,0,0,0,2.27-4.6l0-.09m-2,39.28h0a12.72,12.72,0,0,0,9.09-21.7,12.58,12.58,0,0,0-9-3.74,12.72,12.72,0,0,0-.16,25.44h0m1.94-42.32a2.91,2.91,0,0,0-2.92,2.28A11.12,11.12,0,0,1,102,44.22a5.36,5.36,0,0,1-4.39,2.39,6.72,6.72,0,0,1-1.78-.26,10.27,10.27,0,0,1-4.19-2.53A3,3,0,0,0,89.6,43a3,3,0,0,0-1.82.63l-2.31,1.81a3,3,0,0,0-.76,3.79A13,13,0,0,1,86,52.64a5.63,5.63,0,0,1-3.61,6.82,13.08,13.08,0,0,1-4,.78,2.93,2.93,0,0,0-2.82,2.69c-.08.7-.19,1.39-.29,2.09a1.18,1.18,0,0,1-.07.62,3.38,3.38,0,0,0,0,1.23l.19.42a2.93,2.93,0,0,0,2,1.68,10.53,10.53,0,0,1,3.92,2,5.28,5.28,0,0,1,2,5.76,10.12,10.12,0,0,1-2.53,4.35,3,3,0,0,0-.19,4c.6.75,1.18,1.51,1.78,2.26a3,3,0,0,0,2.3,1.12,2.76,2.76,0,0,0,1.36-.35A11.82,11.82,0,0,1,90,86.73a7.65,7.65,0,0,1,1.16-.09,5.18,5.18,0,0,1,4.54,2.41,10.07,10.07,0,0,1,1.49,5.23,3,3,0,0,0,2.61,2.9c.92.12,1.85.23,2.77.32a3.4,3.4,0,0,0,.45,0,2.92,2.92,0,0,0,3-2.32,10.71,10.71,0,0,1,2-3.81,5.36,5.36,0,0,1,4.21-2.16,5.94,5.94,0,0,1,1.52.2A9.79,9.79,0,0,1,118,91.93a3,3,0,0,0,4.07.22l2.15-1.68a3,3,0,0,0,.79-4,11.51,11.51,0,0,1-1.33-3.82,5.43,5.43,0,0,1,3-6,10.22,10.22,0,0,1,4.51-1.08,3,3,0,0,0,3-2.69c.11-.93.21-1.87.34-2.81a3,3,0,0,0-2.09-3.25,11.11,11.11,0,0,1-3.53-1.62A5.56,5.56,0,0,1,126.78,58,12.59,12.59,0,0,1,129,54.65a2.92,2.92,0,0,0,.15-3.78c-.58-.75-1.18-1.48-1.74-2.23a2.95,2.95,0,0,0-3.84-.88A12.76,12.76,0,0,1,120,49.08a6.53,6.53,0,0,1-1.43.16,5.45,5.45,0,0,1-5.11-3.44,11.17,11.17,0,0,1-.94-4.34A2.94,2.94,0,0,0,110,38.69c-.92-.11-1.84-.2-2.76-.33a3.6,3.6,0,0,0-.56,0Zm-1.93,39.29h0a9.69,9.69,0,0,1,.15-19.37h0a9.69,9.69,0,1,1-.13,19.37Z" style="fill:#f2f2f2"/><path d="M59.75,80.36A10.53,10.53,0,0,0,62.57,84,6.91,6.91,0,0,0,67,85.63a7.7,7.7,0,0,0,3.47-.88,10.74,10.74,0,0,0,3.11-2.41c.26.14.51.29.76.44a10.88,10.88,0,0,0-.63,3.91,7.25,7.25,0,0,0,5.77,7,12.81,12.81,0,0,0,2.81.3h.44c.06.28.13.56.2.85a10.26,10.26,0,0,0-3.12,2.25,7.23,7.23,0,0,0-.62,9.54,12.41,12.41,0,0,0,1.78,2l-.36.59-.09.17a10.43,10.43,0,0,0-3.54-.65,8.66,8.66,0,0,0-1.44.12,7.25,7.25,0,0,0-6,6.14,13.09,13.09,0,0,0-.19,2.79l-.85.21a13,13,0,0,0-1.68-2.54,7.39,7.39,0,0,0-5.62-2.73A7.73,7.73,0,0,0,57,114a11.43,11.43,0,0,0-2.38,2l-.39-.22-.38-.22a10.07,10.07,0,0,0,.52-5,7.06,7.06,0,0,0-5.3-5.84,10.69,10.69,0,0,0-3-.42c-.2,0-.4,0-.61,0l-.07-.28-.14-.57a11.56,11.56,0,0,0,2.32-1.49A7.28,7.28,0,0,0,49,91.62a12,12,0,0,0-1.68-1.9l.1-.17.34-.59a11,11,0,0,0,3.55.63,9.39,9.39,0,0,0,1.19-.08,7,7,0,0,0,6-5.28,10.89,10.89,0,0,0,.42-3.4v-.24l.23-.06.34-.09.27-.08m4.37,29.15h0a10.23,10.23,0,0,0,7.32-3,10.35,10.35,0,1,0-7.32,3m-3.9-32.34a1.84,1.84,0,0,0-.41,0c-.49.11-1,.24-1.44.37-2.26.6-2.55,1-2.49,3.31a8.07,8.07,0,0,1-.3,2.45,4,4,0,0,1-3.52,3.15,5.46,5.46,0,0,1-.8,0,8.21,8.21,0,0,1-3-.61,2.8,2.8,0,0,0-1-.18,2.22,2.22,0,0,0-1.92,1.14c-.37.6-.72,1.21-1.07,1.82a2.25,2.25,0,0,0,.5,2.92,8.87,8.87,0,0,1,1.65,1.76,4.31,4.31,0,0,1-.81,6.33,9.63,9.63,0,0,1-2.15,1.3,2.22,2.22,0,0,0-1.31,2.74l.51,2a2.21,2.21,0,0,0,2.19,1.72h.27a7.25,7.25,0,0,1,.93,0,7.36,7.36,0,0,1,2.13.3,4,4,0,0,1,3.16,3.39,7.27,7.27,0,0,1-.52,3.83,2.28,2.28,0,0,0,1,3c.56.34,1.13.65,1.69,1a2.56,2.56,0,0,0,1.3.38,2.28,2.28,0,0,0,1.79-.9,8.45,8.45,0,0,1,2-1.8,4.73,4.73,0,0,1,2.54-.8,4.36,4.36,0,0,1,3.32,1.68A10.19,10.19,0,0,1,66,119.86a2.23,2.23,0,0,0,2,1.33,2.2,2.2,0,0,0,.56-.07c.7-.16,1.4-.34,2.09-.53a2.23,2.23,0,0,0,1.72-2.46,10,10,0,0,1,.12-2.62,4.19,4.19,0,0,1,3.5-3.63,5.15,5.15,0,0,1,1-.08,8,8,0,0,1,3,.64,2.46,2.46,0,0,0,.91.18,2.23,2.23,0,0,0,1.94-1.13l1-1.77a2.28,2.28,0,0,0-.49-3,9.64,9.64,0,0,1-1.7-1.85A4.19,4.19,0,0,1,82,99.15,7.34,7.34,0,0,1,84.6,97.4,2.28,2.28,0,0,0,86,94.51c-.15-.52-.28-1.05-.4-1.59a2.25,2.25,0,0,0-2.41-2h-.9a9.75,9.75,0,0,1-2.15-.22,4.2,4.2,0,0,1-3.4-4.1,8.56,8.56,0,0,1,.64-3.31,2.24,2.24,0,0,0-.86-2.75l-1.68-1a3.1,3.1,0,0,0-1.5-.49,2.46,2.46,0,0,0-1.85,1.06A7.79,7.79,0,0,1,69.1,82a4.64,4.64,0,0,1-2.1.55,4,4,0,0,1-2.52-1,8.1,8.1,0,0,1-2.22-3,2.31,2.31,0,0,0-2-1.41Zm3.9,29.31h0a7.3,7.3,0,0,1-.05-14.59h0a7.3,7.3,0,1,1,0,14.59Z" style="fill:#f2f2f2"/><path d="M90.56,111.57a9.4,9.4,0,0,0,1.67,1.83,6.37,6.37,0,0,0,4.12,1.53,6.88,6.88,0,0,0,4.3-1.58,9.94,9.94,0,0,0,1.06-1,9,9,0,0,0-.15,1.84,6.44,6.44,0,0,0,6.16,6.55c.33,0,.67,0,1,0H109a8.53,8.53,0,0,0-2.32,2.36,6.17,6.17,0,0,0-.39,6.26,8.5,8.5,0,0,0,1.9,2.53,10.11,10.11,0,0,0-1.65-.14h0a6.47,6.47,0,0,0-6.74,6.2,10.88,10.88,0,0,0,0,1.26,11,11,0,0,0-1.17-1.36,6.7,6.7,0,0,0-4.66-2,6.8,6.8,0,0,0-4.33,1.65,12.13,12.13,0,0,0-1,.92,10,10,0,0,0,.1-2.51,6.44,6.44,0,0,0-6.07-5.89c-.39,0-.75,0-1.07,0h-.28a8.33,8.33,0,0,0,2.52-2.69,6.15,6.15,0,0,0,.2-5.87,8.52,8.52,0,0,0-1.92-2.59,10.14,10.14,0,0,0,1.66.13H84a6.43,6.43,0,0,0,6.46-6,11.88,11.88,0,0,0,.06-1.45m4.64,22.77a8.92,8.92,0,0,0,0-17.84h-.1a8.92,8.92,0,0,0,0,17.84h.09m-4.3-26.41a1.92,1.92,0,0,0-.61.11l-1.65.56a1.78,1.78,0,0,0-1.22,2,7.78,7.78,0,0,1,.06,2.1A3.4,3.4,0,0,1,84,116h-.18a7.1,7.1,0,0,1-2.15-.33,1.9,1.9,0,0,0-.61-.1,1.78,1.78,0,0,0-1.6,1c-.25.49-.48,1-.7,1.48a1.76,1.76,0,0,0,.65,2.48,6,6,0,0,1,1.93,2.24,3.13,3.13,0,0,1-.09,3,6.17,6.17,0,0,1-2.59,2.29,1.77,1.77,0,0,0-.87,2.06c.19.62.4,1.24.62,1.84a1.82,1.82,0,0,0,1.68,1.19,2,2,0,0,0,.34,0,6.12,6.12,0,0,1,1.21-.11q.42,0,.84,0a3.38,3.38,0,0,1,3.27,3.12,6.57,6.57,0,0,1-.28,2.64,1.82,1.82,0,0,0,1,2.35l1.43.71a1.91,1.91,0,0,0,.86.21,1.81,1.81,0,0,0,1.46-.78,8.24,8.24,0,0,1,1.37-1.46,3.78,3.78,0,0,1,2.4-1,3.64,3.64,0,0,1,2.55,1.15,7.21,7.21,0,0,1,1.34,1.81,1.72,1.72,0,0,0,1.56,1,1.85,1.85,0,0,0,.56-.08c.56-.16,1.11-.36,1.66-.53a1.84,1.84,0,0,0,1.3-2.12,6.67,6.67,0,0,1-.08-1.89,3.46,3.46,0,0,1,3.74-3.43h0a7,7,0,0,1,2.09.34,2.18,2.18,0,0,0,.6.09,1.76,1.76,0,0,0,1.61-1c.23-.44.44-.89.66-1.33a1.85,1.85,0,0,0-.66-2.67,6,6,0,0,1-1.87-2.16,3.15,3.15,0,0,1,.2-3.28,6.15,6.15,0,0,1,2.35-2,1.79,1.79,0,0,0,1-2.2c-.15-.54-.35-1.07-.52-1.61a1.83,1.83,0,0,0-1.75-1.34l-.31,0a7.68,7.68,0,0,1-1.27.1c-.24,0-.49,0-.73,0a3.47,3.47,0,0,1-3.39-3.62,9.36,9.36,0,0,1,.44-2.57v-.21a1.34,1.34,0,0,0,0-.2,2.5,2.5,0,0,0-.54-1.18l-1.86-1a2.36,2.36,0,0,0-1-.28,1.87,1.87,0,0,0-1.52.9A6.86,6.86,0,0,1,98.75,111a3.84,3.84,0,0,1-2.4.91,3.36,3.36,0,0,1-2.17-.82A6.67,6.67,0,0,1,92.54,109a1.83,1.83,0,0,0-1.64-1Zm4.3,23.37h-.06a5.88,5.88,0,0,1,0-11.76h.07a5.88,5.88,0,0,1,0,11.76Z" style="fill:#f2f2f2"/><path d="M162.54,3A10.67,10.67,0,0,1,173.2,13.7V236.28A10.67,10.67,0,0,1,162.54,247H13.7A10.67,10.67,0,0,1,3,236.28V13.7A10.67,10.67,0,0,1,13.7,3H162.54m0-3H13.7A13.71,13.71,0,0,0,0,13.7V236.28A13.71,13.71,0,0,0,13.7,250H162.54a13.7,13.7,0,0,0,13.7-13.71V13.7A13.7,13.7,0,0,0,162.54,0Z" style="fill:#f2f2f2"/></svg>